G04 #@! TF.FileFunction,Legend,Bot*
%FSLAX46Y46*%
G04 Gerber Fmt 4.6, Leading zero omitted, Abs format (unit mm)*
G04 Created by KiCad (PCBNEW 4.0.5) date 05/03/17 08:17:14*
%MOMM*%
%LPD*%
G01*
G04 APERTURE LIST*
%ADD10C,0.100000*%
%ADD11C,0.300000*%
%ADD12C,0.010000*%
G04 APERTURE END LIST*
D10*
D11*
X126534856Y-54648571D02*
X126677714Y-54577143D01*
X126749142Y-54505714D01*
X126820571Y-54362857D01*
X126820571Y-53934286D01*
X126749142Y-53791429D01*
X126677714Y-53720000D01*
X126534856Y-53648571D01*
X126320571Y-53648571D01*
X126177714Y-53720000D01*
X126106285Y-53791429D01*
X126034856Y-53934286D01*
X126034856Y-54362857D01*
X126106285Y-54505714D01*
X126177714Y-54577143D01*
X126320571Y-54648571D01*
X126534856Y-54648571D01*
X125391999Y-53648571D02*
X125391999Y-55148571D01*
X125391999Y-53720000D02*
X125249142Y-53648571D01*
X124963428Y-53648571D01*
X124820571Y-53720000D01*
X124749142Y-53791429D01*
X124677713Y-53934286D01*
X124677713Y-54362857D01*
X124749142Y-54505714D01*
X124820571Y-54577143D01*
X124963428Y-54648571D01*
X125249142Y-54648571D01*
X125391999Y-54577143D01*
X123463428Y-54577143D02*
X123606285Y-54648571D01*
X123891999Y-54648571D01*
X124034856Y-54577143D01*
X124106285Y-54434286D01*
X124106285Y-53862857D01*
X124034856Y-53720000D01*
X123891999Y-53648571D01*
X123606285Y-53648571D01*
X123463428Y-53720000D01*
X123391999Y-53862857D01*
X123391999Y-54005714D01*
X124106285Y-54148571D01*
X122749142Y-53648571D02*
X122749142Y-54648571D01*
X122749142Y-53791429D02*
X122677714Y-53720000D01*
X122534856Y-53648571D01*
X122320571Y-53648571D01*
X122177714Y-53720000D01*
X122106285Y-53862857D01*
X122106285Y-54648571D01*
X120320571Y-54577143D02*
X120177714Y-54648571D01*
X119891999Y-54648571D01*
X119749142Y-54577143D01*
X119677714Y-54434286D01*
X119677714Y-54362857D01*
X119749142Y-54220000D01*
X119891999Y-54148571D01*
X120106285Y-54148571D01*
X120249142Y-54077143D01*
X120320571Y-53934286D01*
X120320571Y-53862857D01*
X120249142Y-53720000D01*
X120106285Y-53648571D01*
X119891999Y-53648571D01*
X119749142Y-53720000D01*
X118820570Y-54648571D02*
X118963428Y-54577143D01*
X119034856Y-54505714D01*
X119106285Y-54362857D01*
X119106285Y-53934286D01*
X119034856Y-53791429D01*
X118963428Y-53720000D01*
X118820570Y-53648571D01*
X118606285Y-53648571D01*
X118463428Y-53720000D01*
X118391999Y-53791429D01*
X118320570Y-53934286D01*
X118320570Y-54362857D01*
X118391999Y-54505714D01*
X118463428Y-54577143D01*
X118606285Y-54648571D01*
X118820570Y-54648571D01*
X117034856Y-53648571D02*
X117034856Y-54648571D01*
X117677713Y-53648571D02*
X117677713Y-54434286D01*
X117606285Y-54577143D01*
X117463427Y-54648571D01*
X117249142Y-54648571D01*
X117106285Y-54577143D01*
X117034856Y-54505714D01*
X116320570Y-54648571D02*
X116320570Y-53648571D01*
X116320570Y-53934286D02*
X116249142Y-53791429D01*
X116177713Y-53720000D01*
X116034856Y-53648571D01*
X115891999Y-53648571D01*
X114749142Y-54577143D02*
X114891999Y-54648571D01*
X115177713Y-54648571D01*
X115320571Y-54577143D01*
X115391999Y-54505714D01*
X115463428Y-54362857D01*
X115463428Y-53934286D01*
X115391999Y-53791429D01*
X115320571Y-53720000D01*
X115177713Y-53648571D01*
X114891999Y-53648571D01*
X114749142Y-53720000D01*
X113534857Y-54577143D02*
X113677714Y-54648571D01*
X113963428Y-54648571D01*
X114106285Y-54577143D01*
X114177714Y-54434286D01*
X114177714Y-53862857D01*
X114106285Y-53720000D01*
X113963428Y-53648571D01*
X113677714Y-53648571D01*
X113534857Y-53720000D01*
X113463428Y-53862857D01*
X113463428Y-54005714D01*
X114177714Y-54148571D01*
X124856285Y-57198571D02*
X124856285Y-55698571D01*
X124213428Y-57198571D02*
X124213428Y-56412857D01*
X124284857Y-56270000D01*
X124427714Y-56198571D01*
X124641999Y-56198571D01*
X124784857Y-56270000D01*
X124856285Y-56341429D01*
X122856285Y-57198571D02*
X122856285Y-56412857D01*
X122927714Y-56270000D01*
X123070571Y-56198571D01*
X123356285Y-56198571D01*
X123499142Y-56270000D01*
X122856285Y-57127143D02*
X122999142Y-57198571D01*
X123356285Y-57198571D01*
X123499142Y-57127143D01*
X123570571Y-56984286D01*
X123570571Y-56841429D01*
X123499142Y-56698571D01*
X123356285Y-56627143D01*
X122999142Y-56627143D01*
X122856285Y-56555714D01*
X122141999Y-57198571D02*
X122141999Y-56198571D01*
X122141999Y-56484286D02*
X122070571Y-56341429D01*
X121999142Y-56270000D01*
X121856285Y-56198571D01*
X121713428Y-56198571D01*
X120570571Y-57198571D02*
X120570571Y-55698571D01*
X120570571Y-57127143D02*
X120713428Y-57198571D01*
X120999142Y-57198571D01*
X121142000Y-57127143D01*
X121213428Y-57055714D01*
X121284857Y-56912857D01*
X121284857Y-56484286D01*
X121213428Y-56341429D01*
X121142000Y-56270000D01*
X120999142Y-56198571D01*
X120713428Y-56198571D01*
X120570571Y-56270000D01*
X119999142Y-56198571D02*
X119713428Y-57198571D01*
X119427714Y-56484286D01*
X119141999Y-57198571D01*
X118856285Y-56198571D01*
X117641999Y-57198571D02*
X117641999Y-56412857D01*
X117713428Y-56270000D01*
X117856285Y-56198571D01*
X118141999Y-56198571D01*
X118284856Y-56270000D01*
X117641999Y-57127143D02*
X117784856Y-57198571D01*
X118141999Y-57198571D01*
X118284856Y-57127143D01*
X118356285Y-56984286D01*
X118356285Y-56841429D01*
X118284856Y-56698571D01*
X118141999Y-56627143D01*
X117784856Y-56627143D01*
X117641999Y-56555714D01*
X116927713Y-57198571D02*
X116927713Y-56198571D01*
X116927713Y-56484286D02*
X116856285Y-56341429D01*
X116784856Y-56270000D01*
X116641999Y-56198571D01*
X116499142Y-56198571D01*
X115427714Y-57127143D02*
X115570571Y-57198571D01*
X115856285Y-57198571D01*
X115999142Y-57127143D01*
X116070571Y-56984286D01*
X116070571Y-56412857D01*
X115999142Y-56270000D01*
X115856285Y-56198571D01*
X115570571Y-56198571D01*
X115427714Y-56270000D01*
X115356285Y-56412857D01*
X115356285Y-56555714D01*
X116070571Y-56698571D01*
X176260143Y-54022571D02*
X175403000Y-54022571D01*
X175831571Y-55522571D02*
X175831571Y-54022571D01*
X174331572Y-55451143D02*
X174474429Y-55522571D01*
X174760143Y-55522571D01*
X174903000Y-55451143D01*
X174974429Y-55308286D01*
X174974429Y-54736857D01*
X174903000Y-54594000D01*
X174760143Y-54522571D01*
X174474429Y-54522571D01*
X174331572Y-54594000D01*
X174260143Y-54736857D01*
X174260143Y-54879714D01*
X174974429Y-55022571D01*
X172974429Y-55451143D02*
X173117286Y-55522571D01*
X173403000Y-55522571D01*
X173545858Y-55451143D01*
X173617286Y-55379714D01*
X173688715Y-55236857D01*
X173688715Y-54808286D01*
X173617286Y-54665429D01*
X173545858Y-54594000D01*
X173403000Y-54522571D01*
X173117286Y-54522571D01*
X172974429Y-54594000D01*
X172331572Y-55522571D02*
X172331572Y-54022571D01*
X171688715Y-55522571D02*
X171688715Y-54736857D01*
X171760144Y-54594000D01*
X171903001Y-54522571D01*
X172117286Y-54522571D01*
X172260144Y-54594000D01*
X172331572Y-54665429D01*
X170974429Y-54522571D02*
X170974429Y-55522571D01*
X170974429Y-54665429D02*
X170903001Y-54594000D01*
X170760143Y-54522571D01*
X170545858Y-54522571D01*
X170403001Y-54594000D01*
X170331572Y-54736857D01*
X170331572Y-55522571D01*
X169403000Y-55522571D02*
X169545858Y-55451143D01*
X169617286Y-55379714D01*
X169688715Y-55236857D01*
X169688715Y-54808286D01*
X169617286Y-54665429D01*
X169545858Y-54594000D01*
X169403000Y-54522571D01*
X169188715Y-54522571D01*
X169045858Y-54594000D01*
X168974429Y-54665429D01*
X168903000Y-54808286D01*
X168903000Y-55236857D01*
X168974429Y-55379714D01*
X169045858Y-55451143D01*
X169188715Y-55522571D01*
X169403000Y-55522571D01*
X168331572Y-55451143D02*
X168188715Y-55522571D01*
X167903000Y-55522571D01*
X167760143Y-55451143D01*
X167688715Y-55308286D01*
X167688715Y-55236857D01*
X167760143Y-55094000D01*
X167903000Y-55022571D01*
X168117286Y-55022571D01*
X168260143Y-54951143D01*
X168331572Y-54808286D01*
X168331572Y-54736857D01*
X168260143Y-54594000D01*
X168117286Y-54522571D01*
X167903000Y-54522571D01*
X167760143Y-54594000D01*
X167045857Y-55522571D02*
X167045857Y-54022571D01*
X166403000Y-55522571D02*
X166403000Y-54736857D01*
X166474429Y-54594000D01*
X166617286Y-54522571D01*
X166831571Y-54522571D01*
X166974429Y-54594000D01*
X167045857Y-54665429D01*
X165688714Y-55522571D02*
X165688714Y-54522571D01*
X165688714Y-54022571D02*
X165760143Y-54094000D01*
X165688714Y-54165429D01*
X165617286Y-54094000D01*
X165688714Y-54022571D01*
X165688714Y-54165429D01*
X164403000Y-55451143D02*
X164545857Y-55522571D01*
X164831571Y-55522571D01*
X164974428Y-55451143D01*
X165045857Y-55308286D01*
X165045857Y-54736857D01*
X164974428Y-54594000D01*
X164831571Y-54522571D01*
X164545857Y-54522571D01*
X164403000Y-54594000D01*
X164331571Y-54736857D01*
X164331571Y-54879714D01*
X165045857Y-55022571D01*
X163474428Y-55522571D02*
X163617286Y-55451143D01*
X163688714Y-55308286D01*
X163688714Y-54022571D01*
X162260143Y-55522571D02*
X162260143Y-54022571D01*
X162260143Y-55451143D02*
X162403000Y-55522571D01*
X162688714Y-55522571D01*
X162831572Y-55451143D01*
X162903000Y-55379714D01*
X162974429Y-55236857D01*
X162974429Y-54808286D01*
X162903000Y-54665429D01*
X162831572Y-54594000D01*
X162688714Y-54522571D01*
X162403000Y-54522571D01*
X162260143Y-54594000D01*
X160403000Y-54951143D02*
X159260143Y-54951143D01*
X157403000Y-54022571D02*
X157403000Y-55236857D01*
X157331572Y-55379714D01*
X157260143Y-55451143D01*
X157117286Y-55522571D01*
X156831572Y-55522571D01*
X156688714Y-55451143D01*
X156617286Y-55379714D01*
X156545857Y-55236857D01*
X156545857Y-54022571D01*
X155903000Y-55451143D02*
X155760143Y-55522571D01*
X155474428Y-55522571D01*
X155331571Y-55451143D01*
X155260143Y-55308286D01*
X155260143Y-55236857D01*
X155331571Y-55094000D01*
X155474428Y-55022571D01*
X155688714Y-55022571D01*
X155831571Y-54951143D01*
X155903000Y-54808286D01*
X155903000Y-54736857D01*
X155831571Y-54594000D01*
X155688714Y-54522571D01*
X155474428Y-54522571D01*
X155331571Y-54594000D01*
X154045857Y-55451143D02*
X154188714Y-55522571D01*
X154474428Y-55522571D01*
X154617285Y-55451143D01*
X154688714Y-55308286D01*
X154688714Y-54736857D01*
X154617285Y-54594000D01*
X154474428Y-54522571D01*
X154188714Y-54522571D01*
X154045857Y-54594000D01*
X153974428Y-54736857D01*
X153974428Y-54879714D01*
X154688714Y-55022571D01*
X153331571Y-55522571D02*
X153331571Y-54522571D01*
X153331571Y-54808286D02*
X153260143Y-54665429D01*
X153188714Y-54594000D01*
X153045857Y-54522571D01*
X152903000Y-54522571D01*
X151260143Y-55522571D02*
X151260143Y-54022571D01*
X150545857Y-54522571D02*
X150545857Y-55522571D01*
X150545857Y-54665429D02*
X150474429Y-54594000D01*
X150331571Y-54522571D01*
X150117286Y-54522571D01*
X149974429Y-54594000D01*
X149903000Y-54736857D01*
X149903000Y-55522571D01*
X149403000Y-54522571D02*
X148831571Y-54522571D01*
X149188714Y-54022571D02*
X149188714Y-55308286D01*
X149117286Y-55451143D01*
X148974428Y-55522571D01*
X148831571Y-55522571D01*
X147760143Y-55451143D02*
X147903000Y-55522571D01*
X148188714Y-55522571D01*
X148331571Y-55451143D01*
X148403000Y-55308286D01*
X148403000Y-54736857D01*
X148331571Y-54594000D01*
X148188714Y-54522571D01*
X147903000Y-54522571D01*
X147760143Y-54594000D01*
X147688714Y-54736857D01*
X147688714Y-54879714D01*
X148403000Y-55022571D01*
X147045857Y-55522571D02*
X147045857Y-54522571D01*
X147045857Y-54808286D02*
X146974429Y-54665429D01*
X146903000Y-54594000D01*
X146760143Y-54522571D01*
X146617286Y-54522571D01*
X146331572Y-54522571D02*
X145760143Y-54522571D01*
X146117286Y-55522571D02*
X146117286Y-54236857D01*
X146045858Y-54094000D01*
X145903000Y-54022571D01*
X145760143Y-54022571D01*
X144617286Y-55522571D02*
X144617286Y-54736857D01*
X144688715Y-54594000D01*
X144831572Y-54522571D01*
X145117286Y-54522571D01*
X145260143Y-54594000D01*
X144617286Y-55451143D02*
X144760143Y-55522571D01*
X145117286Y-55522571D01*
X145260143Y-55451143D01*
X145331572Y-55308286D01*
X145331572Y-55165429D01*
X145260143Y-55022571D01*
X145117286Y-54951143D01*
X144760143Y-54951143D01*
X144617286Y-54879714D01*
X143260143Y-55451143D02*
X143403000Y-55522571D01*
X143688714Y-55522571D01*
X143831572Y-55451143D01*
X143903000Y-55379714D01*
X143974429Y-55236857D01*
X143974429Y-54808286D01*
X143903000Y-54665429D01*
X143831572Y-54594000D01*
X143688714Y-54522571D01*
X143403000Y-54522571D01*
X143260143Y-54594000D01*
X142045858Y-55451143D02*
X142188715Y-55522571D01*
X142474429Y-55522571D01*
X142617286Y-55451143D01*
X142688715Y-55308286D01*
X142688715Y-54736857D01*
X142617286Y-54594000D01*
X142474429Y-54522571D01*
X142188715Y-54522571D01*
X142045858Y-54594000D01*
X141974429Y-54736857D01*
X141974429Y-54879714D01*
X142688715Y-55022571D01*
X175545857Y-57286857D02*
X175331571Y-57358286D01*
X175260143Y-57429714D01*
X175188714Y-57572571D01*
X175188714Y-57786857D01*
X175260143Y-57929714D01*
X175331571Y-58001143D01*
X175474429Y-58072571D01*
X176045857Y-58072571D01*
X176045857Y-56572571D01*
X175545857Y-56572571D01*
X175403000Y-56644000D01*
X175331571Y-56715429D01*
X175260143Y-56858286D01*
X175260143Y-57001143D01*
X175331571Y-57144000D01*
X175403000Y-57215429D01*
X175545857Y-57286857D01*
X176045857Y-57286857D01*
X174331571Y-58072571D02*
X174474429Y-58001143D01*
X174545857Y-57929714D01*
X174617286Y-57786857D01*
X174617286Y-57358286D01*
X174545857Y-57215429D01*
X174474429Y-57144000D01*
X174331571Y-57072571D01*
X174117286Y-57072571D01*
X173974429Y-57144000D01*
X173903000Y-57215429D01*
X173831571Y-57358286D01*
X173831571Y-57786857D01*
X173903000Y-57929714D01*
X173974429Y-58001143D01*
X174117286Y-58072571D01*
X174331571Y-58072571D01*
X172545857Y-58072571D02*
X172545857Y-57286857D01*
X172617286Y-57144000D01*
X172760143Y-57072571D01*
X173045857Y-57072571D01*
X173188714Y-57144000D01*
X172545857Y-58001143D02*
X172688714Y-58072571D01*
X173045857Y-58072571D01*
X173188714Y-58001143D01*
X173260143Y-57858286D01*
X173260143Y-57715429D01*
X173188714Y-57572571D01*
X173045857Y-57501143D01*
X172688714Y-57501143D01*
X172545857Y-57429714D01*
X171831571Y-58072571D02*
X171831571Y-57072571D01*
X171831571Y-57358286D02*
X171760143Y-57215429D01*
X171688714Y-57144000D01*
X171545857Y-57072571D01*
X171403000Y-57072571D01*
X170260143Y-58072571D02*
X170260143Y-56572571D01*
X170260143Y-58001143D02*
X170403000Y-58072571D01*
X170688714Y-58072571D01*
X170831572Y-58001143D01*
X170903000Y-57929714D01*
X170974429Y-57786857D01*
X170974429Y-57358286D01*
X170903000Y-57215429D01*
X170831572Y-57144000D01*
X170688714Y-57072571D01*
X170403000Y-57072571D01*
X170260143Y-57144000D01*
X167545857Y-58072571D02*
X168045857Y-57358286D01*
X168403000Y-58072571D02*
X168403000Y-56572571D01*
X167831572Y-56572571D01*
X167688714Y-56644000D01*
X167617286Y-56715429D01*
X167545857Y-56858286D01*
X167545857Y-57072571D01*
X167617286Y-57215429D01*
X167688714Y-57286857D01*
X167831572Y-57358286D01*
X168403000Y-57358286D01*
X166331572Y-58001143D02*
X166474429Y-58072571D01*
X166760143Y-58072571D01*
X166903000Y-58001143D01*
X166974429Y-57858286D01*
X166974429Y-57286857D01*
X166903000Y-57144000D01*
X166760143Y-57072571D01*
X166474429Y-57072571D01*
X166331572Y-57144000D01*
X166260143Y-57286857D01*
X166260143Y-57429714D01*
X166974429Y-57572571D01*
X165760143Y-57072571D02*
X165403000Y-58072571D01*
X165045858Y-57072571D01*
X164474429Y-57929714D02*
X164403001Y-58001143D01*
X164474429Y-58072571D01*
X164545858Y-58001143D01*
X164474429Y-57929714D01*
X164474429Y-58072571D01*
X164474429Y-57144000D02*
X164403001Y-57215429D01*
X164474429Y-57286857D01*
X164545858Y-57215429D01*
X164474429Y-57144000D01*
X164474429Y-57286857D01*
X162688715Y-57644000D02*
X161974429Y-57644000D01*
X162831572Y-58072571D02*
X162331572Y-56572571D01*
X161831572Y-58072571D01*
X176045857Y-63172571D02*
X176045857Y-61672571D01*
X175688714Y-61672571D01*
X175474429Y-61744000D01*
X175331571Y-61886857D01*
X175260143Y-62029714D01*
X175188714Y-62315429D01*
X175188714Y-62529714D01*
X175260143Y-62815429D01*
X175331571Y-62958286D01*
X175474429Y-63101143D01*
X175688714Y-63172571D01*
X176045857Y-63172571D01*
X173974429Y-63101143D02*
X174117286Y-63172571D01*
X174403000Y-63172571D01*
X174545857Y-63101143D01*
X174617286Y-62958286D01*
X174617286Y-62386857D01*
X174545857Y-62244000D01*
X174403000Y-62172571D01*
X174117286Y-62172571D01*
X173974429Y-62244000D01*
X173903000Y-62386857D01*
X173903000Y-62529714D01*
X174617286Y-62672571D01*
X174117286Y-61601143D02*
X174331571Y-61815429D01*
X173260143Y-62172571D02*
X173260143Y-63672571D01*
X173260143Y-62244000D02*
X173117286Y-62172571D01*
X172831572Y-62172571D01*
X172688715Y-62244000D01*
X172617286Y-62315429D01*
X172545857Y-62458286D01*
X172545857Y-62886857D01*
X172617286Y-63029714D01*
X172688715Y-63101143D01*
X172831572Y-63172571D01*
X173117286Y-63172571D01*
X173260143Y-63101143D01*
X171260143Y-63172571D02*
X171260143Y-62386857D01*
X171331572Y-62244000D01*
X171474429Y-62172571D01*
X171760143Y-62172571D01*
X171903000Y-62244000D01*
X171260143Y-63101143D02*
X171403000Y-63172571D01*
X171760143Y-63172571D01*
X171903000Y-63101143D01*
X171974429Y-62958286D01*
X171974429Y-62815429D01*
X171903000Y-62672571D01*
X171760143Y-62601143D01*
X171403000Y-62601143D01*
X171260143Y-62529714D01*
X170545857Y-63172571D02*
X170545857Y-62172571D01*
X170545857Y-62458286D02*
X170474429Y-62315429D01*
X170403000Y-62244000D01*
X170260143Y-62172571D01*
X170117286Y-62172571D01*
X169831572Y-62172571D02*
X169260143Y-62172571D01*
X169617286Y-61672571D02*
X169617286Y-62958286D01*
X169545858Y-63101143D01*
X169403000Y-63172571D01*
X169260143Y-63172571D01*
X168188715Y-63101143D02*
X168331572Y-63172571D01*
X168617286Y-63172571D01*
X168760143Y-63101143D01*
X168831572Y-62958286D01*
X168831572Y-62386857D01*
X168760143Y-62244000D01*
X168617286Y-62172571D01*
X168331572Y-62172571D01*
X168188715Y-62244000D01*
X168117286Y-62386857D01*
X168117286Y-62529714D01*
X168831572Y-62672571D01*
X167474429Y-63172571D02*
X167474429Y-62172571D01*
X167474429Y-62315429D02*
X167403001Y-62244000D01*
X167260143Y-62172571D01*
X167045858Y-62172571D01*
X166903001Y-62244000D01*
X166831572Y-62386857D01*
X166831572Y-63172571D01*
X166831572Y-62386857D02*
X166760143Y-62244000D01*
X166617286Y-62172571D01*
X166403001Y-62172571D01*
X166260143Y-62244000D01*
X166188715Y-62386857D01*
X166188715Y-63172571D01*
X164903001Y-63101143D02*
X165045858Y-63172571D01*
X165331572Y-63172571D01*
X165474429Y-63101143D01*
X165545858Y-62958286D01*
X165545858Y-62386857D01*
X165474429Y-62244000D01*
X165331572Y-62172571D01*
X165045858Y-62172571D01*
X164903001Y-62244000D01*
X164831572Y-62386857D01*
X164831572Y-62529714D01*
X165545858Y-62672571D01*
X164188715Y-62172571D02*
X164188715Y-63172571D01*
X164188715Y-62315429D02*
X164117287Y-62244000D01*
X163974429Y-62172571D01*
X163760144Y-62172571D01*
X163617287Y-62244000D01*
X163545858Y-62386857D01*
X163545858Y-63172571D01*
X163045858Y-62172571D02*
X162474429Y-62172571D01*
X162831572Y-61672571D02*
X162831572Y-62958286D01*
X162760144Y-63101143D01*
X162617286Y-63172571D01*
X162474429Y-63172571D01*
X160188715Y-63172571D02*
X160188715Y-61672571D01*
X160188715Y-63101143D02*
X160331572Y-63172571D01*
X160617286Y-63172571D01*
X160760144Y-63101143D01*
X160831572Y-63029714D01*
X160903001Y-62886857D01*
X160903001Y-62458286D01*
X160831572Y-62315429D01*
X160760144Y-62244000D01*
X160617286Y-62172571D01*
X160331572Y-62172571D01*
X160188715Y-62244000D01*
X158903001Y-63101143D02*
X159045858Y-63172571D01*
X159331572Y-63172571D01*
X159474429Y-63101143D01*
X159545858Y-62958286D01*
X159545858Y-62386857D01*
X159474429Y-62244000D01*
X159331572Y-62172571D01*
X159045858Y-62172571D01*
X158903001Y-62244000D01*
X158831572Y-62386857D01*
X158831572Y-62529714D01*
X159545858Y-62672571D01*
X157260144Y-62172571D02*
X156688715Y-62172571D01*
X157045858Y-61672571D02*
X157045858Y-62958286D01*
X156974430Y-63101143D01*
X156831572Y-63172571D01*
X156688715Y-63172571D01*
X155617287Y-63101143D02*
X155760144Y-63172571D01*
X156045858Y-63172571D01*
X156188715Y-63101143D01*
X156260144Y-62958286D01*
X156260144Y-62386857D01*
X156188715Y-62244000D01*
X156045858Y-62172571D01*
X155760144Y-62172571D01*
X155617287Y-62244000D01*
X155545858Y-62386857D01*
X155545858Y-62529714D01*
X156260144Y-62672571D01*
X154260144Y-63101143D02*
X154403001Y-63172571D01*
X154688715Y-63172571D01*
X154831573Y-63101143D01*
X154903001Y-63029714D01*
X154974430Y-62886857D01*
X154974430Y-62458286D01*
X154903001Y-62315429D01*
X154831573Y-62244000D01*
X154688715Y-62172571D01*
X154403001Y-62172571D01*
X154260144Y-62244000D01*
X153617287Y-63172571D02*
X153617287Y-61672571D01*
X152974430Y-63172571D02*
X152974430Y-62386857D01*
X153045859Y-62244000D01*
X153188716Y-62172571D01*
X153403001Y-62172571D01*
X153545859Y-62244000D01*
X153617287Y-62315429D01*
X152260144Y-62172571D02*
X152260144Y-63172571D01*
X152260144Y-62315429D02*
X152188716Y-62244000D01*
X152045858Y-62172571D01*
X151831573Y-62172571D01*
X151688716Y-62244000D01*
X151617287Y-62386857D01*
X151617287Y-63172571D01*
X150688715Y-63172571D02*
X150831573Y-63101143D01*
X150903001Y-63029714D01*
X150974430Y-62886857D01*
X150974430Y-62458286D01*
X150903001Y-62315429D01*
X150831573Y-62244000D01*
X150688715Y-62172571D01*
X150474430Y-62172571D01*
X150331573Y-62244000D01*
X150260144Y-62315429D01*
X150188715Y-62458286D01*
X150188715Y-62886857D01*
X150260144Y-63029714D01*
X150331573Y-63101143D01*
X150474430Y-63172571D01*
X150688715Y-63172571D01*
X149331572Y-63172571D02*
X149474430Y-63101143D01*
X149545858Y-62958286D01*
X149545858Y-61672571D01*
X148545858Y-63172571D02*
X148688716Y-63101143D01*
X148760144Y-63029714D01*
X148831573Y-62886857D01*
X148831573Y-62458286D01*
X148760144Y-62315429D01*
X148688716Y-62244000D01*
X148545858Y-62172571D01*
X148331573Y-62172571D01*
X148188716Y-62244000D01*
X148117287Y-62315429D01*
X148045858Y-62458286D01*
X148045858Y-62886857D01*
X148117287Y-63029714D01*
X148188716Y-63101143D01*
X148331573Y-63172571D01*
X148545858Y-63172571D01*
X146760144Y-62172571D02*
X146760144Y-63386857D01*
X146831573Y-63529714D01*
X146903001Y-63601143D01*
X147045858Y-63672571D01*
X147260144Y-63672571D01*
X147403001Y-63601143D01*
X146760144Y-63101143D02*
X146903001Y-63172571D01*
X147188715Y-63172571D01*
X147331573Y-63101143D01*
X147403001Y-63029714D01*
X147474430Y-62886857D01*
X147474430Y-62458286D01*
X147403001Y-62315429D01*
X147331573Y-62244000D01*
X147188715Y-62172571D01*
X146903001Y-62172571D01*
X146760144Y-62244000D01*
X146045858Y-63172571D02*
X146045858Y-62172571D01*
X146045858Y-61672571D02*
X146117287Y-61744000D01*
X146045858Y-61815429D01*
X145974430Y-61744000D01*
X146045858Y-61672571D01*
X146045858Y-61815429D01*
X144760144Y-63101143D02*
X144903001Y-63172571D01*
X145188715Y-63172571D01*
X145331572Y-63101143D01*
X145403001Y-62958286D01*
X145403001Y-62386857D01*
X145331572Y-62244000D01*
X145188715Y-62172571D01*
X144903001Y-62172571D01*
X144760144Y-62244000D01*
X144688715Y-62386857D01*
X144688715Y-62529714D01*
X145403001Y-62672571D01*
X142260144Y-63172571D02*
X142260144Y-61672571D01*
X142260144Y-63101143D02*
X142403001Y-63172571D01*
X142688715Y-63172571D01*
X142831573Y-63101143D01*
X142903001Y-63029714D01*
X142974430Y-62886857D01*
X142974430Y-62458286D01*
X142903001Y-62315429D01*
X142831573Y-62244000D01*
X142688715Y-62172571D01*
X142403001Y-62172571D01*
X142260144Y-62244000D01*
X140903001Y-62172571D02*
X140903001Y-63172571D01*
X141545858Y-62172571D02*
X141545858Y-62958286D01*
X141474430Y-63101143D01*
X141331572Y-63172571D01*
X141117287Y-63172571D01*
X140974430Y-63101143D01*
X140903001Y-63029714D01*
X138403001Y-62172571D02*
X138403001Y-63386857D01*
X138474430Y-63529714D01*
X138545858Y-63601143D01*
X138688715Y-63672571D01*
X138903001Y-63672571D01*
X139045858Y-63601143D01*
X138403001Y-63101143D02*
X138545858Y-63172571D01*
X138831572Y-63172571D01*
X138974430Y-63101143D01*
X139045858Y-63029714D01*
X139117287Y-62886857D01*
X139117287Y-62458286D01*
X139045858Y-62315429D01*
X138974430Y-62244000D01*
X138831572Y-62172571D01*
X138545858Y-62172571D01*
X138403001Y-62244000D01*
X137117287Y-63101143D02*
X137260144Y-63172571D01*
X137545858Y-63172571D01*
X137688715Y-63101143D01*
X137760144Y-62958286D01*
X137760144Y-62386857D01*
X137688715Y-62244000D01*
X137545858Y-62172571D01*
X137260144Y-62172571D01*
X137117287Y-62244000D01*
X137045858Y-62386857D01*
X137045858Y-62529714D01*
X137760144Y-62672571D01*
X137260144Y-61601143D02*
X137474429Y-61815429D01*
X136403001Y-62172571D02*
X136403001Y-63172571D01*
X136403001Y-62315429D02*
X136331573Y-62244000D01*
X136188715Y-62172571D01*
X135974430Y-62172571D01*
X135831573Y-62244000D01*
X135760144Y-62386857D01*
X135760144Y-63172571D01*
X135045858Y-63172571D02*
X135045858Y-62172571D01*
X135045858Y-61672571D02*
X135117287Y-61744000D01*
X135045858Y-61815429D01*
X134974430Y-61744000D01*
X135045858Y-61672571D01*
X135045858Y-61815429D01*
X133760144Y-63101143D02*
X133903001Y-63172571D01*
X134188715Y-63172571D01*
X134331572Y-63101143D01*
X134403001Y-62958286D01*
X134403001Y-62386857D01*
X134331572Y-62244000D01*
X134188715Y-62172571D01*
X133903001Y-62172571D01*
X133760144Y-62244000D01*
X133688715Y-62386857D01*
X133688715Y-62529714D01*
X134403001Y-62672571D01*
X131903001Y-62172571D02*
X131903001Y-63672571D01*
X131903001Y-62244000D02*
X131760144Y-62172571D01*
X131474430Y-62172571D01*
X131331573Y-62244000D01*
X131260144Y-62315429D01*
X131188715Y-62458286D01*
X131188715Y-62886857D01*
X131260144Y-63029714D01*
X131331573Y-63101143D01*
X131474430Y-63172571D01*
X131760144Y-63172571D01*
X131903001Y-63101143D01*
X130545858Y-63172571D02*
X130545858Y-61672571D01*
X129903001Y-63172571D02*
X129903001Y-62386857D01*
X129974430Y-62244000D01*
X130117287Y-62172571D01*
X130331572Y-62172571D01*
X130474430Y-62244000D01*
X130545858Y-62315429D01*
X129331572Y-62172571D02*
X128974429Y-63172571D01*
X128617287Y-62172571D02*
X128974429Y-63172571D01*
X129117287Y-63529714D01*
X129188715Y-63601143D01*
X129331572Y-63672571D01*
X128117287Y-63101143D02*
X127974430Y-63172571D01*
X127688715Y-63172571D01*
X127545858Y-63101143D01*
X127474430Y-62958286D01*
X127474430Y-62886857D01*
X127545858Y-62744000D01*
X127688715Y-62672571D01*
X127903001Y-62672571D01*
X128045858Y-62601143D01*
X128117287Y-62458286D01*
X128117287Y-62386857D01*
X128045858Y-62244000D01*
X127903001Y-62172571D01*
X127688715Y-62172571D01*
X127545858Y-62244000D01*
X126831572Y-63172571D02*
X126831572Y-62172571D01*
X126831572Y-61672571D02*
X126903001Y-61744000D01*
X126831572Y-61815429D01*
X126760144Y-61744000D01*
X126831572Y-61672571D01*
X126831572Y-61815429D01*
X125474429Y-62172571D02*
X125474429Y-63672571D01*
X125474429Y-63101143D02*
X125617286Y-63172571D01*
X125903000Y-63172571D01*
X126045858Y-63101143D01*
X126117286Y-63029714D01*
X126188715Y-62886857D01*
X126188715Y-62458286D01*
X126117286Y-62315429D01*
X126045858Y-62244000D01*
X125903000Y-62172571D01*
X125617286Y-62172571D01*
X125474429Y-62244000D01*
X124117286Y-62172571D02*
X124117286Y-63172571D01*
X124760143Y-62172571D02*
X124760143Y-62958286D01*
X124688715Y-63101143D01*
X124545857Y-63172571D01*
X124331572Y-63172571D01*
X124188715Y-63101143D01*
X124117286Y-63029714D01*
X122831572Y-63101143D02*
X122974429Y-63172571D01*
X123260143Y-63172571D01*
X123403000Y-63101143D01*
X123474429Y-62958286D01*
X123474429Y-62386857D01*
X123403000Y-62244000D01*
X123260143Y-62172571D01*
X122974429Y-62172571D01*
X122831572Y-62244000D01*
X122760143Y-62386857D01*
X122760143Y-62529714D01*
X123474429Y-62672571D01*
X175188714Y-65579714D02*
X175260143Y-65651143D01*
X175474429Y-65722571D01*
X175617286Y-65722571D01*
X175831571Y-65651143D01*
X175974429Y-65508286D01*
X176045857Y-65365429D01*
X176117286Y-65079714D01*
X176117286Y-64865429D01*
X176045857Y-64579714D01*
X175974429Y-64436857D01*
X175831571Y-64294000D01*
X175617286Y-64222571D01*
X175474429Y-64222571D01*
X175260143Y-64294000D01*
X175188714Y-64365429D01*
X173974429Y-65651143D02*
X174117286Y-65722571D01*
X174403000Y-65722571D01*
X174545857Y-65651143D01*
X174617286Y-65508286D01*
X174617286Y-64936857D01*
X174545857Y-64794000D01*
X174403000Y-64722571D01*
X174117286Y-64722571D01*
X173974429Y-64794000D01*
X173903000Y-64936857D01*
X173903000Y-65079714D01*
X174617286Y-65222571D01*
X174117286Y-64151143D02*
X174331571Y-64365429D01*
X172617286Y-64722571D02*
X172617286Y-65936857D01*
X172688715Y-66079714D01*
X172760143Y-66151143D01*
X172903000Y-66222571D01*
X173117286Y-66222571D01*
X173260143Y-66151143D01*
X172617286Y-65651143D02*
X172760143Y-65722571D01*
X173045857Y-65722571D01*
X173188715Y-65651143D01*
X173260143Y-65579714D01*
X173331572Y-65436857D01*
X173331572Y-65008286D01*
X173260143Y-64865429D01*
X173188715Y-64794000D01*
X173045857Y-64722571D01*
X172760143Y-64722571D01*
X172617286Y-64794000D01*
X171331572Y-65651143D02*
X171474429Y-65722571D01*
X171760143Y-65722571D01*
X171903000Y-65651143D01*
X171974429Y-65508286D01*
X171974429Y-64936857D01*
X171903000Y-64794000D01*
X171760143Y-64722571D01*
X171474429Y-64722571D01*
X171331572Y-64794000D01*
X171260143Y-64936857D01*
X171260143Y-65079714D01*
X171974429Y-65222571D01*
X170617286Y-64722571D02*
X170617286Y-66222571D01*
X170617286Y-64794000D02*
X170474429Y-64722571D01*
X170188715Y-64722571D01*
X170045858Y-64794000D01*
X169974429Y-64865429D01*
X169903000Y-65008286D01*
X169903000Y-65436857D01*
X169974429Y-65579714D01*
X170045858Y-65651143D01*
X170188715Y-65722571D01*
X170474429Y-65722571D01*
X170617286Y-65651143D01*
X167403000Y-65722571D02*
X168117286Y-65722571D01*
X168117286Y-64222571D01*
X166260143Y-65722571D02*
X166260143Y-64936857D01*
X166331572Y-64794000D01*
X166474429Y-64722571D01*
X166760143Y-64722571D01*
X166903000Y-64794000D01*
X166260143Y-65651143D02*
X166403000Y-65722571D01*
X166760143Y-65722571D01*
X166903000Y-65651143D01*
X166974429Y-65508286D01*
X166974429Y-65365429D01*
X166903000Y-65222571D01*
X166760143Y-65151143D01*
X166403000Y-65151143D01*
X166260143Y-65079714D01*
X164403000Y-65722571D02*
X164403000Y-64222571D01*
X163831572Y-64222571D01*
X163688714Y-64294000D01*
X163617286Y-64365429D01*
X163545857Y-64508286D01*
X163545857Y-64722571D01*
X163617286Y-64865429D01*
X163688714Y-64936857D01*
X163831572Y-65008286D01*
X164403000Y-65008286D01*
X162688714Y-65722571D02*
X162831572Y-65651143D01*
X162903000Y-65579714D01*
X162974429Y-65436857D01*
X162974429Y-65008286D01*
X162903000Y-64865429D01*
X162831572Y-64794000D01*
X162688714Y-64722571D01*
X162474429Y-64722571D01*
X162331572Y-64794000D01*
X162260143Y-64865429D01*
X162188714Y-65008286D01*
X162188714Y-65436857D01*
X162260143Y-65579714D01*
X162331572Y-65651143D01*
X162474429Y-65722571D01*
X162688714Y-65722571D01*
X160903000Y-65651143D02*
X161045857Y-65722571D01*
X161331571Y-65722571D01*
X161474429Y-65651143D01*
X161545857Y-65579714D01*
X161617286Y-65436857D01*
X161617286Y-65008286D01*
X161545857Y-64865429D01*
X161474429Y-64794000D01*
X161331571Y-64722571D01*
X161045857Y-64722571D01*
X160903000Y-64794000D01*
X159617286Y-65722571D02*
X159617286Y-64936857D01*
X159688715Y-64794000D01*
X159831572Y-64722571D01*
X160117286Y-64722571D01*
X160260143Y-64794000D01*
X159617286Y-65651143D02*
X159760143Y-65722571D01*
X160117286Y-65722571D01*
X160260143Y-65651143D01*
X160331572Y-65508286D01*
X160331572Y-65365429D01*
X160260143Y-65222571D01*
X160117286Y-65151143D01*
X159760143Y-65151143D01*
X159617286Y-65079714D01*
X159117286Y-64722571D02*
X158545857Y-64722571D01*
X158903000Y-64222571D02*
X158903000Y-65508286D01*
X158831572Y-65651143D01*
X158688714Y-65722571D01*
X158545857Y-65722571D01*
X158045857Y-65722571D02*
X158045857Y-64722571D01*
X158045857Y-64222571D02*
X158117286Y-64294000D01*
X158045857Y-64365429D01*
X157974429Y-64294000D01*
X158045857Y-64222571D01*
X158045857Y-64365429D01*
X156760143Y-65651143D02*
X156903000Y-65722571D01*
X157188714Y-65722571D01*
X157331571Y-65651143D01*
X157403000Y-65508286D01*
X157403000Y-64936857D01*
X157331571Y-64794000D01*
X157188714Y-64722571D01*
X156903000Y-64722571D01*
X156760143Y-64794000D01*
X156688714Y-64936857D01*
X156688714Y-65079714D01*
X157403000Y-65222571D01*
X157188714Y-64151143D02*
X156974428Y-64365429D01*
X156045857Y-65722571D02*
X156045857Y-64722571D01*
X156045857Y-65008286D02*
X155974429Y-64865429D01*
X155903000Y-64794000D01*
X155760143Y-64722571D01*
X155617286Y-64722571D01*
X154545858Y-65651143D02*
X154688715Y-65722571D01*
X154974429Y-65722571D01*
X155117286Y-65651143D01*
X155188715Y-65508286D01*
X155188715Y-64936857D01*
X155117286Y-64794000D01*
X154974429Y-64722571D01*
X154688715Y-64722571D01*
X154545858Y-64794000D01*
X154474429Y-64936857D01*
X154474429Y-65079714D01*
X155188715Y-65222571D01*
D12*
G36*
X119276197Y-41636640D02*
X119107324Y-42532427D01*
X118484204Y-42789298D01*
X117861084Y-43046168D01*
X117113547Y-42537849D01*
X116904198Y-42396316D01*
X116714957Y-42269945D01*
X116554657Y-42164507D01*
X116432126Y-42085770D01*
X116356198Y-42039505D01*
X116335520Y-42029529D01*
X116298269Y-42055186D01*
X116218668Y-42126115D01*
X116105639Y-42233257D01*
X115968105Y-42367550D01*
X115814988Y-42519934D01*
X115655211Y-42681347D01*
X115497695Y-42842730D01*
X115351363Y-42995022D01*
X115225137Y-43129162D01*
X115127940Y-43236089D01*
X115068693Y-43306742D01*
X115054529Y-43330388D01*
X115074913Y-43373979D01*
X115132059Y-43469481D01*
X115219959Y-43607550D01*
X115332604Y-43778845D01*
X115463987Y-43974025D01*
X115540118Y-44085352D01*
X115678882Y-44288633D01*
X115802189Y-44472073D01*
X115904055Y-44626542D01*
X115978499Y-44742909D01*
X116019539Y-44812042D01*
X116025706Y-44826570D01*
X116011726Y-44867860D01*
X115973618Y-44964092D01*
X115917133Y-45101734D01*
X115848020Y-45267258D01*
X115772030Y-45447132D01*
X115694911Y-45627828D01*
X115622415Y-45795814D01*
X115560291Y-45937560D01*
X115514288Y-46039537D01*
X115490157Y-46088214D01*
X115488733Y-46090130D01*
X115450842Y-46099425D01*
X115349931Y-46120160D01*
X115196460Y-46150298D01*
X115000888Y-46187801D01*
X114773675Y-46230629D01*
X114641109Y-46255326D01*
X114398321Y-46301553D01*
X114179026Y-46345540D01*
X113994319Y-46384881D01*
X113855295Y-46417169D01*
X113773048Y-46439997D01*
X113756515Y-46447240D01*
X113740322Y-46496261D01*
X113727256Y-46606977D01*
X113717309Y-46766438D01*
X113710472Y-46961700D01*
X113706736Y-47179814D01*
X113706093Y-47407835D01*
X113708532Y-47632815D01*
X113714047Y-47841809D01*
X113722626Y-48021868D01*
X113734263Y-48160047D01*
X113748948Y-48243398D01*
X113757755Y-48260750D01*
X113810401Y-48281548D01*
X113921957Y-48311282D01*
X114077665Y-48346459D01*
X114262771Y-48383586D01*
X114327387Y-48395597D01*
X114638929Y-48452662D01*
X114885024Y-48498618D01*
X115073805Y-48535293D01*
X115213402Y-48564513D01*
X115311948Y-48588104D01*
X115377574Y-48607892D01*
X115418411Y-48625706D01*
X115442591Y-48643370D01*
X115445974Y-48646861D01*
X115479745Y-48703100D01*
X115531263Y-48812547D01*
X115595383Y-48961800D01*
X115666961Y-49137459D01*
X115740854Y-49326121D01*
X115811917Y-49514385D01*
X115875007Y-49688848D01*
X115924979Y-49836108D01*
X115956688Y-49942764D01*
X115964992Y-49995413D01*
X115964300Y-49997257D01*
X115936164Y-50040292D01*
X115872335Y-50134978D01*
X115779520Y-50271460D01*
X115664427Y-50439882D01*
X115533763Y-50630390D01*
X115496552Y-50684529D01*
X115363871Y-50880804D01*
X115247117Y-51059886D01*
X115152651Y-51211492D01*
X115086832Y-51325338D01*
X115056022Y-51391141D01*
X115054529Y-51399225D01*
X115080416Y-51441715D01*
X115151946Y-51525891D01*
X115259924Y-51642705D01*
X115395154Y-51783110D01*
X115548442Y-51938061D01*
X115710591Y-52098509D01*
X115872407Y-52255409D01*
X116024694Y-52399713D01*
X116158257Y-52522376D01*
X116263900Y-52614350D01*
X116332428Y-52666589D01*
X116351386Y-52675118D01*
X116395513Y-52655029D01*
X116485858Y-52600849D01*
X116607705Y-52521704D01*
X116701454Y-52458001D01*
X116871322Y-52341110D01*
X117072488Y-52203476D01*
X117274267Y-52066063D01*
X117382750Y-51992519D01*
X117749942Y-51744155D01*
X118058174Y-51910813D01*
X118198596Y-51983822D01*
X118318004Y-52040571D01*
X118398798Y-52072937D01*
X118419364Y-52077441D01*
X118444094Y-52044189D01*
X118492882Y-51950224D01*
X118562087Y-51804213D01*
X118648065Y-51614824D01*
X118747176Y-51390724D01*
X118855776Y-51140581D01*
X118970225Y-50873063D01*
X119086880Y-50596836D01*
X119202099Y-50320568D01*
X119312240Y-50052927D01*
X119413661Y-49802580D01*
X119502720Y-49578195D01*
X119575775Y-49388439D01*
X119629184Y-49241980D01*
X119659305Y-49147485D01*
X119664149Y-49115031D01*
X119625755Y-49073636D01*
X119541692Y-49006438D01*
X119429533Y-48927400D01*
X119420119Y-48921147D01*
X119130232Y-48689103D01*
X118896488Y-48418386D01*
X118720913Y-48117653D01*
X118605531Y-47795561D01*
X118552370Y-47460765D01*
X118563453Y-47121922D01*
X118640808Y-46787688D01*
X118786460Y-46466719D01*
X118829312Y-46396495D01*
X119052198Y-46112927D01*
X119315509Y-45885218D01*
X119610135Y-45714551D01*
X119926959Y-45602112D01*
X120256870Y-45549083D01*
X120590754Y-45556651D01*
X120919497Y-45625998D01*
X121233986Y-45758309D01*
X121525107Y-45954768D01*
X121615160Y-46034506D01*
X121844347Y-46284108D01*
X122011354Y-46546868D01*
X122125915Y-46841399D01*
X122189719Y-47133075D01*
X122205470Y-47461012D01*
X122152949Y-47790577D01*
X122037490Y-48110630D01*
X121864429Y-48410032D01*
X121639101Y-48677643D01*
X121366840Y-48902325D01*
X121331058Y-48926008D01*
X121217698Y-49003568D01*
X121131522Y-49070768D01*
X121090323Y-49113675D01*
X121089724Y-49115031D01*
X121098569Y-49161446D01*
X121133631Y-49266786D01*
X121191267Y-49422388D01*
X121267834Y-49619584D01*
X121359686Y-49849710D01*
X121463183Y-50104101D01*
X121574679Y-50374090D01*
X121690532Y-50651012D01*
X121807097Y-50926201D01*
X121920733Y-51190993D01*
X122027794Y-51436721D01*
X122124638Y-51654721D01*
X122207621Y-51836326D01*
X122273099Y-51972871D01*
X122317431Y-52055690D01*
X122335283Y-52077441D01*
X122389834Y-52060504D01*
X122491905Y-52015077D01*
X122623895Y-51949280D01*
X122696474Y-51910813D01*
X123004705Y-51744155D01*
X123371897Y-51992519D01*
X123559340Y-52119754D01*
X123764557Y-52259773D01*
X123956867Y-52391612D01*
X124053193Y-52458001D01*
X124188673Y-52548976D01*
X124303393Y-52621071D01*
X124382388Y-52665154D01*
X124408046Y-52674473D01*
X124445391Y-52649334D01*
X124528042Y-52579154D01*
X124647985Y-52471220D01*
X124797209Y-52332818D01*
X124967699Y-52171235D01*
X125075526Y-52067488D01*
X125264172Y-51882135D01*
X125427205Y-51716351D01*
X125558032Y-51577227D01*
X125650065Y-51471856D01*
X125696713Y-51407329D01*
X125701188Y-51394234D01*
X125680420Y-51344425D01*
X125623031Y-51243713D01*
X125535387Y-51102295D01*
X125423854Y-50930367D01*
X125294797Y-50738124D01*
X125258096Y-50684529D01*
X125124368Y-50489733D01*
X125004393Y-50314353D01*
X124904879Y-50168243D01*
X124832533Y-50061258D01*
X124794064Y-50003255D01*
X124790347Y-49997257D01*
X124795905Y-49951032D01*
X124825407Y-49849398D01*
X124873709Y-49705758D01*
X124935667Y-49533514D01*
X125006137Y-49346066D01*
X125079975Y-49156818D01*
X125152037Y-48979171D01*
X125217178Y-48826527D01*
X125270255Y-48712288D01*
X125306123Y-48649856D01*
X125308673Y-48646861D01*
X125330606Y-48629019D01*
X125367652Y-48611374D01*
X125427941Y-48592101D01*
X125519604Y-48569374D01*
X125650774Y-48541364D01*
X125829582Y-48506247D01*
X126064158Y-48462195D01*
X126362635Y-48407382D01*
X126427260Y-48395597D01*
X126618794Y-48358591D01*
X126785769Y-48322389D01*
X126913432Y-48290485D01*
X126987024Y-48266372D01*
X126996892Y-48260750D01*
X127013153Y-48210910D01*
X127026370Y-48099532D01*
X127036536Y-47939563D01*
X127043640Y-47743950D01*
X127047674Y-47525640D01*
X127048630Y-47297579D01*
X127046498Y-47072714D01*
X127041269Y-46863991D01*
X127032935Y-46684358D01*
X127021487Y-46546762D01*
X127006916Y-46464148D01*
X126998132Y-46447240D01*
X126949230Y-46430184D01*
X126837873Y-46402436D01*
X126675156Y-46366403D01*
X126472174Y-46324493D01*
X126240021Y-46279111D01*
X126113538Y-46255326D01*
X125873555Y-46210465D01*
X125659549Y-46169825D01*
X125481978Y-46135446D01*
X125351302Y-46109365D01*
X125277982Y-46093621D01*
X125265915Y-46090130D01*
X125245519Y-46050779D01*
X125202406Y-45955993D01*
X125142321Y-45819315D01*
X125071013Y-45654286D01*
X124994227Y-45474447D01*
X124917710Y-45293340D01*
X124847210Y-45124507D01*
X124788473Y-44981488D01*
X124747246Y-44877826D01*
X124729276Y-44827061D01*
X124728941Y-44824842D01*
X124749313Y-44784796D01*
X124806427Y-44692639D01*
X124894279Y-44557533D01*
X125006867Y-44388635D01*
X125138189Y-44195105D01*
X125214529Y-44083941D01*
X125353636Y-43880116D01*
X125477188Y-43695063D01*
X125579158Y-43538146D01*
X125653517Y-43418724D01*
X125694237Y-43346160D01*
X125700118Y-43329893D01*
X125674837Y-43292030D01*
X125604948Y-43211186D01*
X125499377Y-43096419D01*
X125367052Y-42956785D01*
X125216901Y-42801342D01*
X125057852Y-42639146D01*
X124898833Y-42479254D01*
X124748771Y-42330724D01*
X124616594Y-42202613D01*
X124511230Y-42103977D01*
X124441607Y-42043873D01*
X124418315Y-42029529D01*
X124380390Y-42049699D01*
X124289683Y-42106363D01*
X124155011Y-42193753D01*
X123985195Y-42306100D01*
X123789054Y-42437638D01*
X123641100Y-42537849D01*
X122893564Y-43046168D01*
X122270444Y-42789298D01*
X121647324Y-42532427D01*
X121309576Y-40740853D01*
X119445071Y-40740853D01*
X119276197Y-41636640D01*
X119276197Y-41636640D01*
G37*
X119276197Y-41636640D02*
X119107324Y-42532427D01*
X118484204Y-42789298D01*
X117861084Y-43046168D01*
X117113547Y-42537849D01*
X116904198Y-42396316D01*
X116714957Y-42269945D01*
X116554657Y-42164507D01*
X116432126Y-42085770D01*
X116356198Y-42039505D01*
X116335520Y-42029529D01*
X116298269Y-42055186D01*
X116218668Y-42126115D01*
X116105639Y-42233257D01*
X115968105Y-42367550D01*
X115814988Y-42519934D01*
X115655211Y-42681347D01*
X115497695Y-42842730D01*
X115351363Y-42995022D01*
X115225137Y-43129162D01*
X115127940Y-43236089D01*
X115068693Y-43306742D01*
X115054529Y-43330388D01*
X115074913Y-43373979D01*
X115132059Y-43469481D01*
X115219959Y-43607550D01*
X115332604Y-43778845D01*
X115463987Y-43974025D01*
X115540118Y-44085352D01*
X115678882Y-44288633D01*
X115802189Y-44472073D01*
X115904055Y-44626542D01*
X115978499Y-44742909D01*
X116019539Y-44812042D01*
X116025706Y-44826570D01*
X116011726Y-44867860D01*
X115973618Y-44964092D01*
X115917133Y-45101734D01*
X115848020Y-45267258D01*
X115772030Y-45447132D01*
X115694911Y-45627828D01*
X115622415Y-45795814D01*
X115560291Y-45937560D01*
X115514288Y-46039537D01*
X115490157Y-46088214D01*
X115488733Y-46090130D01*
X115450842Y-46099425D01*
X115349931Y-46120160D01*
X115196460Y-46150298D01*
X115000888Y-46187801D01*
X114773675Y-46230629D01*
X114641109Y-46255326D01*
X114398321Y-46301553D01*
X114179026Y-46345540D01*
X113994319Y-46384881D01*
X113855295Y-46417169D01*
X113773048Y-46439997D01*
X113756515Y-46447240D01*
X113740322Y-46496261D01*
X113727256Y-46606977D01*
X113717309Y-46766438D01*
X113710472Y-46961700D01*
X113706736Y-47179814D01*
X113706093Y-47407835D01*
X113708532Y-47632815D01*
X113714047Y-47841809D01*
X113722626Y-48021868D01*
X113734263Y-48160047D01*
X113748948Y-48243398D01*
X113757755Y-48260750D01*
X113810401Y-48281548D01*
X113921957Y-48311282D01*
X114077665Y-48346459D01*
X114262771Y-48383586D01*
X114327387Y-48395597D01*
X114638929Y-48452662D01*
X114885024Y-48498618D01*
X115073805Y-48535293D01*
X115213402Y-48564513D01*
X115311948Y-48588104D01*
X115377574Y-48607892D01*
X115418411Y-48625706D01*
X115442591Y-48643370D01*
X115445974Y-48646861D01*
X115479745Y-48703100D01*
X115531263Y-48812547D01*
X115595383Y-48961800D01*
X115666961Y-49137459D01*
X115740854Y-49326121D01*
X115811917Y-49514385D01*
X115875007Y-49688848D01*
X115924979Y-49836108D01*
X115956688Y-49942764D01*
X115964992Y-49995413D01*
X115964300Y-49997257D01*
X115936164Y-50040292D01*
X115872335Y-50134978D01*
X115779520Y-50271460D01*
X115664427Y-50439882D01*
X115533763Y-50630390D01*
X115496552Y-50684529D01*
X115363871Y-50880804D01*
X115247117Y-51059886D01*
X115152651Y-51211492D01*
X115086832Y-51325338D01*
X115056022Y-51391141D01*
X115054529Y-51399225D01*
X115080416Y-51441715D01*
X115151946Y-51525891D01*
X115259924Y-51642705D01*
X115395154Y-51783110D01*
X115548442Y-51938061D01*
X115710591Y-52098509D01*
X115872407Y-52255409D01*
X116024694Y-52399713D01*
X116158257Y-52522376D01*
X116263900Y-52614350D01*
X116332428Y-52666589D01*
X116351386Y-52675118D01*
X116395513Y-52655029D01*
X116485858Y-52600849D01*
X116607705Y-52521704D01*
X116701454Y-52458001D01*
X116871322Y-52341110D01*
X117072488Y-52203476D01*
X117274267Y-52066063D01*
X117382750Y-51992519D01*
X117749942Y-51744155D01*
X118058174Y-51910813D01*
X118198596Y-51983822D01*
X118318004Y-52040571D01*
X118398798Y-52072937D01*
X118419364Y-52077441D01*
X118444094Y-52044189D01*
X118492882Y-51950224D01*
X118562087Y-51804213D01*
X118648065Y-51614824D01*
X118747176Y-51390724D01*
X118855776Y-51140581D01*
X118970225Y-50873063D01*
X119086880Y-50596836D01*
X119202099Y-50320568D01*
X119312240Y-50052927D01*
X119413661Y-49802580D01*
X119502720Y-49578195D01*
X119575775Y-49388439D01*
X119629184Y-49241980D01*
X119659305Y-49147485D01*
X119664149Y-49115031D01*
X119625755Y-49073636D01*
X119541692Y-49006438D01*
X119429533Y-48927400D01*
X119420119Y-48921147D01*
X119130232Y-48689103D01*
X118896488Y-48418386D01*
X118720913Y-48117653D01*
X118605531Y-47795561D01*
X118552370Y-47460765D01*
X118563453Y-47121922D01*
X118640808Y-46787688D01*
X118786460Y-46466719D01*
X118829312Y-46396495D01*
X119052198Y-46112927D01*
X119315509Y-45885218D01*
X119610135Y-45714551D01*
X119926959Y-45602112D01*
X120256870Y-45549083D01*
X120590754Y-45556651D01*
X120919497Y-45625998D01*
X121233986Y-45758309D01*
X121525107Y-45954768D01*
X121615160Y-46034506D01*
X121844347Y-46284108D01*
X122011354Y-46546868D01*
X122125915Y-46841399D01*
X122189719Y-47133075D01*
X122205470Y-47461012D01*
X122152949Y-47790577D01*
X122037490Y-48110630D01*
X121864429Y-48410032D01*
X121639101Y-48677643D01*
X121366840Y-48902325D01*
X121331058Y-48926008D01*
X121217698Y-49003568D01*
X121131522Y-49070768D01*
X121090323Y-49113675D01*
X121089724Y-49115031D01*
X121098569Y-49161446D01*
X121133631Y-49266786D01*
X121191267Y-49422388D01*
X121267834Y-49619584D01*
X121359686Y-49849710D01*
X121463183Y-50104101D01*
X121574679Y-50374090D01*
X121690532Y-50651012D01*
X121807097Y-50926201D01*
X121920733Y-51190993D01*
X122027794Y-51436721D01*
X122124638Y-51654721D01*
X122207621Y-51836326D01*
X122273099Y-51972871D01*
X122317431Y-52055690D01*
X122335283Y-52077441D01*
X122389834Y-52060504D01*
X122491905Y-52015077D01*
X122623895Y-51949280D01*
X122696474Y-51910813D01*
X123004705Y-51744155D01*
X123371897Y-51992519D01*
X123559340Y-52119754D01*
X123764557Y-52259773D01*
X123956867Y-52391612D01*
X124053193Y-52458001D01*
X124188673Y-52548976D01*
X124303393Y-52621071D01*
X124382388Y-52665154D01*
X124408046Y-52674473D01*
X124445391Y-52649334D01*
X124528042Y-52579154D01*
X124647985Y-52471220D01*
X124797209Y-52332818D01*
X124967699Y-52171235D01*
X125075526Y-52067488D01*
X125264172Y-51882135D01*
X125427205Y-51716351D01*
X125558032Y-51577227D01*
X125650065Y-51471856D01*
X125696713Y-51407329D01*
X125701188Y-51394234D01*
X125680420Y-51344425D01*
X125623031Y-51243713D01*
X125535387Y-51102295D01*
X125423854Y-50930367D01*
X125294797Y-50738124D01*
X125258096Y-50684529D01*
X125124368Y-50489733D01*
X125004393Y-50314353D01*
X124904879Y-50168243D01*
X124832533Y-50061258D01*
X124794064Y-50003255D01*
X124790347Y-49997257D01*
X124795905Y-49951032D01*
X124825407Y-49849398D01*
X124873709Y-49705758D01*
X124935667Y-49533514D01*
X125006137Y-49346066D01*
X125079975Y-49156818D01*
X125152037Y-48979171D01*
X125217178Y-48826527D01*
X125270255Y-48712288D01*
X125306123Y-48649856D01*
X125308673Y-48646861D01*
X125330606Y-48629019D01*
X125367652Y-48611374D01*
X125427941Y-48592101D01*
X125519604Y-48569374D01*
X125650774Y-48541364D01*
X125829582Y-48506247D01*
X126064158Y-48462195D01*
X126362635Y-48407382D01*
X126427260Y-48395597D01*
X126618794Y-48358591D01*
X126785769Y-48322389D01*
X126913432Y-48290485D01*
X126987024Y-48266372D01*
X126996892Y-48260750D01*
X127013153Y-48210910D01*
X127026370Y-48099532D01*
X127036536Y-47939563D01*
X127043640Y-47743950D01*
X127047674Y-47525640D01*
X127048630Y-47297579D01*
X127046498Y-47072714D01*
X127041269Y-46863991D01*
X127032935Y-46684358D01*
X127021487Y-46546762D01*
X127006916Y-46464148D01*
X126998132Y-46447240D01*
X126949230Y-46430184D01*
X126837873Y-46402436D01*
X126675156Y-46366403D01*
X126472174Y-46324493D01*
X126240021Y-46279111D01*
X126113538Y-46255326D01*
X125873555Y-46210465D01*
X125659549Y-46169825D01*
X125481978Y-46135446D01*
X125351302Y-46109365D01*
X125277982Y-46093621D01*
X125265915Y-46090130D01*
X125245519Y-46050779D01*
X125202406Y-45955993D01*
X125142321Y-45819315D01*
X125071013Y-45654286D01*
X124994227Y-45474447D01*
X124917710Y-45293340D01*
X124847210Y-45124507D01*
X124788473Y-44981488D01*
X124747246Y-44877826D01*
X124729276Y-44827061D01*
X124728941Y-44824842D01*
X124749313Y-44784796D01*
X124806427Y-44692639D01*
X124894279Y-44557533D01*
X125006867Y-44388635D01*
X125138189Y-44195105D01*
X125214529Y-44083941D01*
X125353636Y-43880116D01*
X125477188Y-43695063D01*
X125579158Y-43538146D01*
X125653517Y-43418724D01*
X125694237Y-43346160D01*
X125700118Y-43329893D01*
X125674837Y-43292030D01*
X125604948Y-43211186D01*
X125499377Y-43096419D01*
X125367052Y-42956785D01*
X125216901Y-42801342D01*
X125057852Y-42639146D01*
X124898833Y-42479254D01*
X124748771Y-42330724D01*
X124616594Y-42202613D01*
X124511230Y-42103977D01*
X124441607Y-42043873D01*
X124418315Y-42029529D01*
X124380390Y-42049699D01*
X124289683Y-42106363D01*
X124155011Y-42193753D01*
X123985195Y-42306100D01*
X123789054Y-42437638D01*
X123641100Y-42537849D01*
X122893564Y-43046168D01*
X122270444Y-42789298D01*
X121647324Y-42532427D01*
X121309576Y-40740853D01*
X119445071Y-40740853D01*
X119276197Y-41636640D01*
G36*
X185324777Y-52296562D02*
X185231060Y-52298014D01*
X185140444Y-52300503D01*
X185051983Y-52304081D01*
X184964731Y-52308799D01*
X184877740Y-52314709D01*
X184790066Y-52321862D01*
X184700761Y-52330310D01*
X184608880Y-52340104D01*
X184603390Y-52340722D01*
X184415105Y-52364490D01*
X184228057Y-52393165D01*
X184042320Y-52426706D01*
X183857971Y-52465076D01*
X183675085Y-52508233D01*
X183493737Y-52556140D01*
X183314005Y-52608757D01*
X183135962Y-52666044D01*
X182959685Y-52727962D01*
X182785249Y-52794472D01*
X182612731Y-52865535D01*
X182442204Y-52941110D01*
X182273746Y-53021160D01*
X182107432Y-53105645D01*
X181943337Y-53194524D01*
X181781538Y-53287760D01*
X181622108Y-53385313D01*
X181465126Y-53487143D01*
X181310665Y-53593211D01*
X181158801Y-53703478D01*
X181009611Y-53817904D01*
X180863169Y-53936450D01*
X180719552Y-54059078D01*
X180578834Y-54185747D01*
X180441093Y-54316418D01*
X180306402Y-54451052D01*
X180174838Y-54589610D01*
X180083668Y-54690010D01*
X179958290Y-54834434D01*
X179837096Y-54981697D01*
X179720119Y-55131751D01*
X179607389Y-55284545D01*
X179498939Y-55440031D01*
X179394799Y-55598160D01*
X179295000Y-55758882D01*
X179199574Y-55922148D01*
X179108552Y-56087910D01*
X179021965Y-56256118D01*
X178939845Y-56426724D01*
X178862223Y-56599677D01*
X178851654Y-56624220D01*
X178780051Y-56797806D01*
X178713100Y-56973370D01*
X178650833Y-57150777D01*
X178593280Y-57329895D01*
X178540473Y-57510591D01*
X178492443Y-57692733D01*
X178449221Y-57876188D01*
X178410838Y-58060823D01*
X178377325Y-58246505D01*
X178348714Y-58433102D01*
X178325035Y-58620482D01*
X178306319Y-58808510D01*
X178292597Y-58997055D01*
X178291518Y-59015630D01*
X178289705Y-59048117D01*
X178288132Y-59077680D01*
X178286778Y-59105044D01*
X178285621Y-59130938D01*
X178284640Y-59156089D01*
X178283813Y-59181226D01*
X178283119Y-59207076D01*
X178282534Y-59234367D01*
X178282039Y-59263827D01*
X178281610Y-59296183D01*
X178281227Y-59332164D01*
X178280867Y-59372497D01*
X178280867Y-59372500D01*
X178280763Y-59505802D01*
X178282743Y-59635368D01*
X178286867Y-59762121D01*
X178293197Y-59886983D01*
X178301792Y-60010877D01*
X178312714Y-60134728D01*
X178326023Y-60259457D01*
X178341779Y-60385988D01*
X178352472Y-60463430D01*
X178381838Y-60651011D01*
X178416096Y-60837281D01*
X178455210Y-61022163D01*
X178499145Y-61205581D01*
X178547865Y-61387460D01*
X178601335Y-61567725D01*
X178659519Y-61746299D01*
X178722381Y-61923107D01*
X178789887Y-62098073D01*
X178862001Y-62271122D01*
X178938687Y-62442178D01*
X179019909Y-62611166D01*
X179105633Y-62778009D01*
X179195823Y-62942632D01*
X179290442Y-63104960D01*
X179389457Y-63264916D01*
X179492831Y-63422426D01*
X179600528Y-63577413D01*
X179712514Y-63729802D01*
X179828753Y-63879518D01*
X179949208Y-64026484D01*
X180073846Y-64170625D01*
X180112439Y-64213740D01*
X180158712Y-64264336D01*
X180208315Y-64317307D01*
X180260538Y-64371942D01*
X180314673Y-64427533D01*
X180370011Y-64483372D01*
X180425844Y-64538750D01*
X180481463Y-64592957D01*
X180536159Y-64645286D01*
X180589223Y-64695027D01*
X180639947Y-64741472D01*
X180642260Y-64743561D01*
X180785247Y-64869205D01*
X180931154Y-64990748D01*
X181079901Y-65108146D01*
X181231406Y-65221359D01*
X181385589Y-65330343D01*
X181542368Y-65435057D01*
X181701663Y-65535458D01*
X181863392Y-65631505D01*
X182027474Y-65723154D01*
X182193828Y-65810364D01*
X182362374Y-65893092D01*
X182533030Y-65971296D01*
X182705715Y-66044935D01*
X182880347Y-66113966D01*
X183056847Y-66178346D01*
X183235133Y-66238034D01*
X183415123Y-66292987D01*
X183596737Y-66343163D01*
X183779894Y-66388520D01*
X183819800Y-66397715D01*
X183994609Y-66435217D01*
X184169377Y-66468206D01*
X184344545Y-66496738D01*
X184520553Y-66520867D01*
X184697842Y-66540651D01*
X184876853Y-66556146D01*
X185058025Y-66567406D01*
X185204100Y-66573380D01*
X185219597Y-66573777D01*
X185239374Y-66574135D01*
X185262801Y-66574450D01*
X185289248Y-66574723D01*
X185318083Y-66574952D01*
X185348674Y-66575136D01*
X185380392Y-66575273D01*
X185412605Y-66575361D01*
X185444681Y-66575400D01*
X185475990Y-66575389D01*
X185505901Y-66575325D01*
X185533783Y-66575208D01*
X185559004Y-66575037D01*
X185580934Y-66574809D01*
X185598941Y-66574524D01*
X185610500Y-66574241D01*
X185705404Y-66570881D01*
X185796271Y-66566746D01*
X185884096Y-66561768D01*
X185969875Y-66555880D01*
X186054601Y-66549014D01*
X186139268Y-66541105D01*
X186208670Y-66533867D01*
X186397142Y-66510797D01*
X186584608Y-66482787D01*
X186770976Y-66449865D01*
X186956153Y-66412059D01*
X187140048Y-66369400D01*
X187322567Y-66321914D01*
X187503618Y-66269631D01*
X187683110Y-66212580D01*
X187860949Y-66150788D01*
X188037043Y-66084286D01*
X188211301Y-66013100D01*
X188383628Y-65937261D01*
X188553934Y-65856796D01*
X188722125Y-65771735D01*
X188798200Y-65731371D01*
X188964053Y-65639183D01*
X189127285Y-65542657D01*
X189287833Y-65441847D01*
X189445632Y-65336804D01*
X189600617Y-65227582D01*
X189752724Y-65114234D01*
X189901889Y-64996812D01*
X190048046Y-64875369D01*
X190191132Y-64749958D01*
X190331081Y-64620631D01*
X190467829Y-64487442D01*
X190601312Y-64350444D01*
X190731465Y-64209688D01*
X190858223Y-64065228D01*
X190909827Y-64004190D01*
X191029738Y-63856865D01*
X191145385Y-63706812D01*
X191256736Y-63554110D01*
X191363760Y-63398837D01*
X191466427Y-63241072D01*
X191564705Y-63080895D01*
X191658564Y-62918385D01*
X191747972Y-62753620D01*
X191832898Y-62586681D01*
X191913311Y-62417645D01*
X191989181Y-62246592D01*
X192060476Y-62073602D01*
X192127165Y-61898752D01*
X192189217Y-61722123D01*
X192246601Y-61543793D01*
X192299287Y-61363842D01*
X192347242Y-61182348D01*
X192390437Y-60999390D01*
X192428840Y-60815049D01*
X192462419Y-60629402D01*
X192491145Y-60442529D01*
X192514986Y-60254508D01*
X192533911Y-60065420D01*
X192547888Y-59875343D01*
X192550972Y-59820810D01*
X192554445Y-59745182D01*
X192557117Y-59665808D01*
X192558985Y-59583747D01*
X192559726Y-59525335D01*
X191925706Y-59525335D01*
X191920654Y-59707843D01*
X191913380Y-59847480D01*
X191899523Y-60028168D01*
X191880656Y-60208102D01*
X191856804Y-60387189D01*
X191827995Y-60565339D01*
X191794253Y-60742460D01*
X191755606Y-60918460D01*
X191712079Y-61093250D01*
X191663699Y-61266736D01*
X191610491Y-61438827D01*
X191552482Y-61609434D01*
X191489698Y-61778463D01*
X191422165Y-61945823D01*
X191349909Y-62111424D01*
X191272957Y-62275174D01*
X191191334Y-62436982D01*
X191150072Y-62514733D01*
X191061886Y-62672885D01*
X190969324Y-62828497D01*
X190872468Y-62981469D01*
X190771398Y-63131702D01*
X190666194Y-63279097D01*
X190556937Y-63423553D01*
X190443707Y-63564973D01*
X190326584Y-63703256D01*
X190205648Y-63838303D01*
X190080981Y-63970014D01*
X189952662Y-64098291D01*
X189820771Y-64223033D01*
X189685390Y-64344142D01*
X189638940Y-64384165D01*
X189498898Y-64500389D01*
X189356018Y-64612448D01*
X189210389Y-64720300D01*
X189062098Y-64823902D01*
X188911232Y-64923210D01*
X188757880Y-65018181D01*
X188602128Y-65108771D01*
X188444065Y-65194937D01*
X188283778Y-65276637D01*
X188121354Y-65353826D01*
X187956882Y-65426461D01*
X187790448Y-65494500D01*
X187622141Y-65557898D01*
X187452048Y-65616613D01*
X187280256Y-65670601D01*
X187106853Y-65719819D01*
X186931928Y-65764224D01*
X186775090Y-65799649D01*
X186604363Y-65833569D01*
X186432569Y-65862877D01*
X186259452Y-65887605D01*
X186084756Y-65907784D01*
X185908223Y-65923445D01*
X185729597Y-65934621D01*
X185646060Y-65938286D01*
X185631796Y-65938703D01*
X185613150Y-65939047D01*
X185590651Y-65939321D01*
X185564823Y-65939528D01*
X185536196Y-65939670D01*
X185505294Y-65939749D01*
X185472646Y-65939768D01*
X185438777Y-65939728D01*
X185404216Y-65939632D01*
X185369487Y-65939482D01*
X185335120Y-65939281D01*
X185301639Y-65939030D01*
X185269572Y-65938732D01*
X185239447Y-65938389D01*
X185211788Y-65938004D01*
X185187125Y-65937578D01*
X185165982Y-65937115D01*
X185148888Y-65936615D01*
X185136790Y-65936105D01*
X185083509Y-65933185D01*
X185034542Y-65930329D01*
X184989124Y-65927476D01*
X184946492Y-65924567D01*
X184905881Y-65921543D01*
X184866527Y-65918345D01*
X184827664Y-65914912D01*
X184788529Y-65911185D01*
X184748358Y-65907105D01*
X184706386Y-65902612D01*
X184706260Y-65902599D01*
X184527224Y-65880455D01*
X184348929Y-65853305D01*
X184171498Y-65821182D01*
X183995059Y-65784121D01*
X183819735Y-65742159D01*
X183645652Y-65695330D01*
X183472936Y-65643670D01*
X183301711Y-65587213D01*
X183132103Y-65525995D01*
X182964236Y-65460051D01*
X182798237Y-65389416D01*
X182667390Y-65329800D01*
X182504219Y-65250440D01*
X182343502Y-65166653D01*
X182185319Y-65078502D01*
X182029753Y-64986051D01*
X181876886Y-64889365D01*
X181726797Y-64788508D01*
X181579569Y-64683544D01*
X181435284Y-64574537D01*
X181294023Y-64461552D01*
X181155867Y-64344653D01*
X181020898Y-64223903D01*
X180889197Y-64099368D01*
X180760846Y-63971112D01*
X180635926Y-63839198D01*
X180514519Y-63703691D01*
X180396706Y-63564655D01*
X180341060Y-63496190D01*
X180229857Y-63353435D01*
X180122597Y-63207525D01*
X180019378Y-63058617D01*
X179920298Y-62906869D01*
X179825456Y-62752438D01*
X179734951Y-62595484D01*
X179648881Y-62436165D01*
X179567344Y-62274637D01*
X179526200Y-62188610D01*
X179451894Y-62024276D01*
X179382257Y-61857992D01*
X179317321Y-61689880D01*
X179257116Y-61520061D01*
X179201672Y-61348656D01*
X179151020Y-61175786D01*
X179105192Y-61001572D01*
X179064216Y-60826135D01*
X179028126Y-60649597D01*
X178996950Y-60472077D01*
X178970720Y-60293699D01*
X178949466Y-60114582D01*
X178933219Y-59934847D01*
X178925241Y-59815730D01*
X178923635Y-59787412D01*
X178922246Y-59761735D01*
X178921056Y-59738000D01*
X178920042Y-59715508D01*
X178919185Y-59693560D01*
X178918464Y-59671459D01*
X178917859Y-59648505D01*
X178917349Y-59624001D01*
X178916914Y-59597247D01*
X178916534Y-59567546D01*
X178916187Y-59534199D01*
X178915855Y-59496507D01*
X178915837Y-59494379D01*
X178915529Y-59403630D01*
X178916170Y-59316943D01*
X178917802Y-59233381D01*
X178920466Y-59152008D01*
X178924205Y-59071888D01*
X178929059Y-58992085D01*
X178935072Y-58911662D01*
X178942284Y-58829683D01*
X178948160Y-58769973D01*
X178969149Y-58589898D01*
X178995077Y-58410932D01*
X179025909Y-58233155D01*
X179061608Y-58056648D01*
X179102139Y-57881493D01*
X179147467Y-57707770D01*
X179197555Y-57535560D01*
X179252367Y-57364944D01*
X179311868Y-57196004D01*
X179376022Y-57028820D01*
X179444794Y-56863474D01*
X179518147Y-56700045D01*
X179596046Y-56538616D01*
X179678454Y-56379267D01*
X179765337Y-56222080D01*
X179856658Y-56067135D01*
X179952381Y-55914513D01*
X180052472Y-55764295D01*
X180156893Y-55616563D01*
X180265610Y-55471397D01*
X180378586Y-55328878D01*
X180495786Y-55189088D01*
X180564714Y-55110380D01*
X180619077Y-55050258D01*
X180676866Y-54988185D01*
X180737252Y-54924993D01*
X180799412Y-54861512D01*
X180862518Y-54798571D01*
X180925743Y-54737001D01*
X180988263Y-54677634D01*
X181049251Y-54621299D01*
X181069730Y-54602768D01*
X181206736Y-54482860D01*
X181346648Y-54367052D01*
X181489374Y-54255386D01*
X181634826Y-54147906D01*
X181782914Y-54044658D01*
X181933549Y-53945685D01*
X182086640Y-53851030D01*
X182242100Y-53760738D01*
X182399837Y-53674853D01*
X182559763Y-53593419D01*
X182721787Y-53516479D01*
X182885822Y-53444079D01*
X183051776Y-53376261D01*
X183219561Y-53313070D01*
X183389087Y-53254550D01*
X183560264Y-53200745D01*
X183733003Y-53151699D01*
X183907215Y-53107456D01*
X184082809Y-53068059D01*
X184259697Y-53033553D01*
X184263030Y-53032952D01*
X184442516Y-53003221D01*
X184622597Y-52978518D01*
X184803163Y-52958845D01*
X184984103Y-52944203D01*
X185165307Y-52934594D01*
X185346666Y-52930019D01*
X185528068Y-52930479D01*
X185709405Y-52935976D01*
X185890565Y-52946511D01*
X186071440Y-52962085D01*
X186251917Y-52982700D01*
X186418220Y-53006229D01*
X186596152Y-53036302D01*
X186772804Y-53071265D01*
X186948087Y-53111072D01*
X187121914Y-53155673D01*
X187294198Y-53205021D01*
X187464849Y-53259069D01*
X187633780Y-53317769D01*
X187800904Y-53381072D01*
X187966132Y-53448932D01*
X188129375Y-53521301D01*
X188290547Y-53598130D01*
X188449560Y-53679372D01*
X188606324Y-53764980D01*
X188760753Y-53854905D01*
X188912758Y-53949101D01*
X189062251Y-54047518D01*
X189209145Y-54150110D01*
X189353351Y-54256829D01*
X189494782Y-54367626D01*
X189633349Y-54482455D01*
X189768965Y-54601267D01*
X189901541Y-54724015D01*
X190030989Y-54850652D01*
X190157223Y-54981128D01*
X190256328Y-55088790D01*
X190375909Y-55225373D01*
X190491412Y-55364914D01*
X190602792Y-55507317D01*
X190710006Y-55652492D01*
X190813008Y-55800344D01*
X190911756Y-55950782D01*
X191006204Y-56103712D01*
X191096308Y-56259042D01*
X191182026Y-56416678D01*
X191263311Y-56576528D01*
X191340121Y-56738499D01*
X191412410Y-56902499D01*
X191480135Y-57068434D01*
X191543252Y-57236212D01*
X191601717Y-57405740D01*
X191655485Y-57576924D01*
X191704512Y-57749673D01*
X191748753Y-57923894D01*
X191788166Y-58099493D01*
X191822706Y-58276378D01*
X191849771Y-58437780D01*
X191875065Y-58617931D01*
X191895307Y-58798583D01*
X191910493Y-58979692D01*
X191920624Y-59161216D01*
X191925695Y-59343112D01*
X191925706Y-59525335D01*
X192559726Y-59525335D01*
X192560047Y-59500056D01*
X192560303Y-59415794D01*
X192559752Y-59332019D01*
X192558388Y-59249792D01*
X192556213Y-59170169D01*
X192553223Y-59094209D01*
X192552255Y-59074050D01*
X192540199Y-58883101D01*
X192523199Y-58693163D01*
X192501282Y-58504308D01*
X192474472Y-58316608D01*
X192442797Y-58130136D01*
X192406282Y-57944966D01*
X192364954Y-57761170D01*
X192318839Y-57578821D01*
X192267962Y-57397992D01*
X192212351Y-57218755D01*
X192152031Y-57041184D01*
X192087029Y-56865352D01*
X192017371Y-56691330D01*
X191943082Y-56519193D01*
X191864189Y-56349012D01*
X191780719Y-56180861D01*
X191692697Y-56014813D01*
X191600149Y-55850941D01*
X191503102Y-55689316D01*
X191401582Y-55530013D01*
X191295615Y-55373104D01*
X191185227Y-55218661D01*
X191150282Y-55171522D01*
X191034323Y-55020605D01*
X190914599Y-54872969D01*
X190791199Y-54728691D01*
X190664217Y-54587845D01*
X190533743Y-54450505D01*
X190399870Y-54316746D01*
X190262688Y-54186644D01*
X190122289Y-54060273D01*
X189978764Y-53937708D01*
X189832205Y-53819024D01*
X189682704Y-53704295D01*
X189530351Y-53593597D01*
X189375239Y-53487004D01*
X189217459Y-53384591D01*
X189057102Y-53286434D01*
X188894260Y-53192606D01*
X188729024Y-53103182D01*
X188561486Y-53018238D01*
X188456391Y-52967806D01*
X188284041Y-52889671D01*
X188109816Y-52816242D01*
X187933812Y-52747545D01*
X187756125Y-52683605D01*
X187576851Y-52624445D01*
X187396085Y-52570091D01*
X187213923Y-52520568D01*
X187030462Y-52475900D01*
X186845797Y-52436111D01*
X186660025Y-52401228D01*
X186473241Y-52371273D01*
X186285540Y-52346273D01*
X186097020Y-52326252D01*
X185911490Y-52311481D01*
X185862871Y-52308346D01*
X185817402Y-52305638D01*
X185774242Y-52303330D01*
X185732553Y-52301395D01*
X185691496Y-52299808D01*
X185650233Y-52298542D01*
X185607923Y-52297569D01*
X185563729Y-52296865D01*
X185516811Y-52296403D01*
X185466329Y-52296156D01*
X185422540Y-52296095D01*
X185324777Y-52296562D01*
X185324777Y-52296562D01*
G37*
X185324777Y-52296562D02*
X185231060Y-52298014D01*
X185140444Y-52300503D01*
X185051983Y-52304081D01*
X184964731Y-52308799D01*
X184877740Y-52314709D01*
X184790066Y-52321862D01*
X184700761Y-52330310D01*
X184608880Y-52340104D01*
X184603390Y-52340722D01*
X184415105Y-52364490D01*
X184228057Y-52393165D01*
X184042320Y-52426706D01*
X183857971Y-52465076D01*
X183675085Y-52508233D01*
X183493737Y-52556140D01*
X183314005Y-52608757D01*
X183135962Y-52666044D01*
X182959685Y-52727962D01*
X182785249Y-52794472D01*
X182612731Y-52865535D01*
X182442204Y-52941110D01*
X182273746Y-53021160D01*
X182107432Y-53105645D01*
X181943337Y-53194524D01*
X181781538Y-53287760D01*
X181622108Y-53385313D01*
X181465126Y-53487143D01*
X181310665Y-53593211D01*
X181158801Y-53703478D01*
X181009611Y-53817904D01*
X180863169Y-53936450D01*
X180719552Y-54059078D01*
X180578834Y-54185747D01*
X180441093Y-54316418D01*
X180306402Y-54451052D01*
X180174838Y-54589610D01*
X180083668Y-54690010D01*
X179958290Y-54834434D01*
X179837096Y-54981697D01*
X179720119Y-55131751D01*
X179607389Y-55284545D01*
X179498939Y-55440031D01*
X179394799Y-55598160D01*
X179295000Y-55758882D01*
X179199574Y-55922148D01*
X179108552Y-56087910D01*
X179021965Y-56256118D01*
X178939845Y-56426724D01*
X178862223Y-56599677D01*
X178851654Y-56624220D01*
X178780051Y-56797806D01*
X178713100Y-56973370D01*
X178650833Y-57150777D01*
X178593280Y-57329895D01*
X178540473Y-57510591D01*
X178492443Y-57692733D01*
X178449221Y-57876188D01*
X178410838Y-58060823D01*
X178377325Y-58246505D01*
X178348714Y-58433102D01*
X178325035Y-58620482D01*
X178306319Y-58808510D01*
X178292597Y-58997055D01*
X178291518Y-59015630D01*
X178289705Y-59048117D01*
X178288132Y-59077680D01*
X178286778Y-59105044D01*
X178285621Y-59130938D01*
X178284640Y-59156089D01*
X178283813Y-59181226D01*
X178283119Y-59207076D01*
X178282534Y-59234367D01*
X178282039Y-59263827D01*
X178281610Y-59296183D01*
X178281227Y-59332164D01*
X178280867Y-59372497D01*
X178280867Y-59372500D01*
X178280763Y-59505802D01*
X178282743Y-59635368D01*
X178286867Y-59762121D01*
X178293197Y-59886983D01*
X178301792Y-60010877D01*
X178312714Y-60134728D01*
X178326023Y-60259457D01*
X178341779Y-60385988D01*
X178352472Y-60463430D01*
X178381838Y-60651011D01*
X178416096Y-60837281D01*
X178455210Y-61022163D01*
X178499145Y-61205581D01*
X178547865Y-61387460D01*
X178601335Y-61567725D01*
X178659519Y-61746299D01*
X178722381Y-61923107D01*
X178789887Y-62098073D01*
X178862001Y-62271122D01*
X178938687Y-62442178D01*
X179019909Y-62611166D01*
X179105633Y-62778009D01*
X179195823Y-62942632D01*
X179290442Y-63104960D01*
X179389457Y-63264916D01*
X179492831Y-63422426D01*
X179600528Y-63577413D01*
X179712514Y-63729802D01*
X179828753Y-63879518D01*
X179949208Y-64026484D01*
X180073846Y-64170625D01*
X180112439Y-64213740D01*
X180158712Y-64264336D01*
X180208315Y-64317307D01*
X180260538Y-64371942D01*
X180314673Y-64427533D01*
X180370011Y-64483372D01*
X180425844Y-64538750D01*
X180481463Y-64592957D01*
X180536159Y-64645286D01*
X180589223Y-64695027D01*
X180639947Y-64741472D01*
X180642260Y-64743561D01*
X180785247Y-64869205D01*
X180931154Y-64990748D01*
X181079901Y-65108146D01*
X181231406Y-65221359D01*
X181385589Y-65330343D01*
X181542368Y-65435057D01*
X181701663Y-65535458D01*
X181863392Y-65631505D01*
X182027474Y-65723154D01*
X182193828Y-65810364D01*
X182362374Y-65893092D01*
X182533030Y-65971296D01*
X182705715Y-66044935D01*
X182880347Y-66113966D01*
X183056847Y-66178346D01*
X183235133Y-66238034D01*
X183415123Y-66292987D01*
X183596737Y-66343163D01*
X183779894Y-66388520D01*
X183819800Y-66397715D01*
X183994609Y-66435217D01*
X184169377Y-66468206D01*
X184344545Y-66496738D01*
X184520553Y-66520867D01*
X184697842Y-66540651D01*
X184876853Y-66556146D01*
X185058025Y-66567406D01*
X185204100Y-66573380D01*
X185219597Y-66573777D01*
X185239374Y-66574135D01*
X185262801Y-66574450D01*
X185289248Y-66574723D01*
X185318083Y-66574952D01*
X185348674Y-66575136D01*
X185380392Y-66575273D01*
X185412605Y-66575361D01*
X185444681Y-66575400D01*
X185475990Y-66575389D01*
X185505901Y-66575325D01*
X185533783Y-66575208D01*
X185559004Y-66575037D01*
X185580934Y-66574809D01*
X185598941Y-66574524D01*
X185610500Y-66574241D01*
X185705404Y-66570881D01*
X185796271Y-66566746D01*
X185884096Y-66561768D01*
X185969875Y-66555880D01*
X186054601Y-66549014D01*
X186139268Y-66541105D01*
X186208670Y-66533867D01*
X186397142Y-66510797D01*
X186584608Y-66482787D01*
X186770976Y-66449865D01*
X186956153Y-66412059D01*
X187140048Y-66369400D01*
X187322567Y-66321914D01*
X187503618Y-66269631D01*
X187683110Y-66212580D01*
X187860949Y-66150788D01*
X188037043Y-66084286D01*
X188211301Y-66013100D01*
X188383628Y-65937261D01*
X188553934Y-65856796D01*
X188722125Y-65771735D01*
X188798200Y-65731371D01*
X188964053Y-65639183D01*
X189127285Y-65542657D01*
X189287833Y-65441847D01*
X189445632Y-65336804D01*
X189600617Y-65227582D01*
X189752724Y-65114234D01*
X189901889Y-64996812D01*
X190048046Y-64875369D01*
X190191132Y-64749958D01*
X190331081Y-64620631D01*
X190467829Y-64487442D01*
X190601312Y-64350444D01*
X190731465Y-64209688D01*
X190858223Y-64065228D01*
X190909827Y-64004190D01*
X191029738Y-63856865D01*
X191145385Y-63706812D01*
X191256736Y-63554110D01*
X191363760Y-63398837D01*
X191466427Y-63241072D01*
X191564705Y-63080895D01*
X191658564Y-62918385D01*
X191747972Y-62753620D01*
X191832898Y-62586681D01*
X191913311Y-62417645D01*
X191989181Y-62246592D01*
X192060476Y-62073602D01*
X192127165Y-61898752D01*
X192189217Y-61722123D01*
X192246601Y-61543793D01*
X192299287Y-61363842D01*
X192347242Y-61182348D01*
X192390437Y-60999390D01*
X192428840Y-60815049D01*
X192462419Y-60629402D01*
X192491145Y-60442529D01*
X192514986Y-60254508D01*
X192533911Y-60065420D01*
X192547888Y-59875343D01*
X192550972Y-59820810D01*
X192554445Y-59745182D01*
X192557117Y-59665808D01*
X192558985Y-59583747D01*
X192559726Y-59525335D01*
X191925706Y-59525335D01*
X191920654Y-59707843D01*
X191913380Y-59847480D01*
X191899523Y-60028168D01*
X191880656Y-60208102D01*
X191856804Y-60387189D01*
X191827995Y-60565339D01*
X191794253Y-60742460D01*
X191755606Y-60918460D01*
X191712079Y-61093250D01*
X191663699Y-61266736D01*
X191610491Y-61438827D01*
X191552482Y-61609434D01*
X191489698Y-61778463D01*
X191422165Y-61945823D01*
X191349909Y-62111424D01*
X191272957Y-62275174D01*
X191191334Y-62436982D01*
X191150072Y-62514733D01*
X191061886Y-62672885D01*
X190969324Y-62828497D01*
X190872468Y-62981469D01*
X190771398Y-63131702D01*
X190666194Y-63279097D01*
X190556937Y-63423553D01*
X190443707Y-63564973D01*
X190326584Y-63703256D01*
X190205648Y-63838303D01*
X190080981Y-63970014D01*
X189952662Y-64098291D01*
X189820771Y-64223033D01*
X189685390Y-64344142D01*
X189638940Y-64384165D01*
X189498898Y-64500389D01*
X189356018Y-64612448D01*
X189210389Y-64720300D01*
X189062098Y-64823902D01*
X188911232Y-64923210D01*
X188757880Y-65018181D01*
X188602128Y-65108771D01*
X188444065Y-65194937D01*
X188283778Y-65276637D01*
X188121354Y-65353826D01*
X187956882Y-65426461D01*
X187790448Y-65494500D01*
X187622141Y-65557898D01*
X187452048Y-65616613D01*
X187280256Y-65670601D01*
X187106853Y-65719819D01*
X186931928Y-65764224D01*
X186775090Y-65799649D01*
X186604363Y-65833569D01*
X186432569Y-65862877D01*
X186259452Y-65887605D01*
X186084756Y-65907784D01*
X185908223Y-65923445D01*
X185729597Y-65934621D01*
X185646060Y-65938286D01*
X185631796Y-65938703D01*
X185613150Y-65939047D01*
X185590651Y-65939321D01*
X185564823Y-65939528D01*
X185536196Y-65939670D01*
X185505294Y-65939749D01*
X185472646Y-65939768D01*
X185438777Y-65939728D01*
X185404216Y-65939632D01*
X185369487Y-65939482D01*
X185335120Y-65939281D01*
X185301639Y-65939030D01*
X185269572Y-65938732D01*
X185239447Y-65938389D01*
X185211788Y-65938004D01*
X185187125Y-65937578D01*
X185165982Y-65937115D01*
X185148888Y-65936615D01*
X185136790Y-65936105D01*
X185083509Y-65933185D01*
X185034542Y-65930329D01*
X184989124Y-65927476D01*
X184946492Y-65924567D01*
X184905881Y-65921543D01*
X184866527Y-65918345D01*
X184827664Y-65914912D01*
X184788529Y-65911185D01*
X184748358Y-65907105D01*
X184706386Y-65902612D01*
X184706260Y-65902599D01*
X184527224Y-65880455D01*
X184348929Y-65853305D01*
X184171498Y-65821182D01*
X183995059Y-65784121D01*
X183819735Y-65742159D01*
X183645652Y-65695330D01*
X183472936Y-65643670D01*
X183301711Y-65587213D01*
X183132103Y-65525995D01*
X182964236Y-65460051D01*
X182798237Y-65389416D01*
X182667390Y-65329800D01*
X182504219Y-65250440D01*
X182343502Y-65166653D01*
X182185319Y-65078502D01*
X182029753Y-64986051D01*
X181876886Y-64889365D01*
X181726797Y-64788508D01*
X181579569Y-64683544D01*
X181435284Y-64574537D01*
X181294023Y-64461552D01*
X181155867Y-64344653D01*
X181020898Y-64223903D01*
X180889197Y-64099368D01*
X180760846Y-63971112D01*
X180635926Y-63839198D01*
X180514519Y-63703691D01*
X180396706Y-63564655D01*
X180341060Y-63496190D01*
X180229857Y-63353435D01*
X180122597Y-63207525D01*
X180019378Y-63058617D01*
X179920298Y-62906869D01*
X179825456Y-62752438D01*
X179734951Y-62595484D01*
X179648881Y-62436165D01*
X179567344Y-62274637D01*
X179526200Y-62188610D01*
X179451894Y-62024276D01*
X179382257Y-61857992D01*
X179317321Y-61689880D01*
X179257116Y-61520061D01*
X179201672Y-61348656D01*
X179151020Y-61175786D01*
X179105192Y-61001572D01*
X179064216Y-60826135D01*
X179028126Y-60649597D01*
X178996950Y-60472077D01*
X178970720Y-60293699D01*
X178949466Y-60114582D01*
X178933219Y-59934847D01*
X178925241Y-59815730D01*
X178923635Y-59787412D01*
X178922246Y-59761735D01*
X178921056Y-59738000D01*
X178920042Y-59715508D01*
X178919185Y-59693560D01*
X178918464Y-59671459D01*
X178917859Y-59648505D01*
X178917349Y-59624001D01*
X178916914Y-59597247D01*
X178916534Y-59567546D01*
X178916187Y-59534199D01*
X178915855Y-59496507D01*
X178915837Y-59494379D01*
X178915529Y-59403630D01*
X178916170Y-59316943D01*
X178917802Y-59233381D01*
X178920466Y-59152008D01*
X178924205Y-59071888D01*
X178929059Y-58992085D01*
X178935072Y-58911662D01*
X178942284Y-58829683D01*
X178948160Y-58769973D01*
X178969149Y-58589898D01*
X178995077Y-58410932D01*
X179025909Y-58233155D01*
X179061608Y-58056648D01*
X179102139Y-57881493D01*
X179147467Y-57707770D01*
X179197555Y-57535560D01*
X179252367Y-57364944D01*
X179311868Y-57196004D01*
X179376022Y-57028820D01*
X179444794Y-56863474D01*
X179518147Y-56700045D01*
X179596046Y-56538616D01*
X179678454Y-56379267D01*
X179765337Y-56222080D01*
X179856658Y-56067135D01*
X179952381Y-55914513D01*
X180052472Y-55764295D01*
X180156893Y-55616563D01*
X180265610Y-55471397D01*
X180378586Y-55328878D01*
X180495786Y-55189088D01*
X180564714Y-55110380D01*
X180619077Y-55050258D01*
X180676866Y-54988185D01*
X180737252Y-54924993D01*
X180799412Y-54861512D01*
X180862518Y-54798571D01*
X180925743Y-54737001D01*
X180988263Y-54677634D01*
X181049251Y-54621299D01*
X181069730Y-54602768D01*
X181206736Y-54482860D01*
X181346648Y-54367052D01*
X181489374Y-54255386D01*
X181634826Y-54147906D01*
X181782914Y-54044658D01*
X181933549Y-53945685D01*
X182086640Y-53851030D01*
X182242100Y-53760738D01*
X182399837Y-53674853D01*
X182559763Y-53593419D01*
X182721787Y-53516479D01*
X182885822Y-53444079D01*
X183051776Y-53376261D01*
X183219561Y-53313070D01*
X183389087Y-53254550D01*
X183560264Y-53200745D01*
X183733003Y-53151699D01*
X183907215Y-53107456D01*
X184082809Y-53068059D01*
X184259697Y-53033553D01*
X184263030Y-53032952D01*
X184442516Y-53003221D01*
X184622597Y-52978518D01*
X184803163Y-52958845D01*
X184984103Y-52944203D01*
X185165307Y-52934594D01*
X185346666Y-52930019D01*
X185528068Y-52930479D01*
X185709405Y-52935976D01*
X185890565Y-52946511D01*
X186071440Y-52962085D01*
X186251917Y-52982700D01*
X186418220Y-53006229D01*
X186596152Y-53036302D01*
X186772804Y-53071265D01*
X186948087Y-53111072D01*
X187121914Y-53155673D01*
X187294198Y-53205021D01*
X187464849Y-53259069D01*
X187633780Y-53317769D01*
X187800904Y-53381072D01*
X187966132Y-53448932D01*
X188129375Y-53521301D01*
X188290547Y-53598130D01*
X188449560Y-53679372D01*
X188606324Y-53764980D01*
X188760753Y-53854905D01*
X188912758Y-53949101D01*
X189062251Y-54047518D01*
X189209145Y-54150110D01*
X189353351Y-54256829D01*
X189494782Y-54367626D01*
X189633349Y-54482455D01*
X189768965Y-54601267D01*
X189901541Y-54724015D01*
X190030989Y-54850652D01*
X190157223Y-54981128D01*
X190256328Y-55088790D01*
X190375909Y-55225373D01*
X190491412Y-55364914D01*
X190602792Y-55507317D01*
X190710006Y-55652492D01*
X190813008Y-55800344D01*
X190911756Y-55950782D01*
X191006204Y-56103712D01*
X191096308Y-56259042D01*
X191182026Y-56416678D01*
X191263311Y-56576528D01*
X191340121Y-56738499D01*
X191412410Y-56902499D01*
X191480135Y-57068434D01*
X191543252Y-57236212D01*
X191601717Y-57405740D01*
X191655485Y-57576924D01*
X191704512Y-57749673D01*
X191748753Y-57923894D01*
X191788166Y-58099493D01*
X191822706Y-58276378D01*
X191849771Y-58437780D01*
X191875065Y-58617931D01*
X191895307Y-58798583D01*
X191910493Y-58979692D01*
X191920624Y-59161216D01*
X191925695Y-59343112D01*
X191925706Y-59525335D01*
X192559726Y-59525335D01*
X192560047Y-59500056D01*
X192560303Y-59415794D01*
X192559752Y-59332019D01*
X192558388Y-59249792D01*
X192556213Y-59170169D01*
X192553223Y-59094209D01*
X192552255Y-59074050D01*
X192540199Y-58883101D01*
X192523199Y-58693163D01*
X192501282Y-58504308D01*
X192474472Y-58316608D01*
X192442797Y-58130136D01*
X192406282Y-57944966D01*
X192364954Y-57761170D01*
X192318839Y-57578821D01*
X192267962Y-57397992D01*
X192212351Y-57218755D01*
X192152031Y-57041184D01*
X192087029Y-56865352D01*
X192017371Y-56691330D01*
X191943082Y-56519193D01*
X191864189Y-56349012D01*
X191780719Y-56180861D01*
X191692697Y-56014813D01*
X191600149Y-55850941D01*
X191503102Y-55689316D01*
X191401582Y-55530013D01*
X191295615Y-55373104D01*
X191185227Y-55218661D01*
X191150282Y-55171522D01*
X191034323Y-55020605D01*
X190914599Y-54872969D01*
X190791199Y-54728691D01*
X190664217Y-54587845D01*
X190533743Y-54450505D01*
X190399870Y-54316746D01*
X190262688Y-54186644D01*
X190122289Y-54060273D01*
X189978764Y-53937708D01*
X189832205Y-53819024D01*
X189682704Y-53704295D01*
X189530351Y-53593597D01*
X189375239Y-53487004D01*
X189217459Y-53384591D01*
X189057102Y-53286434D01*
X188894260Y-53192606D01*
X188729024Y-53103182D01*
X188561486Y-53018238D01*
X188456391Y-52967806D01*
X188284041Y-52889671D01*
X188109816Y-52816242D01*
X187933812Y-52747545D01*
X187756125Y-52683605D01*
X187576851Y-52624445D01*
X187396085Y-52570091D01*
X187213923Y-52520568D01*
X187030462Y-52475900D01*
X186845797Y-52436111D01*
X186660025Y-52401228D01*
X186473241Y-52371273D01*
X186285540Y-52346273D01*
X186097020Y-52326252D01*
X185911490Y-52311481D01*
X185862871Y-52308346D01*
X185817402Y-52305638D01*
X185774242Y-52303330D01*
X185732553Y-52301395D01*
X185691496Y-52299808D01*
X185650233Y-52298542D01*
X185607923Y-52297569D01*
X185563729Y-52296865D01*
X185516811Y-52296403D01*
X185466329Y-52296156D01*
X185422540Y-52296095D01*
X185324777Y-52296562D01*
G36*
X183584324Y-55098230D02*
X182852277Y-55520590D01*
X182852174Y-56366410D01*
X182852070Y-57212230D01*
X183582950Y-57634148D01*
X184313830Y-58056067D01*
X184315100Y-60703595D01*
X184316370Y-63351124D01*
X185045350Y-63772159D01*
X185101735Y-63804719D01*
X185157001Y-63836620D01*
X185210985Y-63867769D01*
X185263527Y-63898074D01*
X185314461Y-63927439D01*
X185363626Y-63955772D01*
X185410859Y-63982979D01*
X185455996Y-64008966D01*
X185498876Y-64033641D01*
X185539335Y-64056908D01*
X185577210Y-64078676D01*
X185612339Y-64098849D01*
X185644559Y-64117336D01*
X185673707Y-64134041D01*
X185699621Y-64148872D01*
X185722136Y-64161735D01*
X185741092Y-64172536D01*
X185756324Y-64181182D01*
X185767670Y-64187579D01*
X185774967Y-64191634D01*
X185778053Y-64193253D01*
X185778140Y-64193280D01*
X185780610Y-64192032D01*
X185787315Y-64188335D01*
X185798093Y-64182284D01*
X185812782Y-64173972D01*
X185831217Y-64163492D01*
X185853238Y-64150938D01*
X185878680Y-64136404D01*
X185907381Y-64119981D01*
X185939178Y-64101765D01*
X185973909Y-64081849D01*
X186011410Y-64060326D01*
X186051519Y-64037289D01*
X186094073Y-64012831D01*
X186138910Y-63987048D01*
X186185865Y-63960031D01*
X186234778Y-63931874D01*
X186285484Y-63902671D01*
X186337821Y-63872514D01*
X186391626Y-63841499D01*
X186446736Y-63809717D01*
X186502990Y-63777263D01*
X186511439Y-63772388D01*
X186567815Y-63739844D01*
X186623048Y-63707944D01*
X186676976Y-63676781D01*
X186729437Y-63646449D01*
X186780269Y-63617041D01*
X186829311Y-63588652D01*
X186876401Y-63561376D01*
X186921378Y-63535306D01*
X186964079Y-63510537D01*
X187004344Y-63487162D01*
X187042010Y-63465275D01*
X187076916Y-63444971D01*
X187108901Y-63426343D01*
X187137802Y-63409485D01*
X187163458Y-63394491D01*
X187185708Y-63381454D01*
X187204389Y-63370470D01*
X187219340Y-63361632D01*
X187230400Y-63355033D01*
X187237407Y-63350768D01*
X187240199Y-63348931D01*
X187240244Y-63348870D01*
X187238018Y-63347418D01*
X187231553Y-63343522D01*
X187221012Y-63337277D01*
X187206556Y-63328775D01*
X187188348Y-63318111D01*
X187166550Y-63305380D01*
X187141324Y-63290675D01*
X187112831Y-63274090D01*
X187081235Y-63255719D01*
X187046696Y-63235657D01*
X187009378Y-63213997D01*
X186969442Y-63190833D01*
X186927050Y-63166260D01*
X186882364Y-63140372D01*
X186835546Y-63113262D01*
X186786759Y-63085025D01*
X186736164Y-63055754D01*
X186683923Y-63025545D01*
X186630200Y-62994490D01*
X186575154Y-62962684D01*
X186518949Y-62930221D01*
X186510756Y-62925490D01*
X185781950Y-62504650D01*
X185780452Y-57209690D01*
X184318910Y-56366392D01*
X184316370Y-54675870D01*
X183584324Y-55098230D01*
X183584324Y-55098230D01*
G37*
X183584324Y-55098230D02*
X182852277Y-55520590D01*
X182852174Y-56366410D01*
X182852070Y-57212230D01*
X183582950Y-57634148D01*
X184313830Y-58056067D01*
X184315100Y-60703595D01*
X184316370Y-63351124D01*
X185045350Y-63772159D01*
X185101735Y-63804719D01*
X185157001Y-63836620D01*
X185210985Y-63867769D01*
X185263527Y-63898074D01*
X185314461Y-63927439D01*
X185363626Y-63955772D01*
X185410859Y-63982979D01*
X185455996Y-64008966D01*
X185498876Y-64033641D01*
X185539335Y-64056908D01*
X185577210Y-64078676D01*
X185612339Y-64098849D01*
X185644559Y-64117336D01*
X185673707Y-64134041D01*
X185699621Y-64148872D01*
X185722136Y-64161735D01*
X185741092Y-64172536D01*
X185756324Y-64181182D01*
X185767670Y-64187579D01*
X185774967Y-64191634D01*
X185778053Y-64193253D01*
X185778140Y-64193280D01*
X185780610Y-64192032D01*
X185787315Y-64188335D01*
X185798093Y-64182284D01*
X185812782Y-64173972D01*
X185831217Y-64163492D01*
X185853238Y-64150938D01*
X185878680Y-64136404D01*
X185907381Y-64119981D01*
X185939178Y-64101765D01*
X185973909Y-64081849D01*
X186011410Y-64060326D01*
X186051519Y-64037289D01*
X186094073Y-64012831D01*
X186138910Y-63987048D01*
X186185865Y-63960031D01*
X186234778Y-63931874D01*
X186285484Y-63902671D01*
X186337821Y-63872514D01*
X186391626Y-63841499D01*
X186446736Y-63809717D01*
X186502990Y-63777263D01*
X186511439Y-63772388D01*
X186567815Y-63739844D01*
X186623048Y-63707944D01*
X186676976Y-63676781D01*
X186729437Y-63646449D01*
X186780269Y-63617041D01*
X186829311Y-63588652D01*
X186876401Y-63561376D01*
X186921378Y-63535306D01*
X186964079Y-63510537D01*
X187004344Y-63487162D01*
X187042010Y-63465275D01*
X187076916Y-63444971D01*
X187108901Y-63426343D01*
X187137802Y-63409485D01*
X187163458Y-63394491D01*
X187185708Y-63381454D01*
X187204389Y-63370470D01*
X187219340Y-63361632D01*
X187230400Y-63355033D01*
X187237407Y-63350768D01*
X187240199Y-63348931D01*
X187240244Y-63348870D01*
X187238018Y-63347418D01*
X187231553Y-63343522D01*
X187221012Y-63337277D01*
X187206556Y-63328775D01*
X187188348Y-63318111D01*
X187166550Y-63305380D01*
X187141324Y-63290675D01*
X187112831Y-63274090D01*
X187081235Y-63255719D01*
X187046696Y-63235657D01*
X187009378Y-63213997D01*
X186969442Y-63190833D01*
X186927050Y-63166260D01*
X186882364Y-63140372D01*
X186835546Y-63113262D01*
X186786759Y-63085025D01*
X186736164Y-63055754D01*
X186683923Y-63025545D01*
X186630200Y-62994490D01*
X186575154Y-62962684D01*
X186518949Y-62930221D01*
X186510756Y-62925490D01*
X185781950Y-62504650D01*
X185780452Y-57209690D01*
X184318910Y-56366392D01*
X184316370Y-54675870D01*
X183584324Y-55098230D01*
G36*
X187242523Y-58057938D02*
X187242154Y-58058540D01*
X187241809Y-58059842D01*
X187241487Y-58062003D01*
X187241187Y-58065183D01*
X187240910Y-58069539D01*
X187240653Y-58075232D01*
X187240416Y-58082420D01*
X187240198Y-58091264D01*
X187239999Y-58101920D01*
X187239817Y-58114550D01*
X187239652Y-58129312D01*
X187239503Y-58146365D01*
X187239370Y-58165868D01*
X187239251Y-58187981D01*
X187239145Y-58212862D01*
X187239052Y-58240670D01*
X187238971Y-58271566D01*
X187238901Y-58305707D01*
X187238842Y-58343253D01*
X187238792Y-58384364D01*
X187238751Y-58429197D01*
X187238718Y-58477914D01*
X187238692Y-58530671D01*
X187238672Y-58587629D01*
X187238658Y-58648947D01*
X187238649Y-58714783D01*
X187238643Y-58785298D01*
X187238641Y-58860650D01*
X187238640Y-58902328D01*
X187238646Y-58967563D01*
X187238663Y-59031482D01*
X187238690Y-59093899D01*
X187238728Y-59154628D01*
X187238775Y-59213481D01*
X187238831Y-59270273D01*
X187238897Y-59324818D01*
X187238971Y-59376929D01*
X187239053Y-59426420D01*
X187239142Y-59473104D01*
X187239239Y-59516796D01*
X187239343Y-59557310D01*
X187239453Y-59594458D01*
X187239570Y-59628055D01*
X187239691Y-59657914D01*
X187239818Y-59683849D01*
X187239950Y-59705674D01*
X187240086Y-59723202D01*
X187240225Y-59736248D01*
X187240369Y-59744625D01*
X187240515Y-59748147D01*
X187240545Y-59748252D01*
X187242866Y-59746984D01*
X187249423Y-59743267D01*
X187260055Y-59737196D01*
X187274598Y-59728863D01*
X187292892Y-59718363D01*
X187314774Y-59705787D01*
X187340082Y-59691231D01*
X187368654Y-59674786D01*
X187400328Y-59656548D01*
X187434941Y-59636608D01*
X187472332Y-59615061D01*
X187512339Y-59591999D01*
X187554800Y-59567517D01*
X187599552Y-59541707D01*
X187646433Y-59514664D01*
X187695282Y-59486480D01*
X187745936Y-59457248D01*
X187798233Y-59427063D01*
X187852011Y-59396018D01*
X187907108Y-59364205D01*
X187963362Y-59331719D01*
X187973304Y-59325977D01*
X188029732Y-59293383D01*
X188085020Y-59261437D01*
X188139007Y-59230234D01*
X188191532Y-59199868D01*
X188242434Y-59170431D01*
X188291549Y-59142018D01*
X188338717Y-59114723D01*
X188383777Y-59088639D01*
X188426566Y-59063859D01*
X188466923Y-59040478D01*
X188504686Y-59018588D01*
X188539695Y-58998285D01*
X188571786Y-58979661D01*
X188600799Y-58962810D01*
X188626572Y-58947826D01*
X188648943Y-58934802D01*
X188667752Y-58923832D01*
X188682835Y-58915010D01*
X188694032Y-58908430D01*
X188701181Y-58904185D01*
X188704120Y-58902368D01*
X188704189Y-58902307D01*
X188702024Y-58900952D01*
X188695655Y-58897173D01*
X188685281Y-58891083D01*
X188671097Y-58882797D01*
X188653301Y-58872429D01*
X188632091Y-58860092D01*
X188607663Y-58845901D01*
X188580215Y-58829969D01*
X188549944Y-58812410D01*
X188517046Y-58793338D01*
X188481720Y-58772868D01*
X188444162Y-58751113D01*
X188404570Y-58728187D01*
X188363140Y-58704204D01*
X188320070Y-58679278D01*
X188275556Y-58653523D01*
X188229797Y-58627052D01*
X188182989Y-58599981D01*
X188135330Y-58572422D01*
X188087016Y-58544489D01*
X188038245Y-58516297D01*
X187989214Y-58487960D01*
X187940119Y-58459591D01*
X187891159Y-58431304D01*
X187842531Y-58403213D01*
X187794431Y-58375433D01*
X187747056Y-58348077D01*
X187700605Y-58321259D01*
X187655273Y-58295093D01*
X187611259Y-58269693D01*
X187568759Y-58245172D01*
X187527970Y-58221646D01*
X187489090Y-58199227D01*
X187452316Y-58178030D01*
X187417845Y-58158168D01*
X187385874Y-58139757D01*
X187356600Y-58122908D01*
X187330221Y-58107737D01*
X187306933Y-58094357D01*
X187286935Y-58082883D01*
X187270422Y-58073427D01*
X187257592Y-58066105D01*
X187248642Y-58061030D01*
X187243770Y-58058316D01*
X187242917Y-58057877D01*
X187242523Y-58057938D01*
X187242523Y-58057938D01*
G37*
X187242523Y-58057938D02*
X187242154Y-58058540D01*
X187241809Y-58059842D01*
X187241487Y-58062003D01*
X187241187Y-58065183D01*
X187240910Y-58069539D01*
X187240653Y-58075232D01*
X187240416Y-58082420D01*
X187240198Y-58091264D01*
X187239999Y-58101920D01*
X187239817Y-58114550D01*
X187239652Y-58129312D01*
X187239503Y-58146365D01*
X187239370Y-58165868D01*
X187239251Y-58187981D01*
X187239145Y-58212862D01*
X187239052Y-58240670D01*
X187238971Y-58271566D01*
X187238901Y-58305707D01*
X187238842Y-58343253D01*
X187238792Y-58384364D01*
X187238751Y-58429197D01*
X187238718Y-58477914D01*
X187238692Y-58530671D01*
X187238672Y-58587629D01*
X187238658Y-58648947D01*
X187238649Y-58714783D01*
X187238643Y-58785298D01*
X187238641Y-58860650D01*
X187238640Y-58902328D01*
X187238646Y-58967563D01*
X187238663Y-59031482D01*
X187238690Y-59093899D01*
X187238728Y-59154628D01*
X187238775Y-59213481D01*
X187238831Y-59270273D01*
X187238897Y-59324818D01*
X187238971Y-59376929D01*
X187239053Y-59426420D01*
X187239142Y-59473104D01*
X187239239Y-59516796D01*
X187239343Y-59557310D01*
X187239453Y-59594458D01*
X187239570Y-59628055D01*
X187239691Y-59657914D01*
X187239818Y-59683849D01*
X187239950Y-59705674D01*
X187240086Y-59723202D01*
X187240225Y-59736248D01*
X187240369Y-59744625D01*
X187240515Y-59748147D01*
X187240545Y-59748252D01*
X187242866Y-59746984D01*
X187249423Y-59743267D01*
X187260055Y-59737196D01*
X187274598Y-59728863D01*
X187292892Y-59718363D01*
X187314774Y-59705787D01*
X187340082Y-59691231D01*
X187368654Y-59674786D01*
X187400328Y-59656548D01*
X187434941Y-59636608D01*
X187472332Y-59615061D01*
X187512339Y-59591999D01*
X187554800Y-59567517D01*
X187599552Y-59541707D01*
X187646433Y-59514664D01*
X187695282Y-59486480D01*
X187745936Y-59457248D01*
X187798233Y-59427063D01*
X187852011Y-59396018D01*
X187907108Y-59364205D01*
X187963362Y-59331719D01*
X187973304Y-59325977D01*
X188029732Y-59293383D01*
X188085020Y-59261437D01*
X188139007Y-59230234D01*
X188191532Y-59199868D01*
X188242434Y-59170431D01*
X188291549Y-59142018D01*
X188338717Y-59114723D01*
X188383777Y-59088639D01*
X188426566Y-59063859D01*
X188466923Y-59040478D01*
X188504686Y-59018588D01*
X188539695Y-58998285D01*
X188571786Y-58979661D01*
X188600799Y-58962810D01*
X188626572Y-58947826D01*
X188648943Y-58934802D01*
X188667752Y-58923832D01*
X188682835Y-58915010D01*
X188694032Y-58908430D01*
X188701181Y-58904185D01*
X188704120Y-58902368D01*
X188704189Y-58902307D01*
X188702024Y-58900952D01*
X188695655Y-58897173D01*
X188685281Y-58891083D01*
X188671097Y-58882797D01*
X188653301Y-58872429D01*
X188632091Y-58860092D01*
X188607663Y-58845901D01*
X188580215Y-58829969D01*
X188549944Y-58812410D01*
X188517046Y-58793338D01*
X188481720Y-58772868D01*
X188444162Y-58751113D01*
X188404570Y-58728187D01*
X188363140Y-58704204D01*
X188320070Y-58679278D01*
X188275556Y-58653523D01*
X188229797Y-58627052D01*
X188182989Y-58599981D01*
X188135330Y-58572422D01*
X188087016Y-58544489D01*
X188038245Y-58516297D01*
X187989214Y-58487960D01*
X187940119Y-58459591D01*
X187891159Y-58431304D01*
X187842531Y-58403213D01*
X187794431Y-58375433D01*
X187747056Y-58348077D01*
X187700605Y-58321259D01*
X187655273Y-58295093D01*
X187611259Y-58269693D01*
X187568759Y-58245172D01*
X187527970Y-58221646D01*
X187489090Y-58199227D01*
X187452316Y-58178030D01*
X187417845Y-58158168D01*
X187385874Y-58139757D01*
X187356600Y-58122908D01*
X187330221Y-58107737D01*
X187306933Y-58094357D01*
X187286935Y-58082883D01*
X187270422Y-58073427D01*
X187257592Y-58066105D01*
X187248642Y-58061030D01*
X187243770Y-58058316D01*
X187242917Y-58057877D01*
X187242523Y-58057938D01*
M02*
