M48
;DRILL file {KiCad 4.0.5} date 05/03/17 08:17:30
;FORMAT={-:-/ absolute / metric / decimal}
FMAT,2
METRIC,TZ
T1C0.400
T2C0.700
T3C0.800
T4C0.991
T5C1.000
T6C1.016
T7C1.200
T8C1.270
T9C2.500
%
G90
G05
M71
T1
X112.649Y-111.633
X112.776Y-124.968
X113.03Y-88.9
X113.284Y-62.611
X113.411Y-118.999
X114.173Y-109.474
X114.3Y-59.817
X115.062Y-57.912
X116.332Y-113.157
X116.332Y-114.427
X116.967Y-88.9
X117.094Y-117.983
X118.618Y-52.578
X119.38Y-50.546
X120.142Y-48.641
X121.158Y-111.633
X121.158Y-124.968
X122.555Y-117.094
X124.841Y-117.729
X125.984Y-65.278
X128.778Y-80.137
X130.937Y-97.282
X136.398Y-89.027
X137.795Y-91.186
X138.303Y-81.026
X139.192Y-103.886
X140.208Y-86.614
X141.097Y-71.374
X141.097Y-86.995
X142.621Y-79.883
X143.256Y-80.899
X143.51Y-86.995
X144.399Y-80.899
X150.622Y-93.345
X150.622Y-105.283
X158.115Y-105.156
X158.242Y-131.191
X162.052Y-131.318
X177.165Y-119.888
X178.435Y-119.761
X179.07Y-104.14
X179.07Y-121.031
X179.197Y-78.105
X181.483Y-92.837
X181.991Y-72.009
X182.118Y-96.012
X182.753Y-91.186
X183.769Y-78.105
X186.182Y-72.009
X186.182Y-113.665
X186.436Y-81.28
X186.436Y-103.124
X187.96Y-78.105
X188.087Y-123.825
X189.738Y-81.28
X189.865Y-103.124
X190.246Y-113.538
X190.373Y-72.009
X190.627Y-96.139
X191.516Y-91.44
X193.167Y-91.313
T2
X118.745Y-96.52
X118.745Y-104.14
X121.158Y-96.52
X121.158Y-104.14
X140.97Y-94.869
X140.97Y-97.155
X140.97Y-99.441
X140.97Y-101.727
X148.59Y-94.869
X148.59Y-97.155
X148.59Y-99.441
X148.59Y-101.727
X168.91Y-92.075
X168.91Y-94.488
X168.91Y-96.901
X168.91Y-99.314
X168.91Y-101.727
X176.53Y-92.075
X176.53Y-94.488
X176.53Y-96.901
X176.53Y-99.314
X176.53Y-101.727
T3
X116.118Y-107.95
X118.618Y-107.95
X126.111Y-111.125
X126.873Y-87.503
X126.873Y-90.043
X126.873Y-92.583
X126.873Y-95.123
X126.873Y-97.663
X126.873Y-100.203
X126.873Y-102.743
X126.873Y-105.283
X126.873Y-107.823
X128.611Y-111.125
X129.326Y-125.476
X131.826Y-125.476
X134.493Y-87.503
X134.493Y-90.043
X134.493Y-92.583
X134.493Y-95.123
X134.493Y-97.663
X134.493Y-100.203
X134.493Y-102.743
X134.493Y-105.283
X134.493Y-107.823
X149.733Y-84.622
X149.733Y-87.122
X155.067Y-87.503
X155.067Y-90.043
X155.067Y-92.583
X155.067Y-95.123
X155.067Y-97.663
X155.067Y-100.203
X155.067Y-102.743
X155.067Y-105.283
X155.067Y-107.823
X162.687Y-87.503
X162.687Y-90.043
X162.687Y-92.583
X162.687Y-95.123
X162.687Y-97.663
X162.687Y-100.203
X162.687Y-102.743
X162.687Y-105.283
X162.687Y-107.823
X162.814Y-84.582
X165.314Y-84.582
X195.326Y-37.211
X195.326Y-39.711
T4
X119.38Y-131.826
X121.92Y-131.826
X124.46Y-131.826
X129.54Y-131.826
X132.08Y-131.826
T5
X138.938Y-131.953
X141.478Y-131.953
X144.018Y-131.953
X173.736Y-128.016
X173.736Y-130.556
X177.038Y-128.016
X177.038Y-130.556
X180.975Y-128.016
X180.975Y-130.556
X184.277Y-128.016
X184.277Y-130.556
X188.087Y-128.016
X188.087Y-130.556
X191.389Y-128.016
X191.389Y-130.556
T6
X129.794Y-75.565
X132.334Y-75.565
X134.874Y-75.565
X137.414Y-75.565
X138.938Y-123.825
X139.954Y-75.565
X141.478Y-123.825
X142.494Y-75.565
X144.018Y-123.825
X145.034Y-75.565
X146.558Y-123.825
X147.574Y-75.565
X149.098Y-123.825
X150.114Y-75.565
X151.638Y-123.825
X152.654Y-75.565
X154.178Y-123.825
X156.718Y-75.565
X156.718Y-123.825
X159.258Y-75.565
X161.798Y-75.565
X161.798Y-123.825
X164.338Y-75.565
X164.338Y-123.825
X166.878Y-75.565
X166.878Y-123.825
X169.418Y-75.565
X169.418Y-123.825
X171.958Y-75.565
X171.958Y-123.825
X174.498Y-75.565
X174.498Y-123.825
T7
X121.666Y-37.973
X124.206Y-37.973
X126.746Y-37.973
X129.286Y-37.973
X131.826Y-37.973
X134.366Y-37.973
X136.906Y-37.973
X139.446Y-37.973
X141.986Y-37.973
X144.526Y-37.973
X147.066Y-37.973
X149.606Y-37.973
X152.146Y-37.973
X154.686Y-37.973
X157.226Y-37.973
X159.766Y-37.973
T8
X113.055Y-74.727
X113.055Y-79.705
X123.063Y-77.216
T9
X116.167Y-37.973
X116.167Y-68.974
X191.165Y-37.973
X191.165Y-68.974
T0
M30
