G04 #@! TF.FileFunction,Paste,Top*
%FSLAX46Y46*%
G04 Gerber Fmt 4.6, Leading zero omitted, Abs format (unit mm)*
G04 Created by KiCad (PCBNEW 4.0.5) date 05/03/17 08:17:14*
%MOMM*%
%LPD*%
G01*
G04 APERTURE LIST*
%ADD10C,0.100000*%
%ADD11R,2.336800X1.244600*%
%ADD12R,0.795020X0.345440*%
%ADD13R,1.247140X0.795020*%
%ADD14R,0.646000X0.546000*%
%ADD15R,2.746000X0.746000*%
%ADD16R,0.746000X2.746000*%
%ADD17R,0.635000X1.778000*%
G04 APERTURE END LIST*
D10*
D11*
X181356000Y-73533000D03*
X181356000Y-76530200D03*
X185674000Y-73533000D03*
X185674000Y-76530200D03*
X189992000Y-73533000D03*
X189992000Y-76530200D03*
X112776000Y-107442000D03*
X112776000Y-104444800D03*
D12*
X114990880Y-120136920D03*
X114990880Y-119037100D03*
X114990880Y-117937280D03*
X114990880Y-116837460D03*
X114990880Y-115737640D03*
X114990880Y-114637820D03*
X114990880Y-113538000D03*
X114990880Y-112438180D03*
D13*
X112461040Y-123692920D03*
X112461040Y-110241080D03*
X120860820Y-123692920D03*
X120860820Y-110241080D03*
D14*
X113046000Y-85791000D03*
X113046000Y-87691000D03*
X115046000Y-86741000D03*
D15*
X183896000Y-85471000D03*
X192532000Y-85471000D03*
X183896000Y-80899000D03*
X192532000Y-80899000D03*
D16*
X186182000Y-98425000D03*
X186182000Y-89789000D03*
X181610000Y-98425000D03*
X181610000Y-89789000D03*
X194818000Y-98425000D03*
X194818000Y-89789000D03*
X190246000Y-98425000D03*
X190246000Y-89789000D03*
D15*
X183896000Y-107315000D03*
X192532000Y-107315000D03*
X183896000Y-102743000D03*
X192532000Y-102743000D03*
X183896000Y-117475000D03*
X192532000Y-117475000D03*
X183896000Y-112903000D03*
X192532000Y-112903000D03*
D17*
X146685000Y-82677000D03*
X145415000Y-82677000D03*
X144145000Y-82677000D03*
X142875000Y-82677000D03*
X141605000Y-82677000D03*
X140335000Y-82677000D03*
X139065000Y-82677000D03*
X137795000Y-82677000D03*
X137795000Y-88773000D03*
X139065000Y-88773000D03*
X140335000Y-88773000D03*
X141605000Y-88773000D03*
X142875000Y-88773000D03*
X144145000Y-88773000D03*
X145415000Y-88773000D03*
X146685000Y-88773000D03*
D15*
X155956000Y-131699000D03*
X164592000Y-131699000D03*
X155956000Y-127127000D03*
X164592000Y-127127000D03*
M02*
