G04 #@! TF.FileFunction,Copper,L2,Bot,Signal*
%FSLAX46Y46*%
G04 Gerber Fmt 4.6, Leading zero omitted, Abs format (unit mm)*
G04 Created by KiCad (PCBNEW 4.0.5) date 05/03/17 08:17:14*
%MOMM*%
%LPD*%
G01*
G04 APERTURE LIST*
%ADD10C,0.100000*%
%ADD11O,1.800000X2.600000*%
%ADD12C,3.000000*%
%ADD13R,2.400000X1.600000*%
%ADD14O,2.400000X1.600000*%
%ADD15C,1.600000*%
%ADD16R,1.700000X1.700000*%
%ADD17O,1.700000X1.700000*%
%ADD18O,1.727200X2.032000*%
%ADD19C,2.032000*%
%ADD20C,1.752600*%
%ADD21C,1.400000*%
%ADD22O,1.400000X1.400000*%
%ADD23C,0.600000*%
%ADD24C,0.250000*%
%ADD25C,0.254000*%
G04 APERTURE END LIST*
D10*
D11*
X121666000Y-37973000D03*
X124206000Y-37973000D03*
X126746000Y-37973000D03*
X129286000Y-37973000D03*
X131826000Y-37973000D03*
X134366000Y-37973000D03*
X136906000Y-37973000D03*
X139446000Y-37973000D03*
X141986000Y-37973000D03*
X144526000Y-37973000D03*
X147066000Y-37973000D03*
X149606000Y-37973000D03*
X152146000Y-37973000D03*
X154686000Y-37973000D03*
X157226000Y-37973000D03*
X159766000Y-37973000D03*
D12*
X116166900Y-37973000D03*
X116166900Y-68973700D03*
X191165480Y-68973700D03*
X191165480Y-37973000D03*
D13*
X134493000Y-107823000D03*
D14*
X126873000Y-87503000D03*
X134493000Y-105283000D03*
X126873000Y-90043000D03*
X134493000Y-102743000D03*
X126873000Y-92583000D03*
X134493000Y-100203000D03*
X126873000Y-95123000D03*
X134493000Y-97663000D03*
X126873000Y-97663000D03*
X134493000Y-95123000D03*
X126873000Y-100203000D03*
X134493000Y-92583000D03*
X126873000Y-102743000D03*
X134493000Y-90043000D03*
X126873000Y-105283000D03*
X134493000Y-87503000D03*
X126873000Y-107823000D03*
D15*
X126111000Y-111125000D03*
X128611000Y-111125000D03*
X118618000Y-107950000D03*
X116118000Y-107950000D03*
X162814000Y-84582000D03*
X165314000Y-84582000D03*
X149733000Y-87122000D03*
X149733000Y-84622000D03*
X195326000Y-37211000D03*
X195326000Y-39711000D03*
X131826000Y-125476000D03*
X129326000Y-125476000D03*
D16*
X188087000Y-130556000D03*
D17*
X188087000Y-128016000D03*
D16*
X180975000Y-130556000D03*
D17*
X180975000Y-128016000D03*
D16*
X191389000Y-130556000D03*
D17*
X191389000Y-128016000D03*
D16*
X184277000Y-130556000D03*
D17*
X184277000Y-128016000D03*
D16*
X173736000Y-130556000D03*
D17*
X173736000Y-128016000D03*
D16*
X177038000Y-130556000D03*
D17*
X177038000Y-128016000D03*
D16*
X144018000Y-131953000D03*
D17*
X141478000Y-131953000D03*
X138938000Y-131953000D03*
D18*
X161798000Y-123825000D03*
X164338000Y-123825000D03*
X166878000Y-123825000D03*
X169418000Y-123825000D03*
X171958000Y-123825000D03*
X174498000Y-123825000D03*
X129794000Y-75565000D03*
X132334000Y-75565000D03*
X134874000Y-75565000D03*
X137414000Y-75565000D03*
X139954000Y-75565000D03*
X142494000Y-75565000D03*
X145034000Y-75565000D03*
X147574000Y-75565000D03*
X150114000Y-75565000D03*
X152654000Y-75565000D03*
X156718000Y-75565000D03*
X159258000Y-75565000D03*
X161798000Y-75565000D03*
X164338000Y-75565000D03*
X166878000Y-75565000D03*
X169418000Y-75565000D03*
X171958000Y-75565000D03*
X174498000Y-75565000D03*
D19*
X113055400Y-74726800D03*
X123063000Y-77216000D03*
X113055400Y-79705200D03*
D20*
X132080000Y-131826000D03*
X129540000Y-131826000D03*
X124460000Y-131826000D03*
X121920000Y-131826000D03*
X119380000Y-131826000D03*
D13*
X155067000Y-87503000D03*
D14*
X162687000Y-107823000D03*
X155067000Y-90043000D03*
X162687000Y-105283000D03*
X155067000Y-92583000D03*
X162687000Y-102743000D03*
X155067000Y-95123000D03*
X162687000Y-100203000D03*
X155067000Y-97663000D03*
X162687000Y-97663000D03*
X155067000Y-100203000D03*
X162687000Y-95123000D03*
X155067000Y-102743000D03*
X162687000Y-92583000D03*
X155067000Y-105283000D03*
X162687000Y-90043000D03*
X155067000Y-107823000D03*
X162687000Y-87503000D03*
D21*
X140970000Y-97155000D03*
D22*
X148590000Y-97155000D03*
D21*
X140970000Y-101727000D03*
D22*
X148590000Y-101727000D03*
D21*
X140970000Y-94869000D03*
D22*
X148590000Y-94869000D03*
D21*
X140970000Y-99441000D03*
D22*
X148590000Y-99441000D03*
D21*
X118745000Y-96520000D03*
D22*
X118745000Y-104140000D03*
D21*
X176530000Y-92075000D03*
D22*
X168910000Y-92075000D03*
D21*
X176530000Y-94488000D03*
D22*
X168910000Y-94488000D03*
D21*
X176530000Y-96901000D03*
D22*
X168910000Y-96901000D03*
D21*
X168910000Y-101727000D03*
D22*
X176530000Y-101727000D03*
D21*
X168910000Y-99314000D03*
D22*
X176530000Y-99314000D03*
D21*
X121158000Y-104140000D03*
D22*
X121158000Y-96520000D03*
D18*
X138938000Y-123825000D03*
X141478000Y-123825000D03*
X144018000Y-123825000D03*
X146558000Y-123825000D03*
X149098000Y-123825000D03*
X151638000Y-123825000D03*
X154178000Y-123825000D03*
X156718000Y-123825000D03*
D23*
X130937000Y-97282000D03*
X112649000Y-111633000D03*
X139192000Y-103886000D03*
X138303000Y-81026000D03*
X143510000Y-86995000D03*
X141097000Y-86995000D03*
X162052000Y-131318000D03*
X158242000Y-131191000D03*
X190246000Y-113538000D03*
X186182000Y-113665000D03*
X189865000Y-103124000D03*
X186436000Y-103124000D03*
X190627000Y-96139000D03*
X191516000Y-91440000D03*
X182118000Y-96012000D03*
X182753000Y-91186000D03*
X189738000Y-81280000D03*
X186436000Y-81280000D03*
X190373000Y-72009000D03*
X186182000Y-72009000D03*
X181991000Y-72009000D03*
X121158000Y-124968000D03*
X112776000Y-124968000D03*
X121158000Y-111633000D03*
X116332000Y-114427000D03*
X113030000Y-88900000D03*
X158115000Y-105156000D03*
X150622000Y-105283000D03*
X177165000Y-119888000D03*
X136398000Y-89027000D03*
X144399000Y-80899000D03*
X122555000Y-117094000D03*
X141097000Y-71374000D03*
X116967000Y-88900000D03*
X116332000Y-113157000D03*
X179197000Y-78105000D03*
X183769000Y-78105000D03*
X187960000Y-78105000D03*
X143256000Y-80899000D03*
X114173000Y-109474000D03*
X113411000Y-118999000D03*
X120142000Y-48641000D03*
X119380000Y-50546000D03*
X118618000Y-52578000D03*
X115062000Y-57912000D03*
X114300000Y-59817000D03*
X113284000Y-62611000D03*
X125984000Y-65278000D03*
X117094000Y-117983000D03*
X140208000Y-86614000D03*
X124841000Y-117729000D03*
X137795000Y-91186000D03*
X150622000Y-93345000D03*
X188087000Y-123825000D03*
X179070000Y-104140000D03*
X179070000Y-121031000D03*
X178435000Y-119761000D03*
X142621000Y-79883000D03*
X128778000Y-80137000D03*
X181483000Y-92837000D03*
X193167000Y-91313000D03*
D24*
X129667000Y-105029000D02*
X126873000Y-107823000D01*
X129667000Y-98552000D02*
X129667000Y-105029000D01*
X130937000Y-97282000D02*
X129667000Y-98552000D01*
X126873000Y-107823000D02*
X126873000Y-110363000D01*
X126873000Y-110363000D02*
X126111000Y-111125000D01*
X131826000Y-125476000D02*
X131826000Y-131572000D01*
X131826000Y-131572000D02*
X132080000Y-131826000D01*
X158115000Y-105156000D02*
X156845000Y-103886000D01*
X150622000Y-105283000D02*
X151892000Y-104013000D01*
X151892000Y-104013000D02*
X156718000Y-104013000D01*
X156718000Y-104013000D02*
X156845000Y-103886000D01*
X157226000Y-91313000D02*
X155956000Y-90043000D01*
X156845000Y-103886000D02*
X157226000Y-103505000D01*
X157226000Y-103505000D02*
X157226000Y-91313000D01*
X155956000Y-90043000D02*
X155067000Y-90043000D01*
X158750000Y-91186000D02*
X155067000Y-87503000D01*
X158750000Y-116459000D02*
X158750000Y-91186000D01*
X161290000Y-118999000D02*
X158750000Y-116459000D01*
X176276000Y-118999000D02*
X161290000Y-118999000D01*
X177165000Y-119888000D02*
X176276000Y-118999000D01*
X139954000Y-75565000D02*
X139954000Y-75692000D01*
X139954000Y-75692000D02*
X141478000Y-77216000D01*
X144399000Y-77851000D02*
X144399000Y-80899000D01*
X143764000Y-77216000D02*
X144399000Y-77851000D01*
X141478000Y-77216000D02*
X143764000Y-77216000D01*
X144399000Y-81026000D02*
X144399000Y-80899000D01*
X136398000Y-89027000D02*
X144399000Y-81026000D01*
X139954000Y-76454000D02*
X139954000Y-75565000D01*
X143510000Y-120777000D02*
X146558000Y-123825000D01*
X126238000Y-120777000D02*
X143510000Y-120777000D01*
X122555000Y-117094000D02*
X126238000Y-120777000D01*
X142494000Y-72771000D02*
X142494000Y-75565000D01*
X141097000Y-71374000D02*
X142494000Y-72771000D01*
X114681000Y-91186000D02*
X116967000Y-88900000D01*
X114681000Y-108839000D02*
X114681000Y-91186000D01*
X116205000Y-110363000D02*
X114681000Y-108839000D01*
X116205000Y-113030000D02*
X116205000Y-110363000D01*
X116332000Y-113157000D02*
X116205000Y-113030000D01*
X177546000Y-91059000D02*
X176530000Y-92075000D01*
X177546000Y-79756000D02*
X177546000Y-91059000D01*
X179197000Y-78105000D02*
X177546000Y-79756000D01*
X183769000Y-78105000D02*
X182753000Y-79121000D01*
X182753000Y-79121000D02*
X179451000Y-79121000D01*
X179451000Y-79121000D02*
X178054000Y-80518000D01*
X178054000Y-80518000D02*
X178054000Y-92964000D01*
X178054000Y-92964000D02*
X176530000Y-94488000D01*
X187960000Y-78105000D02*
X186436000Y-79629000D01*
X186436000Y-79629000D02*
X180213000Y-79629000D01*
X180213000Y-79629000D02*
X178562000Y-81280000D01*
X178562000Y-81280000D02*
X178562000Y-94869000D01*
X178562000Y-94869000D02*
X176530000Y-96901000D01*
X117094000Y-115316000D02*
X113411000Y-118999000D01*
X131445000Y-115316000D02*
X117094000Y-115316000D01*
X132588000Y-114173000D02*
X131445000Y-115316000D01*
X132588000Y-86868000D02*
X132588000Y-114173000D01*
X133477000Y-85979000D02*
X132588000Y-86868000D01*
X138176000Y-85979000D02*
X133477000Y-85979000D01*
X143256000Y-80899000D02*
X138176000Y-85979000D01*
X114173000Y-109474000D02*
X113411000Y-110236000D01*
X113411000Y-110236000D02*
X113411000Y-118999000D01*
X123063000Y-77216000D02*
X123063000Y-41656000D01*
X123063000Y-41656000D02*
X126746000Y-37973000D01*
X126873000Y-90043000D02*
X125222000Y-90043000D01*
X120142000Y-84963000D02*
X120142000Y-48641000D01*
X125222000Y-90043000D02*
X120142000Y-84963000D01*
X126873000Y-92583000D02*
X126365000Y-92583000D01*
X126365000Y-92583000D02*
X119380000Y-85598000D01*
X119380000Y-85598000D02*
X119380000Y-50546000D01*
X126873000Y-95123000D02*
X125984000Y-95123000D01*
X125984000Y-95123000D02*
X125095000Y-94234000D01*
X118618000Y-85979000D02*
X118618000Y-52578000D01*
X125095000Y-92456000D02*
X118618000Y-85979000D01*
X125095000Y-94234000D02*
X125095000Y-92456000D01*
X126873000Y-97663000D02*
X124968000Y-97663000D01*
X115062000Y-63373000D02*
X115062000Y-57912000D01*
X113919000Y-64516000D02*
X115062000Y-63373000D01*
X113919000Y-70739000D02*
X113919000Y-64516000D01*
X117983000Y-74803000D02*
X113919000Y-70739000D01*
X117983000Y-86487000D02*
X117983000Y-74803000D01*
X124333000Y-92837000D02*
X117983000Y-86487000D01*
X124333000Y-97028000D02*
X124333000Y-92837000D01*
X124968000Y-97663000D02*
X124333000Y-97028000D01*
X126873000Y-100203000D02*
X124333000Y-100203000D01*
X114300000Y-62992000D02*
X114300000Y-59817000D01*
X113030000Y-64262000D02*
X114300000Y-62992000D01*
X113030000Y-70993000D02*
X113030000Y-64262000D01*
X117221000Y-75184000D02*
X113030000Y-70993000D01*
X117221000Y-86868000D02*
X117221000Y-75184000D01*
X123571000Y-93218000D02*
X117221000Y-86868000D01*
X123571000Y-99441000D02*
X123571000Y-93218000D01*
X124333000Y-100203000D02*
X123571000Y-99441000D01*
X126873000Y-102743000D02*
X124206000Y-102743000D01*
X112268000Y-63627000D02*
X113284000Y-62611000D01*
X112268000Y-71247000D02*
X112268000Y-63627000D01*
X116459000Y-75438000D02*
X112268000Y-71247000D01*
X116459000Y-87376000D02*
X116459000Y-75438000D01*
X122682000Y-93599000D02*
X116459000Y-87376000D01*
X122682000Y-101219000D02*
X122682000Y-93599000D01*
X124206000Y-102743000D02*
X122682000Y-101219000D01*
X155448000Y-42291000D02*
X159766000Y-37973000D01*
X148971000Y-42291000D02*
X155448000Y-42291000D01*
X125984000Y-65278000D02*
X148971000Y-42291000D01*
X118999000Y-116078000D02*
X117094000Y-117983000D01*
X131826000Y-116078000D02*
X118999000Y-116078000D01*
X136779000Y-111125000D02*
X131826000Y-116078000D01*
X136779000Y-90043000D02*
X136779000Y-111125000D01*
X140208000Y-86614000D02*
X136779000Y-90043000D01*
X125730000Y-116840000D02*
X124841000Y-117729000D01*
X132207000Y-116840000D02*
X125730000Y-116840000D01*
X137541000Y-111506000D02*
X132207000Y-116840000D01*
X137541000Y-91440000D02*
X137541000Y-111506000D01*
X137795000Y-91186000D02*
X137541000Y-91440000D01*
X150622000Y-93345000D02*
X152400000Y-95123000D01*
X152400000Y-95123000D02*
X155067000Y-95123000D01*
X188087000Y-123825000D02*
X188087000Y-128016000D01*
X140970000Y-101727000D02*
X142240000Y-101727000D01*
X180975000Y-125857000D02*
X180975000Y-128016000D01*
X175895000Y-120777000D02*
X180975000Y-125857000D01*
X161290000Y-120777000D02*
X175895000Y-120777000D01*
X142240000Y-101727000D02*
X161290000Y-120777000D01*
X180975000Y-128016000D02*
X180975000Y-127381000D01*
X140970000Y-94869000D02*
X140970000Y-94996000D01*
X140970000Y-94996000D02*
X141986000Y-96012000D01*
X153416000Y-96012000D02*
X155067000Y-97663000D01*
X141986000Y-96012000D02*
X153416000Y-96012000D01*
X140970000Y-94869000D02*
X140843000Y-94869000D01*
X140970000Y-99441000D02*
X140970000Y-99695000D01*
X140970000Y-99695000D02*
X161163000Y-119888000D01*
X176149000Y-119888000D02*
X184277000Y-128016000D01*
X161163000Y-119888000D02*
X176149000Y-119888000D01*
X184277000Y-128016000D02*
X184277000Y-127762000D01*
X126873000Y-105283000D02*
X125603000Y-105283000D01*
X120396000Y-102489000D02*
X118745000Y-104140000D01*
X122809000Y-102489000D02*
X120396000Y-102489000D01*
X125603000Y-105283000D02*
X122809000Y-102489000D01*
X162687000Y-102743000D02*
X162687000Y-102616000D01*
X162687000Y-102616000D02*
X165608000Y-99695000D01*
X165608000Y-99695000D02*
X165608000Y-92964000D01*
X165608000Y-92964000D02*
X166497000Y-92075000D01*
X166497000Y-92075000D02*
X168910000Y-92075000D01*
X162687000Y-105283000D02*
X162814000Y-105283000D01*
X162814000Y-105283000D02*
X166497000Y-101600000D01*
X166497000Y-101600000D02*
X166497000Y-95250000D01*
X166497000Y-95250000D02*
X167259000Y-94488000D01*
X167259000Y-94488000D02*
X168910000Y-94488000D01*
X162687000Y-107823000D02*
X162687000Y-107696000D01*
X162687000Y-107696000D02*
X167386000Y-102997000D01*
X167386000Y-102997000D02*
X167386000Y-97409000D01*
X167386000Y-97409000D02*
X167894000Y-96901000D01*
X167894000Y-96901000D02*
X168910000Y-96901000D01*
X179070000Y-121031000D02*
X179070000Y-104140000D01*
X178435000Y-119761000D02*
X178435000Y-99822000D01*
X178435000Y-99822000D02*
X177927000Y-99314000D01*
X177927000Y-99314000D02*
X176530000Y-99314000D01*
X129032000Y-79883000D02*
X142621000Y-79883000D01*
X128778000Y-80137000D02*
X129032000Y-79883000D01*
X181483000Y-92837000D02*
X181991000Y-92329000D01*
X181991000Y-92329000D02*
X192151000Y-92329000D01*
X192151000Y-92329000D02*
X193167000Y-91313000D01*
D25*
G36*
X196140000Y-35995253D02*
X196139923Y-35995176D01*
X195612691Y-35776250D01*
X195041813Y-35775752D01*
X194514200Y-35993757D01*
X194110176Y-36397077D01*
X193891250Y-36924309D01*
X193890752Y-37495187D01*
X194108757Y-38022800D01*
X194512077Y-38426824D01*
X194578544Y-38454423D01*
X194571995Y-38457136D01*
X194497861Y-38703255D01*
X195326000Y-39531395D01*
X195340142Y-39517252D01*
X195519748Y-39696858D01*
X195505605Y-39711000D01*
X195519748Y-39725142D01*
X195340142Y-39904748D01*
X195326000Y-39890605D01*
X194497861Y-40718745D01*
X194571995Y-40964864D01*
X195109223Y-41157965D01*
X195679454Y-41130778D01*
X196080005Y-40964864D01*
X196140000Y-40765685D01*
X196140000Y-133783000D01*
X111708000Y-133783000D01*
X111708000Y-132125297D01*
X117868438Y-132125297D01*
X118098035Y-132680964D01*
X118522800Y-133106471D01*
X119078065Y-133337037D01*
X119679297Y-133337562D01*
X120234964Y-133107965D01*
X120650351Y-132693302D01*
X121062800Y-133106471D01*
X121618065Y-133337037D01*
X122219297Y-133337562D01*
X122774964Y-133107965D01*
X123190351Y-132693302D01*
X123602800Y-133106471D01*
X124158065Y-133337037D01*
X124759297Y-133337562D01*
X125314964Y-133107965D01*
X125534310Y-132889001D01*
X128656604Y-132889001D01*
X128740104Y-133143027D01*
X129304997Y-133348882D01*
X129905668Y-133322891D01*
X130339896Y-133143027D01*
X130423396Y-132889001D01*
X129540000Y-132005605D01*
X128656604Y-132889001D01*
X125534310Y-132889001D01*
X125740471Y-132683200D01*
X125971037Y-132127935D01*
X125971505Y-131590997D01*
X128017118Y-131590997D01*
X128043109Y-132191668D01*
X128222973Y-132625896D01*
X128476999Y-132709396D01*
X129360395Y-131826000D01*
X128476999Y-130942604D01*
X128222973Y-131026104D01*
X128017118Y-131590997D01*
X125971505Y-131590997D01*
X125971562Y-131526703D01*
X125741965Y-130971036D01*
X125534291Y-130762999D01*
X128656604Y-130762999D01*
X129540000Y-131646395D01*
X130423396Y-130762999D01*
X130339896Y-130508973D01*
X129775003Y-130303118D01*
X129174332Y-130329109D01*
X128740104Y-130508973D01*
X128656604Y-130762999D01*
X125534291Y-130762999D01*
X125317200Y-130545529D01*
X124761935Y-130314963D01*
X124160703Y-130314438D01*
X123605036Y-130544035D01*
X123189649Y-130958698D01*
X122777200Y-130545529D01*
X122221935Y-130314963D01*
X121620703Y-130314438D01*
X121065036Y-130544035D01*
X120649649Y-130958698D01*
X120237200Y-130545529D01*
X119681935Y-130314963D01*
X119080703Y-130314438D01*
X118525036Y-130544035D01*
X118099529Y-130968800D01*
X117868963Y-131524065D01*
X117868438Y-132125297D01*
X111708000Y-132125297D01*
X111708000Y-126483745D01*
X128497861Y-126483745D01*
X128571995Y-126729864D01*
X129109223Y-126922965D01*
X129679454Y-126895778D01*
X130080005Y-126729864D01*
X130154139Y-126483745D01*
X129326000Y-125655605D01*
X128497861Y-126483745D01*
X111708000Y-126483745D01*
X111708000Y-125259223D01*
X127879035Y-125259223D01*
X127906222Y-125829454D01*
X128072136Y-126230005D01*
X128318255Y-126304139D01*
X129146395Y-125476000D01*
X129505605Y-125476000D01*
X130333745Y-126304139D01*
X130579864Y-126230005D01*
X130582196Y-126223517D01*
X130608757Y-126287800D01*
X131012077Y-126691824D01*
X131066000Y-126714215D01*
X131066000Y-130702794D01*
X130799529Y-130968800D01*
X130785497Y-131002592D01*
X130603001Y-130942604D01*
X129719605Y-131826000D01*
X130603001Y-132709396D01*
X130785056Y-132649553D01*
X130798035Y-132680964D01*
X131222800Y-133106471D01*
X131778065Y-133337037D01*
X132379297Y-133337562D01*
X132934964Y-133107965D01*
X133360471Y-132683200D01*
X133591037Y-132127935D01*
X133591215Y-131923907D01*
X137453000Y-131923907D01*
X137453000Y-131982093D01*
X137566039Y-132550378D01*
X137887946Y-133032147D01*
X138369715Y-133354054D01*
X138938000Y-133467093D01*
X139506285Y-133354054D01*
X139988054Y-133032147D01*
X140208000Y-132702974D01*
X140427946Y-133032147D01*
X140909715Y-133354054D01*
X141478000Y-133467093D01*
X142046285Y-133354054D01*
X142528054Y-133032147D01*
X142555850Y-132990548D01*
X142564838Y-133038317D01*
X142703910Y-133254441D01*
X142916110Y-133399431D01*
X143168000Y-133450440D01*
X144868000Y-133450440D01*
X145103317Y-133406162D01*
X145319441Y-133267090D01*
X145464431Y-133054890D01*
X145515440Y-132803000D01*
X145515440Y-131103000D01*
X145471162Y-130867683D01*
X145332090Y-130651559D01*
X145119890Y-130506569D01*
X144868000Y-130455560D01*
X143168000Y-130455560D01*
X142932683Y-130499838D01*
X142716559Y-130638910D01*
X142571569Y-130851110D01*
X142557914Y-130918541D01*
X142528054Y-130873853D01*
X142046285Y-130551946D01*
X141478000Y-130438907D01*
X140909715Y-130551946D01*
X140427946Y-130873853D01*
X140208000Y-131203026D01*
X139988054Y-130873853D01*
X139506285Y-130551946D01*
X138938000Y-130438907D01*
X138369715Y-130551946D01*
X137887946Y-130873853D01*
X137566039Y-131355622D01*
X137453000Y-131923907D01*
X133591215Y-131923907D01*
X133591562Y-131526703D01*
X133361965Y-130971036D01*
X132937200Y-130545529D01*
X132586000Y-130399698D01*
X132586000Y-128016000D01*
X172221907Y-128016000D01*
X172334946Y-128584285D01*
X172656853Y-129066054D01*
X172698452Y-129093850D01*
X172650683Y-129102838D01*
X172434559Y-129241910D01*
X172289569Y-129454110D01*
X172238560Y-129706000D01*
X172238560Y-131406000D01*
X172282838Y-131641317D01*
X172421910Y-131857441D01*
X172634110Y-132002431D01*
X172886000Y-132053440D01*
X174586000Y-132053440D01*
X174821317Y-132009162D01*
X175037441Y-131870090D01*
X175182431Y-131657890D01*
X175233440Y-131406000D01*
X175233440Y-129706000D01*
X175189162Y-129470683D01*
X175050090Y-129254559D01*
X174837890Y-129109569D01*
X174770459Y-129095914D01*
X174815147Y-129066054D01*
X175137054Y-128584285D01*
X175250093Y-128016000D01*
X175523907Y-128016000D01*
X175636946Y-128584285D01*
X175958853Y-129066054D01*
X176000452Y-129093850D01*
X175952683Y-129102838D01*
X175736559Y-129241910D01*
X175591569Y-129454110D01*
X175540560Y-129706000D01*
X175540560Y-131406000D01*
X175584838Y-131641317D01*
X175723910Y-131857441D01*
X175936110Y-132002431D01*
X176188000Y-132053440D01*
X177888000Y-132053440D01*
X178123317Y-132009162D01*
X178339441Y-131870090D01*
X178484431Y-131657890D01*
X178535440Y-131406000D01*
X178535440Y-129706000D01*
X178491162Y-129470683D01*
X178352090Y-129254559D01*
X178139890Y-129109569D01*
X178072459Y-129095914D01*
X178117147Y-129066054D01*
X178439054Y-128584285D01*
X178552093Y-128016000D01*
X178439054Y-127447715D01*
X178117147Y-126965946D01*
X177635378Y-126644039D01*
X177067093Y-126531000D01*
X177008907Y-126531000D01*
X176440622Y-126644039D01*
X175958853Y-126965946D01*
X175636946Y-127447715D01*
X175523907Y-128016000D01*
X175250093Y-128016000D01*
X175137054Y-127447715D01*
X174815147Y-126965946D01*
X174333378Y-126644039D01*
X173765093Y-126531000D01*
X173706907Y-126531000D01*
X173138622Y-126644039D01*
X172656853Y-126965946D01*
X172334946Y-127447715D01*
X172221907Y-128016000D01*
X132586000Y-128016000D01*
X132586000Y-126714646D01*
X132637800Y-126693243D01*
X133041824Y-126289923D01*
X133260750Y-125762691D01*
X133261248Y-125191813D01*
X133043243Y-124664200D01*
X132639923Y-124260176D01*
X132112691Y-124041250D01*
X131541813Y-124040752D01*
X131014200Y-124258757D01*
X130610176Y-124662077D01*
X130582577Y-124728544D01*
X130579864Y-124721995D01*
X130333745Y-124647861D01*
X129505605Y-125476000D01*
X129146395Y-125476000D01*
X128318255Y-124647861D01*
X128072136Y-124721995D01*
X127879035Y-125259223D01*
X111708000Y-125259223D01*
X111708000Y-124468255D01*
X128497861Y-124468255D01*
X129326000Y-125296395D01*
X130154139Y-124468255D01*
X130080005Y-124222136D01*
X129542777Y-124029035D01*
X128972546Y-124056222D01*
X128571995Y-124222136D01*
X128497861Y-124468255D01*
X111708000Y-124468255D01*
X111708000Y-80869307D01*
X112070898Y-80869307D01*
X112171520Y-81137822D01*
X112787042Y-81367016D01*
X113443419Y-81343214D01*
X113939280Y-81137822D01*
X114039902Y-80869307D01*
X113055400Y-79884805D01*
X112070898Y-80869307D01*
X111708000Y-80869307D01*
X111708000Y-80621016D01*
X111891293Y-80689702D01*
X112875795Y-79705200D01*
X113235005Y-79705200D01*
X114219507Y-80689702D01*
X114488022Y-80589080D01*
X114717216Y-79973558D01*
X114693414Y-79317181D01*
X114488022Y-78821320D01*
X114219507Y-78720698D01*
X113235005Y-79705200D01*
X112875795Y-79705200D01*
X111891293Y-78720698D01*
X111708000Y-78789384D01*
X111708000Y-78541093D01*
X112070898Y-78541093D01*
X113055400Y-79525595D01*
X114039902Y-78541093D01*
X113939280Y-78272578D01*
X113323758Y-78043384D01*
X112667381Y-78067186D01*
X112171520Y-78272578D01*
X112070898Y-78541093D01*
X111708000Y-78541093D01*
X111708000Y-75713954D01*
X112118963Y-76125634D01*
X112725555Y-76377513D01*
X113382363Y-76378086D01*
X113989395Y-76127266D01*
X114454234Y-75663237D01*
X114706113Y-75056645D01*
X114706372Y-74760174D01*
X115699000Y-75752802D01*
X115699000Y-87376000D01*
X115756852Y-87666839D01*
X115921599Y-87913401D01*
X116276428Y-88268230D01*
X116174808Y-88369673D01*
X116032162Y-88713201D01*
X116032121Y-88760077D01*
X114143599Y-90648599D01*
X113978852Y-90895161D01*
X113921000Y-91186000D01*
X113921000Y-108566453D01*
X113644057Y-108680883D01*
X113380808Y-108943673D01*
X113238162Y-109287201D01*
X113238121Y-109334077D01*
X112873599Y-109698599D01*
X112708852Y-109945161D01*
X112651000Y-110236000D01*
X112651000Y-118436537D01*
X112618808Y-118468673D01*
X112476162Y-118812201D01*
X112475838Y-119184167D01*
X112617883Y-119527943D01*
X112880673Y-119791192D01*
X113224201Y-119933838D01*
X113596167Y-119934162D01*
X113939943Y-119792117D01*
X114203192Y-119529327D01*
X114345838Y-119185799D01*
X114345879Y-119138923D01*
X117408802Y-116076000D01*
X117926198Y-116076000D01*
X116954320Y-117047878D01*
X116908833Y-117047838D01*
X116565057Y-117189883D01*
X116301808Y-117452673D01*
X116159162Y-117796201D01*
X116158838Y-118168167D01*
X116300883Y-118511943D01*
X116563673Y-118775192D01*
X116907201Y-118917838D01*
X117279167Y-118918162D01*
X117622943Y-118776117D01*
X117886192Y-118513327D01*
X118028838Y-118169799D01*
X118028879Y-118122923D01*
X119313802Y-116838000D01*
X121648897Y-116838000D01*
X121620162Y-116907201D01*
X121619838Y-117279167D01*
X121761883Y-117622943D01*
X122024673Y-117886192D01*
X122368201Y-118028838D01*
X122415077Y-118028879D01*
X125700599Y-121314401D01*
X125947161Y-121479148D01*
X126238000Y-121537000D01*
X143195198Y-121537000D01*
X143836046Y-122177848D01*
X143444511Y-122255729D01*
X142958330Y-122580585D01*
X142748000Y-122895366D01*
X142537670Y-122580585D01*
X142051489Y-122255729D01*
X141478000Y-122141655D01*
X140904511Y-122255729D01*
X140418330Y-122580585D01*
X140208000Y-122895366D01*
X139997670Y-122580585D01*
X139511489Y-122255729D01*
X138938000Y-122141655D01*
X138364511Y-122255729D01*
X137878330Y-122580585D01*
X137553474Y-123066766D01*
X137439400Y-123640255D01*
X137439400Y-124009745D01*
X137553474Y-124583234D01*
X137878330Y-125069415D01*
X138364511Y-125394271D01*
X138938000Y-125508345D01*
X139511489Y-125394271D01*
X139997670Y-125069415D01*
X140208000Y-124754634D01*
X140418330Y-125069415D01*
X140904511Y-125394271D01*
X141478000Y-125508345D01*
X142051489Y-125394271D01*
X142537670Y-125069415D01*
X142748000Y-124754634D01*
X142958330Y-125069415D01*
X143444511Y-125394271D01*
X144018000Y-125508345D01*
X144591489Y-125394271D01*
X145077670Y-125069415D01*
X145288000Y-124754634D01*
X145498330Y-125069415D01*
X145984511Y-125394271D01*
X146558000Y-125508345D01*
X147131489Y-125394271D01*
X147617670Y-125069415D01*
X147828000Y-124754634D01*
X148038330Y-125069415D01*
X148524511Y-125394271D01*
X149098000Y-125508345D01*
X149671489Y-125394271D01*
X150157670Y-125069415D01*
X150364461Y-124759931D01*
X150735964Y-125175732D01*
X151263209Y-125429709D01*
X151278974Y-125432358D01*
X151511000Y-125311217D01*
X151511000Y-123952000D01*
X151765000Y-123952000D01*
X151765000Y-125311217D01*
X151997026Y-125432358D01*
X152012791Y-125429709D01*
X152540036Y-125175732D01*
X152908000Y-124763892D01*
X153275964Y-125175732D01*
X153803209Y-125429709D01*
X153818974Y-125432358D01*
X154051000Y-125311217D01*
X154051000Y-123952000D01*
X151765000Y-123952000D01*
X151511000Y-123952000D01*
X151491000Y-123952000D01*
X151491000Y-123698000D01*
X151511000Y-123698000D01*
X151511000Y-122338783D01*
X151765000Y-122338783D01*
X151765000Y-123698000D01*
X154051000Y-123698000D01*
X154051000Y-122338783D01*
X154305000Y-122338783D01*
X154305000Y-123698000D01*
X154325000Y-123698000D01*
X154325000Y-123952000D01*
X154305000Y-123952000D01*
X154305000Y-125311217D01*
X154537026Y-125432358D01*
X154552791Y-125429709D01*
X155080036Y-125175732D01*
X155451539Y-124759931D01*
X155658330Y-125069415D01*
X156144511Y-125394271D01*
X156718000Y-125508345D01*
X157291489Y-125394271D01*
X157777670Y-125069415D01*
X158102526Y-124583234D01*
X158216600Y-124009745D01*
X158216600Y-123640255D01*
X160299400Y-123640255D01*
X160299400Y-124009745D01*
X160413474Y-124583234D01*
X160738330Y-125069415D01*
X161224511Y-125394271D01*
X161798000Y-125508345D01*
X162371489Y-125394271D01*
X162857670Y-125069415D01*
X163068000Y-124754634D01*
X163278330Y-125069415D01*
X163764511Y-125394271D01*
X164338000Y-125508345D01*
X164911489Y-125394271D01*
X165397670Y-125069415D01*
X165608000Y-124754634D01*
X165818330Y-125069415D01*
X166304511Y-125394271D01*
X166878000Y-125508345D01*
X167451489Y-125394271D01*
X167937670Y-125069415D01*
X168148000Y-124754634D01*
X168358330Y-125069415D01*
X168844511Y-125394271D01*
X169418000Y-125508345D01*
X169991489Y-125394271D01*
X170477670Y-125069415D01*
X170688000Y-124754634D01*
X170898330Y-125069415D01*
X171384511Y-125394271D01*
X171958000Y-125508345D01*
X172531489Y-125394271D01*
X173017670Y-125069415D01*
X173228000Y-124754634D01*
X173438330Y-125069415D01*
X173924511Y-125394271D01*
X174498000Y-125508345D01*
X175071489Y-125394271D01*
X175557670Y-125069415D01*
X175882526Y-124583234D01*
X175996600Y-124009745D01*
X175996600Y-123640255D01*
X175882526Y-123066766D01*
X175557670Y-122580585D01*
X175071489Y-122255729D01*
X174498000Y-122141655D01*
X173924511Y-122255729D01*
X173438330Y-122580585D01*
X173228000Y-122895366D01*
X173017670Y-122580585D01*
X172531489Y-122255729D01*
X171958000Y-122141655D01*
X171384511Y-122255729D01*
X170898330Y-122580585D01*
X170688000Y-122895366D01*
X170477670Y-122580585D01*
X169991489Y-122255729D01*
X169418000Y-122141655D01*
X168844511Y-122255729D01*
X168358330Y-122580585D01*
X168148000Y-122895366D01*
X167937670Y-122580585D01*
X167451489Y-122255729D01*
X166878000Y-122141655D01*
X166304511Y-122255729D01*
X165818330Y-122580585D01*
X165608000Y-122895366D01*
X165397670Y-122580585D01*
X164911489Y-122255729D01*
X164338000Y-122141655D01*
X163764511Y-122255729D01*
X163278330Y-122580585D01*
X163068000Y-122895366D01*
X162857670Y-122580585D01*
X162371489Y-122255729D01*
X161798000Y-122141655D01*
X161224511Y-122255729D01*
X160738330Y-122580585D01*
X160413474Y-123066766D01*
X160299400Y-123640255D01*
X158216600Y-123640255D01*
X158102526Y-123066766D01*
X157777670Y-122580585D01*
X157291489Y-122255729D01*
X156718000Y-122141655D01*
X156144511Y-122255729D01*
X155658330Y-122580585D01*
X155451539Y-122890069D01*
X155080036Y-122474268D01*
X154552791Y-122220291D01*
X154537026Y-122217642D01*
X154305000Y-122338783D01*
X154051000Y-122338783D01*
X153818974Y-122217642D01*
X153803209Y-122220291D01*
X153275964Y-122474268D01*
X152908000Y-122886108D01*
X152540036Y-122474268D01*
X152012791Y-122220291D01*
X151997026Y-122217642D01*
X151765000Y-122338783D01*
X151511000Y-122338783D01*
X151278974Y-122217642D01*
X151263209Y-122220291D01*
X150735964Y-122474268D01*
X150364461Y-122890069D01*
X150157670Y-122580585D01*
X149671489Y-122255729D01*
X149098000Y-122141655D01*
X148524511Y-122255729D01*
X148038330Y-122580585D01*
X147828000Y-122895366D01*
X147617670Y-122580585D01*
X147131489Y-122255729D01*
X146558000Y-122141655D01*
X146050421Y-122242619D01*
X144047401Y-120239599D01*
X143800839Y-120074852D01*
X143510000Y-120017000D01*
X126552802Y-120017000D01*
X125149149Y-118613347D01*
X125369943Y-118522117D01*
X125633192Y-118259327D01*
X125775838Y-117915799D01*
X125775879Y-117868923D01*
X126044802Y-117600000D01*
X132207000Y-117600000D01*
X132497839Y-117542148D01*
X132744401Y-117377401D01*
X138078401Y-112043401D01*
X138243148Y-111796839D01*
X138301000Y-111506000D01*
X138301000Y-95133383D01*
X139634769Y-95133383D01*
X139837582Y-95624229D01*
X140212796Y-96000098D01*
X140240922Y-96011777D01*
X140214771Y-96022582D01*
X139838902Y-96397796D01*
X139635232Y-96888287D01*
X139634769Y-97419383D01*
X139837582Y-97910229D01*
X140212796Y-98286098D01*
X140240922Y-98297777D01*
X140214771Y-98308582D01*
X139838902Y-98683796D01*
X139635232Y-99174287D01*
X139634769Y-99705383D01*
X139837582Y-100196229D01*
X140212796Y-100572098D01*
X140240922Y-100583777D01*
X140214771Y-100594582D01*
X139838902Y-100969796D01*
X139635232Y-101460287D01*
X139634769Y-101991383D01*
X139837582Y-102482229D01*
X140212796Y-102858098D01*
X140703287Y-103061768D01*
X141234383Y-103062231D01*
X141725229Y-102859418D01*
X142011672Y-102573474D01*
X160752599Y-121314401D01*
X160999160Y-121479148D01*
X161290000Y-121537000D01*
X175580198Y-121537000D01*
X180215000Y-126171802D01*
X180215000Y-126752699D01*
X179895853Y-126965946D01*
X179573946Y-127447715D01*
X179460907Y-128016000D01*
X179573946Y-128584285D01*
X179895853Y-129066054D01*
X179937452Y-129093850D01*
X179889683Y-129102838D01*
X179673559Y-129241910D01*
X179528569Y-129454110D01*
X179477560Y-129706000D01*
X179477560Y-131406000D01*
X179521838Y-131641317D01*
X179660910Y-131857441D01*
X179873110Y-132002431D01*
X180125000Y-132053440D01*
X181825000Y-132053440D01*
X182060317Y-132009162D01*
X182276441Y-131870090D01*
X182421431Y-131657890D01*
X182472440Y-131406000D01*
X182472440Y-129706000D01*
X182428162Y-129470683D01*
X182289090Y-129254559D01*
X182076890Y-129109569D01*
X182009459Y-129095914D01*
X182054147Y-129066054D01*
X182376054Y-128584285D01*
X182489093Y-128016000D01*
X182376054Y-127447715D01*
X182054147Y-126965946D01*
X181735000Y-126752699D01*
X181735000Y-126548802D01*
X182835790Y-127649592D01*
X182762907Y-128016000D01*
X182875946Y-128584285D01*
X183197853Y-129066054D01*
X183239452Y-129093850D01*
X183191683Y-129102838D01*
X182975559Y-129241910D01*
X182830569Y-129454110D01*
X182779560Y-129706000D01*
X182779560Y-131406000D01*
X182823838Y-131641317D01*
X182962910Y-131857441D01*
X183175110Y-132002431D01*
X183427000Y-132053440D01*
X185127000Y-132053440D01*
X185362317Y-132009162D01*
X185578441Y-131870090D01*
X185723431Y-131657890D01*
X185774440Y-131406000D01*
X185774440Y-129706000D01*
X185730162Y-129470683D01*
X185591090Y-129254559D01*
X185378890Y-129109569D01*
X185311459Y-129095914D01*
X185356147Y-129066054D01*
X185678054Y-128584285D01*
X185791093Y-128016000D01*
X186572907Y-128016000D01*
X186685946Y-128584285D01*
X187007853Y-129066054D01*
X187049452Y-129093850D01*
X187001683Y-129102838D01*
X186785559Y-129241910D01*
X186640569Y-129454110D01*
X186589560Y-129706000D01*
X186589560Y-131406000D01*
X186633838Y-131641317D01*
X186772910Y-131857441D01*
X186985110Y-132002431D01*
X187237000Y-132053440D01*
X188937000Y-132053440D01*
X189172317Y-132009162D01*
X189388441Y-131870090D01*
X189533431Y-131657890D01*
X189584440Y-131406000D01*
X189584440Y-129706000D01*
X189540162Y-129470683D01*
X189401090Y-129254559D01*
X189188890Y-129109569D01*
X189121459Y-129095914D01*
X189166147Y-129066054D01*
X189488054Y-128584285D01*
X189601093Y-128016000D01*
X189874907Y-128016000D01*
X189987946Y-128584285D01*
X190309853Y-129066054D01*
X190351452Y-129093850D01*
X190303683Y-129102838D01*
X190087559Y-129241910D01*
X189942569Y-129454110D01*
X189891560Y-129706000D01*
X189891560Y-131406000D01*
X189935838Y-131641317D01*
X190074910Y-131857441D01*
X190287110Y-132002431D01*
X190539000Y-132053440D01*
X192239000Y-132053440D01*
X192474317Y-132009162D01*
X192690441Y-131870090D01*
X192835431Y-131657890D01*
X192886440Y-131406000D01*
X192886440Y-129706000D01*
X192842162Y-129470683D01*
X192703090Y-129254559D01*
X192490890Y-129109569D01*
X192423459Y-129095914D01*
X192468147Y-129066054D01*
X192790054Y-128584285D01*
X192903093Y-128016000D01*
X192790054Y-127447715D01*
X192468147Y-126965946D01*
X191986378Y-126644039D01*
X191418093Y-126531000D01*
X191359907Y-126531000D01*
X190791622Y-126644039D01*
X190309853Y-126965946D01*
X189987946Y-127447715D01*
X189874907Y-128016000D01*
X189601093Y-128016000D01*
X189488054Y-127447715D01*
X189166147Y-126965946D01*
X188847000Y-126752699D01*
X188847000Y-124387463D01*
X188879192Y-124355327D01*
X189021838Y-124011799D01*
X189022162Y-123639833D01*
X188880117Y-123296057D01*
X188617327Y-123032808D01*
X188273799Y-122890162D01*
X187901833Y-122889838D01*
X187558057Y-123031883D01*
X187294808Y-123294673D01*
X187152162Y-123638201D01*
X187151838Y-124010167D01*
X187293883Y-124353943D01*
X187327000Y-124387118D01*
X187327000Y-126752699D01*
X187007853Y-126965946D01*
X186685946Y-127447715D01*
X186572907Y-128016000D01*
X185791093Y-128016000D01*
X185678054Y-127447715D01*
X185356147Y-126965946D01*
X184874378Y-126644039D01*
X184306093Y-126531000D01*
X184247907Y-126531000D01*
X183930031Y-126594229D01*
X179288281Y-121952479D01*
X179598943Y-121824117D01*
X179862192Y-121561327D01*
X180004838Y-121217799D01*
X180005162Y-120845833D01*
X179863117Y-120502057D01*
X179830000Y-120468882D01*
X179830000Y-104702463D01*
X179862192Y-104670327D01*
X180004838Y-104326799D01*
X180005162Y-103954833D01*
X179863117Y-103611057D01*
X179600327Y-103347808D01*
X179256799Y-103205162D01*
X179195000Y-103205108D01*
X179195000Y-99822000D01*
X179137148Y-99531161D01*
X178972401Y-99284599D01*
X178464401Y-98776599D01*
X178217839Y-98611852D01*
X177927000Y-98554000D01*
X177623078Y-98554000D01*
X177500142Y-98370012D01*
X177106756Y-98107161D01*
X177285229Y-98033418D01*
X177661098Y-97658204D01*
X177864768Y-97167713D01*
X177865228Y-96640574D01*
X179099401Y-95406401D01*
X179264148Y-95159839D01*
X179322000Y-94869000D01*
X179322000Y-93022167D01*
X180547838Y-93022167D01*
X180689883Y-93365943D01*
X180952673Y-93629192D01*
X181296201Y-93771838D01*
X181668167Y-93772162D01*
X182011943Y-93630117D01*
X182275192Y-93367327D01*
X182390764Y-93089000D01*
X192151000Y-93089000D01*
X192441839Y-93031148D01*
X192688401Y-92866401D01*
X193306680Y-92248122D01*
X193352167Y-92248162D01*
X193695943Y-92106117D01*
X193959192Y-91843327D01*
X194101838Y-91499799D01*
X194102162Y-91127833D01*
X193960117Y-90784057D01*
X193697327Y-90520808D01*
X193353799Y-90378162D01*
X192981833Y-90377838D01*
X192638057Y-90519883D01*
X192374808Y-90782673D01*
X192232162Y-91126201D01*
X192232121Y-91173077D01*
X191836198Y-91569000D01*
X181991000Y-91569000D01*
X181700161Y-91626852D01*
X181568323Y-91714943D01*
X181453599Y-91791599D01*
X181343320Y-91901878D01*
X181297833Y-91901838D01*
X180954057Y-92043883D01*
X180690808Y-92306673D01*
X180548162Y-92650201D01*
X180547838Y-93022167D01*
X179322000Y-93022167D01*
X179322000Y-81594802D01*
X180527802Y-80389000D01*
X186436000Y-80389000D01*
X186726839Y-80331148D01*
X186973401Y-80166401D01*
X188099680Y-79040122D01*
X188145167Y-79040162D01*
X188488943Y-78898117D01*
X188752192Y-78635327D01*
X188894838Y-78291799D01*
X188895162Y-77919833D01*
X188753117Y-77576057D01*
X188490327Y-77312808D01*
X188146799Y-77170162D01*
X187774833Y-77169838D01*
X187431057Y-77311883D01*
X187167808Y-77574673D01*
X187025162Y-77918201D01*
X187025121Y-77965077D01*
X186121198Y-78869000D01*
X184327111Y-78869000D01*
X184561192Y-78635327D01*
X184703838Y-78291799D01*
X184704162Y-77919833D01*
X184562117Y-77576057D01*
X184299327Y-77312808D01*
X183955799Y-77170162D01*
X183583833Y-77169838D01*
X183240057Y-77311883D01*
X182976808Y-77574673D01*
X182834162Y-77918201D01*
X182834121Y-77965077D01*
X182438198Y-78361000D01*
X180103103Y-78361000D01*
X180131838Y-78291799D01*
X180132162Y-77919833D01*
X179990117Y-77576057D01*
X179727327Y-77312808D01*
X179383799Y-77170162D01*
X179011833Y-77169838D01*
X178668057Y-77311883D01*
X178404808Y-77574673D01*
X178262162Y-77918201D01*
X178262121Y-77965077D01*
X177008599Y-79218599D01*
X176843852Y-79465161D01*
X176786000Y-79756000D01*
X176786000Y-90740223D01*
X176265617Y-90739769D01*
X175774771Y-90942582D01*
X175398902Y-91317796D01*
X175195232Y-91808287D01*
X175194769Y-92339383D01*
X175397582Y-92830229D01*
X175772796Y-93206098D01*
X175954224Y-93281434D01*
X175774771Y-93355582D01*
X175398902Y-93730796D01*
X175195232Y-94221287D01*
X175194769Y-94752383D01*
X175397582Y-95243229D01*
X175772796Y-95619098D01*
X175954224Y-95694434D01*
X175774771Y-95768582D01*
X175398902Y-96143796D01*
X175195232Y-96634287D01*
X175194769Y-97165383D01*
X175397582Y-97656229D01*
X175772796Y-98032098D01*
X175953368Y-98107078D01*
X175559858Y-98370012D01*
X175270467Y-98803118D01*
X175168846Y-99314000D01*
X175270467Y-99824882D01*
X175559858Y-100257988D01*
X175952737Y-100520500D01*
X175559858Y-100783012D01*
X175270467Y-101216118D01*
X175168846Y-101727000D01*
X175270467Y-102237882D01*
X175559858Y-102670988D01*
X175992964Y-102960379D01*
X176503846Y-103062000D01*
X176556154Y-103062000D01*
X177067036Y-102960379D01*
X177500142Y-102670988D01*
X177675000Y-102409293D01*
X177675000Y-119087367D01*
X177351799Y-118953162D01*
X177304923Y-118953121D01*
X176813401Y-118461599D01*
X176566839Y-118296852D01*
X176276000Y-118239000D01*
X161604802Y-118239000D01*
X159510000Y-116144198D01*
X159510000Y-91186000D01*
X159452148Y-90895161D01*
X159287401Y-90648599D01*
X156914440Y-88275638D01*
X156914440Y-87503000D01*
X160816050Y-87503000D01*
X160925283Y-88052151D01*
X161236352Y-88517698D01*
X161618438Y-88773000D01*
X161236352Y-89028302D01*
X160925283Y-89493849D01*
X160816050Y-90043000D01*
X160925283Y-90592151D01*
X161236352Y-91057698D01*
X161618438Y-91313000D01*
X161236352Y-91568302D01*
X160925283Y-92033849D01*
X160816050Y-92583000D01*
X160925283Y-93132151D01*
X161236352Y-93597698D01*
X161618438Y-93853000D01*
X161236352Y-94108302D01*
X160925283Y-94573849D01*
X160816050Y-95123000D01*
X160925283Y-95672151D01*
X161236352Y-96137698D01*
X161618438Y-96393000D01*
X161236352Y-96648302D01*
X160925283Y-97113849D01*
X160816050Y-97663000D01*
X160925283Y-98212151D01*
X161236352Y-98677698D01*
X161618438Y-98933000D01*
X161236352Y-99188302D01*
X160925283Y-99653849D01*
X160816050Y-100203000D01*
X160925283Y-100752151D01*
X161236352Y-101217698D01*
X161618438Y-101473000D01*
X161236352Y-101728302D01*
X160925283Y-102193849D01*
X160816050Y-102743000D01*
X160925283Y-103292151D01*
X161236352Y-103757698D01*
X161618438Y-104013000D01*
X161236352Y-104268302D01*
X160925283Y-104733849D01*
X160816050Y-105283000D01*
X160925283Y-105832151D01*
X161236352Y-106297698D01*
X161618438Y-106553000D01*
X161236352Y-106808302D01*
X160925283Y-107273849D01*
X160816050Y-107823000D01*
X160925283Y-108372151D01*
X161236352Y-108837698D01*
X161701899Y-109148767D01*
X162251050Y-109258000D01*
X163122950Y-109258000D01*
X163672101Y-109148767D01*
X164137648Y-108837698D01*
X164448717Y-108372151D01*
X164557950Y-107823000D01*
X164448717Y-107273849D01*
X164342667Y-107115135D01*
X167923401Y-103534401D01*
X168088148Y-103287839D01*
X168146000Y-102997000D01*
X168146000Y-102851290D01*
X168152796Y-102858098D01*
X168643287Y-103061768D01*
X169174383Y-103062231D01*
X169665229Y-102859418D01*
X170041098Y-102484204D01*
X170244768Y-101993713D01*
X170245231Y-101462617D01*
X170042418Y-100971771D01*
X169667204Y-100595902D01*
X169485776Y-100520566D01*
X169665229Y-100446418D01*
X170041098Y-100071204D01*
X170244768Y-99580713D01*
X170245231Y-99049617D01*
X170042418Y-98558771D01*
X169667204Y-98182902D01*
X169486632Y-98107922D01*
X169880142Y-97844988D01*
X170169533Y-97411882D01*
X170271154Y-96901000D01*
X170169533Y-96390118D01*
X169880142Y-95957012D01*
X169487263Y-95694500D01*
X169880142Y-95431988D01*
X170169533Y-94998882D01*
X170271154Y-94488000D01*
X170169533Y-93977118D01*
X169880142Y-93544012D01*
X169487263Y-93281500D01*
X169880142Y-93018988D01*
X170169533Y-92585882D01*
X170271154Y-92075000D01*
X170169533Y-91564118D01*
X169880142Y-91131012D01*
X169447036Y-90841621D01*
X168936154Y-90740000D01*
X168883846Y-90740000D01*
X168372964Y-90841621D01*
X167939858Y-91131012D01*
X167816922Y-91315000D01*
X166497000Y-91315000D01*
X166206161Y-91372852D01*
X165959599Y-91537599D01*
X165070599Y-92426599D01*
X164905852Y-92673161D01*
X164848000Y-92964000D01*
X164848000Y-99380198D01*
X164469561Y-99758637D01*
X164448717Y-99653849D01*
X164137648Y-99188302D01*
X163755562Y-98933000D01*
X164137648Y-98677698D01*
X164448717Y-98212151D01*
X164557950Y-97663000D01*
X164448717Y-97113849D01*
X164137648Y-96648302D01*
X163755562Y-96393000D01*
X164137648Y-96137698D01*
X164448717Y-95672151D01*
X164557950Y-95123000D01*
X164448717Y-94573849D01*
X164137648Y-94108302D01*
X163755562Y-93853000D01*
X164137648Y-93597698D01*
X164448717Y-93132151D01*
X164557950Y-92583000D01*
X164448717Y-92033849D01*
X164137648Y-91568302D01*
X163755562Y-91313000D01*
X164137648Y-91057698D01*
X164448717Y-90592151D01*
X164557950Y-90043000D01*
X164448717Y-89493849D01*
X164137648Y-89028302D01*
X163755562Y-88773000D01*
X164137648Y-88517698D01*
X164448717Y-88052151D01*
X164557950Y-87503000D01*
X164448717Y-86953849D01*
X164137648Y-86488302D01*
X163672101Y-86177233D01*
X163122950Y-86068000D01*
X162251050Y-86068000D01*
X161701899Y-86177233D01*
X161236352Y-86488302D01*
X160925283Y-86953849D01*
X160816050Y-87503000D01*
X156914440Y-87503000D01*
X156914440Y-86703000D01*
X156870162Y-86467683D01*
X156731090Y-86251559D01*
X156518890Y-86106569D01*
X156267000Y-86055560D01*
X153867000Y-86055560D01*
X153631683Y-86099838D01*
X153415559Y-86238910D01*
X153270569Y-86451110D01*
X153219560Y-86703000D01*
X153219560Y-88303000D01*
X153263838Y-88538317D01*
X153402910Y-88754441D01*
X153615110Y-88899431D01*
X153764074Y-88929597D01*
X153616352Y-89028302D01*
X153305283Y-89493849D01*
X153196050Y-90043000D01*
X153305283Y-90592151D01*
X153616352Y-91057698D01*
X153998438Y-91313000D01*
X153616352Y-91568302D01*
X153305283Y-92033849D01*
X153196050Y-92583000D01*
X153305283Y-93132151D01*
X153616352Y-93597698D01*
X153998438Y-93853000D01*
X153616352Y-94108302D01*
X153446168Y-94363000D01*
X152714802Y-94363000D01*
X151557122Y-93205320D01*
X151557162Y-93159833D01*
X151415117Y-92816057D01*
X151152327Y-92552808D01*
X150808799Y-92410162D01*
X150436833Y-92409838D01*
X150093057Y-92551883D01*
X149829808Y-92814673D01*
X149687162Y-93158201D01*
X149686838Y-93530167D01*
X149828883Y-93873943D01*
X150091673Y-94137192D01*
X150435201Y-94279838D01*
X150482077Y-94279879D01*
X151454198Y-95252000D01*
X149862143Y-95252000D01*
X149882716Y-95202329D01*
X149759374Y-94996000D01*
X148717000Y-94996000D01*
X148717000Y-95016000D01*
X148463000Y-95016000D01*
X148463000Y-94996000D01*
X147420626Y-94996000D01*
X147297284Y-95202329D01*
X147317857Y-95252000D01*
X142300802Y-95252000D01*
X142269485Y-95220683D01*
X142304768Y-95135713D01*
X142305231Y-94604617D01*
X142276744Y-94535671D01*
X147297284Y-94535671D01*
X147420626Y-94742000D01*
X148463000Y-94742000D01*
X148463000Y-93698794D01*
X148717000Y-93698794D01*
X148717000Y-94742000D01*
X149759374Y-94742000D01*
X149882716Y-94535671D01*
X149739797Y-94190604D01*
X149392663Y-93802236D01*
X148923331Y-93576273D01*
X148717000Y-93698794D01*
X148463000Y-93698794D01*
X148256669Y-93576273D01*
X147787337Y-93802236D01*
X147440203Y-94190604D01*
X147297284Y-94535671D01*
X142276744Y-94535671D01*
X142102418Y-94113771D01*
X141727204Y-93737902D01*
X141236713Y-93534232D01*
X140705617Y-93533769D01*
X140214771Y-93736582D01*
X139838902Y-94111796D01*
X139635232Y-94602287D01*
X139634769Y-95133383D01*
X138301000Y-95133383D01*
X138301000Y-91988597D01*
X138323943Y-91979117D01*
X138587192Y-91716327D01*
X138729838Y-91372799D01*
X138730162Y-91000833D01*
X138588117Y-90657057D01*
X138325327Y-90393808D01*
X137981799Y-90251162D01*
X137645933Y-90250869D01*
X140347680Y-87549122D01*
X140393167Y-87549162D01*
X140736943Y-87407117D01*
X140737874Y-87406187D01*
X148297752Y-87406187D01*
X148515757Y-87933800D01*
X148919077Y-88337824D01*
X149446309Y-88556750D01*
X150017187Y-88557248D01*
X150544800Y-88339243D01*
X150948824Y-87935923D01*
X151167750Y-87408691D01*
X151168248Y-86837813D01*
X150950243Y-86310200D01*
X150546923Y-85906176D01*
X150480456Y-85878577D01*
X150487005Y-85875864D01*
X150561139Y-85629745D01*
X149733000Y-84801605D01*
X148904861Y-85629745D01*
X148978995Y-85875864D01*
X148985483Y-85878196D01*
X148921200Y-85904757D01*
X148517176Y-86308077D01*
X148298250Y-86835309D01*
X148297752Y-87406187D01*
X140737874Y-87406187D01*
X141000192Y-87144327D01*
X141142838Y-86800799D01*
X141143162Y-86428833D01*
X141001117Y-86085057D01*
X140738327Y-85821808D01*
X140695696Y-85804106D01*
X142094579Y-84405223D01*
X148286035Y-84405223D01*
X148313222Y-84975454D01*
X148479136Y-85376005D01*
X148725255Y-85450139D01*
X149553395Y-84622000D01*
X149912605Y-84622000D01*
X150740745Y-85450139D01*
X150986864Y-85376005D01*
X151170112Y-84866187D01*
X161378752Y-84866187D01*
X161596757Y-85393800D01*
X162000077Y-85797824D01*
X162527309Y-86016750D01*
X163098187Y-86017248D01*
X163625800Y-85799243D01*
X163835663Y-85589745D01*
X164485861Y-85589745D01*
X164559995Y-85835864D01*
X165097223Y-86028965D01*
X165667454Y-86001778D01*
X166068005Y-85835864D01*
X166142139Y-85589745D01*
X165314000Y-84761605D01*
X164485861Y-85589745D01*
X163835663Y-85589745D01*
X164029824Y-85395923D01*
X164057423Y-85329456D01*
X164060136Y-85336005D01*
X164306255Y-85410139D01*
X165134395Y-84582000D01*
X165493605Y-84582000D01*
X166321745Y-85410139D01*
X166567864Y-85336005D01*
X166760965Y-84798777D01*
X166733778Y-84228546D01*
X166567864Y-83827995D01*
X166321745Y-83753861D01*
X165493605Y-84582000D01*
X165134395Y-84582000D01*
X164306255Y-83753861D01*
X164060136Y-83827995D01*
X164057804Y-83834483D01*
X164031243Y-83770200D01*
X163835640Y-83574255D01*
X164485861Y-83574255D01*
X165314000Y-84402395D01*
X166142139Y-83574255D01*
X166068005Y-83328136D01*
X165530777Y-83135035D01*
X164960546Y-83162222D01*
X164559995Y-83328136D01*
X164485861Y-83574255D01*
X163835640Y-83574255D01*
X163627923Y-83366176D01*
X163100691Y-83147250D01*
X162529813Y-83146752D01*
X162002200Y-83364757D01*
X161598176Y-83768077D01*
X161379250Y-84295309D01*
X161378752Y-84866187D01*
X151170112Y-84866187D01*
X151179965Y-84838777D01*
X151152778Y-84268546D01*
X150986864Y-83867995D01*
X150740745Y-83793861D01*
X149912605Y-84622000D01*
X149553395Y-84622000D01*
X148725255Y-83793861D01*
X148479136Y-83867995D01*
X148286035Y-84405223D01*
X142094579Y-84405223D01*
X142885547Y-83614255D01*
X148904861Y-83614255D01*
X149733000Y-84442395D01*
X150561139Y-83614255D01*
X150487005Y-83368136D01*
X149949777Y-83175035D01*
X149379546Y-83202222D01*
X148978995Y-83368136D01*
X148904861Y-83614255D01*
X142885547Y-83614255D01*
X144723008Y-81776794D01*
X144927943Y-81692117D01*
X145191192Y-81429327D01*
X145333838Y-81085799D01*
X145334162Y-80713833D01*
X145192117Y-80370057D01*
X145159000Y-80336882D01*
X145159000Y-77851000D01*
X145101148Y-77560161D01*
X144936401Y-77313599D01*
X144830710Y-77207908D01*
X145034000Y-77248345D01*
X145607489Y-77134271D01*
X146093670Y-76809415D01*
X146304000Y-76494634D01*
X146514330Y-76809415D01*
X147000511Y-77134271D01*
X147574000Y-77248345D01*
X148147489Y-77134271D01*
X148633670Y-76809415D01*
X148844000Y-76494634D01*
X149054330Y-76809415D01*
X149540511Y-77134271D01*
X150114000Y-77248345D01*
X150687489Y-77134271D01*
X151173670Y-76809415D01*
X151384000Y-76494634D01*
X151594330Y-76809415D01*
X152080511Y-77134271D01*
X152654000Y-77248345D01*
X153227489Y-77134271D01*
X153713670Y-76809415D01*
X154038526Y-76323234D01*
X154152600Y-75749745D01*
X154152600Y-75380255D01*
X155219400Y-75380255D01*
X155219400Y-75749745D01*
X155333474Y-76323234D01*
X155658330Y-76809415D01*
X156144511Y-77134271D01*
X156718000Y-77248345D01*
X157291489Y-77134271D01*
X157777670Y-76809415D01*
X157988000Y-76494634D01*
X158198330Y-76809415D01*
X158684511Y-77134271D01*
X159258000Y-77248345D01*
X159831489Y-77134271D01*
X160317670Y-76809415D01*
X160528000Y-76494634D01*
X160738330Y-76809415D01*
X161224511Y-77134271D01*
X161798000Y-77248345D01*
X162371489Y-77134271D01*
X162857670Y-76809415D01*
X163068000Y-76494634D01*
X163278330Y-76809415D01*
X163764511Y-77134271D01*
X164338000Y-77248345D01*
X164911489Y-77134271D01*
X165397670Y-76809415D01*
X165608000Y-76494634D01*
X165818330Y-76809415D01*
X166304511Y-77134271D01*
X166878000Y-77248345D01*
X167451489Y-77134271D01*
X167937670Y-76809415D01*
X168148000Y-76494634D01*
X168358330Y-76809415D01*
X168844511Y-77134271D01*
X169418000Y-77248345D01*
X169991489Y-77134271D01*
X170477670Y-76809415D01*
X170688000Y-76494634D01*
X170898330Y-76809415D01*
X171384511Y-77134271D01*
X171958000Y-77248345D01*
X172531489Y-77134271D01*
X173017670Y-76809415D01*
X173228000Y-76494634D01*
X173438330Y-76809415D01*
X173924511Y-77134271D01*
X174498000Y-77248345D01*
X175071489Y-77134271D01*
X175557670Y-76809415D01*
X175882526Y-76323234D01*
X175996600Y-75749745D01*
X175996600Y-75380255D01*
X175882526Y-74806766D01*
X175557670Y-74320585D01*
X175071489Y-73995729D01*
X174498000Y-73881655D01*
X173924511Y-73995729D01*
X173438330Y-74320585D01*
X173228000Y-74635366D01*
X173017670Y-74320585D01*
X172531489Y-73995729D01*
X171958000Y-73881655D01*
X171384511Y-73995729D01*
X170898330Y-74320585D01*
X170688000Y-74635366D01*
X170477670Y-74320585D01*
X169991489Y-73995729D01*
X169418000Y-73881655D01*
X168844511Y-73995729D01*
X168358330Y-74320585D01*
X168148000Y-74635366D01*
X167937670Y-74320585D01*
X167451489Y-73995729D01*
X166878000Y-73881655D01*
X166304511Y-73995729D01*
X165818330Y-74320585D01*
X165608000Y-74635366D01*
X165397670Y-74320585D01*
X164911489Y-73995729D01*
X164338000Y-73881655D01*
X163764511Y-73995729D01*
X163278330Y-74320585D01*
X163068000Y-74635366D01*
X162857670Y-74320585D01*
X162371489Y-73995729D01*
X161798000Y-73881655D01*
X161224511Y-73995729D01*
X160738330Y-74320585D01*
X160528000Y-74635366D01*
X160317670Y-74320585D01*
X159831489Y-73995729D01*
X159258000Y-73881655D01*
X158684511Y-73995729D01*
X158198330Y-74320585D01*
X157988000Y-74635366D01*
X157777670Y-74320585D01*
X157291489Y-73995729D01*
X156718000Y-73881655D01*
X156144511Y-73995729D01*
X155658330Y-74320585D01*
X155333474Y-74806766D01*
X155219400Y-75380255D01*
X154152600Y-75380255D01*
X154038526Y-74806766D01*
X153713670Y-74320585D01*
X153227489Y-73995729D01*
X152654000Y-73881655D01*
X152080511Y-73995729D01*
X151594330Y-74320585D01*
X151384000Y-74635366D01*
X151173670Y-74320585D01*
X150687489Y-73995729D01*
X150114000Y-73881655D01*
X149540511Y-73995729D01*
X149054330Y-74320585D01*
X148844000Y-74635366D01*
X148633670Y-74320585D01*
X148147489Y-73995729D01*
X147574000Y-73881655D01*
X147000511Y-73995729D01*
X146514330Y-74320585D01*
X146304000Y-74635366D01*
X146093670Y-74320585D01*
X145607489Y-73995729D01*
X145034000Y-73881655D01*
X144460511Y-73995729D01*
X143974330Y-74320585D01*
X143764000Y-74635366D01*
X143553670Y-74320585D01*
X143254000Y-74120352D01*
X143254000Y-72771000D01*
X143196148Y-72480161D01*
X143196148Y-72480160D01*
X143031401Y-72233599D01*
X142032122Y-71234320D01*
X142032162Y-71188833D01*
X141890117Y-70845057D01*
X141627327Y-70581808D01*
X141283799Y-70439162D01*
X140911833Y-70438838D01*
X140568057Y-70580883D01*
X140304808Y-70843673D01*
X140162162Y-71187201D01*
X140161838Y-71559167D01*
X140303883Y-71902943D01*
X140566673Y-72166192D01*
X140910201Y-72308838D01*
X140957077Y-72308879D01*
X141734000Y-73085802D01*
X141734000Y-74120352D01*
X141434330Y-74320585D01*
X141224000Y-74635366D01*
X141013670Y-74320585D01*
X140527489Y-73995729D01*
X139954000Y-73881655D01*
X139380511Y-73995729D01*
X138894330Y-74320585D01*
X138687539Y-74630069D01*
X138316036Y-74214268D01*
X137788791Y-73960291D01*
X137773026Y-73957642D01*
X137541000Y-74078783D01*
X137541000Y-75438000D01*
X137561000Y-75438000D01*
X137561000Y-75692000D01*
X137541000Y-75692000D01*
X137541000Y-77051217D01*
X137773026Y-77172358D01*
X137788791Y-77169709D01*
X138316036Y-76915732D01*
X138687539Y-76499931D01*
X138894330Y-76809415D01*
X139380511Y-77134271D01*
X139954000Y-77248345D01*
X140355650Y-77168452D01*
X140940599Y-77753401D01*
X141187160Y-77918148D01*
X141235414Y-77927746D01*
X141478000Y-77976000D01*
X143449198Y-77976000D01*
X143639000Y-78165802D01*
X143639000Y-80045632D01*
X143555889Y-80011121D01*
X143556162Y-79697833D01*
X143414117Y-79354057D01*
X143151327Y-79090808D01*
X142807799Y-78948162D01*
X142435833Y-78947838D01*
X142092057Y-79089883D01*
X142058882Y-79123000D01*
X129032000Y-79123000D01*
X128741160Y-79180852D01*
X128709600Y-79201940D01*
X128592833Y-79201838D01*
X128249057Y-79343883D01*
X127985808Y-79606673D01*
X127843162Y-79950201D01*
X127842838Y-80322167D01*
X127984883Y-80665943D01*
X128247673Y-80929192D01*
X128591201Y-81071838D01*
X128963167Y-81072162D01*
X129306943Y-80930117D01*
X129570192Y-80667327D01*
X129580294Y-80643000D01*
X142058537Y-80643000D01*
X142090673Y-80675192D01*
X142312779Y-80767419D01*
X137861198Y-85219000D01*
X133477000Y-85219000D01*
X133186161Y-85276852D01*
X132939599Y-85441599D01*
X132050599Y-86330599D01*
X131885852Y-86577161D01*
X131828000Y-86868000D01*
X131828000Y-96989953D01*
X131730117Y-96753057D01*
X131467327Y-96489808D01*
X131123799Y-96347162D01*
X130751833Y-96346838D01*
X130408057Y-96488883D01*
X130144808Y-96751673D01*
X130002162Y-97095201D01*
X130002121Y-97142077D01*
X129129599Y-98014599D01*
X128964852Y-98261161D01*
X128907000Y-98552000D01*
X128907000Y-104714198D01*
X128676631Y-104944567D01*
X128634717Y-104733849D01*
X128323648Y-104268302D01*
X127941562Y-104013000D01*
X128323648Y-103757698D01*
X128634717Y-103292151D01*
X128743950Y-102743000D01*
X128634717Y-102193849D01*
X128323648Y-101728302D01*
X127941562Y-101473000D01*
X128323648Y-101217698D01*
X128634717Y-100752151D01*
X128743950Y-100203000D01*
X128634717Y-99653849D01*
X128323648Y-99188302D01*
X127941562Y-98933000D01*
X128323648Y-98677698D01*
X128634717Y-98212151D01*
X128743950Y-97663000D01*
X128634717Y-97113849D01*
X128323648Y-96648302D01*
X127941562Y-96393000D01*
X128323648Y-96137698D01*
X128634717Y-95672151D01*
X128743950Y-95123000D01*
X128634717Y-94573849D01*
X128323648Y-94108302D01*
X127941562Y-93853000D01*
X128323648Y-93597698D01*
X128634717Y-93132151D01*
X128743950Y-92583000D01*
X128634717Y-92033849D01*
X128323648Y-91568302D01*
X127941562Y-91313000D01*
X128323648Y-91057698D01*
X128634717Y-90592151D01*
X128743950Y-90043000D01*
X128634717Y-89493849D01*
X128323648Y-89028302D01*
X127941562Y-88773000D01*
X128323648Y-88517698D01*
X128634717Y-88052151D01*
X128743950Y-87503000D01*
X128634717Y-86953849D01*
X128323648Y-86488302D01*
X127858101Y-86177233D01*
X127308950Y-86068000D01*
X126437050Y-86068000D01*
X125887899Y-86177233D01*
X125422352Y-86488302D01*
X125111283Y-86953849D01*
X125002050Y-87503000D01*
X125111283Y-88052151D01*
X125422352Y-88517698D01*
X125804438Y-88773000D01*
X125422352Y-89028302D01*
X125366176Y-89112374D01*
X120902000Y-84648198D01*
X120902000Y-77542963D01*
X121411714Y-77542963D01*
X121662534Y-78149995D01*
X122126563Y-78614834D01*
X122733155Y-78866713D01*
X123389963Y-78867286D01*
X123996995Y-78616466D01*
X124461834Y-78152437D01*
X124713713Y-77545845D01*
X124714286Y-76889037D01*
X124463466Y-76282005D01*
X123999437Y-75817166D01*
X123823000Y-75743903D01*
X123823000Y-75380255D01*
X128295400Y-75380255D01*
X128295400Y-75749745D01*
X128409474Y-76323234D01*
X128734330Y-76809415D01*
X129220511Y-77134271D01*
X129794000Y-77248345D01*
X130367489Y-77134271D01*
X130853670Y-76809415D01*
X131064000Y-76494634D01*
X131274330Y-76809415D01*
X131760511Y-77134271D01*
X132334000Y-77248345D01*
X132907489Y-77134271D01*
X133393670Y-76809415D01*
X133604000Y-76494634D01*
X133814330Y-76809415D01*
X134300511Y-77134271D01*
X134874000Y-77248345D01*
X135447489Y-77134271D01*
X135933670Y-76809415D01*
X136140461Y-76499931D01*
X136511964Y-76915732D01*
X137039209Y-77169709D01*
X137054974Y-77172358D01*
X137287000Y-77051217D01*
X137287000Y-75692000D01*
X137267000Y-75692000D01*
X137267000Y-75438000D01*
X137287000Y-75438000D01*
X137287000Y-74078783D01*
X137054974Y-73957642D01*
X137039209Y-73960291D01*
X136511964Y-74214268D01*
X136140461Y-74630069D01*
X135933670Y-74320585D01*
X135447489Y-73995729D01*
X134874000Y-73881655D01*
X134300511Y-73995729D01*
X133814330Y-74320585D01*
X133604000Y-74635366D01*
X133393670Y-74320585D01*
X132907489Y-73995729D01*
X132334000Y-73881655D01*
X131760511Y-73995729D01*
X131274330Y-74320585D01*
X131064000Y-74635366D01*
X130853670Y-74320585D01*
X130367489Y-73995729D01*
X129794000Y-73881655D01*
X129220511Y-73995729D01*
X128734330Y-74320585D01*
X128409474Y-74806766D01*
X128295400Y-75380255D01*
X123823000Y-75380255D01*
X123823000Y-69396515D01*
X189030110Y-69396515D01*
X189354460Y-70181500D01*
X189954521Y-70782609D01*
X190738939Y-71108328D01*
X191588295Y-71109070D01*
X192373280Y-70784720D01*
X192974389Y-70184659D01*
X193300108Y-69400241D01*
X193300850Y-68550885D01*
X192976500Y-67765900D01*
X192376439Y-67164791D01*
X191592021Y-66839072D01*
X190742665Y-66838330D01*
X189957680Y-67162680D01*
X189356571Y-67762741D01*
X189030852Y-68547159D01*
X189030110Y-69396515D01*
X123823000Y-69396515D01*
X123823000Y-65463167D01*
X125048838Y-65463167D01*
X125190883Y-65806943D01*
X125453673Y-66070192D01*
X125797201Y-66212838D01*
X126169167Y-66213162D01*
X126512943Y-66071117D01*
X126776192Y-65808327D01*
X126918838Y-65464799D01*
X126918879Y-65417923D01*
X149285802Y-43051000D01*
X155448000Y-43051000D01*
X155738839Y-42993148D01*
X155985401Y-42828401D01*
X159062381Y-39751421D01*
X159178581Y-39829064D01*
X159766000Y-39945909D01*
X160353419Y-39829064D01*
X160851409Y-39496318D01*
X161184155Y-38998328D01*
X161301000Y-38410909D01*
X161301000Y-38395815D01*
X189030110Y-38395815D01*
X189354460Y-39180800D01*
X189954521Y-39781909D01*
X190738939Y-40107628D01*
X191588295Y-40108370D01*
X192373280Y-39784020D01*
X192663583Y-39494223D01*
X193879035Y-39494223D01*
X193906222Y-40064454D01*
X194072136Y-40465005D01*
X194318255Y-40539139D01*
X195146395Y-39711000D01*
X194318255Y-38882861D01*
X194072136Y-38956995D01*
X193879035Y-39494223D01*
X192663583Y-39494223D01*
X192974389Y-39183959D01*
X193300108Y-38399541D01*
X193300850Y-37550185D01*
X192976500Y-36765200D01*
X192376439Y-36164091D01*
X191592021Y-35838372D01*
X190742665Y-35837630D01*
X189957680Y-36161980D01*
X189356571Y-36762041D01*
X189030852Y-37546459D01*
X189030110Y-38395815D01*
X161301000Y-38395815D01*
X161301000Y-37535091D01*
X161184155Y-36947672D01*
X160851409Y-36449682D01*
X160353419Y-36116936D01*
X159766000Y-36000091D01*
X159178581Y-36116936D01*
X158680591Y-36449682D01*
X158496000Y-36725942D01*
X158311409Y-36449682D01*
X157813419Y-36116936D01*
X157226000Y-36000091D01*
X156638581Y-36116936D01*
X156140591Y-36449682D01*
X155956000Y-36725942D01*
X155771409Y-36449682D01*
X155273419Y-36116936D01*
X154686000Y-36000091D01*
X154098581Y-36116936D01*
X153600591Y-36449682D01*
X153416000Y-36725942D01*
X153231409Y-36449682D01*
X152733419Y-36116936D01*
X152146000Y-36000091D01*
X151558581Y-36116936D01*
X151060591Y-36449682D01*
X150876000Y-36725942D01*
X150691409Y-36449682D01*
X150193419Y-36116936D01*
X149606000Y-36000091D01*
X149018581Y-36116936D01*
X148520591Y-36449682D01*
X148336000Y-36725942D01*
X148151409Y-36449682D01*
X147653419Y-36116936D01*
X147066000Y-36000091D01*
X146478581Y-36116936D01*
X145980591Y-36449682D01*
X145796000Y-36725942D01*
X145611409Y-36449682D01*
X145113419Y-36116936D01*
X144526000Y-36000091D01*
X143938581Y-36116936D01*
X143440591Y-36449682D01*
X143256000Y-36725942D01*
X143071409Y-36449682D01*
X142573419Y-36116936D01*
X141986000Y-36000091D01*
X141398581Y-36116936D01*
X140900591Y-36449682D01*
X140716000Y-36725942D01*
X140531409Y-36449682D01*
X140033419Y-36116936D01*
X139446000Y-36000091D01*
X138858581Y-36116936D01*
X138360591Y-36449682D01*
X138176000Y-36725942D01*
X137991409Y-36449682D01*
X137493419Y-36116936D01*
X136906000Y-36000091D01*
X136318581Y-36116936D01*
X135820591Y-36449682D01*
X135636000Y-36725942D01*
X135451409Y-36449682D01*
X134953419Y-36116936D01*
X134366000Y-36000091D01*
X133778581Y-36116936D01*
X133280591Y-36449682D01*
X133089808Y-36735210D01*
X132821606Y-36397788D01*
X132296086Y-36106244D01*
X132190740Y-36081964D01*
X131953000Y-36202622D01*
X131953000Y-37846000D01*
X131973000Y-37846000D01*
X131973000Y-38100000D01*
X131953000Y-38100000D01*
X131953000Y-39743378D01*
X132190740Y-39864036D01*
X132296086Y-39839756D01*
X132821606Y-39548212D01*
X133089808Y-39210790D01*
X133280591Y-39496318D01*
X133778581Y-39829064D01*
X134366000Y-39945909D01*
X134953419Y-39829064D01*
X135451409Y-39496318D01*
X135636000Y-39220058D01*
X135820591Y-39496318D01*
X136318581Y-39829064D01*
X136906000Y-39945909D01*
X137493419Y-39829064D01*
X137991409Y-39496318D01*
X138176000Y-39220058D01*
X138360591Y-39496318D01*
X138858581Y-39829064D01*
X139446000Y-39945909D01*
X140033419Y-39829064D01*
X140531409Y-39496318D01*
X140716000Y-39220058D01*
X140900591Y-39496318D01*
X141398581Y-39829064D01*
X141986000Y-39945909D01*
X142573419Y-39829064D01*
X143071409Y-39496318D01*
X143256000Y-39220058D01*
X143440591Y-39496318D01*
X143938581Y-39829064D01*
X144526000Y-39945909D01*
X145113419Y-39829064D01*
X145611409Y-39496318D01*
X145796000Y-39220058D01*
X145980591Y-39496318D01*
X146478581Y-39829064D01*
X147066000Y-39945909D01*
X147653419Y-39829064D01*
X148151409Y-39496318D01*
X148336000Y-39220058D01*
X148520591Y-39496318D01*
X149018581Y-39829064D01*
X149606000Y-39945909D01*
X150193419Y-39829064D01*
X150691409Y-39496318D01*
X150876000Y-39220058D01*
X151060591Y-39496318D01*
X151558581Y-39829064D01*
X152146000Y-39945909D01*
X152733419Y-39829064D01*
X153231409Y-39496318D01*
X153416000Y-39220058D01*
X153600591Y-39496318D01*
X154098581Y-39829064D01*
X154686000Y-39945909D01*
X155273419Y-39829064D01*
X155771409Y-39496318D01*
X155956000Y-39220058D01*
X156140591Y-39496318D01*
X156638581Y-39829064D01*
X156802524Y-39861674D01*
X155133198Y-41531000D01*
X148971000Y-41531000D01*
X148680161Y-41588852D01*
X148433599Y-41753599D01*
X125844320Y-64342878D01*
X125798833Y-64342838D01*
X125455057Y-64484883D01*
X125191808Y-64747673D01*
X125049162Y-65091201D01*
X125048838Y-65463167D01*
X123823000Y-65463167D01*
X123823000Y-41970802D01*
X126042381Y-39751421D01*
X126158581Y-39829064D01*
X126746000Y-39945909D01*
X127333419Y-39829064D01*
X127831409Y-39496318D01*
X128016000Y-39220058D01*
X128200591Y-39496318D01*
X128698581Y-39829064D01*
X129286000Y-39945909D01*
X129873419Y-39829064D01*
X130371409Y-39496318D01*
X130562192Y-39210790D01*
X130830394Y-39548212D01*
X131355914Y-39839756D01*
X131461260Y-39864036D01*
X131699000Y-39743378D01*
X131699000Y-38100000D01*
X131679000Y-38100000D01*
X131679000Y-37846000D01*
X131699000Y-37846000D01*
X131699000Y-36202622D01*
X131461260Y-36081964D01*
X131355914Y-36106244D01*
X130830394Y-36397788D01*
X130562192Y-36735210D01*
X130371409Y-36449682D01*
X129873419Y-36116936D01*
X129286000Y-36000091D01*
X128698581Y-36116936D01*
X128200591Y-36449682D01*
X128016000Y-36725942D01*
X127831409Y-36449682D01*
X127333419Y-36116936D01*
X126746000Y-36000091D01*
X126158581Y-36116936D01*
X125660591Y-36449682D01*
X125476000Y-36725942D01*
X125291409Y-36449682D01*
X124793419Y-36116936D01*
X124206000Y-36000091D01*
X123618581Y-36116936D01*
X123120591Y-36449682D01*
X122929808Y-36735210D01*
X122661606Y-36397788D01*
X122136086Y-36106244D01*
X122030740Y-36081964D01*
X121793000Y-36202622D01*
X121793000Y-37846000D01*
X121813000Y-37846000D01*
X121813000Y-38100000D01*
X121793000Y-38100000D01*
X121793000Y-39743378D01*
X122030740Y-39864036D01*
X122136086Y-39839756D01*
X122661606Y-39548212D01*
X122929808Y-39210790D01*
X123120591Y-39496318D01*
X123618581Y-39829064D01*
X123782524Y-39861674D01*
X122525599Y-41118599D01*
X122360852Y-41365161D01*
X122303000Y-41656000D01*
X122303000Y-75743641D01*
X122129005Y-75815534D01*
X121664166Y-76279563D01*
X121412287Y-76886155D01*
X121411714Y-77542963D01*
X120902000Y-77542963D01*
X120902000Y-49203463D01*
X120934192Y-49171327D01*
X121076838Y-48827799D01*
X121077162Y-48455833D01*
X120935117Y-48112057D01*
X120672327Y-47848808D01*
X120328799Y-47706162D01*
X119956833Y-47705838D01*
X119613057Y-47847883D01*
X119349808Y-48110673D01*
X119207162Y-48454201D01*
X119206838Y-48826167D01*
X119348883Y-49169943D01*
X119382000Y-49203118D01*
X119382000Y-49611001D01*
X119194833Y-49610838D01*
X118851057Y-49752883D01*
X118587808Y-50015673D01*
X118445162Y-50359201D01*
X118444838Y-50731167D01*
X118586883Y-51074943D01*
X118620000Y-51108118D01*
X118620000Y-51643001D01*
X118432833Y-51642838D01*
X118089057Y-51784883D01*
X117825808Y-52047673D01*
X117683162Y-52391201D01*
X117682838Y-52763167D01*
X117824883Y-53106943D01*
X117858000Y-53140118D01*
X117858000Y-67645771D01*
X117377859Y-67164791D01*
X116593441Y-66839072D01*
X115744085Y-66838330D01*
X114959100Y-67162680D01*
X114679000Y-67442292D01*
X114679000Y-64830802D01*
X115599401Y-63910401D01*
X115764148Y-63663839D01*
X115822000Y-63373000D01*
X115822000Y-58474463D01*
X115854192Y-58442327D01*
X115996838Y-58098799D01*
X115997162Y-57726833D01*
X115855117Y-57383057D01*
X115592327Y-57119808D01*
X115248799Y-56977162D01*
X114876833Y-56976838D01*
X114533057Y-57118883D01*
X114269808Y-57381673D01*
X114127162Y-57725201D01*
X114126838Y-58097167D01*
X114268883Y-58440943D01*
X114302000Y-58474118D01*
X114302000Y-58882001D01*
X114114833Y-58881838D01*
X113771057Y-59023883D01*
X113507808Y-59286673D01*
X113365162Y-59630201D01*
X113364838Y-60002167D01*
X113506883Y-60345943D01*
X113540000Y-60379118D01*
X113540000Y-61704897D01*
X113470799Y-61676162D01*
X113098833Y-61675838D01*
X112755057Y-61817883D01*
X112491808Y-62080673D01*
X112349162Y-62424201D01*
X112349121Y-62471077D01*
X111730599Y-63089599D01*
X111708000Y-63123421D01*
X111708000Y-38395815D01*
X114031530Y-38395815D01*
X114355880Y-39180800D01*
X114955941Y-39781909D01*
X115740359Y-40107628D01*
X116589715Y-40108370D01*
X117374700Y-39784020D01*
X117975809Y-39183959D01*
X118301528Y-38399541D01*
X118301789Y-38100000D01*
X120131000Y-38100000D01*
X120131000Y-38500000D01*
X120296446Y-39077752D01*
X120670394Y-39548212D01*
X121195914Y-39839756D01*
X121301260Y-39864036D01*
X121539000Y-39743378D01*
X121539000Y-38100000D01*
X120131000Y-38100000D01*
X118301789Y-38100000D01*
X118302270Y-37550185D01*
X118259222Y-37446000D01*
X120131000Y-37446000D01*
X120131000Y-37846000D01*
X121539000Y-37846000D01*
X121539000Y-36202622D01*
X121301260Y-36081964D01*
X121195914Y-36106244D01*
X120670394Y-36397788D01*
X120296446Y-36868248D01*
X120131000Y-37446000D01*
X118259222Y-37446000D01*
X117977920Y-36765200D01*
X117377859Y-36164091D01*
X116593441Y-35838372D01*
X115744085Y-35837630D01*
X114959100Y-36161980D01*
X114357991Y-36762041D01*
X114032272Y-37546459D01*
X114031530Y-38395815D01*
X111708000Y-38395815D01*
X111708000Y-35254000D01*
X196140000Y-35254000D01*
X196140000Y-35995253D01*
X196140000Y-35995253D01*
G37*
X196140000Y-35995253D02*
X196139923Y-35995176D01*
X195612691Y-35776250D01*
X195041813Y-35775752D01*
X194514200Y-35993757D01*
X194110176Y-36397077D01*
X193891250Y-36924309D01*
X193890752Y-37495187D01*
X194108757Y-38022800D01*
X194512077Y-38426824D01*
X194578544Y-38454423D01*
X194571995Y-38457136D01*
X194497861Y-38703255D01*
X195326000Y-39531395D01*
X195340142Y-39517252D01*
X195519748Y-39696858D01*
X195505605Y-39711000D01*
X195519748Y-39725142D01*
X195340142Y-39904748D01*
X195326000Y-39890605D01*
X194497861Y-40718745D01*
X194571995Y-40964864D01*
X195109223Y-41157965D01*
X195679454Y-41130778D01*
X196080005Y-40964864D01*
X196140000Y-40765685D01*
X196140000Y-133783000D01*
X111708000Y-133783000D01*
X111708000Y-132125297D01*
X117868438Y-132125297D01*
X118098035Y-132680964D01*
X118522800Y-133106471D01*
X119078065Y-133337037D01*
X119679297Y-133337562D01*
X120234964Y-133107965D01*
X120650351Y-132693302D01*
X121062800Y-133106471D01*
X121618065Y-133337037D01*
X122219297Y-133337562D01*
X122774964Y-133107965D01*
X123190351Y-132693302D01*
X123602800Y-133106471D01*
X124158065Y-133337037D01*
X124759297Y-133337562D01*
X125314964Y-133107965D01*
X125534310Y-132889001D01*
X128656604Y-132889001D01*
X128740104Y-133143027D01*
X129304997Y-133348882D01*
X129905668Y-133322891D01*
X130339896Y-133143027D01*
X130423396Y-132889001D01*
X129540000Y-132005605D01*
X128656604Y-132889001D01*
X125534310Y-132889001D01*
X125740471Y-132683200D01*
X125971037Y-132127935D01*
X125971505Y-131590997D01*
X128017118Y-131590997D01*
X128043109Y-132191668D01*
X128222973Y-132625896D01*
X128476999Y-132709396D01*
X129360395Y-131826000D01*
X128476999Y-130942604D01*
X128222973Y-131026104D01*
X128017118Y-131590997D01*
X125971505Y-131590997D01*
X125971562Y-131526703D01*
X125741965Y-130971036D01*
X125534291Y-130762999D01*
X128656604Y-130762999D01*
X129540000Y-131646395D01*
X130423396Y-130762999D01*
X130339896Y-130508973D01*
X129775003Y-130303118D01*
X129174332Y-130329109D01*
X128740104Y-130508973D01*
X128656604Y-130762999D01*
X125534291Y-130762999D01*
X125317200Y-130545529D01*
X124761935Y-130314963D01*
X124160703Y-130314438D01*
X123605036Y-130544035D01*
X123189649Y-130958698D01*
X122777200Y-130545529D01*
X122221935Y-130314963D01*
X121620703Y-130314438D01*
X121065036Y-130544035D01*
X120649649Y-130958698D01*
X120237200Y-130545529D01*
X119681935Y-130314963D01*
X119080703Y-130314438D01*
X118525036Y-130544035D01*
X118099529Y-130968800D01*
X117868963Y-131524065D01*
X117868438Y-132125297D01*
X111708000Y-132125297D01*
X111708000Y-126483745D01*
X128497861Y-126483745D01*
X128571995Y-126729864D01*
X129109223Y-126922965D01*
X129679454Y-126895778D01*
X130080005Y-126729864D01*
X130154139Y-126483745D01*
X129326000Y-125655605D01*
X128497861Y-126483745D01*
X111708000Y-126483745D01*
X111708000Y-125259223D01*
X127879035Y-125259223D01*
X127906222Y-125829454D01*
X128072136Y-126230005D01*
X128318255Y-126304139D01*
X129146395Y-125476000D01*
X129505605Y-125476000D01*
X130333745Y-126304139D01*
X130579864Y-126230005D01*
X130582196Y-126223517D01*
X130608757Y-126287800D01*
X131012077Y-126691824D01*
X131066000Y-126714215D01*
X131066000Y-130702794D01*
X130799529Y-130968800D01*
X130785497Y-131002592D01*
X130603001Y-130942604D01*
X129719605Y-131826000D01*
X130603001Y-132709396D01*
X130785056Y-132649553D01*
X130798035Y-132680964D01*
X131222800Y-133106471D01*
X131778065Y-133337037D01*
X132379297Y-133337562D01*
X132934964Y-133107965D01*
X133360471Y-132683200D01*
X133591037Y-132127935D01*
X133591215Y-131923907D01*
X137453000Y-131923907D01*
X137453000Y-131982093D01*
X137566039Y-132550378D01*
X137887946Y-133032147D01*
X138369715Y-133354054D01*
X138938000Y-133467093D01*
X139506285Y-133354054D01*
X139988054Y-133032147D01*
X140208000Y-132702974D01*
X140427946Y-133032147D01*
X140909715Y-133354054D01*
X141478000Y-133467093D01*
X142046285Y-133354054D01*
X142528054Y-133032147D01*
X142555850Y-132990548D01*
X142564838Y-133038317D01*
X142703910Y-133254441D01*
X142916110Y-133399431D01*
X143168000Y-133450440D01*
X144868000Y-133450440D01*
X145103317Y-133406162D01*
X145319441Y-133267090D01*
X145464431Y-133054890D01*
X145515440Y-132803000D01*
X145515440Y-131103000D01*
X145471162Y-130867683D01*
X145332090Y-130651559D01*
X145119890Y-130506569D01*
X144868000Y-130455560D01*
X143168000Y-130455560D01*
X142932683Y-130499838D01*
X142716559Y-130638910D01*
X142571569Y-130851110D01*
X142557914Y-130918541D01*
X142528054Y-130873853D01*
X142046285Y-130551946D01*
X141478000Y-130438907D01*
X140909715Y-130551946D01*
X140427946Y-130873853D01*
X140208000Y-131203026D01*
X139988054Y-130873853D01*
X139506285Y-130551946D01*
X138938000Y-130438907D01*
X138369715Y-130551946D01*
X137887946Y-130873853D01*
X137566039Y-131355622D01*
X137453000Y-131923907D01*
X133591215Y-131923907D01*
X133591562Y-131526703D01*
X133361965Y-130971036D01*
X132937200Y-130545529D01*
X132586000Y-130399698D01*
X132586000Y-128016000D01*
X172221907Y-128016000D01*
X172334946Y-128584285D01*
X172656853Y-129066054D01*
X172698452Y-129093850D01*
X172650683Y-129102838D01*
X172434559Y-129241910D01*
X172289569Y-129454110D01*
X172238560Y-129706000D01*
X172238560Y-131406000D01*
X172282838Y-131641317D01*
X172421910Y-131857441D01*
X172634110Y-132002431D01*
X172886000Y-132053440D01*
X174586000Y-132053440D01*
X174821317Y-132009162D01*
X175037441Y-131870090D01*
X175182431Y-131657890D01*
X175233440Y-131406000D01*
X175233440Y-129706000D01*
X175189162Y-129470683D01*
X175050090Y-129254559D01*
X174837890Y-129109569D01*
X174770459Y-129095914D01*
X174815147Y-129066054D01*
X175137054Y-128584285D01*
X175250093Y-128016000D01*
X175523907Y-128016000D01*
X175636946Y-128584285D01*
X175958853Y-129066054D01*
X176000452Y-129093850D01*
X175952683Y-129102838D01*
X175736559Y-129241910D01*
X175591569Y-129454110D01*
X175540560Y-129706000D01*
X175540560Y-131406000D01*
X175584838Y-131641317D01*
X175723910Y-131857441D01*
X175936110Y-132002431D01*
X176188000Y-132053440D01*
X177888000Y-132053440D01*
X178123317Y-132009162D01*
X178339441Y-131870090D01*
X178484431Y-131657890D01*
X178535440Y-131406000D01*
X178535440Y-129706000D01*
X178491162Y-129470683D01*
X178352090Y-129254559D01*
X178139890Y-129109569D01*
X178072459Y-129095914D01*
X178117147Y-129066054D01*
X178439054Y-128584285D01*
X178552093Y-128016000D01*
X178439054Y-127447715D01*
X178117147Y-126965946D01*
X177635378Y-126644039D01*
X177067093Y-126531000D01*
X177008907Y-126531000D01*
X176440622Y-126644039D01*
X175958853Y-126965946D01*
X175636946Y-127447715D01*
X175523907Y-128016000D01*
X175250093Y-128016000D01*
X175137054Y-127447715D01*
X174815147Y-126965946D01*
X174333378Y-126644039D01*
X173765093Y-126531000D01*
X173706907Y-126531000D01*
X173138622Y-126644039D01*
X172656853Y-126965946D01*
X172334946Y-127447715D01*
X172221907Y-128016000D01*
X132586000Y-128016000D01*
X132586000Y-126714646D01*
X132637800Y-126693243D01*
X133041824Y-126289923D01*
X133260750Y-125762691D01*
X133261248Y-125191813D01*
X133043243Y-124664200D01*
X132639923Y-124260176D01*
X132112691Y-124041250D01*
X131541813Y-124040752D01*
X131014200Y-124258757D01*
X130610176Y-124662077D01*
X130582577Y-124728544D01*
X130579864Y-124721995D01*
X130333745Y-124647861D01*
X129505605Y-125476000D01*
X129146395Y-125476000D01*
X128318255Y-124647861D01*
X128072136Y-124721995D01*
X127879035Y-125259223D01*
X111708000Y-125259223D01*
X111708000Y-124468255D01*
X128497861Y-124468255D01*
X129326000Y-125296395D01*
X130154139Y-124468255D01*
X130080005Y-124222136D01*
X129542777Y-124029035D01*
X128972546Y-124056222D01*
X128571995Y-124222136D01*
X128497861Y-124468255D01*
X111708000Y-124468255D01*
X111708000Y-80869307D01*
X112070898Y-80869307D01*
X112171520Y-81137822D01*
X112787042Y-81367016D01*
X113443419Y-81343214D01*
X113939280Y-81137822D01*
X114039902Y-80869307D01*
X113055400Y-79884805D01*
X112070898Y-80869307D01*
X111708000Y-80869307D01*
X111708000Y-80621016D01*
X111891293Y-80689702D01*
X112875795Y-79705200D01*
X113235005Y-79705200D01*
X114219507Y-80689702D01*
X114488022Y-80589080D01*
X114717216Y-79973558D01*
X114693414Y-79317181D01*
X114488022Y-78821320D01*
X114219507Y-78720698D01*
X113235005Y-79705200D01*
X112875795Y-79705200D01*
X111891293Y-78720698D01*
X111708000Y-78789384D01*
X111708000Y-78541093D01*
X112070898Y-78541093D01*
X113055400Y-79525595D01*
X114039902Y-78541093D01*
X113939280Y-78272578D01*
X113323758Y-78043384D01*
X112667381Y-78067186D01*
X112171520Y-78272578D01*
X112070898Y-78541093D01*
X111708000Y-78541093D01*
X111708000Y-75713954D01*
X112118963Y-76125634D01*
X112725555Y-76377513D01*
X113382363Y-76378086D01*
X113989395Y-76127266D01*
X114454234Y-75663237D01*
X114706113Y-75056645D01*
X114706372Y-74760174D01*
X115699000Y-75752802D01*
X115699000Y-87376000D01*
X115756852Y-87666839D01*
X115921599Y-87913401D01*
X116276428Y-88268230D01*
X116174808Y-88369673D01*
X116032162Y-88713201D01*
X116032121Y-88760077D01*
X114143599Y-90648599D01*
X113978852Y-90895161D01*
X113921000Y-91186000D01*
X113921000Y-108566453D01*
X113644057Y-108680883D01*
X113380808Y-108943673D01*
X113238162Y-109287201D01*
X113238121Y-109334077D01*
X112873599Y-109698599D01*
X112708852Y-109945161D01*
X112651000Y-110236000D01*
X112651000Y-118436537D01*
X112618808Y-118468673D01*
X112476162Y-118812201D01*
X112475838Y-119184167D01*
X112617883Y-119527943D01*
X112880673Y-119791192D01*
X113224201Y-119933838D01*
X113596167Y-119934162D01*
X113939943Y-119792117D01*
X114203192Y-119529327D01*
X114345838Y-119185799D01*
X114345879Y-119138923D01*
X117408802Y-116076000D01*
X117926198Y-116076000D01*
X116954320Y-117047878D01*
X116908833Y-117047838D01*
X116565057Y-117189883D01*
X116301808Y-117452673D01*
X116159162Y-117796201D01*
X116158838Y-118168167D01*
X116300883Y-118511943D01*
X116563673Y-118775192D01*
X116907201Y-118917838D01*
X117279167Y-118918162D01*
X117622943Y-118776117D01*
X117886192Y-118513327D01*
X118028838Y-118169799D01*
X118028879Y-118122923D01*
X119313802Y-116838000D01*
X121648897Y-116838000D01*
X121620162Y-116907201D01*
X121619838Y-117279167D01*
X121761883Y-117622943D01*
X122024673Y-117886192D01*
X122368201Y-118028838D01*
X122415077Y-118028879D01*
X125700599Y-121314401D01*
X125947161Y-121479148D01*
X126238000Y-121537000D01*
X143195198Y-121537000D01*
X143836046Y-122177848D01*
X143444511Y-122255729D01*
X142958330Y-122580585D01*
X142748000Y-122895366D01*
X142537670Y-122580585D01*
X142051489Y-122255729D01*
X141478000Y-122141655D01*
X140904511Y-122255729D01*
X140418330Y-122580585D01*
X140208000Y-122895366D01*
X139997670Y-122580585D01*
X139511489Y-122255729D01*
X138938000Y-122141655D01*
X138364511Y-122255729D01*
X137878330Y-122580585D01*
X137553474Y-123066766D01*
X137439400Y-123640255D01*
X137439400Y-124009745D01*
X137553474Y-124583234D01*
X137878330Y-125069415D01*
X138364511Y-125394271D01*
X138938000Y-125508345D01*
X139511489Y-125394271D01*
X139997670Y-125069415D01*
X140208000Y-124754634D01*
X140418330Y-125069415D01*
X140904511Y-125394271D01*
X141478000Y-125508345D01*
X142051489Y-125394271D01*
X142537670Y-125069415D01*
X142748000Y-124754634D01*
X142958330Y-125069415D01*
X143444511Y-125394271D01*
X144018000Y-125508345D01*
X144591489Y-125394271D01*
X145077670Y-125069415D01*
X145288000Y-124754634D01*
X145498330Y-125069415D01*
X145984511Y-125394271D01*
X146558000Y-125508345D01*
X147131489Y-125394271D01*
X147617670Y-125069415D01*
X147828000Y-124754634D01*
X148038330Y-125069415D01*
X148524511Y-125394271D01*
X149098000Y-125508345D01*
X149671489Y-125394271D01*
X150157670Y-125069415D01*
X150364461Y-124759931D01*
X150735964Y-125175732D01*
X151263209Y-125429709D01*
X151278974Y-125432358D01*
X151511000Y-125311217D01*
X151511000Y-123952000D01*
X151765000Y-123952000D01*
X151765000Y-125311217D01*
X151997026Y-125432358D01*
X152012791Y-125429709D01*
X152540036Y-125175732D01*
X152908000Y-124763892D01*
X153275964Y-125175732D01*
X153803209Y-125429709D01*
X153818974Y-125432358D01*
X154051000Y-125311217D01*
X154051000Y-123952000D01*
X151765000Y-123952000D01*
X151511000Y-123952000D01*
X151491000Y-123952000D01*
X151491000Y-123698000D01*
X151511000Y-123698000D01*
X151511000Y-122338783D01*
X151765000Y-122338783D01*
X151765000Y-123698000D01*
X154051000Y-123698000D01*
X154051000Y-122338783D01*
X154305000Y-122338783D01*
X154305000Y-123698000D01*
X154325000Y-123698000D01*
X154325000Y-123952000D01*
X154305000Y-123952000D01*
X154305000Y-125311217D01*
X154537026Y-125432358D01*
X154552791Y-125429709D01*
X155080036Y-125175732D01*
X155451539Y-124759931D01*
X155658330Y-125069415D01*
X156144511Y-125394271D01*
X156718000Y-125508345D01*
X157291489Y-125394271D01*
X157777670Y-125069415D01*
X158102526Y-124583234D01*
X158216600Y-124009745D01*
X158216600Y-123640255D01*
X160299400Y-123640255D01*
X160299400Y-124009745D01*
X160413474Y-124583234D01*
X160738330Y-125069415D01*
X161224511Y-125394271D01*
X161798000Y-125508345D01*
X162371489Y-125394271D01*
X162857670Y-125069415D01*
X163068000Y-124754634D01*
X163278330Y-125069415D01*
X163764511Y-125394271D01*
X164338000Y-125508345D01*
X164911489Y-125394271D01*
X165397670Y-125069415D01*
X165608000Y-124754634D01*
X165818330Y-125069415D01*
X166304511Y-125394271D01*
X166878000Y-125508345D01*
X167451489Y-125394271D01*
X167937670Y-125069415D01*
X168148000Y-124754634D01*
X168358330Y-125069415D01*
X168844511Y-125394271D01*
X169418000Y-125508345D01*
X169991489Y-125394271D01*
X170477670Y-125069415D01*
X170688000Y-124754634D01*
X170898330Y-125069415D01*
X171384511Y-125394271D01*
X171958000Y-125508345D01*
X172531489Y-125394271D01*
X173017670Y-125069415D01*
X173228000Y-124754634D01*
X173438330Y-125069415D01*
X173924511Y-125394271D01*
X174498000Y-125508345D01*
X175071489Y-125394271D01*
X175557670Y-125069415D01*
X175882526Y-124583234D01*
X175996600Y-124009745D01*
X175996600Y-123640255D01*
X175882526Y-123066766D01*
X175557670Y-122580585D01*
X175071489Y-122255729D01*
X174498000Y-122141655D01*
X173924511Y-122255729D01*
X173438330Y-122580585D01*
X173228000Y-122895366D01*
X173017670Y-122580585D01*
X172531489Y-122255729D01*
X171958000Y-122141655D01*
X171384511Y-122255729D01*
X170898330Y-122580585D01*
X170688000Y-122895366D01*
X170477670Y-122580585D01*
X169991489Y-122255729D01*
X169418000Y-122141655D01*
X168844511Y-122255729D01*
X168358330Y-122580585D01*
X168148000Y-122895366D01*
X167937670Y-122580585D01*
X167451489Y-122255729D01*
X166878000Y-122141655D01*
X166304511Y-122255729D01*
X165818330Y-122580585D01*
X165608000Y-122895366D01*
X165397670Y-122580585D01*
X164911489Y-122255729D01*
X164338000Y-122141655D01*
X163764511Y-122255729D01*
X163278330Y-122580585D01*
X163068000Y-122895366D01*
X162857670Y-122580585D01*
X162371489Y-122255729D01*
X161798000Y-122141655D01*
X161224511Y-122255729D01*
X160738330Y-122580585D01*
X160413474Y-123066766D01*
X160299400Y-123640255D01*
X158216600Y-123640255D01*
X158102526Y-123066766D01*
X157777670Y-122580585D01*
X157291489Y-122255729D01*
X156718000Y-122141655D01*
X156144511Y-122255729D01*
X155658330Y-122580585D01*
X155451539Y-122890069D01*
X155080036Y-122474268D01*
X154552791Y-122220291D01*
X154537026Y-122217642D01*
X154305000Y-122338783D01*
X154051000Y-122338783D01*
X153818974Y-122217642D01*
X153803209Y-122220291D01*
X153275964Y-122474268D01*
X152908000Y-122886108D01*
X152540036Y-122474268D01*
X152012791Y-122220291D01*
X151997026Y-122217642D01*
X151765000Y-122338783D01*
X151511000Y-122338783D01*
X151278974Y-122217642D01*
X151263209Y-122220291D01*
X150735964Y-122474268D01*
X150364461Y-122890069D01*
X150157670Y-122580585D01*
X149671489Y-122255729D01*
X149098000Y-122141655D01*
X148524511Y-122255729D01*
X148038330Y-122580585D01*
X147828000Y-122895366D01*
X147617670Y-122580585D01*
X147131489Y-122255729D01*
X146558000Y-122141655D01*
X146050421Y-122242619D01*
X144047401Y-120239599D01*
X143800839Y-120074852D01*
X143510000Y-120017000D01*
X126552802Y-120017000D01*
X125149149Y-118613347D01*
X125369943Y-118522117D01*
X125633192Y-118259327D01*
X125775838Y-117915799D01*
X125775879Y-117868923D01*
X126044802Y-117600000D01*
X132207000Y-117600000D01*
X132497839Y-117542148D01*
X132744401Y-117377401D01*
X138078401Y-112043401D01*
X138243148Y-111796839D01*
X138301000Y-111506000D01*
X138301000Y-95133383D01*
X139634769Y-95133383D01*
X139837582Y-95624229D01*
X140212796Y-96000098D01*
X140240922Y-96011777D01*
X140214771Y-96022582D01*
X139838902Y-96397796D01*
X139635232Y-96888287D01*
X139634769Y-97419383D01*
X139837582Y-97910229D01*
X140212796Y-98286098D01*
X140240922Y-98297777D01*
X140214771Y-98308582D01*
X139838902Y-98683796D01*
X139635232Y-99174287D01*
X139634769Y-99705383D01*
X139837582Y-100196229D01*
X140212796Y-100572098D01*
X140240922Y-100583777D01*
X140214771Y-100594582D01*
X139838902Y-100969796D01*
X139635232Y-101460287D01*
X139634769Y-101991383D01*
X139837582Y-102482229D01*
X140212796Y-102858098D01*
X140703287Y-103061768D01*
X141234383Y-103062231D01*
X141725229Y-102859418D01*
X142011672Y-102573474D01*
X160752599Y-121314401D01*
X160999160Y-121479148D01*
X161290000Y-121537000D01*
X175580198Y-121537000D01*
X180215000Y-126171802D01*
X180215000Y-126752699D01*
X179895853Y-126965946D01*
X179573946Y-127447715D01*
X179460907Y-128016000D01*
X179573946Y-128584285D01*
X179895853Y-129066054D01*
X179937452Y-129093850D01*
X179889683Y-129102838D01*
X179673559Y-129241910D01*
X179528569Y-129454110D01*
X179477560Y-129706000D01*
X179477560Y-131406000D01*
X179521838Y-131641317D01*
X179660910Y-131857441D01*
X179873110Y-132002431D01*
X180125000Y-132053440D01*
X181825000Y-132053440D01*
X182060317Y-132009162D01*
X182276441Y-131870090D01*
X182421431Y-131657890D01*
X182472440Y-131406000D01*
X182472440Y-129706000D01*
X182428162Y-129470683D01*
X182289090Y-129254559D01*
X182076890Y-129109569D01*
X182009459Y-129095914D01*
X182054147Y-129066054D01*
X182376054Y-128584285D01*
X182489093Y-128016000D01*
X182376054Y-127447715D01*
X182054147Y-126965946D01*
X181735000Y-126752699D01*
X181735000Y-126548802D01*
X182835790Y-127649592D01*
X182762907Y-128016000D01*
X182875946Y-128584285D01*
X183197853Y-129066054D01*
X183239452Y-129093850D01*
X183191683Y-129102838D01*
X182975559Y-129241910D01*
X182830569Y-129454110D01*
X182779560Y-129706000D01*
X182779560Y-131406000D01*
X182823838Y-131641317D01*
X182962910Y-131857441D01*
X183175110Y-132002431D01*
X183427000Y-132053440D01*
X185127000Y-132053440D01*
X185362317Y-132009162D01*
X185578441Y-131870090D01*
X185723431Y-131657890D01*
X185774440Y-131406000D01*
X185774440Y-129706000D01*
X185730162Y-129470683D01*
X185591090Y-129254559D01*
X185378890Y-129109569D01*
X185311459Y-129095914D01*
X185356147Y-129066054D01*
X185678054Y-128584285D01*
X185791093Y-128016000D01*
X186572907Y-128016000D01*
X186685946Y-128584285D01*
X187007853Y-129066054D01*
X187049452Y-129093850D01*
X187001683Y-129102838D01*
X186785559Y-129241910D01*
X186640569Y-129454110D01*
X186589560Y-129706000D01*
X186589560Y-131406000D01*
X186633838Y-131641317D01*
X186772910Y-131857441D01*
X186985110Y-132002431D01*
X187237000Y-132053440D01*
X188937000Y-132053440D01*
X189172317Y-132009162D01*
X189388441Y-131870090D01*
X189533431Y-131657890D01*
X189584440Y-131406000D01*
X189584440Y-129706000D01*
X189540162Y-129470683D01*
X189401090Y-129254559D01*
X189188890Y-129109569D01*
X189121459Y-129095914D01*
X189166147Y-129066054D01*
X189488054Y-128584285D01*
X189601093Y-128016000D01*
X189874907Y-128016000D01*
X189987946Y-128584285D01*
X190309853Y-129066054D01*
X190351452Y-129093850D01*
X190303683Y-129102838D01*
X190087559Y-129241910D01*
X189942569Y-129454110D01*
X189891560Y-129706000D01*
X189891560Y-131406000D01*
X189935838Y-131641317D01*
X190074910Y-131857441D01*
X190287110Y-132002431D01*
X190539000Y-132053440D01*
X192239000Y-132053440D01*
X192474317Y-132009162D01*
X192690441Y-131870090D01*
X192835431Y-131657890D01*
X192886440Y-131406000D01*
X192886440Y-129706000D01*
X192842162Y-129470683D01*
X192703090Y-129254559D01*
X192490890Y-129109569D01*
X192423459Y-129095914D01*
X192468147Y-129066054D01*
X192790054Y-128584285D01*
X192903093Y-128016000D01*
X192790054Y-127447715D01*
X192468147Y-126965946D01*
X191986378Y-126644039D01*
X191418093Y-126531000D01*
X191359907Y-126531000D01*
X190791622Y-126644039D01*
X190309853Y-126965946D01*
X189987946Y-127447715D01*
X189874907Y-128016000D01*
X189601093Y-128016000D01*
X189488054Y-127447715D01*
X189166147Y-126965946D01*
X188847000Y-126752699D01*
X188847000Y-124387463D01*
X188879192Y-124355327D01*
X189021838Y-124011799D01*
X189022162Y-123639833D01*
X188880117Y-123296057D01*
X188617327Y-123032808D01*
X188273799Y-122890162D01*
X187901833Y-122889838D01*
X187558057Y-123031883D01*
X187294808Y-123294673D01*
X187152162Y-123638201D01*
X187151838Y-124010167D01*
X187293883Y-124353943D01*
X187327000Y-124387118D01*
X187327000Y-126752699D01*
X187007853Y-126965946D01*
X186685946Y-127447715D01*
X186572907Y-128016000D01*
X185791093Y-128016000D01*
X185678054Y-127447715D01*
X185356147Y-126965946D01*
X184874378Y-126644039D01*
X184306093Y-126531000D01*
X184247907Y-126531000D01*
X183930031Y-126594229D01*
X179288281Y-121952479D01*
X179598943Y-121824117D01*
X179862192Y-121561327D01*
X180004838Y-121217799D01*
X180005162Y-120845833D01*
X179863117Y-120502057D01*
X179830000Y-120468882D01*
X179830000Y-104702463D01*
X179862192Y-104670327D01*
X180004838Y-104326799D01*
X180005162Y-103954833D01*
X179863117Y-103611057D01*
X179600327Y-103347808D01*
X179256799Y-103205162D01*
X179195000Y-103205108D01*
X179195000Y-99822000D01*
X179137148Y-99531161D01*
X178972401Y-99284599D01*
X178464401Y-98776599D01*
X178217839Y-98611852D01*
X177927000Y-98554000D01*
X177623078Y-98554000D01*
X177500142Y-98370012D01*
X177106756Y-98107161D01*
X177285229Y-98033418D01*
X177661098Y-97658204D01*
X177864768Y-97167713D01*
X177865228Y-96640574D01*
X179099401Y-95406401D01*
X179264148Y-95159839D01*
X179322000Y-94869000D01*
X179322000Y-93022167D01*
X180547838Y-93022167D01*
X180689883Y-93365943D01*
X180952673Y-93629192D01*
X181296201Y-93771838D01*
X181668167Y-93772162D01*
X182011943Y-93630117D01*
X182275192Y-93367327D01*
X182390764Y-93089000D01*
X192151000Y-93089000D01*
X192441839Y-93031148D01*
X192688401Y-92866401D01*
X193306680Y-92248122D01*
X193352167Y-92248162D01*
X193695943Y-92106117D01*
X193959192Y-91843327D01*
X194101838Y-91499799D01*
X194102162Y-91127833D01*
X193960117Y-90784057D01*
X193697327Y-90520808D01*
X193353799Y-90378162D01*
X192981833Y-90377838D01*
X192638057Y-90519883D01*
X192374808Y-90782673D01*
X192232162Y-91126201D01*
X192232121Y-91173077D01*
X191836198Y-91569000D01*
X181991000Y-91569000D01*
X181700161Y-91626852D01*
X181568323Y-91714943D01*
X181453599Y-91791599D01*
X181343320Y-91901878D01*
X181297833Y-91901838D01*
X180954057Y-92043883D01*
X180690808Y-92306673D01*
X180548162Y-92650201D01*
X180547838Y-93022167D01*
X179322000Y-93022167D01*
X179322000Y-81594802D01*
X180527802Y-80389000D01*
X186436000Y-80389000D01*
X186726839Y-80331148D01*
X186973401Y-80166401D01*
X188099680Y-79040122D01*
X188145167Y-79040162D01*
X188488943Y-78898117D01*
X188752192Y-78635327D01*
X188894838Y-78291799D01*
X188895162Y-77919833D01*
X188753117Y-77576057D01*
X188490327Y-77312808D01*
X188146799Y-77170162D01*
X187774833Y-77169838D01*
X187431057Y-77311883D01*
X187167808Y-77574673D01*
X187025162Y-77918201D01*
X187025121Y-77965077D01*
X186121198Y-78869000D01*
X184327111Y-78869000D01*
X184561192Y-78635327D01*
X184703838Y-78291799D01*
X184704162Y-77919833D01*
X184562117Y-77576057D01*
X184299327Y-77312808D01*
X183955799Y-77170162D01*
X183583833Y-77169838D01*
X183240057Y-77311883D01*
X182976808Y-77574673D01*
X182834162Y-77918201D01*
X182834121Y-77965077D01*
X182438198Y-78361000D01*
X180103103Y-78361000D01*
X180131838Y-78291799D01*
X180132162Y-77919833D01*
X179990117Y-77576057D01*
X179727327Y-77312808D01*
X179383799Y-77170162D01*
X179011833Y-77169838D01*
X178668057Y-77311883D01*
X178404808Y-77574673D01*
X178262162Y-77918201D01*
X178262121Y-77965077D01*
X177008599Y-79218599D01*
X176843852Y-79465161D01*
X176786000Y-79756000D01*
X176786000Y-90740223D01*
X176265617Y-90739769D01*
X175774771Y-90942582D01*
X175398902Y-91317796D01*
X175195232Y-91808287D01*
X175194769Y-92339383D01*
X175397582Y-92830229D01*
X175772796Y-93206098D01*
X175954224Y-93281434D01*
X175774771Y-93355582D01*
X175398902Y-93730796D01*
X175195232Y-94221287D01*
X175194769Y-94752383D01*
X175397582Y-95243229D01*
X175772796Y-95619098D01*
X175954224Y-95694434D01*
X175774771Y-95768582D01*
X175398902Y-96143796D01*
X175195232Y-96634287D01*
X175194769Y-97165383D01*
X175397582Y-97656229D01*
X175772796Y-98032098D01*
X175953368Y-98107078D01*
X175559858Y-98370012D01*
X175270467Y-98803118D01*
X175168846Y-99314000D01*
X175270467Y-99824882D01*
X175559858Y-100257988D01*
X175952737Y-100520500D01*
X175559858Y-100783012D01*
X175270467Y-101216118D01*
X175168846Y-101727000D01*
X175270467Y-102237882D01*
X175559858Y-102670988D01*
X175992964Y-102960379D01*
X176503846Y-103062000D01*
X176556154Y-103062000D01*
X177067036Y-102960379D01*
X177500142Y-102670988D01*
X177675000Y-102409293D01*
X177675000Y-119087367D01*
X177351799Y-118953162D01*
X177304923Y-118953121D01*
X176813401Y-118461599D01*
X176566839Y-118296852D01*
X176276000Y-118239000D01*
X161604802Y-118239000D01*
X159510000Y-116144198D01*
X159510000Y-91186000D01*
X159452148Y-90895161D01*
X159287401Y-90648599D01*
X156914440Y-88275638D01*
X156914440Y-87503000D01*
X160816050Y-87503000D01*
X160925283Y-88052151D01*
X161236352Y-88517698D01*
X161618438Y-88773000D01*
X161236352Y-89028302D01*
X160925283Y-89493849D01*
X160816050Y-90043000D01*
X160925283Y-90592151D01*
X161236352Y-91057698D01*
X161618438Y-91313000D01*
X161236352Y-91568302D01*
X160925283Y-92033849D01*
X160816050Y-92583000D01*
X160925283Y-93132151D01*
X161236352Y-93597698D01*
X161618438Y-93853000D01*
X161236352Y-94108302D01*
X160925283Y-94573849D01*
X160816050Y-95123000D01*
X160925283Y-95672151D01*
X161236352Y-96137698D01*
X161618438Y-96393000D01*
X161236352Y-96648302D01*
X160925283Y-97113849D01*
X160816050Y-97663000D01*
X160925283Y-98212151D01*
X161236352Y-98677698D01*
X161618438Y-98933000D01*
X161236352Y-99188302D01*
X160925283Y-99653849D01*
X160816050Y-100203000D01*
X160925283Y-100752151D01*
X161236352Y-101217698D01*
X161618438Y-101473000D01*
X161236352Y-101728302D01*
X160925283Y-102193849D01*
X160816050Y-102743000D01*
X160925283Y-103292151D01*
X161236352Y-103757698D01*
X161618438Y-104013000D01*
X161236352Y-104268302D01*
X160925283Y-104733849D01*
X160816050Y-105283000D01*
X160925283Y-105832151D01*
X161236352Y-106297698D01*
X161618438Y-106553000D01*
X161236352Y-106808302D01*
X160925283Y-107273849D01*
X160816050Y-107823000D01*
X160925283Y-108372151D01*
X161236352Y-108837698D01*
X161701899Y-109148767D01*
X162251050Y-109258000D01*
X163122950Y-109258000D01*
X163672101Y-109148767D01*
X164137648Y-108837698D01*
X164448717Y-108372151D01*
X164557950Y-107823000D01*
X164448717Y-107273849D01*
X164342667Y-107115135D01*
X167923401Y-103534401D01*
X168088148Y-103287839D01*
X168146000Y-102997000D01*
X168146000Y-102851290D01*
X168152796Y-102858098D01*
X168643287Y-103061768D01*
X169174383Y-103062231D01*
X169665229Y-102859418D01*
X170041098Y-102484204D01*
X170244768Y-101993713D01*
X170245231Y-101462617D01*
X170042418Y-100971771D01*
X169667204Y-100595902D01*
X169485776Y-100520566D01*
X169665229Y-100446418D01*
X170041098Y-100071204D01*
X170244768Y-99580713D01*
X170245231Y-99049617D01*
X170042418Y-98558771D01*
X169667204Y-98182902D01*
X169486632Y-98107922D01*
X169880142Y-97844988D01*
X170169533Y-97411882D01*
X170271154Y-96901000D01*
X170169533Y-96390118D01*
X169880142Y-95957012D01*
X169487263Y-95694500D01*
X169880142Y-95431988D01*
X170169533Y-94998882D01*
X170271154Y-94488000D01*
X170169533Y-93977118D01*
X169880142Y-93544012D01*
X169487263Y-93281500D01*
X169880142Y-93018988D01*
X170169533Y-92585882D01*
X170271154Y-92075000D01*
X170169533Y-91564118D01*
X169880142Y-91131012D01*
X169447036Y-90841621D01*
X168936154Y-90740000D01*
X168883846Y-90740000D01*
X168372964Y-90841621D01*
X167939858Y-91131012D01*
X167816922Y-91315000D01*
X166497000Y-91315000D01*
X166206161Y-91372852D01*
X165959599Y-91537599D01*
X165070599Y-92426599D01*
X164905852Y-92673161D01*
X164848000Y-92964000D01*
X164848000Y-99380198D01*
X164469561Y-99758637D01*
X164448717Y-99653849D01*
X164137648Y-99188302D01*
X163755562Y-98933000D01*
X164137648Y-98677698D01*
X164448717Y-98212151D01*
X164557950Y-97663000D01*
X164448717Y-97113849D01*
X164137648Y-96648302D01*
X163755562Y-96393000D01*
X164137648Y-96137698D01*
X164448717Y-95672151D01*
X164557950Y-95123000D01*
X164448717Y-94573849D01*
X164137648Y-94108302D01*
X163755562Y-93853000D01*
X164137648Y-93597698D01*
X164448717Y-93132151D01*
X164557950Y-92583000D01*
X164448717Y-92033849D01*
X164137648Y-91568302D01*
X163755562Y-91313000D01*
X164137648Y-91057698D01*
X164448717Y-90592151D01*
X164557950Y-90043000D01*
X164448717Y-89493849D01*
X164137648Y-89028302D01*
X163755562Y-88773000D01*
X164137648Y-88517698D01*
X164448717Y-88052151D01*
X164557950Y-87503000D01*
X164448717Y-86953849D01*
X164137648Y-86488302D01*
X163672101Y-86177233D01*
X163122950Y-86068000D01*
X162251050Y-86068000D01*
X161701899Y-86177233D01*
X161236352Y-86488302D01*
X160925283Y-86953849D01*
X160816050Y-87503000D01*
X156914440Y-87503000D01*
X156914440Y-86703000D01*
X156870162Y-86467683D01*
X156731090Y-86251559D01*
X156518890Y-86106569D01*
X156267000Y-86055560D01*
X153867000Y-86055560D01*
X153631683Y-86099838D01*
X153415559Y-86238910D01*
X153270569Y-86451110D01*
X153219560Y-86703000D01*
X153219560Y-88303000D01*
X153263838Y-88538317D01*
X153402910Y-88754441D01*
X153615110Y-88899431D01*
X153764074Y-88929597D01*
X153616352Y-89028302D01*
X153305283Y-89493849D01*
X153196050Y-90043000D01*
X153305283Y-90592151D01*
X153616352Y-91057698D01*
X153998438Y-91313000D01*
X153616352Y-91568302D01*
X153305283Y-92033849D01*
X153196050Y-92583000D01*
X153305283Y-93132151D01*
X153616352Y-93597698D01*
X153998438Y-93853000D01*
X153616352Y-94108302D01*
X153446168Y-94363000D01*
X152714802Y-94363000D01*
X151557122Y-93205320D01*
X151557162Y-93159833D01*
X151415117Y-92816057D01*
X151152327Y-92552808D01*
X150808799Y-92410162D01*
X150436833Y-92409838D01*
X150093057Y-92551883D01*
X149829808Y-92814673D01*
X149687162Y-93158201D01*
X149686838Y-93530167D01*
X149828883Y-93873943D01*
X150091673Y-94137192D01*
X150435201Y-94279838D01*
X150482077Y-94279879D01*
X151454198Y-95252000D01*
X149862143Y-95252000D01*
X149882716Y-95202329D01*
X149759374Y-94996000D01*
X148717000Y-94996000D01*
X148717000Y-95016000D01*
X148463000Y-95016000D01*
X148463000Y-94996000D01*
X147420626Y-94996000D01*
X147297284Y-95202329D01*
X147317857Y-95252000D01*
X142300802Y-95252000D01*
X142269485Y-95220683D01*
X142304768Y-95135713D01*
X142305231Y-94604617D01*
X142276744Y-94535671D01*
X147297284Y-94535671D01*
X147420626Y-94742000D01*
X148463000Y-94742000D01*
X148463000Y-93698794D01*
X148717000Y-93698794D01*
X148717000Y-94742000D01*
X149759374Y-94742000D01*
X149882716Y-94535671D01*
X149739797Y-94190604D01*
X149392663Y-93802236D01*
X148923331Y-93576273D01*
X148717000Y-93698794D01*
X148463000Y-93698794D01*
X148256669Y-93576273D01*
X147787337Y-93802236D01*
X147440203Y-94190604D01*
X147297284Y-94535671D01*
X142276744Y-94535671D01*
X142102418Y-94113771D01*
X141727204Y-93737902D01*
X141236713Y-93534232D01*
X140705617Y-93533769D01*
X140214771Y-93736582D01*
X139838902Y-94111796D01*
X139635232Y-94602287D01*
X139634769Y-95133383D01*
X138301000Y-95133383D01*
X138301000Y-91988597D01*
X138323943Y-91979117D01*
X138587192Y-91716327D01*
X138729838Y-91372799D01*
X138730162Y-91000833D01*
X138588117Y-90657057D01*
X138325327Y-90393808D01*
X137981799Y-90251162D01*
X137645933Y-90250869D01*
X140347680Y-87549122D01*
X140393167Y-87549162D01*
X140736943Y-87407117D01*
X140737874Y-87406187D01*
X148297752Y-87406187D01*
X148515757Y-87933800D01*
X148919077Y-88337824D01*
X149446309Y-88556750D01*
X150017187Y-88557248D01*
X150544800Y-88339243D01*
X150948824Y-87935923D01*
X151167750Y-87408691D01*
X151168248Y-86837813D01*
X150950243Y-86310200D01*
X150546923Y-85906176D01*
X150480456Y-85878577D01*
X150487005Y-85875864D01*
X150561139Y-85629745D01*
X149733000Y-84801605D01*
X148904861Y-85629745D01*
X148978995Y-85875864D01*
X148985483Y-85878196D01*
X148921200Y-85904757D01*
X148517176Y-86308077D01*
X148298250Y-86835309D01*
X148297752Y-87406187D01*
X140737874Y-87406187D01*
X141000192Y-87144327D01*
X141142838Y-86800799D01*
X141143162Y-86428833D01*
X141001117Y-86085057D01*
X140738327Y-85821808D01*
X140695696Y-85804106D01*
X142094579Y-84405223D01*
X148286035Y-84405223D01*
X148313222Y-84975454D01*
X148479136Y-85376005D01*
X148725255Y-85450139D01*
X149553395Y-84622000D01*
X149912605Y-84622000D01*
X150740745Y-85450139D01*
X150986864Y-85376005D01*
X151170112Y-84866187D01*
X161378752Y-84866187D01*
X161596757Y-85393800D01*
X162000077Y-85797824D01*
X162527309Y-86016750D01*
X163098187Y-86017248D01*
X163625800Y-85799243D01*
X163835663Y-85589745D01*
X164485861Y-85589745D01*
X164559995Y-85835864D01*
X165097223Y-86028965D01*
X165667454Y-86001778D01*
X166068005Y-85835864D01*
X166142139Y-85589745D01*
X165314000Y-84761605D01*
X164485861Y-85589745D01*
X163835663Y-85589745D01*
X164029824Y-85395923D01*
X164057423Y-85329456D01*
X164060136Y-85336005D01*
X164306255Y-85410139D01*
X165134395Y-84582000D01*
X165493605Y-84582000D01*
X166321745Y-85410139D01*
X166567864Y-85336005D01*
X166760965Y-84798777D01*
X166733778Y-84228546D01*
X166567864Y-83827995D01*
X166321745Y-83753861D01*
X165493605Y-84582000D01*
X165134395Y-84582000D01*
X164306255Y-83753861D01*
X164060136Y-83827995D01*
X164057804Y-83834483D01*
X164031243Y-83770200D01*
X163835640Y-83574255D01*
X164485861Y-83574255D01*
X165314000Y-84402395D01*
X166142139Y-83574255D01*
X166068005Y-83328136D01*
X165530777Y-83135035D01*
X164960546Y-83162222D01*
X164559995Y-83328136D01*
X164485861Y-83574255D01*
X163835640Y-83574255D01*
X163627923Y-83366176D01*
X163100691Y-83147250D01*
X162529813Y-83146752D01*
X162002200Y-83364757D01*
X161598176Y-83768077D01*
X161379250Y-84295309D01*
X161378752Y-84866187D01*
X151170112Y-84866187D01*
X151179965Y-84838777D01*
X151152778Y-84268546D01*
X150986864Y-83867995D01*
X150740745Y-83793861D01*
X149912605Y-84622000D01*
X149553395Y-84622000D01*
X148725255Y-83793861D01*
X148479136Y-83867995D01*
X148286035Y-84405223D01*
X142094579Y-84405223D01*
X142885547Y-83614255D01*
X148904861Y-83614255D01*
X149733000Y-84442395D01*
X150561139Y-83614255D01*
X150487005Y-83368136D01*
X149949777Y-83175035D01*
X149379546Y-83202222D01*
X148978995Y-83368136D01*
X148904861Y-83614255D01*
X142885547Y-83614255D01*
X144723008Y-81776794D01*
X144927943Y-81692117D01*
X145191192Y-81429327D01*
X145333838Y-81085799D01*
X145334162Y-80713833D01*
X145192117Y-80370057D01*
X145159000Y-80336882D01*
X145159000Y-77851000D01*
X145101148Y-77560161D01*
X144936401Y-77313599D01*
X144830710Y-77207908D01*
X145034000Y-77248345D01*
X145607489Y-77134271D01*
X146093670Y-76809415D01*
X146304000Y-76494634D01*
X146514330Y-76809415D01*
X147000511Y-77134271D01*
X147574000Y-77248345D01*
X148147489Y-77134271D01*
X148633670Y-76809415D01*
X148844000Y-76494634D01*
X149054330Y-76809415D01*
X149540511Y-77134271D01*
X150114000Y-77248345D01*
X150687489Y-77134271D01*
X151173670Y-76809415D01*
X151384000Y-76494634D01*
X151594330Y-76809415D01*
X152080511Y-77134271D01*
X152654000Y-77248345D01*
X153227489Y-77134271D01*
X153713670Y-76809415D01*
X154038526Y-76323234D01*
X154152600Y-75749745D01*
X154152600Y-75380255D01*
X155219400Y-75380255D01*
X155219400Y-75749745D01*
X155333474Y-76323234D01*
X155658330Y-76809415D01*
X156144511Y-77134271D01*
X156718000Y-77248345D01*
X157291489Y-77134271D01*
X157777670Y-76809415D01*
X157988000Y-76494634D01*
X158198330Y-76809415D01*
X158684511Y-77134271D01*
X159258000Y-77248345D01*
X159831489Y-77134271D01*
X160317670Y-76809415D01*
X160528000Y-76494634D01*
X160738330Y-76809415D01*
X161224511Y-77134271D01*
X161798000Y-77248345D01*
X162371489Y-77134271D01*
X162857670Y-76809415D01*
X163068000Y-76494634D01*
X163278330Y-76809415D01*
X163764511Y-77134271D01*
X164338000Y-77248345D01*
X164911489Y-77134271D01*
X165397670Y-76809415D01*
X165608000Y-76494634D01*
X165818330Y-76809415D01*
X166304511Y-77134271D01*
X166878000Y-77248345D01*
X167451489Y-77134271D01*
X167937670Y-76809415D01*
X168148000Y-76494634D01*
X168358330Y-76809415D01*
X168844511Y-77134271D01*
X169418000Y-77248345D01*
X169991489Y-77134271D01*
X170477670Y-76809415D01*
X170688000Y-76494634D01*
X170898330Y-76809415D01*
X171384511Y-77134271D01*
X171958000Y-77248345D01*
X172531489Y-77134271D01*
X173017670Y-76809415D01*
X173228000Y-76494634D01*
X173438330Y-76809415D01*
X173924511Y-77134271D01*
X174498000Y-77248345D01*
X175071489Y-77134271D01*
X175557670Y-76809415D01*
X175882526Y-76323234D01*
X175996600Y-75749745D01*
X175996600Y-75380255D01*
X175882526Y-74806766D01*
X175557670Y-74320585D01*
X175071489Y-73995729D01*
X174498000Y-73881655D01*
X173924511Y-73995729D01*
X173438330Y-74320585D01*
X173228000Y-74635366D01*
X173017670Y-74320585D01*
X172531489Y-73995729D01*
X171958000Y-73881655D01*
X171384511Y-73995729D01*
X170898330Y-74320585D01*
X170688000Y-74635366D01*
X170477670Y-74320585D01*
X169991489Y-73995729D01*
X169418000Y-73881655D01*
X168844511Y-73995729D01*
X168358330Y-74320585D01*
X168148000Y-74635366D01*
X167937670Y-74320585D01*
X167451489Y-73995729D01*
X166878000Y-73881655D01*
X166304511Y-73995729D01*
X165818330Y-74320585D01*
X165608000Y-74635366D01*
X165397670Y-74320585D01*
X164911489Y-73995729D01*
X164338000Y-73881655D01*
X163764511Y-73995729D01*
X163278330Y-74320585D01*
X163068000Y-74635366D01*
X162857670Y-74320585D01*
X162371489Y-73995729D01*
X161798000Y-73881655D01*
X161224511Y-73995729D01*
X160738330Y-74320585D01*
X160528000Y-74635366D01*
X160317670Y-74320585D01*
X159831489Y-73995729D01*
X159258000Y-73881655D01*
X158684511Y-73995729D01*
X158198330Y-74320585D01*
X157988000Y-74635366D01*
X157777670Y-74320585D01*
X157291489Y-73995729D01*
X156718000Y-73881655D01*
X156144511Y-73995729D01*
X155658330Y-74320585D01*
X155333474Y-74806766D01*
X155219400Y-75380255D01*
X154152600Y-75380255D01*
X154038526Y-74806766D01*
X153713670Y-74320585D01*
X153227489Y-73995729D01*
X152654000Y-73881655D01*
X152080511Y-73995729D01*
X151594330Y-74320585D01*
X151384000Y-74635366D01*
X151173670Y-74320585D01*
X150687489Y-73995729D01*
X150114000Y-73881655D01*
X149540511Y-73995729D01*
X149054330Y-74320585D01*
X148844000Y-74635366D01*
X148633670Y-74320585D01*
X148147489Y-73995729D01*
X147574000Y-73881655D01*
X147000511Y-73995729D01*
X146514330Y-74320585D01*
X146304000Y-74635366D01*
X146093670Y-74320585D01*
X145607489Y-73995729D01*
X145034000Y-73881655D01*
X144460511Y-73995729D01*
X143974330Y-74320585D01*
X143764000Y-74635366D01*
X143553670Y-74320585D01*
X143254000Y-74120352D01*
X143254000Y-72771000D01*
X143196148Y-72480161D01*
X143196148Y-72480160D01*
X143031401Y-72233599D01*
X142032122Y-71234320D01*
X142032162Y-71188833D01*
X141890117Y-70845057D01*
X141627327Y-70581808D01*
X141283799Y-70439162D01*
X140911833Y-70438838D01*
X140568057Y-70580883D01*
X140304808Y-70843673D01*
X140162162Y-71187201D01*
X140161838Y-71559167D01*
X140303883Y-71902943D01*
X140566673Y-72166192D01*
X140910201Y-72308838D01*
X140957077Y-72308879D01*
X141734000Y-73085802D01*
X141734000Y-74120352D01*
X141434330Y-74320585D01*
X141224000Y-74635366D01*
X141013670Y-74320585D01*
X140527489Y-73995729D01*
X139954000Y-73881655D01*
X139380511Y-73995729D01*
X138894330Y-74320585D01*
X138687539Y-74630069D01*
X138316036Y-74214268D01*
X137788791Y-73960291D01*
X137773026Y-73957642D01*
X137541000Y-74078783D01*
X137541000Y-75438000D01*
X137561000Y-75438000D01*
X137561000Y-75692000D01*
X137541000Y-75692000D01*
X137541000Y-77051217D01*
X137773026Y-77172358D01*
X137788791Y-77169709D01*
X138316036Y-76915732D01*
X138687539Y-76499931D01*
X138894330Y-76809415D01*
X139380511Y-77134271D01*
X139954000Y-77248345D01*
X140355650Y-77168452D01*
X140940599Y-77753401D01*
X141187160Y-77918148D01*
X141235414Y-77927746D01*
X141478000Y-77976000D01*
X143449198Y-77976000D01*
X143639000Y-78165802D01*
X143639000Y-80045632D01*
X143555889Y-80011121D01*
X143556162Y-79697833D01*
X143414117Y-79354057D01*
X143151327Y-79090808D01*
X142807799Y-78948162D01*
X142435833Y-78947838D01*
X142092057Y-79089883D01*
X142058882Y-79123000D01*
X129032000Y-79123000D01*
X128741160Y-79180852D01*
X128709600Y-79201940D01*
X128592833Y-79201838D01*
X128249057Y-79343883D01*
X127985808Y-79606673D01*
X127843162Y-79950201D01*
X127842838Y-80322167D01*
X127984883Y-80665943D01*
X128247673Y-80929192D01*
X128591201Y-81071838D01*
X128963167Y-81072162D01*
X129306943Y-80930117D01*
X129570192Y-80667327D01*
X129580294Y-80643000D01*
X142058537Y-80643000D01*
X142090673Y-80675192D01*
X142312779Y-80767419D01*
X137861198Y-85219000D01*
X133477000Y-85219000D01*
X133186161Y-85276852D01*
X132939599Y-85441599D01*
X132050599Y-86330599D01*
X131885852Y-86577161D01*
X131828000Y-86868000D01*
X131828000Y-96989953D01*
X131730117Y-96753057D01*
X131467327Y-96489808D01*
X131123799Y-96347162D01*
X130751833Y-96346838D01*
X130408057Y-96488883D01*
X130144808Y-96751673D01*
X130002162Y-97095201D01*
X130002121Y-97142077D01*
X129129599Y-98014599D01*
X128964852Y-98261161D01*
X128907000Y-98552000D01*
X128907000Y-104714198D01*
X128676631Y-104944567D01*
X128634717Y-104733849D01*
X128323648Y-104268302D01*
X127941562Y-104013000D01*
X128323648Y-103757698D01*
X128634717Y-103292151D01*
X128743950Y-102743000D01*
X128634717Y-102193849D01*
X128323648Y-101728302D01*
X127941562Y-101473000D01*
X128323648Y-101217698D01*
X128634717Y-100752151D01*
X128743950Y-100203000D01*
X128634717Y-99653849D01*
X128323648Y-99188302D01*
X127941562Y-98933000D01*
X128323648Y-98677698D01*
X128634717Y-98212151D01*
X128743950Y-97663000D01*
X128634717Y-97113849D01*
X128323648Y-96648302D01*
X127941562Y-96393000D01*
X128323648Y-96137698D01*
X128634717Y-95672151D01*
X128743950Y-95123000D01*
X128634717Y-94573849D01*
X128323648Y-94108302D01*
X127941562Y-93853000D01*
X128323648Y-93597698D01*
X128634717Y-93132151D01*
X128743950Y-92583000D01*
X128634717Y-92033849D01*
X128323648Y-91568302D01*
X127941562Y-91313000D01*
X128323648Y-91057698D01*
X128634717Y-90592151D01*
X128743950Y-90043000D01*
X128634717Y-89493849D01*
X128323648Y-89028302D01*
X127941562Y-88773000D01*
X128323648Y-88517698D01*
X128634717Y-88052151D01*
X128743950Y-87503000D01*
X128634717Y-86953849D01*
X128323648Y-86488302D01*
X127858101Y-86177233D01*
X127308950Y-86068000D01*
X126437050Y-86068000D01*
X125887899Y-86177233D01*
X125422352Y-86488302D01*
X125111283Y-86953849D01*
X125002050Y-87503000D01*
X125111283Y-88052151D01*
X125422352Y-88517698D01*
X125804438Y-88773000D01*
X125422352Y-89028302D01*
X125366176Y-89112374D01*
X120902000Y-84648198D01*
X120902000Y-77542963D01*
X121411714Y-77542963D01*
X121662534Y-78149995D01*
X122126563Y-78614834D01*
X122733155Y-78866713D01*
X123389963Y-78867286D01*
X123996995Y-78616466D01*
X124461834Y-78152437D01*
X124713713Y-77545845D01*
X124714286Y-76889037D01*
X124463466Y-76282005D01*
X123999437Y-75817166D01*
X123823000Y-75743903D01*
X123823000Y-75380255D01*
X128295400Y-75380255D01*
X128295400Y-75749745D01*
X128409474Y-76323234D01*
X128734330Y-76809415D01*
X129220511Y-77134271D01*
X129794000Y-77248345D01*
X130367489Y-77134271D01*
X130853670Y-76809415D01*
X131064000Y-76494634D01*
X131274330Y-76809415D01*
X131760511Y-77134271D01*
X132334000Y-77248345D01*
X132907489Y-77134271D01*
X133393670Y-76809415D01*
X133604000Y-76494634D01*
X133814330Y-76809415D01*
X134300511Y-77134271D01*
X134874000Y-77248345D01*
X135447489Y-77134271D01*
X135933670Y-76809415D01*
X136140461Y-76499931D01*
X136511964Y-76915732D01*
X137039209Y-77169709D01*
X137054974Y-77172358D01*
X137287000Y-77051217D01*
X137287000Y-75692000D01*
X137267000Y-75692000D01*
X137267000Y-75438000D01*
X137287000Y-75438000D01*
X137287000Y-74078783D01*
X137054974Y-73957642D01*
X137039209Y-73960291D01*
X136511964Y-74214268D01*
X136140461Y-74630069D01*
X135933670Y-74320585D01*
X135447489Y-73995729D01*
X134874000Y-73881655D01*
X134300511Y-73995729D01*
X133814330Y-74320585D01*
X133604000Y-74635366D01*
X133393670Y-74320585D01*
X132907489Y-73995729D01*
X132334000Y-73881655D01*
X131760511Y-73995729D01*
X131274330Y-74320585D01*
X131064000Y-74635366D01*
X130853670Y-74320585D01*
X130367489Y-73995729D01*
X129794000Y-73881655D01*
X129220511Y-73995729D01*
X128734330Y-74320585D01*
X128409474Y-74806766D01*
X128295400Y-75380255D01*
X123823000Y-75380255D01*
X123823000Y-69396515D01*
X189030110Y-69396515D01*
X189354460Y-70181500D01*
X189954521Y-70782609D01*
X190738939Y-71108328D01*
X191588295Y-71109070D01*
X192373280Y-70784720D01*
X192974389Y-70184659D01*
X193300108Y-69400241D01*
X193300850Y-68550885D01*
X192976500Y-67765900D01*
X192376439Y-67164791D01*
X191592021Y-66839072D01*
X190742665Y-66838330D01*
X189957680Y-67162680D01*
X189356571Y-67762741D01*
X189030852Y-68547159D01*
X189030110Y-69396515D01*
X123823000Y-69396515D01*
X123823000Y-65463167D01*
X125048838Y-65463167D01*
X125190883Y-65806943D01*
X125453673Y-66070192D01*
X125797201Y-66212838D01*
X126169167Y-66213162D01*
X126512943Y-66071117D01*
X126776192Y-65808327D01*
X126918838Y-65464799D01*
X126918879Y-65417923D01*
X149285802Y-43051000D01*
X155448000Y-43051000D01*
X155738839Y-42993148D01*
X155985401Y-42828401D01*
X159062381Y-39751421D01*
X159178581Y-39829064D01*
X159766000Y-39945909D01*
X160353419Y-39829064D01*
X160851409Y-39496318D01*
X161184155Y-38998328D01*
X161301000Y-38410909D01*
X161301000Y-38395815D01*
X189030110Y-38395815D01*
X189354460Y-39180800D01*
X189954521Y-39781909D01*
X190738939Y-40107628D01*
X191588295Y-40108370D01*
X192373280Y-39784020D01*
X192663583Y-39494223D01*
X193879035Y-39494223D01*
X193906222Y-40064454D01*
X194072136Y-40465005D01*
X194318255Y-40539139D01*
X195146395Y-39711000D01*
X194318255Y-38882861D01*
X194072136Y-38956995D01*
X193879035Y-39494223D01*
X192663583Y-39494223D01*
X192974389Y-39183959D01*
X193300108Y-38399541D01*
X193300850Y-37550185D01*
X192976500Y-36765200D01*
X192376439Y-36164091D01*
X191592021Y-35838372D01*
X190742665Y-35837630D01*
X189957680Y-36161980D01*
X189356571Y-36762041D01*
X189030852Y-37546459D01*
X189030110Y-38395815D01*
X161301000Y-38395815D01*
X161301000Y-37535091D01*
X161184155Y-36947672D01*
X160851409Y-36449682D01*
X160353419Y-36116936D01*
X159766000Y-36000091D01*
X159178581Y-36116936D01*
X158680591Y-36449682D01*
X158496000Y-36725942D01*
X158311409Y-36449682D01*
X157813419Y-36116936D01*
X157226000Y-36000091D01*
X156638581Y-36116936D01*
X156140591Y-36449682D01*
X155956000Y-36725942D01*
X155771409Y-36449682D01*
X155273419Y-36116936D01*
X154686000Y-36000091D01*
X154098581Y-36116936D01*
X153600591Y-36449682D01*
X153416000Y-36725942D01*
X153231409Y-36449682D01*
X152733419Y-36116936D01*
X152146000Y-36000091D01*
X151558581Y-36116936D01*
X151060591Y-36449682D01*
X150876000Y-36725942D01*
X150691409Y-36449682D01*
X150193419Y-36116936D01*
X149606000Y-36000091D01*
X149018581Y-36116936D01*
X148520591Y-36449682D01*
X148336000Y-36725942D01*
X148151409Y-36449682D01*
X147653419Y-36116936D01*
X147066000Y-36000091D01*
X146478581Y-36116936D01*
X145980591Y-36449682D01*
X145796000Y-36725942D01*
X145611409Y-36449682D01*
X145113419Y-36116936D01*
X144526000Y-36000091D01*
X143938581Y-36116936D01*
X143440591Y-36449682D01*
X143256000Y-36725942D01*
X143071409Y-36449682D01*
X142573419Y-36116936D01*
X141986000Y-36000091D01*
X141398581Y-36116936D01*
X140900591Y-36449682D01*
X140716000Y-36725942D01*
X140531409Y-36449682D01*
X140033419Y-36116936D01*
X139446000Y-36000091D01*
X138858581Y-36116936D01*
X138360591Y-36449682D01*
X138176000Y-36725942D01*
X137991409Y-36449682D01*
X137493419Y-36116936D01*
X136906000Y-36000091D01*
X136318581Y-36116936D01*
X135820591Y-36449682D01*
X135636000Y-36725942D01*
X135451409Y-36449682D01*
X134953419Y-36116936D01*
X134366000Y-36000091D01*
X133778581Y-36116936D01*
X133280591Y-36449682D01*
X133089808Y-36735210D01*
X132821606Y-36397788D01*
X132296086Y-36106244D01*
X132190740Y-36081964D01*
X131953000Y-36202622D01*
X131953000Y-37846000D01*
X131973000Y-37846000D01*
X131973000Y-38100000D01*
X131953000Y-38100000D01*
X131953000Y-39743378D01*
X132190740Y-39864036D01*
X132296086Y-39839756D01*
X132821606Y-39548212D01*
X133089808Y-39210790D01*
X133280591Y-39496318D01*
X133778581Y-39829064D01*
X134366000Y-39945909D01*
X134953419Y-39829064D01*
X135451409Y-39496318D01*
X135636000Y-39220058D01*
X135820591Y-39496318D01*
X136318581Y-39829064D01*
X136906000Y-39945909D01*
X137493419Y-39829064D01*
X137991409Y-39496318D01*
X138176000Y-39220058D01*
X138360591Y-39496318D01*
X138858581Y-39829064D01*
X139446000Y-39945909D01*
X140033419Y-39829064D01*
X140531409Y-39496318D01*
X140716000Y-39220058D01*
X140900591Y-39496318D01*
X141398581Y-39829064D01*
X141986000Y-39945909D01*
X142573419Y-39829064D01*
X143071409Y-39496318D01*
X143256000Y-39220058D01*
X143440591Y-39496318D01*
X143938581Y-39829064D01*
X144526000Y-39945909D01*
X145113419Y-39829064D01*
X145611409Y-39496318D01*
X145796000Y-39220058D01*
X145980591Y-39496318D01*
X146478581Y-39829064D01*
X147066000Y-39945909D01*
X147653419Y-39829064D01*
X148151409Y-39496318D01*
X148336000Y-39220058D01*
X148520591Y-39496318D01*
X149018581Y-39829064D01*
X149606000Y-39945909D01*
X150193419Y-39829064D01*
X150691409Y-39496318D01*
X150876000Y-39220058D01*
X151060591Y-39496318D01*
X151558581Y-39829064D01*
X152146000Y-39945909D01*
X152733419Y-39829064D01*
X153231409Y-39496318D01*
X153416000Y-39220058D01*
X153600591Y-39496318D01*
X154098581Y-39829064D01*
X154686000Y-39945909D01*
X155273419Y-39829064D01*
X155771409Y-39496318D01*
X155956000Y-39220058D01*
X156140591Y-39496318D01*
X156638581Y-39829064D01*
X156802524Y-39861674D01*
X155133198Y-41531000D01*
X148971000Y-41531000D01*
X148680161Y-41588852D01*
X148433599Y-41753599D01*
X125844320Y-64342878D01*
X125798833Y-64342838D01*
X125455057Y-64484883D01*
X125191808Y-64747673D01*
X125049162Y-65091201D01*
X125048838Y-65463167D01*
X123823000Y-65463167D01*
X123823000Y-41970802D01*
X126042381Y-39751421D01*
X126158581Y-39829064D01*
X126746000Y-39945909D01*
X127333419Y-39829064D01*
X127831409Y-39496318D01*
X128016000Y-39220058D01*
X128200591Y-39496318D01*
X128698581Y-39829064D01*
X129286000Y-39945909D01*
X129873419Y-39829064D01*
X130371409Y-39496318D01*
X130562192Y-39210790D01*
X130830394Y-39548212D01*
X131355914Y-39839756D01*
X131461260Y-39864036D01*
X131699000Y-39743378D01*
X131699000Y-38100000D01*
X131679000Y-38100000D01*
X131679000Y-37846000D01*
X131699000Y-37846000D01*
X131699000Y-36202622D01*
X131461260Y-36081964D01*
X131355914Y-36106244D01*
X130830394Y-36397788D01*
X130562192Y-36735210D01*
X130371409Y-36449682D01*
X129873419Y-36116936D01*
X129286000Y-36000091D01*
X128698581Y-36116936D01*
X128200591Y-36449682D01*
X128016000Y-36725942D01*
X127831409Y-36449682D01*
X127333419Y-36116936D01*
X126746000Y-36000091D01*
X126158581Y-36116936D01*
X125660591Y-36449682D01*
X125476000Y-36725942D01*
X125291409Y-36449682D01*
X124793419Y-36116936D01*
X124206000Y-36000091D01*
X123618581Y-36116936D01*
X123120591Y-36449682D01*
X122929808Y-36735210D01*
X122661606Y-36397788D01*
X122136086Y-36106244D01*
X122030740Y-36081964D01*
X121793000Y-36202622D01*
X121793000Y-37846000D01*
X121813000Y-37846000D01*
X121813000Y-38100000D01*
X121793000Y-38100000D01*
X121793000Y-39743378D01*
X122030740Y-39864036D01*
X122136086Y-39839756D01*
X122661606Y-39548212D01*
X122929808Y-39210790D01*
X123120591Y-39496318D01*
X123618581Y-39829064D01*
X123782524Y-39861674D01*
X122525599Y-41118599D01*
X122360852Y-41365161D01*
X122303000Y-41656000D01*
X122303000Y-75743641D01*
X122129005Y-75815534D01*
X121664166Y-76279563D01*
X121412287Y-76886155D01*
X121411714Y-77542963D01*
X120902000Y-77542963D01*
X120902000Y-49203463D01*
X120934192Y-49171327D01*
X121076838Y-48827799D01*
X121077162Y-48455833D01*
X120935117Y-48112057D01*
X120672327Y-47848808D01*
X120328799Y-47706162D01*
X119956833Y-47705838D01*
X119613057Y-47847883D01*
X119349808Y-48110673D01*
X119207162Y-48454201D01*
X119206838Y-48826167D01*
X119348883Y-49169943D01*
X119382000Y-49203118D01*
X119382000Y-49611001D01*
X119194833Y-49610838D01*
X118851057Y-49752883D01*
X118587808Y-50015673D01*
X118445162Y-50359201D01*
X118444838Y-50731167D01*
X118586883Y-51074943D01*
X118620000Y-51108118D01*
X118620000Y-51643001D01*
X118432833Y-51642838D01*
X118089057Y-51784883D01*
X117825808Y-52047673D01*
X117683162Y-52391201D01*
X117682838Y-52763167D01*
X117824883Y-53106943D01*
X117858000Y-53140118D01*
X117858000Y-67645771D01*
X117377859Y-67164791D01*
X116593441Y-66839072D01*
X115744085Y-66838330D01*
X114959100Y-67162680D01*
X114679000Y-67442292D01*
X114679000Y-64830802D01*
X115599401Y-63910401D01*
X115764148Y-63663839D01*
X115822000Y-63373000D01*
X115822000Y-58474463D01*
X115854192Y-58442327D01*
X115996838Y-58098799D01*
X115997162Y-57726833D01*
X115855117Y-57383057D01*
X115592327Y-57119808D01*
X115248799Y-56977162D01*
X114876833Y-56976838D01*
X114533057Y-57118883D01*
X114269808Y-57381673D01*
X114127162Y-57725201D01*
X114126838Y-58097167D01*
X114268883Y-58440943D01*
X114302000Y-58474118D01*
X114302000Y-58882001D01*
X114114833Y-58881838D01*
X113771057Y-59023883D01*
X113507808Y-59286673D01*
X113365162Y-59630201D01*
X113364838Y-60002167D01*
X113506883Y-60345943D01*
X113540000Y-60379118D01*
X113540000Y-61704897D01*
X113470799Y-61676162D01*
X113098833Y-61675838D01*
X112755057Y-61817883D01*
X112491808Y-62080673D01*
X112349162Y-62424201D01*
X112349121Y-62471077D01*
X111730599Y-63089599D01*
X111708000Y-63123421D01*
X111708000Y-38395815D01*
X114031530Y-38395815D01*
X114355880Y-39180800D01*
X114955941Y-39781909D01*
X115740359Y-40107628D01*
X116589715Y-40108370D01*
X117374700Y-39784020D01*
X117975809Y-39183959D01*
X118301528Y-38399541D01*
X118301789Y-38100000D01*
X120131000Y-38100000D01*
X120131000Y-38500000D01*
X120296446Y-39077752D01*
X120670394Y-39548212D01*
X121195914Y-39839756D01*
X121301260Y-39864036D01*
X121539000Y-39743378D01*
X121539000Y-38100000D01*
X120131000Y-38100000D01*
X118301789Y-38100000D01*
X118302270Y-37550185D01*
X118259222Y-37446000D01*
X120131000Y-37446000D01*
X120131000Y-37846000D01*
X121539000Y-37846000D01*
X121539000Y-36202622D01*
X121301260Y-36081964D01*
X121195914Y-36106244D01*
X120670394Y-36397788D01*
X120296446Y-36868248D01*
X120131000Y-37446000D01*
X118259222Y-37446000D01*
X117977920Y-36765200D01*
X117377859Y-36164091D01*
X116593441Y-35838372D01*
X115744085Y-35837630D01*
X114959100Y-36161980D01*
X114357991Y-36762041D01*
X114032272Y-37546459D01*
X114031530Y-38395815D01*
X111708000Y-38395815D01*
X111708000Y-35254000D01*
X196140000Y-35254000D01*
X196140000Y-35995253D01*
G36*
X147297284Y-96821671D02*
X147420626Y-97028000D01*
X148463000Y-97028000D01*
X148463000Y-97008000D01*
X148717000Y-97008000D01*
X148717000Y-97028000D01*
X149759374Y-97028000D01*
X149882716Y-96821671D01*
X149862143Y-96772000D01*
X153101198Y-96772000D01*
X153360464Y-97031266D01*
X153305283Y-97113849D01*
X153196050Y-97663000D01*
X153305283Y-98212151D01*
X153616352Y-98677698D01*
X153998438Y-98933000D01*
X153616352Y-99188302D01*
X153305283Y-99653849D01*
X153196050Y-100203000D01*
X153305283Y-100752151D01*
X153616352Y-101217698D01*
X153998438Y-101473000D01*
X153616352Y-101728302D01*
X153305283Y-102193849D01*
X153196050Y-102743000D01*
X153297495Y-103253000D01*
X151892000Y-103253000D01*
X151601160Y-103310852D01*
X151354599Y-103475599D01*
X150482320Y-104347878D01*
X150436833Y-104347838D01*
X150093057Y-104489883D01*
X149829808Y-104752673D01*
X149687162Y-105096201D01*
X149686838Y-105468167D01*
X149828883Y-105811943D01*
X150091673Y-106075192D01*
X150435201Y-106217838D01*
X150807167Y-106218162D01*
X151150943Y-106076117D01*
X151414192Y-105813327D01*
X151556838Y-105469799D01*
X151556879Y-105422923D01*
X152206802Y-104773000D01*
X153297495Y-104773000D01*
X153196050Y-105283000D01*
X153305283Y-105832151D01*
X153616352Y-106297698D01*
X153994707Y-106550507D01*
X153562500Y-106898104D01*
X153292633Y-107391181D01*
X153275096Y-107473961D01*
X153397085Y-107696000D01*
X154940000Y-107696000D01*
X154940000Y-107676000D01*
X155194000Y-107676000D01*
X155194000Y-107696000D01*
X156736915Y-107696000D01*
X156858904Y-107473961D01*
X156841367Y-107391181D01*
X156571500Y-106898104D01*
X156139293Y-106550507D01*
X156517648Y-106297698D01*
X156828717Y-105832151D01*
X156937950Y-105283000D01*
X156881027Y-104996829D01*
X157179878Y-105295680D01*
X157179838Y-105341167D01*
X157321883Y-105684943D01*
X157584673Y-105948192D01*
X157928201Y-106090838D01*
X157990000Y-106090892D01*
X157990000Y-115640198D01*
X150521841Y-108172039D01*
X153275096Y-108172039D01*
X153292633Y-108254819D01*
X153562500Y-108747896D01*
X154000517Y-109100166D01*
X154540000Y-109258000D01*
X154940000Y-109258000D01*
X154940000Y-107950000D01*
X155194000Y-107950000D01*
X155194000Y-109258000D01*
X155594000Y-109258000D01*
X156133483Y-109100166D01*
X156571500Y-108747896D01*
X156841367Y-108254819D01*
X156858904Y-108172039D01*
X156736915Y-107950000D01*
X155194000Y-107950000D01*
X154940000Y-107950000D01*
X153397085Y-107950000D01*
X153275096Y-108172039D01*
X150521841Y-108172039D01*
X144410131Y-102060329D01*
X147297284Y-102060329D01*
X147440203Y-102405396D01*
X147787337Y-102793764D01*
X148256669Y-103019727D01*
X148463000Y-102897206D01*
X148463000Y-101854000D01*
X148717000Y-101854000D01*
X148717000Y-102897206D01*
X148923331Y-103019727D01*
X149392663Y-102793764D01*
X149739797Y-102405396D01*
X149882716Y-102060329D01*
X149759374Y-101854000D01*
X148717000Y-101854000D01*
X148463000Y-101854000D01*
X147420626Y-101854000D01*
X147297284Y-102060329D01*
X144410131Y-102060329D01*
X142232223Y-99882421D01*
X142277106Y-99774329D01*
X147297284Y-99774329D01*
X147440203Y-100119396D01*
X147787337Y-100507764D01*
X147945681Y-100584000D01*
X147787337Y-100660236D01*
X147440203Y-101048604D01*
X147297284Y-101393671D01*
X147420626Y-101600000D01*
X148463000Y-101600000D01*
X148463000Y-99568000D01*
X148717000Y-99568000D01*
X148717000Y-101600000D01*
X149759374Y-101600000D01*
X149882716Y-101393671D01*
X149739797Y-101048604D01*
X149392663Y-100660236D01*
X149234319Y-100584000D01*
X149392663Y-100507764D01*
X149739797Y-100119396D01*
X149882716Y-99774329D01*
X149759374Y-99568000D01*
X148717000Y-99568000D01*
X148463000Y-99568000D01*
X147420626Y-99568000D01*
X147297284Y-99774329D01*
X142277106Y-99774329D01*
X142304768Y-99707713D01*
X142305231Y-99176617D01*
X142102418Y-98685771D01*
X141727204Y-98309902D01*
X141699078Y-98298223D01*
X141725229Y-98287418D01*
X142101098Y-97912204D01*
X142277106Y-97488329D01*
X147297284Y-97488329D01*
X147440203Y-97833396D01*
X147787337Y-98221764D01*
X147945681Y-98298000D01*
X147787337Y-98374236D01*
X147440203Y-98762604D01*
X147297284Y-99107671D01*
X147420626Y-99314000D01*
X148463000Y-99314000D01*
X148463000Y-97282000D01*
X148717000Y-97282000D01*
X148717000Y-99314000D01*
X149759374Y-99314000D01*
X149882716Y-99107671D01*
X149739797Y-98762604D01*
X149392663Y-98374236D01*
X149234319Y-98298000D01*
X149392663Y-98221764D01*
X149739797Y-97833396D01*
X149882716Y-97488329D01*
X149759374Y-97282000D01*
X148717000Y-97282000D01*
X148463000Y-97282000D01*
X147420626Y-97282000D01*
X147297284Y-97488329D01*
X142277106Y-97488329D01*
X142304768Y-97421713D01*
X142305231Y-96890617D01*
X142256220Y-96772000D01*
X147317857Y-96772000D01*
X147297284Y-96821671D01*
X147297284Y-96821671D01*
G37*
X147297284Y-96821671D02*
X147420626Y-97028000D01*
X148463000Y-97028000D01*
X148463000Y-97008000D01*
X148717000Y-97008000D01*
X148717000Y-97028000D01*
X149759374Y-97028000D01*
X149882716Y-96821671D01*
X149862143Y-96772000D01*
X153101198Y-96772000D01*
X153360464Y-97031266D01*
X153305283Y-97113849D01*
X153196050Y-97663000D01*
X153305283Y-98212151D01*
X153616352Y-98677698D01*
X153998438Y-98933000D01*
X153616352Y-99188302D01*
X153305283Y-99653849D01*
X153196050Y-100203000D01*
X153305283Y-100752151D01*
X153616352Y-101217698D01*
X153998438Y-101473000D01*
X153616352Y-101728302D01*
X153305283Y-102193849D01*
X153196050Y-102743000D01*
X153297495Y-103253000D01*
X151892000Y-103253000D01*
X151601160Y-103310852D01*
X151354599Y-103475599D01*
X150482320Y-104347878D01*
X150436833Y-104347838D01*
X150093057Y-104489883D01*
X149829808Y-104752673D01*
X149687162Y-105096201D01*
X149686838Y-105468167D01*
X149828883Y-105811943D01*
X150091673Y-106075192D01*
X150435201Y-106217838D01*
X150807167Y-106218162D01*
X151150943Y-106076117D01*
X151414192Y-105813327D01*
X151556838Y-105469799D01*
X151556879Y-105422923D01*
X152206802Y-104773000D01*
X153297495Y-104773000D01*
X153196050Y-105283000D01*
X153305283Y-105832151D01*
X153616352Y-106297698D01*
X153994707Y-106550507D01*
X153562500Y-106898104D01*
X153292633Y-107391181D01*
X153275096Y-107473961D01*
X153397085Y-107696000D01*
X154940000Y-107696000D01*
X154940000Y-107676000D01*
X155194000Y-107676000D01*
X155194000Y-107696000D01*
X156736915Y-107696000D01*
X156858904Y-107473961D01*
X156841367Y-107391181D01*
X156571500Y-106898104D01*
X156139293Y-106550507D01*
X156517648Y-106297698D01*
X156828717Y-105832151D01*
X156937950Y-105283000D01*
X156881027Y-104996829D01*
X157179878Y-105295680D01*
X157179838Y-105341167D01*
X157321883Y-105684943D01*
X157584673Y-105948192D01*
X157928201Y-106090838D01*
X157990000Y-106090892D01*
X157990000Y-115640198D01*
X150521841Y-108172039D01*
X153275096Y-108172039D01*
X153292633Y-108254819D01*
X153562500Y-108747896D01*
X154000517Y-109100166D01*
X154540000Y-109258000D01*
X154940000Y-109258000D01*
X154940000Y-107950000D01*
X155194000Y-107950000D01*
X155194000Y-109258000D01*
X155594000Y-109258000D01*
X156133483Y-109100166D01*
X156571500Y-108747896D01*
X156841367Y-108254819D01*
X156858904Y-108172039D01*
X156736915Y-107950000D01*
X155194000Y-107950000D01*
X154940000Y-107950000D01*
X153397085Y-107950000D01*
X153275096Y-108172039D01*
X150521841Y-108172039D01*
X144410131Y-102060329D01*
X147297284Y-102060329D01*
X147440203Y-102405396D01*
X147787337Y-102793764D01*
X148256669Y-103019727D01*
X148463000Y-102897206D01*
X148463000Y-101854000D01*
X148717000Y-101854000D01*
X148717000Y-102897206D01*
X148923331Y-103019727D01*
X149392663Y-102793764D01*
X149739797Y-102405396D01*
X149882716Y-102060329D01*
X149759374Y-101854000D01*
X148717000Y-101854000D01*
X148463000Y-101854000D01*
X147420626Y-101854000D01*
X147297284Y-102060329D01*
X144410131Y-102060329D01*
X142232223Y-99882421D01*
X142277106Y-99774329D01*
X147297284Y-99774329D01*
X147440203Y-100119396D01*
X147787337Y-100507764D01*
X147945681Y-100584000D01*
X147787337Y-100660236D01*
X147440203Y-101048604D01*
X147297284Y-101393671D01*
X147420626Y-101600000D01*
X148463000Y-101600000D01*
X148463000Y-99568000D01*
X148717000Y-99568000D01*
X148717000Y-101600000D01*
X149759374Y-101600000D01*
X149882716Y-101393671D01*
X149739797Y-101048604D01*
X149392663Y-100660236D01*
X149234319Y-100584000D01*
X149392663Y-100507764D01*
X149739797Y-100119396D01*
X149882716Y-99774329D01*
X149759374Y-99568000D01*
X148717000Y-99568000D01*
X148463000Y-99568000D01*
X147420626Y-99568000D01*
X147297284Y-99774329D01*
X142277106Y-99774329D01*
X142304768Y-99707713D01*
X142305231Y-99176617D01*
X142102418Y-98685771D01*
X141727204Y-98309902D01*
X141699078Y-98298223D01*
X141725229Y-98287418D01*
X142101098Y-97912204D01*
X142277106Y-97488329D01*
X147297284Y-97488329D01*
X147440203Y-97833396D01*
X147787337Y-98221764D01*
X147945681Y-98298000D01*
X147787337Y-98374236D01*
X147440203Y-98762604D01*
X147297284Y-99107671D01*
X147420626Y-99314000D01*
X148463000Y-99314000D01*
X148463000Y-97282000D01*
X148717000Y-97282000D01*
X148717000Y-99314000D01*
X149759374Y-99314000D01*
X149882716Y-99107671D01*
X149739797Y-98762604D01*
X149392663Y-98374236D01*
X149234319Y-98298000D01*
X149392663Y-98221764D01*
X149739797Y-97833396D01*
X149882716Y-97488329D01*
X149759374Y-97282000D01*
X148717000Y-97282000D01*
X148463000Y-97282000D01*
X147420626Y-97282000D01*
X147297284Y-97488329D01*
X142277106Y-97488329D01*
X142304768Y-97421713D01*
X142305231Y-96890617D01*
X142256220Y-96772000D01*
X147317857Y-96772000D01*
X147297284Y-96821671D01*
G36*
X121922000Y-93913802D02*
X121922000Y-95429594D01*
X121668882Y-95260467D01*
X121158000Y-95158846D01*
X120647118Y-95260467D01*
X120214012Y-95549858D01*
X119951161Y-95943244D01*
X119877418Y-95764771D01*
X119502204Y-95388902D01*
X119011713Y-95185232D01*
X118480617Y-95184769D01*
X117989771Y-95387582D01*
X117613902Y-95762796D01*
X117410232Y-96253287D01*
X117409769Y-96784383D01*
X117612582Y-97275229D01*
X117987796Y-97651098D01*
X118478287Y-97854768D01*
X119009383Y-97855231D01*
X119500229Y-97652418D01*
X119876098Y-97277204D01*
X119951078Y-97096632D01*
X120214012Y-97490142D01*
X120647118Y-97779533D01*
X121158000Y-97881154D01*
X121668882Y-97779533D01*
X121922000Y-97610406D01*
X121922000Y-101219000D01*
X121979852Y-101509839D01*
X122126290Y-101729000D01*
X120396000Y-101729000D01*
X120105161Y-101786852D01*
X119858599Y-101951599D01*
X118983843Y-102826355D01*
X118745000Y-102778846D01*
X118234118Y-102880467D01*
X117801012Y-103169858D01*
X117511621Y-103602964D01*
X117410000Y-104113846D01*
X117410000Y-104166154D01*
X117511621Y-104677036D01*
X117801012Y-105110142D01*
X118234118Y-105399533D01*
X118745000Y-105501154D01*
X119255882Y-105399533D01*
X119688988Y-105110142D01*
X119951839Y-104716756D01*
X120025582Y-104895229D01*
X120400796Y-105271098D01*
X120891287Y-105474768D01*
X121422383Y-105475231D01*
X121913229Y-105272418D01*
X122289098Y-104897204D01*
X122492768Y-104406713D01*
X122493231Y-103875617D01*
X122290418Y-103384771D01*
X122154884Y-103249000D01*
X122494198Y-103249000D01*
X125065599Y-105820401D01*
X125133946Y-105866069D01*
X125422352Y-106297698D01*
X125804438Y-106553000D01*
X125422352Y-106808302D01*
X125111283Y-107273849D01*
X125002050Y-107823000D01*
X125111283Y-108372151D01*
X125422352Y-108837698D01*
X125887899Y-109148767D01*
X126113000Y-109193542D01*
X126113000Y-109690002D01*
X125826813Y-109689752D01*
X125299200Y-109907757D01*
X124895176Y-110311077D01*
X124676250Y-110838309D01*
X124675752Y-111409187D01*
X124893757Y-111936800D01*
X125297077Y-112340824D01*
X125824309Y-112559750D01*
X126395187Y-112560248D01*
X126922800Y-112342243D01*
X127132663Y-112132745D01*
X127782861Y-112132745D01*
X127856995Y-112378864D01*
X128394223Y-112571965D01*
X128964454Y-112544778D01*
X129365005Y-112378864D01*
X129439139Y-112132745D01*
X128611000Y-111304605D01*
X127782861Y-112132745D01*
X127132663Y-112132745D01*
X127326824Y-111938923D01*
X127354423Y-111872456D01*
X127357136Y-111879005D01*
X127603255Y-111953139D01*
X128431395Y-111125000D01*
X128790605Y-111125000D01*
X129618745Y-111953139D01*
X129864864Y-111879005D01*
X130057965Y-111341777D01*
X130030778Y-110771546D01*
X129864864Y-110370995D01*
X129618745Y-110296861D01*
X128790605Y-111125000D01*
X128431395Y-111125000D01*
X128417252Y-111110858D01*
X128596858Y-110931252D01*
X128611000Y-110945395D01*
X129439139Y-110117255D01*
X129365005Y-109871136D01*
X128827777Y-109678035D01*
X128257546Y-109705222D01*
X127856995Y-109871136D01*
X127782861Y-110117253D01*
X127667986Y-110002378D01*
X127633000Y-110037364D01*
X127633000Y-109193542D01*
X127858101Y-109148767D01*
X128323648Y-108837698D01*
X128634717Y-108372151D01*
X128743950Y-107823000D01*
X128634717Y-107273849D01*
X128579536Y-107191266D01*
X130204401Y-105566401D01*
X130369148Y-105319839D01*
X130427000Y-105029000D01*
X130427000Y-98866802D01*
X131076680Y-98217122D01*
X131122167Y-98217162D01*
X131465943Y-98075117D01*
X131729192Y-97812327D01*
X131828000Y-97574372D01*
X131828000Y-113858198D01*
X131130198Y-114556000D01*
X117094000Y-114556000D01*
X116803161Y-114613852D01*
X116556599Y-114778599D01*
X114171000Y-117164198D01*
X114171000Y-110550802D01*
X114312680Y-110409122D01*
X114358167Y-110409162D01*
X114701943Y-110267117D01*
X114868274Y-110101076D01*
X115445000Y-110677802D01*
X115445000Y-112854995D01*
X115397162Y-112970201D01*
X115396838Y-113342167D01*
X115538883Y-113685943D01*
X115801673Y-113949192D01*
X116145201Y-114091838D01*
X116517167Y-114092162D01*
X116860943Y-113950117D01*
X117124192Y-113687327D01*
X117266838Y-113343799D01*
X117267162Y-112971833D01*
X117125117Y-112628057D01*
X116965000Y-112467660D01*
X116965000Y-110363000D01*
X116907148Y-110072161D01*
X116907148Y-110072160D01*
X116742401Y-109825599D01*
X116294993Y-109378191D01*
X116471454Y-109369778D01*
X116872005Y-109203864D01*
X116946139Y-108957745D01*
X116118000Y-108129605D01*
X116103858Y-108143748D01*
X115924252Y-107964142D01*
X115938395Y-107950000D01*
X116297605Y-107950000D01*
X117125745Y-108778139D01*
X117371864Y-108704005D01*
X117374196Y-108697517D01*
X117400757Y-108761800D01*
X117804077Y-109165824D01*
X118331309Y-109384750D01*
X118902187Y-109385248D01*
X119429800Y-109167243D01*
X119833824Y-108763923D01*
X120052750Y-108236691D01*
X120053248Y-107665813D01*
X119835243Y-107138200D01*
X119431923Y-106734176D01*
X118904691Y-106515250D01*
X118333813Y-106514752D01*
X117806200Y-106732757D01*
X117402176Y-107136077D01*
X117374577Y-107202544D01*
X117371864Y-107195995D01*
X117125745Y-107121861D01*
X116297605Y-107950000D01*
X115938395Y-107950000D01*
X115924252Y-107935858D01*
X116103858Y-107756252D01*
X116118000Y-107770395D01*
X116946139Y-106942255D01*
X116872005Y-106696136D01*
X116334777Y-106503035D01*
X115764546Y-106530222D01*
X115441000Y-106664239D01*
X115441000Y-91500802D01*
X117106680Y-89835122D01*
X117152167Y-89835162D01*
X117495943Y-89693117D01*
X117598719Y-89590521D01*
X121922000Y-93913802D01*
X121922000Y-93913802D01*
G37*
X121922000Y-93913802D02*
X121922000Y-95429594D01*
X121668882Y-95260467D01*
X121158000Y-95158846D01*
X120647118Y-95260467D01*
X120214012Y-95549858D01*
X119951161Y-95943244D01*
X119877418Y-95764771D01*
X119502204Y-95388902D01*
X119011713Y-95185232D01*
X118480617Y-95184769D01*
X117989771Y-95387582D01*
X117613902Y-95762796D01*
X117410232Y-96253287D01*
X117409769Y-96784383D01*
X117612582Y-97275229D01*
X117987796Y-97651098D01*
X118478287Y-97854768D01*
X119009383Y-97855231D01*
X119500229Y-97652418D01*
X119876098Y-97277204D01*
X119951078Y-97096632D01*
X120214012Y-97490142D01*
X120647118Y-97779533D01*
X121158000Y-97881154D01*
X121668882Y-97779533D01*
X121922000Y-97610406D01*
X121922000Y-101219000D01*
X121979852Y-101509839D01*
X122126290Y-101729000D01*
X120396000Y-101729000D01*
X120105161Y-101786852D01*
X119858599Y-101951599D01*
X118983843Y-102826355D01*
X118745000Y-102778846D01*
X118234118Y-102880467D01*
X117801012Y-103169858D01*
X117511621Y-103602964D01*
X117410000Y-104113846D01*
X117410000Y-104166154D01*
X117511621Y-104677036D01*
X117801012Y-105110142D01*
X118234118Y-105399533D01*
X118745000Y-105501154D01*
X119255882Y-105399533D01*
X119688988Y-105110142D01*
X119951839Y-104716756D01*
X120025582Y-104895229D01*
X120400796Y-105271098D01*
X120891287Y-105474768D01*
X121422383Y-105475231D01*
X121913229Y-105272418D01*
X122289098Y-104897204D01*
X122492768Y-104406713D01*
X122493231Y-103875617D01*
X122290418Y-103384771D01*
X122154884Y-103249000D01*
X122494198Y-103249000D01*
X125065599Y-105820401D01*
X125133946Y-105866069D01*
X125422352Y-106297698D01*
X125804438Y-106553000D01*
X125422352Y-106808302D01*
X125111283Y-107273849D01*
X125002050Y-107823000D01*
X125111283Y-108372151D01*
X125422352Y-108837698D01*
X125887899Y-109148767D01*
X126113000Y-109193542D01*
X126113000Y-109690002D01*
X125826813Y-109689752D01*
X125299200Y-109907757D01*
X124895176Y-110311077D01*
X124676250Y-110838309D01*
X124675752Y-111409187D01*
X124893757Y-111936800D01*
X125297077Y-112340824D01*
X125824309Y-112559750D01*
X126395187Y-112560248D01*
X126922800Y-112342243D01*
X127132663Y-112132745D01*
X127782861Y-112132745D01*
X127856995Y-112378864D01*
X128394223Y-112571965D01*
X128964454Y-112544778D01*
X129365005Y-112378864D01*
X129439139Y-112132745D01*
X128611000Y-111304605D01*
X127782861Y-112132745D01*
X127132663Y-112132745D01*
X127326824Y-111938923D01*
X127354423Y-111872456D01*
X127357136Y-111879005D01*
X127603255Y-111953139D01*
X128431395Y-111125000D01*
X128790605Y-111125000D01*
X129618745Y-111953139D01*
X129864864Y-111879005D01*
X130057965Y-111341777D01*
X130030778Y-110771546D01*
X129864864Y-110370995D01*
X129618745Y-110296861D01*
X128790605Y-111125000D01*
X128431395Y-111125000D01*
X128417252Y-111110858D01*
X128596858Y-110931252D01*
X128611000Y-110945395D01*
X129439139Y-110117255D01*
X129365005Y-109871136D01*
X128827777Y-109678035D01*
X128257546Y-109705222D01*
X127856995Y-109871136D01*
X127782861Y-110117253D01*
X127667986Y-110002378D01*
X127633000Y-110037364D01*
X127633000Y-109193542D01*
X127858101Y-109148767D01*
X128323648Y-108837698D01*
X128634717Y-108372151D01*
X128743950Y-107823000D01*
X128634717Y-107273849D01*
X128579536Y-107191266D01*
X130204401Y-105566401D01*
X130369148Y-105319839D01*
X130427000Y-105029000D01*
X130427000Y-98866802D01*
X131076680Y-98217122D01*
X131122167Y-98217162D01*
X131465943Y-98075117D01*
X131729192Y-97812327D01*
X131828000Y-97574372D01*
X131828000Y-113858198D01*
X131130198Y-114556000D01*
X117094000Y-114556000D01*
X116803161Y-114613852D01*
X116556599Y-114778599D01*
X114171000Y-117164198D01*
X114171000Y-110550802D01*
X114312680Y-110409122D01*
X114358167Y-110409162D01*
X114701943Y-110267117D01*
X114868274Y-110101076D01*
X115445000Y-110677802D01*
X115445000Y-112854995D01*
X115397162Y-112970201D01*
X115396838Y-113342167D01*
X115538883Y-113685943D01*
X115801673Y-113949192D01*
X116145201Y-114091838D01*
X116517167Y-114092162D01*
X116860943Y-113950117D01*
X117124192Y-113687327D01*
X117266838Y-113343799D01*
X117267162Y-112971833D01*
X117125117Y-112628057D01*
X116965000Y-112467660D01*
X116965000Y-110363000D01*
X116907148Y-110072161D01*
X116907148Y-110072160D01*
X116742401Y-109825599D01*
X116294993Y-109378191D01*
X116471454Y-109369778D01*
X116872005Y-109203864D01*
X116946139Y-108957745D01*
X116118000Y-108129605D01*
X116103858Y-108143748D01*
X115924252Y-107964142D01*
X115938395Y-107950000D01*
X116297605Y-107950000D01*
X117125745Y-108778139D01*
X117371864Y-108704005D01*
X117374196Y-108697517D01*
X117400757Y-108761800D01*
X117804077Y-109165824D01*
X118331309Y-109384750D01*
X118902187Y-109385248D01*
X119429800Y-109167243D01*
X119833824Y-108763923D01*
X120052750Y-108236691D01*
X120053248Y-107665813D01*
X119835243Y-107138200D01*
X119431923Y-106734176D01*
X118904691Y-106515250D01*
X118333813Y-106514752D01*
X117806200Y-106732757D01*
X117402176Y-107136077D01*
X117374577Y-107202544D01*
X117371864Y-107195995D01*
X117125745Y-107121861D01*
X116297605Y-107950000D01*
X115938395Y-107950000D01*
X115924252Y-107935858D01*
X116103858Y-107756252D01*
X116118000Y-107770395D01*
X116946139Y-106942255D01*
X116872005Y-106696136D01*
X116334777Y-106503035D01*
X115764546Y-106530222D01*
X115441000Y-106664239D01*
X115441000Y-91500802D01*
X117106680Y-89835122D01*
X117152167Y-89835162D01*
X117495943Y-89693117D01*
X117598719Y-89590521D01*
X121922000Y-93913802D01*
G36*
X134620000Y-102616000D02*
X134640000Y-102616000D01*
X134640000Y-102870000D01*
X134620000Y-102870000D01*
X134620000Y-102890000D01*
X134366000Y-102890000D01*
X134366000Y-102870000D01*
X134346000Y-102870000D01*
X134346000Y-102616000D01*
X134366000Y-102616000D01*
X134366000Y-102596000D01*
X134620000Y-102596000D01*
X134620000Y-102616000D01*
X134620000Y-102616000D01*
G37*
X134620000Y-102616000D02*
X134640000Y-102616000D01*
X134640000Y-102870000D01*
X134620000Y-102870000D01*
X134620000Y-102890000D01*
X134366000Y-102890000D01*
X134366000Y-102870000D01*
X134346000Y-102870000D01*
X134346000Y-102616000D01*
X134366000Y-102616000D01*
X134366000Y-102596000D01*
X134620000Y-102596000D01*
X134620000Y-102616000D01*
G36*
X136258320Y-88091878D02*
X136212833Y-88091838D01*
X136172251Y-88108606D01*
X136267367Y-87934819D01*
X136284904Y-87852039D01*
X136162915Y-87630000D01*
X134620000Y-87630000D01*
X134620000Y-87650000D01*
X134366000Y-87650000D01*
X134366000Y-87630000D01*
X134346000Y-87630000D01*
X134346000Y-87376000D01*
X134366000Y-87376000D01*
X134366000Y-87356000D01*
X134620000Y-87356000D01*
X134620000Y-87376000D01*
X136162915Y-87376000D01*
X136284904Y-87153961D01*
X136267367Y-87071181D01*
X136085560Y-86739000D01*
X137611198Y-86739000D01*
X136258320Y-88091878D01*
X136258320Y-88091878D01*
G37*
X136258320Y-88091878D02*
X136212833Y-88091838D01*
X136172251Y-88108606D01*
X136267367Y-87934819D01*
X136284904Y-87852039D01*
X136162915Y-87630000D01*
X134620000Y-87630000D01*
X134620000Y-87650000D01*
X134366000Y-87650000D01*
X134366000Y-87630000D01*
X134346000Y-87630000D01*
X134346000Y-87376000D01*
X134366000Y-87376000D01*
X134366000Y-87356000D01*
X134620000Y-87356000D01*
X134620000Y-87376000D01*
X136162915Y-87376000D01*
X136284904Y-87153961D01*
X136267367Y-87071181D01*
X136085560Y-86739000D01*
X137611198Y-86739000D01*
X136258320Y-88091878D01*
M02*
