G04 #@! TF.FileFunction,Soldermask,Bot*
%FSLAX46Y46*%
G04 Gerber Fmt 4.6, Leading zero omitted, Abs format (unit mm)*
G04 Created by KiCad (PCBNEW 4.0.5) date 05/03/17 08:17:14*
%MOMM*%
%LPD*%
G01*
G04 APERTURE LIST*
%ADD10C,0.100000*%
%ADD11O,1.800000X2.600000*%
%ADD12C,3.000000*%
%ADD13R,2.400000X1.600000*%
%ADD14O,2.400000X1.600000*%
%ADD15C,1.600000*%
%ADD16R,1.700000X1.700000*%
%ADD17O,1.700000X1.700000*%
%ADD18O,1.727200X2.032000*%
%ADD19C,2.032000*%
%ADD20C,1.752600*%
%ADD21C,1.400000*%
%ADD22O,1.400000X1.400000*%
G04 APERTURE END LIST*
D10*
D11*
X121666000Y-37973000D03*
X124206000Y-37973000D03*
X126746000Y-37973000D03*
X129286000Y-37973000D03*
X131826000Y-37973000D03*
X134366000Y-37973000D03*
X136906000Y-37973000D03*
X139446000Y-37973000D03*
X141986000Y-37973000D03*
X144526000Y-37973000D03*
X147066000Y-37973000D03*
X149606000Y-37973000D03*
X152146000Y-37973000D03*
X154686000Y-37973000D03*
X157226000Y-37973000D03*
X159766000Y-37973000D03*
D12*
X116166900Y-37973000D03*
X116166900Y-68973700D03*
X191165480Y-68973700D03*
X191165480Y-37973000D03*
D13*
X134493000Y-107823000D03*
D14*
X126873000Y-87503000D03*
X134493000Y-105283000D03*
X126873000Y-90043000D03*
X134493000Y-102743000D03*
X126873000Y-92583000D03*
X134493000Y-100203000D03*
X126873000Y-95123000D03*
X134493000Y-97663000D03*
X126873000Y-97663000D03*
X134493000Y-95123000D03*
X126873000Y-100203000D03*
X134493000Y-92583000D03*
X126873000Y-102743000D03*
X134493000Y-90043000D03*
X126873000Y-105283000D03*
X134493000Y-87503000D03*
X126873000Y-107823000D03*
D15*
X126111000Y-111125000D03*
X128611000Y-111125000D03*
X118618000Y-107950000D03*
X116118000Y-107950000D03*
X162814000Y-84582000D03*
X165314000Y-84582000D03*
X149733000Y-87122000D03*
X149733000Y-84622000D03*
X195326000Y-37211000D03*
X195326000Y-39711000D03*
X131826000Y-125476000D03*
X129326000Y-125476000D03*
D16*
X188087000Y-130556000D03*
D17*
X188087000Y-128016000D03*
D16*
X180975000Y-130556000D03*
D17*
X180975000Y-128016000D03*
D16*
X191389000Y-130556000D03*
D17*
X191389000Y-128016000D03*
D16*
X184277000Y-130556000D03*
D17*
X184277000Y-128016000D03*
D16*
X173736000Y-130556000D03*
D17*
X173736000Y-128016000D03*
D16*
X177038000Y-130556000D03*
D17*
X177038000Y-128016000D03*
D16*
X144018000Y-131953000D03*
D17*
X141478000Y-131953000D03*
X138938000Y-131953000D03*
D18*
X161798000Y-123825000D03*
X164338000Y-123825000D03*
X166878000Y-123825000D03*
X169418000Y-123825000D03*
X171958000Y-123825000D03*
X174498000Y-123825000D03*
X129794000Y-75565000D03*
X132334000Y-75565000D03*
X134874000Y-75565000D03*
X137414000Y-75565000D03*
X139954000Y-75565000D03*
X142494000Y-75565000D03*
X145034000Y-75565000D03*
X147574000Y-75565000D03*
X150114000Y-75565000D03*
X152654000Y-75565000D03*
X156718000Y-75565000D03*
X159258000Y-75565000D03*
X161798000Y-75565000D03*
X164338000Y-75565000D03*
X166878000Y-75565000D03*
X169418000Y-75565000D03*
X171958000Y-75565000D03*
X174498000Y-75565000D03*
D19*
X113055400Y-74726800D03*
X123063000Y-77216000D03*
X113055400Y-79705200D03*
D20*
X132080000Y-131826000D03*
X129540000Y-131826000D03*
X124460000Y-131826000D03*
X121920000Y-131826000D03*
X119380000Y-131826000D03*
D13*
X155067000Y-87503000D03*
D14*
X162687000Y-107823000D03*
X155067000Y-90043000D03*
X162687000Y-105283000D03*
X155067000Y-92583000D03*
X162687000Y-102743000D03*
X155067000Y-95123000D03*
X162687000Y-100203000D03*
X155067000Y-97663000D03*
X162687000Y-97663000D03*
X155067000Y-100203000D03*
X162687000Y-95123000D03*
X155067000Y-102743000D03*
X162687000Y-92583000D03*
X155067000Y-105283000D03*
X162687000Y-90043000D03*
X155067000Y-107823000D03*
X162687000Y-87503000D03*
D21*
X140970000Y-97155000D03*
D22*
X148590000Y-97155000D03*
D21*
X140970000Y-101727000D03*
D22*
X148590000Y-101727000D03*
D21*
X140970000Y-94869000D03*
D22*
X148590000Y-94869000D03*
D21*
X140970000Y-99441000D03*
D22*
X148590000Y-99441000D03*
D21*
X118745000Y-96520000D03*
D22*
X118745000Y-104140000D03*
D21*
X176530000Y-92075000D03*
D22*
X168910000Y-92075000D03*
D21*
X176530000Y-94488000D03*
D22*
X168910000Y-94488000D03*
D21*
X176530000Y-96901000D03*
D22*
X168910000Y-96901000D03*
D21*
X168910000Y-101727000D03*
D22*
X176530000Y-101727000D03*
D21*
X168910000Y-99314000D03*
D22*
X176530000Y-99314000D03*
D21*
X121158000Y-104140000D03*
D22*
X121158000Y-96520000D03*
D18*
X138938000Y-123825000D03*
X141478000Y-123825000D03*
X144018000Y-123825000D03*
X146558000Y-123825000D03*
X149098000Y-123825000D03*
X151638000Y-123825000D03*
X154178000Y-123825000D03*
X156718000Y-123825000D03*
M02*
