G04 #@! TF.FileFunction,Legend,Top*
%FSLAX46Y46*%
G04 Gerber Fmt 4.6, Leading zero omitted, Abs format (unit mm)*
G04 Created by KiCad (PCBNEW 4.0.5) date 05/03/17 08:17:14*
%MOMM*%
%LPD*%
G01*
G04 APERTURE LIST*
%ADD10C,0.100000*%
%ADD11C,0.300000*%
%ADD12C,0.150000*%
%ADD13C,0.120000*%
%ADD14C,0.200660*%
%ADD15C,0.010000*%
%ADD16C,0.250000*%
G04 APERTURE END LIST*
D10*
D11*
X152415857Y-112076571D02*
X153273000Y-112076571D01*
X152844429Y-113576571D02*
X152844429Y-112076571D01*
X154344428Y-113505143D02*
X154201571Y-113576571D01*
X153915857Y-113576571D01*
X153773000Y-113505143D01*
X153701571Y-113362286D01*
X153701571Y-112790857D01*
X153773000Y-112648000D01*
X153915857Y-112576571D01*
X154201571Y-112576571D01*
X154344428Y-112648000D01*
X154415857Y-112790857D01*
X154415857Y-112933714D01*
X153701571Y-113076571D01*
X155701571Y-113505143D02*
X155558714Y-113576571D01*
X155273000Y-113576571D01*
X155130142Y-113505143D01*
X155058714Y-113433714D01*
X154987285Y-113290857D01*
X154987285Y-112862286D01*
X155058714Y-112719429D01*
X155130142Y-112648000D01*
X155273000Y-112576571D01*
X155558714Y-112576571D01*
X155701571Y-112648000D01*
X156344428Y-113576571D02*
X156344428Y-112076571D01*
X156987285Y-113576571D02*
X156987285Y-112790857D01*
X156915856Y-112648000D01*
X156772999Y-112576571D01*
X156558714Y-112576571D01*
X156415856Y-112648000D01*
X156344428Y-112719429D01*
X157701571Y-112576571D02*
X157701571Y-113576571D01*
X157701571Y-112719429D02*
X157772999Y-112648000D01*
X157915857Y-112576571D01*
X158130142Y-112576571D01*
X158272999Y-112648000D01*
X158344428Y-112790857D01*
X158344428Y-113576571D01*
X159273000Y-113576571D02*
X159130142Y-113505143D01*
X159058714Y-113433714D01*
X158987285Y-113290857D01*
X158987285Y-112862286D01*
X159058714Y-112719429D01*
X159130142Y-112648000D01*
X159273000Y-112576571D01*
X159487285Y-112576571D01*
X159630142Y-112648000D01*
X159701571Y-112719429D01*
X159773000Y-112862286D01*
X159773000Y-113290857D01*
X159701571Y-113433714D01*
X159630142Y-113505143D01*
X159487285Y-113576571D01*
X159273000Y-113576571D01*
X160344428Y-113505143D02*
X160487285Y-113576571D01*
X160773000Y-113576571D01*
X160915857Y-113505143D01*
X160987285Y-113362286D01*
X160987285Y-113290857D01*
X160915857Y-113148000D01*
X160773000Y-113076571D01*
X160558714Y-113076571D01*
X160415857Y-113005143D01*
X160344428Y-112862286D01*
X160344428Y-112790857D01*
X160415857Y-112648000D01*
X160558714Y-112576571D01*
X160773000Y-112576571D01*
X160915857Y-112648000D01*
X161630143Y-113576571D02*
X161630143Y-112076571D01*
X162273000Y-113576571D02*
X162273000Y-112790857D01*
X162201571Y-112648000D01*
X162058714Y-112576571D01*
X161844429Y-112576571D01*
X161701571Y-112648000D01*
X161630143Y-112719429D01*
X162987286Y-113576571D02*
X162987286Y-112576571D01*
X162987286Y-112076571D02*
X162915857Y-112148000D01*
X162987286Y-112219429D01*
X163058714Y-112148000D01*
X162987286Y-112076571D01*
X162987286Y-112219429D01*
X164273000Y-113505143D02*
X164130143Y-113576571D01*
X163844429Y-113576571D01*
X163701572Y-113505143D01*
X163630143Y-113362286D01*
X163630143Y-112790857D01*
X163701572Y-112648000D01*
X163844429Y-112576571D01*
X164130143Y-112576571D01*
X164273000Y-112648000D01*
X164344429Y-112790857D01*
X164344429Y-112933714D01*
X163630143Y-113076571D01*
X165201572Y-113576571D02*
X165058714Y-113505143D01*
X164987286Y-113362286D01*
X164987286Y-112076571D01*
X166415857Y-113576571D02*
X166415857Y-112076571D01*
X166415857Y-113505143D02*
X166273000Y-113576571D01*
X165987286Y-113576571D01*
X165844428Y-113505143D01*
X165773000Y-113433714D01*
X165701571Y-113290857D01*
X165701571Y-112862286D01*
X165773000Y-112719429D01*
X165844428Y-112648000D01*
X165987286Y-112576571D01*
X166273000Y-112576571D01*
X166415857Y-112648000D01*
X152630143Y-114626571D02*
X152630143Y-115840857D01*
X152701571Y-115983714D01*
X152773000Y-116055143D01*
X152915857Y-116126571D01*
X153201571Y-116126571D01*
X153344429Y-116055143D01*
X153415857Y-115983714D01*
X153487286Y-115840857D01*
X153487286Y-114626571D01*
X154130143Y-116055143D02*
X154273000Y-116126571D01*
X154558715Y-116126571D01*
X154701572Y-116055143D01*
X154773000Y-115912286D01*
X154773000Y-115840857D01*
X154701572Y-115698000D01*
X154558715Y-115626571D01*
X154344429Y-115626571D01*
X154201572Y-115555143D01*
X154130143Y-115412286D01*
X154130143Y-115340857D01*
X154201572Y-115198000D01*
X154344429Y-115126571D01*
X154558715Y-115126571D01*
X154701572Y-115198000D01*
X155987286Y-116055143D02*
X155844429Y-116126571D01*
X155558715Y-116126571D01*
X155415858Y-116055143D01*
X155344429Y-115912286D01*
X155344429Y-115340857D01*
X155415858Y-115198000D01*
X155558715Y-115126571D01*
X155844429Y-115126571D01*
X155987286Y-115198000D01*
X156058715Y-115340857D01*
X156058715Y-115483714D01*
X155344429Y-115626571D01*
X156701572Y-116126571D02*
X156701572Y-115126571D01*
X156701572Y-115412286D02*
X156773000Y-115269429D01*
X156844429Y-115198000D01*
X156987286Y-115126571D01*
X157130143Y-115126571D01*
X158773000Y-116126571D02*
X158773000Y-114626571D01*
X159487286Y-115126571D02*
X159487286Y-116126571D01*
X159487286Y-115269429D02*
X159558714Y-115198000D01*
X159701572Y-115126571D01*
X159915857Y-115126571D01*
X160058714Y-115198000D01*
X160130143Y-115340857D01*
X160130143Y-116126571D01*
X160630143Y-115126571D02*
X161201572Y-115126571D01*
X160844429Y-114626571D02*
X160844429Y-115912286D01*
X160915857Y-116055143D01*
X161058715Y-116126571D01*
X161201572Y-116126571D01*
X162273000Y-116055143D02*
X162130143Y-116126571D01*
X161844429Y-116126571D01*
X161701572Y-116055143D01*
X161630143Y-115912286D01*
X161630143Y-115340857D01*
X161701572Y-115198000D01*
X161844429Y-115126571D01*
X162130143Y-115126571D01*
X162273000Y-115198000D01*
X162344429Y-115340857D01*
X162344429Y-115483714D01*
X161630143Y-115626571D01*
X162987286Y-116126571D02*
X162987286Y-115126571D01*
X162987286Y-115412286D02*
X163058714Y-115269429D01*
X163130143Y-115198000D01*
X163273000Y-115126571D01*
X163415857Y-115126571D01*
X163701571Y-115126571D02*
X164273000Y-115126571D01*
X163915857Y-116126571D02*
X163915857Y-114840857D01*
X163987285Y-114698000D01*
X164130143Y-114626571D01*
X164273000Y-114626571D01*
X165415857Y-116126571D02*
X165415857Y-115340857D01*
X165344428Y-115198000D01*
X165201571Y-115126571D01*
X164915857Y-115126571D01*
X164773000Y-115198000D01*
X165415857Y-116055143D02*
X165273000Y-116126571D01*
X164915857Y-116126571D01*
X164773000Y-116055143D01*
X164701571Y-115912286D01*
X164701571Y-115769429D01*
X164773000Y-115626571D01*
X164915857Y-115555143D01*
X165273000Y-115555143D01*
X165415857Y-115483714D01*
X166773000Y-116055143D02*
X166630143Y-116126571D01*
X166344429Y-116126571D01*
X166201571Y-116055143D01*
X166130143Y-115983714D01*
X166058714Y-115840857D01*
X166058714Y-115412286D01*
X166130143Y-115269429D01*
X166201571Y-115198000D01*
X166344429Y-115126571D01*
X166630143Y-115126571D01*
X166773000Y-115198000D01*
X167987285Y-116055143D02*
X167844428Y-116126571D01*
X167558714Y-116126571D01*
X167415857Y-116055143D01*
X167344428Y-115912286D01*
X167344428Y-115340857D01*
X167415857Y-115198000D01*
X167558714Y-115126571D01*
X167844428Y-115126571D01*
X167987285Y-115198000D01*
X168058714Y-115340857D01*
X168058714Y-115483714D01*
X167344428Y-115626571D01*
D12*
X187579048Y-76779429D02*
X188340953Y-76779429D01*
X187960001Y-77160381D02*
X187960001Y-76398476D01*
X183261048Y-76779429D02*
X184022953Y-76779429D01*
X183642001Y-77160381D02*
X183642001Y-76398476D01*
X187579048Y-73096429D02*
X188340953Y-73096429D01*
X183261048Y-73096429D02*
X184022953Y-73096429D01*
X178943048Y-73096429D02*
X179704953Y-73096429D01*
X178943048Y-76779429D02*
X179704953Y-76779429D01*
X179324001Y-77160381D02*
X179324001Y-76398476D01*
X146010381Y-121999190D02*
X146010381Y-121380142D01*
X146391333Y-121713476D01*
X146391333Y-121570618D01*
X146438952Y-121475380D01*
X146486571Y-121427761D01*
X146581810Y-121380142D01*
X146819905Y-121380142D01*
X146915143Y-121427761D01*
X146962762Y-121475380D01*
X147010381Y-121570618D01*
X147010381Y-121856333D01*
X146962762Y-121951571D01*
X146915143Y-121999190D01*
X146915143Y-120951571D02*
X146962762Y-120903952D01*
X147010381Y-120951571D01*
X146962762Y-120999190D01*
X146915143Y-120951571D01*
X147010381Y-120951571D01*
X146010381Y-120570619D02*
X146010381Y-119951571D01*
X146391333Y-120284905D01*
X146391333Y-120142047D01*
X146438952Y-120046809D01*
X146486571Y-119999190D01*
X146581810Y-119951571D01*
X146819905Y-119951571D01*
X146915143Y-119999190D01*
X146962762Y-120046809D01*
X147010381Y-120142047D01*
X147010381Y-120427762D01*
X146962762Y-120523000D01*
X146915143Y-120570619D01*
X146010381Y-119665857D02*
X147010381Y-119332524D01*
X146010381Y-118999190D01*
X141930381Y-121919762D02*
X140930381Y-121919762D01*
X140930381Y-121253096D02*
X140930381Y-121062619D01*
X140978000Y-120967381D01*
X141073238Y-120872143D01*
X141263714Y-120824524D01*
X141597048Y-120824524D01*
X141787524Y-120872143D01*
X141882762Y-120967381D01*
X141930381Y-121062619D01*
X141930381Y-121253096D01*
X141882762Y-121348334D01*
X141787524Y-121443572D01*
X141597048Y-121491191D01*
X141263714Y-121491191D01*
X141073238Y-121443572D01*
X140978000Y-121348334D01*
X140930381Y-121253096D01*
X141930381Y-119824524D02*
X141454190Y-120157858D01*
X141930381Y-120395953D02*
X140930381Y-120395953D01*
X140930381Y-120015000D01*
X140978000Y-119919762D01*
X141025619Y-119872143D01*
X141120857Y-119824524D01*
X141263714Y-119824524D01*
X141358952Y-119872143D01*
X141406571Y-119919762D01*
X141454190Y-120015000D01*
X141454190Y-120395953D01*
X141406571Y-119395953D02*
X141406571Y-119062619D01*
X141930381Y-118919762D02*
X141930381Y-119395953D01*
X140930381Y-119395953D01*
X140930381Y-118919762D01*
X141406571Y-118157857D02*
X141406571Y-118491191D01*
X141930381Y-118491191D02*
X140930381Y-118491191D01*
X140930381Y-118015000D01*
X144470381Y-121340381D02*
X143994190Y-121673715D01*
X144470381Y-121911810D02*
X143470381Y-121911810D01*
X143470381Y-121530857D01*
X143518000Y-121435619D01*
X143565619Y-121388000D01*
X143660857Y-121340381D01*
X143803714Y-121340381D01*
X143898952Y-121388000D01*
X143946571Y-121435619D01*
X143994190Y-121530857D01*
X143994190Y-121911810D01*
X143946571Y-120911810D02*
X143946571Y-120578476D01*
X144470381Y-120435619D02*
X144470381Y-120911810D01*
X143470381Y-120911810D01*
X143470381Y-120435619D01*
X144422762Y-120054667D02*
X144470381Y-119911810D01*
X144470381Y-119673714D01*
X144422762Y-119578476D01*
X144375143Y-119530857D01*
X144279905Y-119483238D01*
X144184667Y-119483238D01*
X144089429Y-119530857D01*
X144041810Y-119578476D01*
X143994190Y-119673714D01*
X143946571Y-119864191D01*
X143898952Y-119959429D01*
X143851333Y-120007048D01*
X143756095Y-120054667D01*
X143660857Y-120054667D01*
X143565619Y-120007048D01*
X143518000Y-119959429D01*
X143470381Y-119864191D01*
X143470381Y-119626095D01*
X143518000Y-119483238D01*
X143946571Y-119054667D02*
X143946571Y-118721333D01*
X144470381Y-118578476D02*
X144470381Y-119054667D01*
X143470381Y-119054667D01*
X143470381Y-118578476D01*
X143470381Y-118292762D02*
X143470381Y-117721333D01*
X144470381Y-118007048D02*
X143470381Y-118007048D01*
X148550381Y-121475476D02*
X148550381Y-121951667D01*
X149026571Y-121999286D01*
X148978952Y-121951667D01*
X148931333Y-121856429D01*
X148931333Y-121618333D01*
X148978952Y-121523095D01*
X149026571Y-121475476D01*
X149121810Y-121427857D01*
X149359905Y-121427857D01*
X149455143Y-121475476D01*
X149502762Y-121523095D01*
X149550381Y-121618333D01*
X149550381Y-121856429D01*
X149502762Y-121951667D01*
X149455143Y-121999286D01*
X148550381Y-121142143D02*
X149550381Y-120808810D01*
X148550381Y-120475476D01*
X153178285Y-129230381D02*
X152844951Y-128754190D01*
X152606856Y-129230381D02*
X152606856Y-128230381D01*
X152987809Y-128230381D01*
X153083047Y-128278000D01*
X153130666Y-128325619D01*
X153178285Y-128420857D01*
X153178285Y-128563714D01*
X153130666Y-128658952D01*
X153083047Y-128706571D01*
X152987809Y-128754190D01*
X152606856Y-128754190D01*
X153987809Y-129182762D02*
X153892571Y-129230381D01*
X153702094Y-129230381D01*
X153606856Y-129182762D01*
X153559237Y-129087524D01*
X153559237Y-128706571D01*
X153606856Y-128611333D01*
X153702094Y-128563714D01*
X153892571Y-128563714D01*
X153987809Y-128611333D01*
X154035428Y-128706571D01*
X154035428Y-128801810D01*
X153559237Y-128897048D01*
X154416380Y-129182762D02*
X154511618Y-129230381D01*
X154702094Y-129230381D01*
X154797333Y-129182762D01*
X154844952Y-129087524D01*
X154844952Y-129039905D01*
X154797333Y-128944667D01*
X154702094Y-128897048D01*
X154559237Y-128897048D01*
X154463999Y-128849429D01*
X154416380Y-128754190D01*
X154416380Y-128706571D01*
X154463999Y-128611333D01*
X154559237Y-128563714D01*
X154702094Y-128563714D01*
X154797333Y-128611333D01*
X155654476Y-129182762D02*
X155559238Y-129230381D01*
X155368761Y-129230381D01*
X155273523Y-129182762D01*
X155225904Y-129087524D01*
X155225904Y-128706571D01*
X155273523Y-128611333D01*
X155368761Y-128563714D01*
X155559238Y-128563714D01*
X155654476Y-128611333D01*
X155702095Y-128706571D01*
X155702095Y-128801810D01*
X155225904Y-128897048D01*
X155987809Y-128563714D02*
X156368761Y-128563714D01*
X156130666Y-128230381D02*
X156130666Y-129087524D01*
X156178285Y-129182762D01*
X156273523Y-129230381D01*
X156368761Y-129230381D01*
X130198762Y-79930476D02*
X130246381Y-79787619D01*
X130246381Y-79549523D01*
X130198762Y-79454285D01*
X130151143Y-79406666D01*
X130055905Y-79359047D01*
X129960667Y-79359047D01*
X129865429Y-79406666D01*
X129817810Y-79454285D01*
X129770190Y-79549523D01*
X129722571Y-79740000D01*
X129674952Y-79835238D01*
X129627333Y-79882857D01*
X129532095Y-79930476D01*
X129436857Y-79930476D01*
X129341619Y-79882857D01*
X129294000Y-79835238D01*
X129246381Y-79740000D01*
X129246381Y-79501904D01*
X129294000Y-79359047D01*
X130151143Y-78359047D02*
X130198762Y-78406666D01*
X130246381Y-78549523D01*
X130246381Y-78644761D01*
X130198762Y-78787619D01*
X130103524Y-78882857D01*
X130008286Y-78930476D01*
X129817810Y-78978095D01*
X129674952Y-78978095D01*
X129484476Y-78930476D01*
X129389238Y-78882857D01*
X129294000Y-78787619D01*
X129246381Y-78644761D01*
X129246381Y-78549523D01*
X129294000Y-78406666D01*
X129341619Y-78359047D01*
X130246381Y-77454285D02*
X130246381Y-77930476D01*
X129246381Y-77930476D01*
X132738762Y-79954286D02*
X132786381Y-79811429D01*
X132786381Y-79573333D01*
X132738762Y-79478095D01*
X132691143Y-79430476D01*
X132595905Y-79382857D01*
X132500667Y-79382857D01*
X132405429Y-79430476D01*
X132357810Y-79478095D01*
X132310190Y-79573333D01*
X132262571Y-79763810D01*
X132214952Y-79859048D01*
X132167333Y-79906667D01*
X132072095Y-79954286D01*
X131976857Y-79954286D01*
X131881619Y-79906667D01*
X131834000Y-79859048D01*
X131786381Y-79763810D01*
X131786381Y-79525714D01*
X131834000Y-79382857D01*
X132786381Y-78954286D02*
X131786381Y-78954286D01*
X131786381Y-78716191D01*
X131834000Y-78573333D01*
X131929238Y-78478095D01*
X132024476Y-78430476D01*
X132214952Y-78382857D01*
X132357810Y-78382857D01*
X132548286Y-78430476D01*
X132643524Y-78478095D01*
X132738762Y-78573333D01*
X132786381Y-78716191D01*
X132786381Y-78954286D01*
X132500667Y-78001905D02*
X132500667Y-77525714D01*
X132786381Y-78097143D02*
X131786381Y-77763810D01*
X132786381Y-77430476D01*
X135167667Y-80740048D02*
X135167667Y-80263857D01*
X135453381Y-80835286D02*
X134453381Y-80501953D01*
X135453381Y-80168619D01*
X135453381Y-79263857D02*
X134977190Y-79597191D01*
X135453381Y-79835286D02*
X134453381Y-79835286D01*
X134453381Y-79454333D01*
X134501000Y-79359095D01*
X134548619Y-79311476D01*
X134643857Y-79263857D01*
X134786714Y-79263857D01*
X134881952Y-79311476D01*
X134929571Y-79359095D01*
X134977190Y-79454333D01*
X134977190Y-79835286D01*
X134929571Y-78835286D02*
X134929571Y-78501952D01*
X135453381Y-78359095D02*
X135453381Y-78835286D01*
X134453381Y-78835286D01*
X134453381Y-78359095D01*
X134929571Y-77597190D02*
X134929571Y-77930524D01*
X135453381Y-77930524D02*
X134453381Y-77930524D01*
X134453381Y-77454333D01*
X136914000Y-79501904D02*
X136866381Y-79597142D01*
X136866381Y-79739999D01*
X136914000Y-79882857D01*
X137009238Y-79978095D01*
X137104476Y-80025714D01*
X137294952Y-80073333D01*
X137437810Y-80073333D01*
X137628286Y-80025714D01*
X137723524Y-79978095D01*
X137818762Y-79882857D01*
X137866381Y-79739999D01*
X137866381Y-79644761D01*
X137818762Y-79501904D01*
X137771143Y-79454285D01*
X137437810Y-79454285D01*
X137437810Y-79644761D01*
X137866381Y-79025714D02*
X136866381Y-79025714D01*
X137866381Y-78454285D01*
X136866381Y-78454285D01*
X137866381Y-77978095D02*
X136866381Y-77978095D01*
X136866381Y-77740000D01*
X136914000Y-77597142D01*
X137009238Y-77501904D01*
X137104476Y-77454285D01*
X137294952Y-77406666D01*
X137437810Y-77406666D01*
X137628286Y-77454285D01*
X137723524Y-77501904D01*
X137818762Y-77597142D01*
X137866381Y-77740000D01*
X137866381Y-77978095D01*
X140406381Y-78422476D02*
X140406381Y-78993905D01*
X140406381Y-78708191D02*
X139406381Y-78708191D01*
X139549238Y-78803429D01*
X139644476Y-78898667D01*
X139692095Y-78993905D01*
X139406381Y-78089143D02*
X139406381Y-77470095D01*
X139787333Y-77803429D01*
X139787333Y-77660571D01*
X139834952Y-77565333D01*
X139882571Y-77517714D01*
X139977810Y-77470095D01*
X140215905Y-77470095D01*
X140311143Y-77517714D01*
X140358762Y-77565333D01*
X140406381Y-77660571D01*
X140406381Y-77946286D01*
X140358762Y-78041524D01*
X140311143Y-78089143D01*
X142946381Y-78422476D02*
X142946381Y-78993905D01*
X142946381Y-78708191D02*
X141946381Y-78708191D01*
X142089238Y-78803429D01*
X142184476Y-78898667D01*
X142232095Y-78993905D01*
X142041619Y-78041524D02*
X141994000Y-77993905D01*
X141946381Y-77898667D01*
X141946381Y-77660571D01*
X141994000Y-77565333D01*
X142041619Y-77517714D01*
X142136857Y-77470095D01*
X142232095Y-77470095D01*
X142374952Y-77517714D01*
X142946381Y-78089143D01*
X142946381Y-77470095D01*
X144978429Y-79700286D02*
X144930810Y-79652667D01*
X144883190Y-79557429D01*
X144978429Y-79366953D01*
X144930810Y-79271714D01*
X144883190Y-79224095D01*
X145359381Y-78319333D02*
X145359381Y-78890762D01*
X145359381Y-78605048D02*
X144359381Y-78605048D01*
X144502238Y-78700286D01*
X144597476Y-78795524D01*
X144645095Y-78890762D01*
X145359381Y-77366952D02*
X145359381Y-77938381D01*
X145359381Y-77652667D02*
X144359381Y-77652667D01*
X144502238Y-77747905D01*
X144597476Y-77843143D01*
X144645095Y-77938381D01*
X147645429Y-79700286D02*
X147597810Y-79652667D01*
X147550190Y-79557429D01*
X147645429Y-79366953D01*
X147597810Y-79271714D01*
X147550190Y-79224095D01*
X148026381Y-78319333D02*
X148026381Y-78890762D01*
X148026381Y-78605048D02*
X147026381Y-78605048D01*
X147169238Y-78700286D01*
X147264476Y-78795524D01*
X147312095Y-78890762D01*
X147026381Y-77700286D02*
X147026381Y-77605047D01*
X147074000Y-77509809D01*
X147121619Y-77462190D01*
X147216857Y-77414571D01*
X147407333Y-77366952D01*
X147645429Y-77366952D01*
X147835905Y-77414571D01*
X147931143Y-77462190D01*
X147978762Y-77509809D01*
X148026381Y-77605047D01*
X148026381Y-77700286D01*
X147978762Y-77795524D01*
X147931143Y-77843143D01*
X147835905Y-77890762D01*
X147645429Y-77938381D01*
X147407333Y-77938381D01*
X147216857Y-77890762D01*
X147121619Y-77843143D01*
X147074000Y-77795524D01*
X147026381Y-77700286D01*
X150185429Y-78843095D02*
X150137810Y-78795476D01*
X150090190Y-78700238D01*
X150185429Y-78509762D01*
X150137810Y-78414523D01*
X150090190Y-78366904D01*
X150566381Y-77938333D02*
X150566381Y-77747857D01*
X150518762Y-77652618D01*
X150471143Y-77604999D01*
X150328286Y-77509761D01*
X150137810Y-77462142D01*
X149756857Y-77462142D01*
X149661619Y-77509761D01*
X149614000Y-77557380D01*
X149566381Y-77652618D01*
X149566381Y-77843095D01*
X149614000Y-77938333D01*
X149661619Y-77985952D01*
X149756857Y-78033571D01*
X149994952Y-78033571D01*
X150090190Y-77985952D01*
X150137810Y-77938333D01*
X150185429Y-77843095D01*
X150185429Y-77652618D01*
X150137810Y-77557380D01*
X150090190Y-77509761D01*
X149994952Y-77462142D01*
X152661952Y-77819238D02*
X152614333Y-77914476D01*
X152566714Y-77962095D01*
X152471476Y-78009714D01*
X152423857Y-78009714D01*
X152328619Y-77962095D01*
X152281000Y-77914476D01*
X152233381Y-77819238D01*
X152233381Y-77628761D01*
X152281000Y-77533523D01*
X152328619Y-77485904D01*
X152423857Y-77438285D01*
X152471476Y-77438285D01*
X152566714Y-77485904D01*
X152614333Y-77533523D01*
X152661952Y-77628761D01*
X152661952Y-77819238D01*
X152709571Y-77914476D01*
X152757190Y-77962095D01*
X152852429Y-78009714D01*
X153042905Y-78009714D01*
X153138143Y-77962095D01*
X153185762Y-77914476D01*
X153233381Y-77819238D01*
X153233381Y-77628761D01*
X153185762Y-77533523D01*
X153138143Y-77485904D01*
X153042905Y-77438285D01*
X152852429Y-77438285D01*
X152757190Y-77485904D01*
X152709571Y-77533523D01*
X152661952Y-77628761D01*
X156297381Y-78057333D02*
X156297381Y-77390666D01*
X157297381Y-77819238D01*
X159202429Y-78843095D02*
X159154810Y-78795476D01*
X159107190Y-78700238D01*
X159202429Y-78509762D01*
X159154810Y-78414523D01*
X159107190Y-78366904D01*
X158583381Y-77557380D02*
X158583381Y-77747857D01*
X158631000Y-77843095D01*
X158678619Y-77890714D01*
X158821476Y-77985952D01*
X159011952Y-78033571D01*
X159392905Y-78033571D01*
X159488143Y-77985952D01*
X159535762Y-77938333D01*
X159583381Y-77843095D01*
X159583381Y-77652618D01*
X159535762Y-77557380D01*
X159488143Y-77509761D01*
X159392905Y-77462142D01*
X159154810Y-77462142D01*
X159059571Y-77509761D01*
X159011952Y-77557380D01*
X158964333Y-77652618D01*
X158964333Y-77843095D01*
X159011952Y-77938333D01*
X159059571Y-77985952D01*
X159154810Y-78033571D01*
X161742429Y-78843095D02*
X161694810Y-78795476D01*
X161647190Y-78700238D01*
X161742429Y-78509762D01*
X161694810Y-78414523D01*
X161647190Y-78366904D01*
X161123381Y-77509761D02*
X161123381Y-77985952D01*
X161599571Y-78033571D01*
X161551952Y-77985952D01*
X161504333Y-77890714D01*
X161504333Y-77652618D01*
X161551952Y-77557380D01*
X161599571Y-77509761D01*
X161694810Y-77462142D01*
X161932905Y-77462142D01*
X162028143Y-77509761D01*
X162075762Y-77557380D01*
X162123381Y-77652618D01*
X162123381Y-77890714D01*
X162075762Y-77985952D01*
X162028143Y-78033571D01*
X164123714Y-77533523D02*
X164790381Y-77533523D01*
X163742762Y-77771619D02*
X164457048Y-78009714D01*
X164457048Y-77390666D01*
X169092619Y-78009714D02*
X169045000Y-77962095D01*
X168997381Y-77866857D01*
X168997381Y-77628761D01*
X169045000Y-77533523D01*
X169092619Y-77485904D01*
X169187857Y-77438285D01*
X169283095Y-77438285D01*
X169425952Y-77485904D01*
X169997381Y-78057333D01*
X169997381Y-77438285D01*
X186150190Y-124674714D02*
X186150190Y-123246143D01*
X186150190Y-126324714D02*
X186150190Y-124896143D01*
X193008190Y-124674714D02*
X193008190Y-123246143D01*
X193008190Y-126324714D02*
X193008190Y-124896143D01*
X179419190Y-124674714D02*
X179419190Y-123246143D01*
X179419190Y-126324714D02*
X179419190Y-124896143D01*
X179705000Y-123229619D02*
X180466905Y-123229619D01*
X180466905Y-123229619D02*
X181228810Y-123229619D01*
X181228810Y-123229619D02*
X181990715Y-123229619D01*
X181990715Y-123229619D02*
X182752620Y-123229619D01*
X182752620Y-123229619D02*
X183514525Y-123229619D01*
X183514525Y-123229619D02*
X184276430Y-123229619D01*
X184276430Y-123229619D02*
X185038335Y-123229619D01*
X185038335Y-123229619D02*
X185800240Y-123229619D01*
X185800240Y-123229619D02*
X186562145Y-123229619D01*
X186562145Y-123229619D02*
X187324050Y-123229619D01*
X187324050Y-123229619D02*
X188085955Y-123229619D01*
X188085955Y-123229619D02*
X188847860Y-123229619D01*
X188847860Y-123229619D02*
X189609765Y-123229619D01*
X189609765Y-123229619D02*
X190371670Y-123229619D01*
X190371670Y-123229619D02*
X191133575Y-123229619D01*
X191133575Y-123229619D02*
X191895480Y-123229619D01*
X191895480Y-123229619D02*
X192657385Y-123229619D01*
X190690476Y-126023667D02*
X191166667Y-126023667D01*
X190595238Y-126309381D02*
X190928571Y-125309381D01*
X191261905Y-126309381D01*
X191785714Y-125309381D02*
X191880953Y-125309381D01*
X191976191Y-125357000D01*
X192023810Y-125404619D01*
X192071429Y-125499857D01*
X192119048Y-125690333D01*
X192119048Y-125928429D01*
X192071429Y-126118905D01*
X192023810Y-126214143D01*
X191976191Y-126261762D01*
X191880953Y-126309381D01*
X191785714Y-126309381D01*
X191690476Y-126261762D01*
X191642857Y-126214143D01*
X191595238Y-126118905D01*
X191547619Y-125928429D01*
X191547619Y-125690333D01*
X191595238Y-125499857D01*
X191642857Y-125404619D01*
X191690476Y-125357000D01*
X191785714Y-125309381D01*
X187515476Y-126023667D02*
X187991667Y-126023667D01*
X187420238Y-126309381D02*
X187753571Y-125309381D01*
X188086905Y-126309381D01*
X188944048Y-126309381D02*
X188372619Y-126309381D01*
X188658333Y-126309381D02*
X188658333Y-125309381D01*
X188563095Y-125452238D01*
X188467857Y-125547476D01*
X188372619Y-125595095D01*
X183705476Y-126023667D02*
X184181667Y-126023667D01*
X183610238Y-126309381D02*
X183943571Y-125309381D01*
X184276905Y-126309381D01*
X184800714Y-125309381D02*
X184895953Y-125309381D01*
X184991191Y-125357000D01*
X185038810Y-125404619D01*
X185086429Y-125499857D01*
X185134048Y-125690333D01*
X185134048Y-125928429D01*
X185086429Y-126118905D01*
X185038810Y-126214143D01*
X184991191Y-126261762D01*
X184895953Y-126309381D01*
X184800714Y-126309381D01*
X184705476Y-126261762D01*
X184657857Y-126214143D01*
X184610238Y-126118905D01*
X184562619Y-125928429D01*
X184562619Y-125690333D01*
X184610238Y-125499857D01*
X184657857Y-125404619D01*
X184705476Y-125357000D01*
X184800714Y-125309381D01*
X180403476Y-126023667D02*
X180879667Y-126023667D01*
X180308238Y-126309381D02*
X180641571Y-125309381D01*
X180974905Y-126309381D01*
X181832048Y-126309381D02*
X181260619Y-126309381D01*
X181546333Y-126309381D02*
X181546333Y-125309381D01*
X181451095Y-125452238D01*
X181355857Y-125547476D01*
X181260619Y-125595095D01*
X186880429Y-124261571D02*
X187023286Y-124309190D01*
X187070905Y-124356810D01*
X187118524Y-124452048D01*
X187118524Y-124594905D01*
X187070905Y-124690143D01*
X187023286Y-124737762D01*
X186928048Y-124785381D01*
X186547095Y-124785381D01*
X186547095Y-123785381D01*
X186880429Y-123785381D01*
X186975667Y-123833000D01*
X187023286Y-123880619D01*
X187070905Y-123975857D01*
X187070905Y-124071095D01*
X187023286Y-124166333D01*
X186975667Y-124213952D01*
X186880429Y-124261571D01*
X186547095Y-124261571D01*
X187975667Y-124118714D02*
X187975667Y-124785381D01*
X187547095Y-124118714D02*
X187547095Y-124642524D01*
X187594714Y-124737762D01*
X187689952Y-124785381D01*
X187832810Y-124785381D01*
X187928048Y-124737762D01*
X187975667Y-124690143D01*
X188309000Y-124118714D02*
X188689952Y-124118714D01*
X188451857Y-123785381D02*
X188451857Y-124642524D01*
X188499476Y-124737762D01*
X188594714Y-124785381D01*
X188689952Y-124785381D01*
X189737572Y-123737762D02*
X188880429Y-125023476D01*
X190547096Y-124785381D02*
X190070905Y-124785381D01*
X190070905Y-123785381D01*
X190880429Y-124261571D02*
X191213763Y-124261571D01*
X191356620Y-124785381D02*
X190880429Y-124785381D01*
X190880429Y-123785381D01*
X191356620Y-123785381D01*
X191785191Y-124785381D02*
X191785191Y-123785381D01*
X192023286Y-123785381D01*
X192166144Y-123833000D01*
X192261382Y-123928238D01*
X192309001Y-124023476D01*
X192356620Y-124213952D01*
X192356620Y-124356810D01*
X192309001Y-124547286D01*
X192261382Y-124642524D01*
X192166144Y-124737762D01*
X192023286Y-124785381D01*
X191785191Y-124785381D01*
X180800286Y-124785381D02*
X180324095Y-124785381D01*
X180324095Y-123785381D01*
X181705048Y-124690143D02*
X181657429Y-124737762D01*
X181514572Y-124785381D01*
X181419334Y-124785381D01*
X181276476Y-124737762D01*
X181181238Y-124642524D01*
X181133619Y-124547286D01*
X181086000Y-124356810D01*
X181086000Y-124213952D01*
X181133619Y-124023476D01*
X181181238Y-123928238D01*
X181276476Y-123833000D01*
X181419334Y-123785381D01*
X181514572Y-123785381D01*
X181657429Y-123833000D01*
X181705048Y-123880619D01*
X182133619Y-124785381D02*
X182133619Y-123785381D01*
X182371714Y-123785381D01*
X182514572Y-123833000D01*
X182609810Y-123928238D01*
X182657429Y-124023476D01*
X182705048Y-124213952D01*
X182705048Y-124356810D01*
X182657429Y-124547286D01*
X182609810Y-124642524D01*
X182514572Y-124737762D01*
X182371714Y-124785381D01*
X182133619Y-124785381D01*
X151138000Y-121411904D02*
X151090381Y-121507142D01*
X151090381Y-121649999D01*
X151138000Y-121792857D01*
X151233238Y-121888095D01*
X151328476Y-121935714D01*
X151518952Y-121983333D01*
X151661810Y-121983333D01*
X151852286Y-121935714D01*
X151947524Y-121888095D01*
X152042762Y-121792857D01*
X152090381Y-121649999D01*
X152090381Y-121554761D01*
X152042762Y-121411904D01*
X151995143Y-121364285D01*
X151661810Y-121364285D01*
X151661810Y-121554761D01*
X152090381Y-120935714D02*
X151090381Y-120935714D01*
X152090381Y-120364285D01*
X151090381Y-120364285D01*
X152090381Y-119888095D02*
X151090381Y-119888095D01*
X151090381Y-119650000D01*
X151138000Y-119507142D01*
X151233238Y-119411904D01*
X151328476Y-119364285D01*
X151518952Y-119316666D01*
X151661810Y-119316666D01*
X151852286Y-119364285D01*
X151947524Y-119411904D01*
X152042762Y-119507142D01*
X152090381Y-119650000D01*
X152090381Y-119888095D01*
X153805000Y-121411904D02*
X153757381Y-121507142D01*
X153757381Y-121649999D01*
X153805000Y-121792857D01*
X153900238Y-121888095D01*
X153995476Y-121935714D01*
X154185952Y-121983333D01*
X154328810Y-121983333D01*
X154519286Y-121935714D01*
X154614524Y-121888095D01*
X154709762Y-121792857D01*
X154757381Y-121649999D01*
X154757381Y-121554761D01*
X154709762Y-121411904D01*
X154662143Y-121364285D01*
X154328810Y-121364285D01*
X154328810Y-121554761D01*
X154757381Y-120935714D02*
X153757381Y-120935714D01*
X154757381Y-120364285D01*
X153757381Y-120364285D01*
X154757381Y-119888095D02*
X153757381Y-119888095D01*
X153757381Y-119650000D01*
X153805000Y-119507142D01*
X153900238Y-119411904D01*
X153995476Y-119364285D01*
X154185952Y-119316666D01*
X154328810Y-119316666D01*
X154519286Y-119364285D01*
X154614524Y-119411904D01*
X154709762Y-119507142D01*
X154757381Y-119650000D01*
X154757381Y-119888095D01*
X156297381Y-121999238D02*
X157297381Y-121665905D01*
X156297381Y-121332571D01*
X157297381Y-120999238D02*
X156297381Y-120999238D01*
X157297381Y-120523048D02*
X156297381Y-120523048D01*
X157297381Y-119951619D01*
X156297381Y-119951619D01*
X161964667Y-121872286D02*
X161964667Y-121396095D01*
X162250381Y-121967524D02*
X161250381Y-121634191D01*
X162250381Y-121300857D01*
X161250381Y-120777048D02*
X161250381Y-120681809D01*
X161298000Y-120586571D01*
X161345619Y-120538952D01*
X161440857Y-120491333D01*
X161631333Y-120443714D01*
X161869429Y-120443714D01*
X162059905Y-120491333D01*
X162155143Y-120538952D01*
X162202762Y-120586571D01*
X162250381Y-120681809D01*
X162250381Y-120777048D01*
X162202762Y-120872286D01*
X162155143Y-120919905D01*
X162059905Y-120967524D01*
X161869429Y-121015143D01*
X161631333Y-121015143D01*
X161440857Y-120967524D01*
X161345619Y-120919905D01*
X161298000Y-120872286D01*
X161250381Y-120777048D01*
X164504667Y-121872286D02*
X164504667Y-121396095D01*
X164790381Y-121967524D02*
X163790381Y-121634191D01*
X164790381Y-121300857D01*
X164790381Y-120443714D02*
X164790381Y-121015143D01*
X164790381Y-120729429D02*
X163790381Y-120729429D01*
X163933238Y-120824667D01*
X164028476Y-120919905D01*
X164076095Y-121015143D01*
X167044667Y-121872286D02*
X167044667Y-121396095D01*
X167330381Y-121967524D02*
X166330381Y-121634191D01*
X167330381Y-121300857D01*
X166425619Y-121015143D02*
X166378000Y-120967524D01*
X166330381Y-120872286D01*
X166330381Y-120634190D01*
X166378000Y-120538952D01*
X166425619Y-120491333D01*
X166520857Y-120443714D01*
X166616095Y-120443714D01*
X166758952Y-120491333D01*
X167330381Y-121062762D01*
X167330381Y-120443714D01*
X169584667Y-121872286D02*
X169584667Y-121396095D01*
X169870381Y-121967524D02*
X168870381Y-121634191D01*
X169870381Y-121300857D01*
X168870381Y-121062762D02*
X168870381Y-120443714D01*
X169251333Y-120777048D01*
X169251333Y-120634190D01*
X169298952Y-120538952D01*
X169346571Y-120491333D01*
X169441810Y-120443714D01*
X169679905Y-120443714D01*
X169775143Y-120491333D01*
X169822762Y-120538952D01*
X169870381Y-120634190D01*
X169870381Y-120919905D01*
X169822762Y-121015143D01*
X169775143Y-121062762D01*
X172124667Y-121872286D02*
X172124667Y-121396095D01*
X172410381Y-121967524D02*
X171410381Y-121634191D01*
X172410381Y-121300857D01*
X171743714Y-120538952D02*
X172410381Y-120538952D01*
X171362762Y-120777048D02*
X172077048Y-121015143D01*
X172077048Y-120396095D01*
X174664667Y-121872286D02*
X174664667Y-121396095D01*
X174950381Y-121967524D02*
X173950381Y-121634191D01*
X174950381Y-121300857D01*
X173950381Y-120491333D02*
X173950381Y-120967524D01*
X174426571Y-121015143D01*
X174378952Y-120967524D01*
X174331333Y-120872286D01*
X174331333Y-120634190D01*
X174378952Y-120538952D01*
X174426571Y-120491333D01*
X174521810Y-120443714D01*
X174759905Y-120443714D01*
X174855143Y-120491333D01*
X174902762Y-120538952D01*
X174950381Y-120634190D01*
X174950381Y-120872286D01*
X174902762Y-120967524D01*
X174855143Y-121015143D01*
X179435095Y-122880381D02*
X179435095Y-121880381D01*
X179863666Y-121975619D02*
X179911285Y-121928000D01*
X180006523Y-121880381D01*
X180244619Y-121880381D01*
X180339857Y-121928000D01*
X180387476Y-121975619D01*
X180435095Y-122070857D01*
X180435095Y-122166095D01*
X180387476Y-122308952D01*
X179816047Y-122880381D01*
X180435095Y-122880381D01*
X181435095Y-122785143D02*
X181387476Y-122832762D01*
X181244619Y-122880381D01*
X181149381Y-122880381D01*
X181006523Y-122832762D01*
X180911285Y-122737524D01*
X180863666Y-122642286D01*
X180816047Y-122451810D01*
X180816047Y-122308952D01*
X180863666Y-122118476D01*
X180911285Y-122023238D01*
X181006523Y-121928000D01*
X181149381Y-121880381D01*
X181244619Y-121880381D01*
X181387476Y-121928000D01*
X181435095Y-121975619D01*
X182577952Y-122594667D02*
X183054143Y-122594667D01*
X182482714Y-122880381D02*
X182816047Y-121880381D01*
X183149381Y-122880381D01*
X183911286Y-122880381D02*
X183911286Y-121880381D01*
X183911286Y-122832762D02*
X183816048Y-122880381D01*
X183625571Y-122880381D01*
X183530333Y-122832762D01*
X183482714Y-122785143D01*
X183435095Y-122689905D01*
X183435095Y-122404190D01*
X183482714Y-122308952D01*
X183530333Y-122261333D01*
X183625571Y-122213714D01*
X183816048Y-122213714D01*
X183911286Y-122261333D01*
X184816048Y-122880381D02*
X184816048Y-121880381D01*
X184816048Y-122832762D02*
X184720810Y-122880381D01*
X184530333Y-122880381D01*
X184435095Y-122832762D01*
X184387476Y-122785143D01*
X184339857Y-122689905D01*
X184339857Y-122404190D01*
X184387476Y-122308952D01*
X184435095Y-122261333D01*
X184530333Y-122213714D01*
X184720810Y-122213714D01*
X184816048Y-122261333D01*
X185292238Y-122880381D02*
X185292238Y-122213714D01*
X185292238Y-122404190D02*
X185339857Y-122308952D01*
X185387476Y-122261333D01*
X185482714Y-122213714D01*
X185577953Y-122213714D01*
X169894524Y-127516381D02*
X169894524Y-126516381D01*
X170323095Y-126611619D02*
X170370714Y-126564000D01*
X170465952Y-126516381D01*
X170704048Y-126516381D01*
X170799286Y-126564000D01*
X170846905Y-126611619D01*
X170894524Y-126706857D01*
X170894524Y-126802095D01*
X170846905Y-126944952D01*
X170275476Y-127516381D01*
X170894524Y-127516381D01*
X171894524Y-127421143D02*
X171846905Y-127468762D01*
X171704048Y-127516381D01*
X171608810Y-127516381D01*
X171465952Y-127468762D01*
X171370714Y-127373524D01*
X171323095Y-127278286D01*
X171275476Y-127087810D01*
X171275476Y-126944952D01*
X171323095Y-126754476D01*
X171370714Y-126659238D01*
X171465952Y-126564000D01*
X171608810Y-126516381D01*
X171704048Y-126516381D01*
X171846905Y-126564000D01*
X171894524Y-126611619D01*
X166323094Y-129166381D02*
X166323094Y-128166381D01*
X166704047Y-128166381D01*
X166799285Y-128214000D01*
X166846904Y-128261619D01*
X166894523Y-128356857D01*
X166894523Y-128499714D01*
X166846904Y-128594952D01*
X166799285Y-128642571D01*
X166704047Y-128690190D01*
X166323094Y-128690190D01*
X167751666Y-128499714D02*
X167751666Y-129166381D01*
X167323094Y-128499714D02*
X167323094Y-129023524D01*
X167370713Y-129118762D01*
X167465951Y-129166381D01*
X167608809Y-129166381D01*
X167704047Y-129118762D01*
X167751666Y-129071143D01*
X168370713Y-129166381D02*
X168275475Y-129118762D01*
X168227856Y-129023524D01*
X168227856Y-128166381D01*
X168894523Y-129166381D02*
X168799285Y-129118762D01*
X168751666Y-129023524D01*
X168751666Y-128166381D01*
X169275476Y-128785429D02*
X170037381Y-128785429D01*
X170942143Y-128499714D02*
X170942143Y-129166381D01*
X170513571Y-128499714D02*
X170513571Y-129023524D01*
X170561190Y-129118762D01*
X170656428Y-129166381D01*
X170799286Y-129166381D01*
X170894524Y-129118762D01*
X170942143Y-129071143D01*
X171418333Y-128499714D02*
X171418333Y-129499714D01*
X171418333Y-128547333D02*
X171513571Y-128499714D01*
X171704048Y-128499714D01*
X171799286Y-128547333D01*
X171846905Y-128594952D01*
X171894524Y-128690190D01*
X171894524Y-128975905D01*
X171846905Y-129071143D01*
X171799286Y-129118762D01*
X171704048Y-129166381D01*
X171513571Y-129166381D01*
X171418333Y-129118762D01*
X138541095Y-129484429D02*
X139303000Y-129484429D01*
X141398571Y-128591571D02*
X141493810Y-128591571D01*
X141589048Y-128663000D01*
X141636667Y-128734429D01*
X141684286Y-128877286D01*
X141731905Y-129163000D01*
X141731905Y-129520143D01*
X141684286Y-129805857D01*
X141636667Y-129948714D01*
X141589048Y-130020143D01*
X141493810Y-130091571D01*
X141398571Y-130091571D01*
X141303333Y-130020143D01*
X141255714Y-129948714D01*
X141208095Y-129805857D01*
X141160476Y-129520143D01*
X141160476Y-129163000D01*
X141208095Y-128877286D01*
X141255714Y-128734429D01*
X141303333Y-128663000D01*
X141398571Y-128591571D01*
X143621095Y-129484429D02*
X144383000Y-129484429D01*
X144002048Y-129865381D02*
X144002048Y-129103476D01*
X145780095Y-131326381D02*
X145780095Y-130326381D01*
X146161048Y-130326381D01*
X146256286Y-130374000D01*
X146303905Y-130421619D01*
X146351524Y-130516857D01*
X146351524Y-130659714D01*
X146303905Y-130754952D01*
X146256286Y-130802571D01*
X146161048Y-130850190D01*
X145780095Y-130850190D01*
X146684857Y-130326381D02*
X146922952Y-131326381D01*
X147113429Y-130612095D01*
X147303905Y-131326381D01*
X147542000Y-130326381D01*
X148494381Y-131326381D02*
X148161047Y-130850190D01*
X147922952Y-131326381D02*
X147922952Y-130326381D01*
X148303905Y-130326381D01*
X148399143Y-130374000D01*
X148446762Y-130421619D01*
X148494381Y-130516857D01*
X148494381Y-130659714D01*
X148446762Y-130754952D01*
X148399143Y-130802571D01*
X148303905Y-130850190D01*
X147922952Y-130850190D01*
X145780095Y-132595429D02*
X146542000Y-132595429D01*
X146161048Y-132976381D02*
X146161048Y-132214476D01*
X147732476Y-131928762D02*
X146875333Y-133214476D01*
X148065809Y-132595429D02*
X148827714Y-132595429D01*
X149827714Y-132976381D02*
X149256285Y-132976381D01*
X149541999Y-132976381D02*
X149541999Y-131976381D01*
X149446761Y-132119238D01*
X149351523Y-132214476D01*
X149256285Y-132262095D01*
X150732476Y-131976381D02*
X150256285Y-131976381D01*
X150208666Y-132452571D01*
X150256285Y-132404952D01*
X150351523Y-132357333D01*
X150589619Y-132357333D01*
X150684857Y-132404952D01*
X150732476Y-132452571D01*
X150780095Y-132547810D01*
X150780095Y-132785905D01*
X150732476Y-132881143D01*
X150684857Y-132928762D01*
X150589619Y-132976381D01*
X150351523Y-132976381D01*
X150256285Y-132928762D01*
X150208666Y-132881143D01*
X151065809Y-131976381D02*
X151399142Y-132976381D01*
X151732476Y-131976381D01*
X167076429Y-78843095D02*
X167028810Y-78795476D01*
X166981190Y-78700238D01*
X167076429Y-78509762D01*
X167028810Y-78414523D01*
X166981190Y-78366904D01*
X166457381Y-78081190D02*
X166457381Y-77462142D01*
X166838333Y-77795476D01*
X166838333Y-77652618D01*
X166885952Y-77557380D01*
X166933571Y-77509761D01*
X167028810Y-77462142D01*
X167266905Y-77462142D01*
X167362143Y-77509761D01*
X167409762Y-77557380D01*
X167457381Y-77652618D01*
X167457381Y-77938333D01*
X167409762Y-78033571D01*
X167362143Y-78081190D01*
X171410381Y-82359190D02*
X171410381Y-81787761D01*
X172410381Y-82073476D02*
X171410381Y-82073476D01*
X171410381Y-81549666D02*
X172410381Y-80882999D01*
X171410381Y-80882999D02*
X172410381Y-81549666D01*
X172029429Y-80502047D02*
X172029429Y-79740142D01*
X171743714Y-79263952D02*
X172029429Y-78502047D01*
X172315143Y-79263952D01*
X172410381Y-77502047D02*
X172410381Y-78073476D01*
X172410381Y-77787762D02*
X171410381Y-77787762D01*
X171553238Y-77883000D01*
X171648476Y-77978238D01*
X171696095Y-78073476D01*
X175077381Y-81890952D02*
X174601190Y-82224286D01*
X175077381Y-82462381D02*
X174077381Y-82462381D01*
X174077381Y-82081428D01*
X174125000Y-81986190D01*
X174172619Y-81938571D01*
X174267857Y-81890952D01*
X174410714Y-81890952D01*
X174505952Y-81938571D01*
X174553571Y-81986190D01*
X174601190Y-82081428D01*
X174601190Y-82462381D01*
X174077381Y-81557619D02*
X175077381Y-80890952D01*
X174077381Y-80890952D02*
X175077381Y-81557619D01*
X174410714Y-79748095D02*
X174696429Y-80510000D01*
X174982143Y-79748095D01*
X174696429Y-79271905D02*
X174696429Y-78510000D01*
X174077381Y-77843334D02*
X174077381Y-77748095D01*
X174125000Y-77652857D01*
X174172619Y-77605238D01*
X174267857Y-77557619D01*
X174458333Y-77510000D01*
X174696429Y-77510000D01*
X174886905Y-77557619D01*
X174982143Y-77605238D01*
X175029762Y-77652857D01*
X175077381Y-77748095D01*
X175077381Y-77843334D01*
X175029762Y-77938572D01*
X174982143Y-77986191D01*
X174886905Y-78033810D01*
X174696429Y-78081429D01*
X174458333Y-78081429D01*
X174267857Y-78033810D01*
X174172619Y-77986191D01*
X174125000Y-77938572D01*
X174077381Y-77843334D01*
X121866660Y-45974000D02*
X185366660Y-45974000D01*
X121366280Y-60472320D02*
X121366280Y-46471840D01*
X185366660Y-60972700D02*
X121866660Y-60972700D01*
X185867040Y-46471840D02*
X185867040Y-60472320D01*
X185864500Y-46471840D02*
G75*
G03X185366660Y-45974000I-497840J0D01*
G01*
X185366660Y-60972700D02*
G75*
G03X185867040Y-60472320I0J500380D01*
G01*
X121366280Y-60472320D02*
G75*
G03X121866660Y-60972700I500380J0D01*
G01*
X121866660Y-45971460D02*
G75*
G03X121366280Y-46471840I0J-500380D01*
G01*
X117066060Y-40873680D02*
X190266320Y-40873680D01*
X190266320Y-40873680D02*
X190266320Y-66273680D01*
X190266320Y-66273680D02*
X117066060Y-66273680D01*
X117066060Y-66273680D02*
X117066060Y-40873680D01*
X193664840Y-37973000D02*
G75*
G03X193664840Y-37973000I-2499360J0D01*
G01*
X193664840Y-68973700D02*
G75*
G03X193664840Y-68973700I-2499360J0D01*
G01*
X118668800Y-68973700D02*
G75*
G03X118668800Y-68973700I-2501900J0D01*
G01*
X118666260Y-37973000D02*
G75*
G03X118666260Y-37973000I-2499360J0D01*
G01*
X113665000Y-35473640D02*
X193664840Y-35473640D01*
X193664840Y-35473640D02*
X193664840Y-71473060D01*
X193664840Y-71473060D02*
X113665000Y-71473060D01*
X113665000Y-71473060D02*
X113665000Y-35473640D01*
D13*
X129683000Y-109213000D02*
G75*
G02X131683000Y-109213000I1000000J0D01*
G01*
X131683000Y-109213000D02*
X133053000Y-109213000D01*
X133053000Y-109213000D02*
X133053000Y-86113000D01*
X133053000Y-86113000D02*
X128313000Y-86113000D01*
X128313000Y-86113000D02*
X128313000Y-109213000D01*
X128313000Y-109213000D02*
X129683000Y-109213000D01*
X126774000Y-110264000D02*
X127948000Y-110264000D01*
X126774000Y-111986000D02*
X127948000Y-111986000D01*
X117955000Y-108811000D02*
X116781000Y-108811000D01*
X117955000Y-107089000D02*
X116781000Y-107089000D01*
X163477000Y-83721000D02*
X164651000Y-83721000D01*
X163477000Y-85443000D02*
X164651000Y-85443000D01*
X148872000Y-86459000D02*
X148872000Y-85285000D01*
X150594000Y-86459000D02*
X150594000Y-85285000D01*
X196187000Y-37874000D02*
X196187000Y-39048000D01*
X194465000Y-37874000D02*
X194465000Y-39048000D01*
X131163000Y-126337000D02*
X129989000Y-126337000D01*
X131163000Y-124615000D02*
X129989000Y-124615000D01*
D12*
X182254026Y-74993500D02*
G75*
G03X182254026Y-74993500I-898026J0D01*
G01*
X179895500Y-76454000D02*
X179895500Y-73469500D01*
X179895500Y-73469500D02*
X182880000Y-73469500D01*
X182880000Y-73469500D02*
X182880000Y-76454000D01*
X182880000Y-76454000D02*
X179895500Y-76454000D01*
X186572026Y-74993500D02*
G75*
G03X186572026Y-74993500I-898026J0D01*
G01*
X184213500Y-76454000D02*
X184213500Y-73469500D01*
X184213500Y-73469500D02*
X187198000Y-73469500D01*
X187198000Y-73469500D02*
X187198000Y-76454000D01*
X187198000Y-76454000D02*
X184213500Y-76454000D01*
X190890026Y-74993500D02*
G75*
G03X190890026Y-74993500I-898026J0D01*
G01*
X188531500Y-76454000D02*
X188531500Y-73469500D01*
X188531500Y-73469500D02*
X191516000Y-73469500D01*
X191516000Y-73469500D02*
X191516000Y-76454000D01*
X191516000Y-76454000D02*
X188531500Y-76454000D01*
X113674026Y-105981500D02*
G75*
G03X113674026Y-105981500I-898026J0D01*
G01*
X114236500Y-104521000D02*
X114236500Y-107505500D01*
X114236500Y-107505500D02*
X111252000Y-107505500D01*
X111252000Y-107505500D02*
X111252000Y-104521000D01*
X111252000Y-104521000D02*
X114236500Y-104521000D01*
D14*
X124460000Y-123766580D02*
X111160560Y-123766580D01*
X111160560Y-123766580D02*
X111160560Y-110167420D01*
X111160560Y-110167420D02*
X124460000Y-110167420D01*
X124460000Y-110167420D02*
X124460000Y-123766580D01*
D13*
X189477000Y-129286000D02*
X189477000Y-126626000D01*
X189477000Y-126626000D02*
X186697000Y-126626000D01*
X186697000Y-126626000D02*
X186697000Y-129286000D01*
X186697000Y-129286000D02*
X189477000Y-129286000D01*
X189477000Y-130556000D02*
X189477000Y-131946000D01*
X189477000Y-131946000D02*
X188087000Y-131946000D01*
X182365000Y-129286000D02*
X182365000Y-126626000D01*
X182365000Y-126626000D02*
X179585000Y-126626000D01*
X179585000Y-126626000D02*
X179585000Y-129286000D01*
X179585000Y-129286000D02*
X182365000Y-129286000D01*
X182365000Y-130556000D02*
X182365000Y-131946000D01*
X182365000Y-131946000D02*
X180975000Y-131946000D01*
X192779000Y-129286000D02*
X192779000Y-126626000D01*
X192779000Y-126626000D02*
X189999000Y-126626000D01*
X189999000Y-126626000D02*
X189999000Y-129286000D01*
X189999000Y-129286000D02*
X192779000Y-129286000D01*
X192779000Y-130556000D02*
X192779000Y-131946000D01*
X192779000Y-131946000D02*
X191389000Y-131946000D01*
X185667000Y-129286000D02*
X185667000Y-126626000D01*
X185667000Y-126626000D02*
X182887000Y-126626000D01*
X182887000Y-126626000D02*
X182887000Y-129286000D01*
X182887000Y-129286000D02*
X185667000Y-129286000D01*
X185667000Y-130556000D02*
X185667000Y-131946000D01*
X185667000Y-131946000D02*
X184277000Y-131946000D01*
X175126000Y-129286000D02*
X175126000Y-126626000D01*
X175126000Y-126626000D02*
X172346000Y-126626000D01*
X172346000Y-126626000D02*
X172346000Y-129286000D01*
X172346000Y-129286000D02*
X175126000Y-129286000D01*
X175126000Y-130556000D02*
X175126000Y-131946000D01*
X175126000Y-131946000D02*
X173736000Y-131946000D01*
X178428000Y-129286000D02*
X178428000Y-126626000D01*
X178428000Y-126626000D02*
X175648000Y-126626000D01*
X175648000Y-126626000D02*
X175648000Y-129286000D01*
X175648000Y-129286000D02*
X178428000Y-129286000D01*
X178428000Y-130556000D02*
X178428000Y-131946000D01*
X178428000Y-131946000D02*
X177038000Y-131946000D01*
X142748000Y-130563000D02*
X137548000Y-130563000D01*
X137548000Y-130563000D02*
X137548000Y-133343000D01*
X137548000Y-133343000D02*
X142748000Y-133343000D01*
X142748000Y-133343000D02*
X142748000Y-130563000D01*
X144018000Y-130563000D02*
X145408000Y-130563000D01*
X145408000Y-130563000D02*
X145408000Y-131953000D01*
D12*
X163068000Y-125095000D02*
X175768000Y-125095000D01*
X175768000Y-125095000D02*
X175768000Y-122555000D01*
X175768000Y-122555000D02*
X163068000Y-122555000D01*
X160248000Y-125375000D02*
X161798000Y-125375000D01*
X163068000Y-125095000D02*
X163068000Y-122555000D01*
X161798000Y-122275000D02*
X160248000Y-122275000D01*
X160248000Y-122275000D02*
X160248000Y-125375000D01*
X131064000Y-76835000D02*
X153924000Y-76835000D01*
X153924000Y-76835000D02*
X153924000Y-74295000D01*
X153924000Y-74295000D02*
X131064000Y-74295000D01*
X128244000Y-77115000D02*
X129794000Y-77115000D01*
X131064000Y-76835000D02*
X131064000Y-74295000D01*
X129794000Y-74015000D02*
X128244000Y-74015000D01*
X128244000Y-74015000D02*
X128244000Y-77115000D01*
X157988000Y-76835000D02*
X175768000Y-76835000D01*
X175768000Y-76835000D02*
X175768000Y-74295000D01*
X175768000Y-74295000D02*
X157988000Y-74295000D01*
X155168000Y-77115000D02*
X156718000Y-77115000D01*
X157988000Y-76835000D02*
X157988000Y-74295000D01*
X156718000Y-74015000D02*
X155168000Y-74015000D01*
X155168000Y-74015000D02*
X155168000Y-77115000D01*
D13*
X114806000Y-88321000D02*
X114806000Y-87391000D01*
X114806000Y-85161000D02*
X114806000Y-86091000D01*
X114806000Y-85161000D02*
X112646000Y-85161000D01*
X114806000Y-88321000D02*
X113346000Y-88321000D01*
D12*
X121851813Y-77216000D02*
G75*
G03X121851813Y-77216000I-3868813J0D01*
G01*
X111379000Y-73660000D02*
X112395000Y-72644000D01*
X112395000Y-72644000D02*
X122047000Y-72644000D01*
X122047000Y-72644000D02*
X125095000Y-76200000D01*
X121031000Y-81788000D02*
X122047000Y-81788000D01*
X122047000Y-81788000D02*
X125095000Y-78232000D01*
X125095000Y-78232000D02*
X125095000Y-76200000D01*
X111379000Y-73660000D02*
X111379000Y-80772000D01*
X111379000Y-80772000D02*
X112395000Y-81788000D01*
X112395000Y-81788000D02*
X121031000Y-81788000D01*
X190369261Y-83185000D02*
G75*
G03X190369261Y-83185000I-2155261J0D01*
G01*
X184658000Y-80137000D02*
X191770000Y-80137000D01*
X191770000Y-80137000D02*
X191770000Y-86233000D01*
X191770000Y-86233000D02*
X184658000Y-86233000D01*
X184658000Y-86233000D02*
X184658000Y-80137000D01*
X186051261Y-94107000D02*
G75*
G03X186051261Y-94107000I-2155261J0D01*
G01*
X180848000Y-97663000D02*
X180848000Y-90551000D01*
X180848000Y-90551000D02*
X186944000Y-90551000D01*
X186944000Y-90551000D02*
X186944000Y-97663000D01*
X186944000Y-97663000D02*
X180848000Y-97663000D01*
X194687261Y-94107000D02*
G75*
G03X194687261Y-94107000I-2155261J0D01*
G01*
X189484000Y-97663000D02*
X189484000Y-90551000D01*
X189484000Y-90551000D02*
X195580000Y-90551000D01*
X195580000Y-90551000D02*
X195580000Y-97663000D01*
X195580000Y-97663000D02*
X189484000Y-97663000D01*
X190369261Y-105029000D02*
G75*
G03X190369261Y-105029000I-2155261J0D01*
G01*
X184658000Y-101981000D02*
X191770000Y-101981000D01*
X191770000Y-101981000D02*
X191770000Y-108077000D01*
X191770000Y-108077000D02*
X184658000Y-108077000D01*
X184658000Y-108077000D02*
X184658000Y-101981000D01*
X190369261Y-115189000D02*
G75*
G03X190369261Y-115189000I-2155261J0D01*
G01*
X184658000Y-112141000D02*
X191770000Y-112141000D01*
X191770000Y-112141000D02*
X191770000Y-118237000D01*
X191770000Y-118237000D02*
X184658000Y-118237000D01*
X184658000Y-118237000D02*
X184658000Y-112141000D01*
X134366000Y-127508000D02*
X114808000Y-127508000D01*
X114808000Y-127508000D02*
X114808000Y-133604000D01*
X114808000Y-133604000D02*
X134366000Y-133604000D01*
X134366000Y-130048000D02*
X134366000Y-127508000D01*
X134366000Y-131826000D02*
X134366000Y-133604000D01*
X134366000Y-131826000D02*
X134366000Y-130048000D01*
D13*
X159877000Y-86113000D02*
G75*
G02X157877000Y-86113000I-1000000J0D01*
G01*
X157877000Y-86113000D02*
X156507000Y-86113000D01*
X156507000Y-86113000D02*
X156507000Y-109213000D01*
X156507000Y-109213000D02*
X161247000Y-109213000D01*
X161247000Y-109213000D02*
X161247000Y-86113000D01*
X161247000Y-86113000D02*
X159877000Y-86113000D01*
D12*
X146812000Y-86487000D02*
X146812000Y-86614000D01*
X136779000Y-86614000D02*
X136779000Y-87503000D01*
X147701000Y-86614000D02*
X147701000Y-87503000D01*
X147701000Y-84836000D02*
X146812000Y-84836000D01*
X146812000Y-84836000D02*
X146812000Y-86487000D01*
X146812000Y-86614000D02*
X147701000Y-86614000D01*
X136779000Y-83947000D02*
X136779000Y-86614000D01*
X136779000Y-87503000D02*
X147701000Y-87503000D01*
X147701000Y-86614000D02*
X147701000Y-83947000D01*
X136906000Y-83947000D02*
X136779000Y-83947000D01*
X147701000Y-83947000D02*
X136906000Y-83947000D01*
D13*
X142920000Y-96295000D02*
X142920000Y-98015000D01*
X142920000Y-98015000D02*
X146640000Y-98015000D01*
X146640000Y-98015000D02*
X146640000Y-96295000D01*
X146640000Y-96295000D02*
X142920000Y-96295000D01*
X141850000Y-97155000D02*
X142920000Y-97155000D01*
X147710000Y-97155000D02*
X146640000Y-97155000D01*
X142920000Y-100867000D02*
X142920000Y-102587000D01*
X142920000Y-102587000D02*
X146640000Y-102587000D01*
X146640000Y-102587000D02*
X146640000Y-100867000D01*
X146640000Y-100867000D02*
X142920000Y-100867000D01*
X141850000Y-101727000D02*
X142920000Y-101727000D01*
X147710000Y-101727000D02*
X146640000Y-101727000D01*
X142920000Y-94009000D02*
X142920000Y-95729000D01*
X142920000Y-95729000D02*
X146640000Y-95729000D01*
X146640000Y-95729000D02*
X146640000Y-94009000D01*
X146640000Y-94009000D02*
X142920000Y-94009000D01*
X141850000Y-94869000D02*
X142920000Y-94869000D01*
X147710000Y-94869000D02*
X146640000Y-94869000D01*
X142920000Y-98581000D02*
X142920000Y-100301000D01*
X142920000Y-100301000D02*
X146640000Y-100301000D01*
X146640000Y-100301000D02*
X146640000Y-98581000D01*
X146640000Y-98581000D02*
X142920000Y-98581000D01*
X141850000Y-99441000D02*
X142920000Y-99441000D01*
X147710000Y-99441000D02*
X146640000Y-99441000D01*
X119605000Y-98470000D02*
X117885000Y-98470000D01*
X117885000Y-98470000D02*
X117885000Y-102190000D01*
X117885000Y-102190000D02*
X119605000Y-102190000D01*
X119605000Y-102190000D02*
X119605000Y-98470000D01*
X118745000Y-97400000D02*
X118745000Y-98470000D01*
X118745000Y-103260000D02*
X118745000Y-102190000D01*
X174580000Y-92935000D02*
X174580000Y-91215000D01*
X174580000Y-91215000D02*
X170860000Y-91215000D01*
X170860000Y-91215000D02*
X170860000Y-92935000D01*
X170860000Y-92935000D02*
X174580000Y-92935000D01*
X175650000Y-92075000D02*
X174580000Y-92075000D01*
X169790000Y-92075000D02*
X170860000Y-92075000D01*
X174580000Y-95348000D02*
X174580000Y-93628000D01*
X174580000Y-93628000D02*
X170860000Y-93628000D01*
X170860000Y-93628000D02*
X170860000Y-95348000D01*
X170860000Y-95348000D02*
X174580000Y-95348000D01*
X175650000Y-94488000D02*
X174580000Y-94488000D01*
X169790000Y-94488000D02*
X170860000Y-94488000D01*
X174580000Y-97761000D02*
X174580000Y-96041000D01*
X174580000Y-96041000D02*
X170860000Y-96041000D01*
X170860000Y-96041000D02*
X170860000Y-97761000D01*
X170860000Y-97761000D02*
X174580000Y-97761000D01*
X175650000Y-96901000D02*
X174580000Y-96901000D01*
X169790000Y-96901000D02*
X170860000Y-96901000D01*
X170860000Y-100867000D02*
X170860000Y-102587000D01*
X170860000Y-102587000D02*
X174580000Y-102587000D01*
X174580000Y-102587000D02*
X174580000Y-100867000D01*
X174580000Y-100867000D02*
X170860000Y-100867000D01*
X169790000Y-101727000D02*
X170860000Y-101727000D01*
X175650000Y-101727000D02*
X174580000Y-101727000D01*
X170860000Y-98454000D02*
X170860000Y-100174000D01*
X170860000Y-100174000D02*
X174580000Y-100174000D01*
X174580000Y-100174000D02*
X174580000Y-98454000D01*
X174580000Y-98454000D02*
X170860000Y-98454000D01*
X169790000Y-99314000D02*
X170860000Y-99314000D01*
X175650000Y-99314000D02*
X174580000Y-99314000D01*
X120298000Y-102190000D02*
X122018000Y-102190000D01*
X122018000Y-102190000D02*
X122018000Y-98470000D01*
X122018000Y-98470000D02*
X120298000Y-98470000D01*
X120298000Y-98470000D02*
X120298000Y-102190000D01*
X121158000Y-103260000D02*
X121158000Y-102190000D01*
X121158000Y-97400000D02*
X121158000Y-98470000D01*
D12*
X162429261Y-129413000D02*
G75*
G03X162429261Y-129413000I-2155261J0D01*
G01*
X156718000Y-126365000D02*
X163830000Y-126365000D01*
X163830000Y-126365000D02*
X163830000Y-132461000D01*
X163830000Y-132461000D02*
X156718000Y-132461000D01*
X156718000Y-132461000D02*
X156718000Y-126365000D01*
X140208000Y-125095000D02*
X157988000Y-125095000D01*
X157988000Y-125095000D02*
X157988000Y-122555000D01*
X157988000Y-122555000D02*
X140208000Y-122555000D01*
X137388000Y-125375000D02*
X138938000Y-125375000D01*
X140208000Y-125095000D02*
X140208000Y-122555000D01*
X138938000Y-122275000D02*
X137388000Y-122275000D01*
X137388000Y-122275000D02*
X137388000Y-125375000D01*
D15*
G36*
X144748223Y-103223562D02*
X144841940Y-103225014D01*
X144932556Y-103227503D01*
X145021017Y-103231081D01*
X145108269Y-103235799D01*
X145195260Y-103241709D01*
X145282934Y-103248862D01*
X145372239Y-103257310D01*
X145464120Y-103267104D01*
X145469610Y-103267722D01*
X145657895Y-103291490D01*
X145844943Y-103320165D01*
X146030680Y-103353706D01*
X146215029Y-103392076D01*
X146397915Y-103435233D01*
X146579263Y-103483140D01*
X146758995Y-103535757D01*
X146937038Y-103593044D01*
X147113315Y-103654962D01*
X147287751Y-103721472D01*
X147460269Y-103792535D01*
X147630796Y-103868110D01*
X147799254Y-103948160D01*
X147965568Y-104032645D01*
X148129663Y-104121524D01*
X148291462Y-104214760D01*
X148450892Y-104312313D01*
X148607874Y-104414143D01*
X148762335Y-104520211D01*
X148914199Y-104630478D01*
X149063389Y-104744904D01*
X149209831Y-104863450D01*
X149353448Y-104986078D01*
X149494166Y-105112747D01*
X149631907Y-105243418D01*
X149766598Y-105378052D01*
X149898162Y-105516610D01*
X149989332Y-105617010D01*
X150114710Y-105761434D01*
X150235904Y-105908697D01*
X150352881Y-106058751D01*
X150465611Y-106211545D01*
X150574061Y-106367031D01*
X150678201Y-106525160D01*
X150778000Y-106685882D01*
X150873426Y-106849148D01*
X150964448Y-107014910D01*
X151051035Y-107183118D01*
X151133155Y-107353724D01*
X151210777Y-107526677D01*
X151221346Y-107551220D01*
X151292949Y-107724806D01*
X151359900Y-107900370D01*
X151422167Y-108077777D01*
X151479720Y-108256895D01*
X151532527Y-108437591D01*
X151580557Y-108619733D01*
X151623779Y-108803188D01*
X151662162Y-108987823D01*
X151695675Y-109173505D01*
X151724286Y-109360102D01*
X151747965Y-109547482D01*
X151766681Y-109735510D01*
X151780403Y-109924055D01*
X151781482Y-109942630D01*
X151783295Y-109975117D01*
X151784868Y-110004680D01*
X151786222Y-110032044D01*
X151787379Y-110057938D01*
X151788360Y-110083089D01*
X151789187Y-110108226D01*
X151789881Y-110134076D01*
X151790466Y-110161367D01*
X151790961Y-110190827D01*
X151791390Y-110223183D01*
X151791773Y-110259164D01*
X151792133Y-110299497D01*
X151792133Y-110299500D01*
X151792237Y-110432802D01*
X151790257Y-110562368D01*
X151786133Y-110689121D01*
X151779803Y-110813983D01*
X151771208Y-110937877D01*
X151760286Y-111061728D01*
X151746977Y-111186457D01*
X151731221Y-111312988D01*
X151720528Y-111390430D01*
X151691162Y-111578011D01*
X151656904Y-111764281D01*
X151617790Y-111949163D01*
X151573855Y-112132581D01*
X151525135Y-112314460D01*
X151471665Y-112494725D01*
X151413481Y-112673299D01*
X151350619Y-112850107D01*
X151283113Y-113025073D01*
X151210999Y-113198122D01*
X151134313Y-113369178D01*
X151053091Y-113538166D01*
X150967367Y-113705009D01*
X150877177Y-113869632D01*
X150782558Y-114031960D01*
X150683543Y-114191916D01*
X150580169Y-114349426D01*
X150472472Y-114504413D01*
X150360486Y-114656802D01*
X150244247Y-114806518D01*
X150123792Y-114953484D01*
X149999154Y-115097625D01*
X149960561Y-115140740D01*
X149914288Y-115191336D01*
X149864685Y-115244307D01*
X149812462Y-115298942D01*
X149758327Y-115354533D01*
X149702989Y-115410372D01*
X149647156Y-115465750D01*
X149591537Y-115519957D01*
X149536841Y-115572286D01*
X149483777Y-115622027D01*
X149433053Y-115668472D01*
X149430740Y-115670561D01*
X149287753Y-115796205D01*
X149141846Y-115917748D01*
X148993099Y-116035146D01*
X148841594Y-116148359D01*
X148687411Y-116257343D01*
X148530632Y-116362057D01*
X148371337Y-116462458D01*
X148209608Y-116558505D01*
X148045526Y-116650154D01*
X147879172Y-116737364D01*
X147710626Y-116820092D01*
X147539970Y-116898296D01*
X147367285Y-116971935D01*
X147192653Y-117040966D01*
X147016153Y-117105346D01*
X146837867Y-117165034D01*
X146657877Y-117219987D01*
X146476263Y-117270163D01*
X146293106Y-117315520D01*
X146253200Y-117324715D01*
X146078391Y-117362217D01*
X145903623Y-117395206D01*
X145728455Y-117423738D01*
X145552447Y-117447867D01*
X145375158Y-117467651D01*
X145196147Y-117483146D01*
X145014975Y-117494406D01*
X144868900Y-117500380D01*
X144853403Y-117500777D01*
X144833626Y-117501135D01*
X144810199Y-117501450D01*
X144783752Y-117501723D01*
X144754917Y-117501952D01*
X144724326Y-117502136D01*
X144692608Y-117502273D01*
X144660395Y-117502361D01*
X144628319Y-117502400D01*
X144597010Y-117502389D01*
X144567099Y-117502325D01*
X144539217Y-117502208D01*
X144513996Y-117502037D01*
X144492066Y-117501809D01*
X144474059Y-117501524D01*
X144462500Y-117501241D01*
X144367596Y-117497881D01*
X144276729Y-117493746D01*
X144188904Y-117488768D01*
X144103125Y-117482880D01*
X144018399Y-117476014D01*
X143933732Y-117468105D01*
X143864330Y-117460867D01*
X143675858Y-117437797D01*
X143488392Y-117409787D01*
X143302024Y-117376865D01*
X143116847Y-117339059D01*
X142932952Y-117296400D01*
X142750433Y-117248914D01*
X142569382Y-117196631D01*
X142389890Y-117139580D01*
X142212051Y-117077788D01*
X142035957Y-117011286D01*
X141861699Y-116940100D01*
X141689372Y-116864261D01*
X141519066Y-116783796D01*
X141350875Y-116698735D01*
X141274800Y-116658371D01*
X141108947Y-116566183D01*
X140945715Y-116469657D01*
X140785167Y-116368847D01*
X140627368Y-116263804D01*
X140472383Y-116154582D01*
X140320276Y-116041234D01*
X140171111Y-115923812D01*
X140024954Y-115802369D01*
X139881868Y-115676958D01*
X139741919Y-115547631D01*
X139605171Y-115414442D01*
X139471688Y-115277444D01*
X139341535Y-115136688D01*
X139214777Y-114992228D01*
X139163173Y-114931190D01*
X139043262Y-114783865D01*
X138927615Y-114633812D01*
X138816264Y-114481110D01*
X138709240Y-114325837D01*
X138606573Y-114168072D01*
X138508295Y-114007895D01*
X138414436Y-113845385D01*
X138325028Y-113680620D01*
X138240102Y-113513681D01*
X138159689Y-113344645D01*
X138083819Y-113173592D01*
X138012524Y-113000602D01*
X137945835Y-112825752D01*
X137883783Y-112649123D01*
X137826399Y-112470793D01*
X137773713Y-112290842D01*
X137725758Y-112109348D01*
X137682563Y-111926390D01*
X137644160Y-111742049D01*
X137610581Y-111556402D01*
X137581855Y-111369529D01*
X137558014Y-111181508D01*
X137539089Y-110992420D01*
X137525112Y-110802343D01*
X137522028Y-110747810D01*
X137518555Y-110672182D01*
X137515883Y-110592808D01*
X137514015Y-110510747D01*
X137513274Y-110452335D01*
X138147294Y-110452335D01*
X138152346Y-110634843D01*
X138159620Y-110774480D01*
X138173477Y-110955168D01*
X138192344Y-111135102D01*
X138216196Y-111314189D01*
X138245005Y-111492339D01*
X138278747Y-111669460D01*
X138317394Y-111845460D01*
X138360921Y-112020250D01*
X138409301Y-112193736D01*
X138462509Y-112365827D01*
X138520518Y-112536434D01*
X138583302Y-112705463D01*
X138650835Y-112872823D01*
X138723091Y-113038424D01*
X138800043Y-113202174D01*
X138881666Y-113363982D01*
X138922928Y-113441733D01*
X139011114Y-113599885D01*
X139103676Y-113755497D01*
X139200532Y-113908469D01*
X139301602Y-114058702D01*
X139406806Y-114206097D01*
X139516063Y-114350553D01*
X139629293Y-114491973D01*
X139746416Y-114630256D01*
X139867352Y-114765303D01*
X139992019Y-114897014D01*
X140120338Y-115025291D01*
X140252229Y-115150033D01*
X140387610Y-115271142D01*
X140434060Y-115311165D01*
X140574102Y-115427389D01*
X140716982Y-115539448D01*
X140862611Y-115647300D01*
X141010902Y-115750902D01*
X141161768Y-115850210D01*
X141315120Y-115945181D01*
X141470872Y-116035771D01*
X141628935Y-116121937D01*
X141789222Y-116203637D01*
X141951646Y-116280826D01*
X142116118Y-116353461D01*
X142282552Y-116421500D01*
X142450859Y-116484898D01*
X142620952Y-116543613D01*
X142792744Y-116597601D01*
X142966147Y-116646819D01*
X143141072Y-116691224D01*
X143297910Y-116726649D01*
X143468637Y-116760569D01*
X143640431Y-116789877D01*
X143813548Y-116814605D01*
X143988244Y-116834784D01*
X144164777Y-116850445D01*
X144343403Y-116861621D01*
X144426940Y-116865286D01*
X144441204Y-116865703D01*
X144459850Y-116866047D01*
X144482349Y-116866321D01*
X144508177Y-116866528D01*
X144536804Y-116866670D01*
X144567706Y-116866749D01*
X144600354Y-116866768D01*
X144634223Y-116866728D01*
X144668784Y-116866632D01*
X144703513Y-116866482D01*
X144737880Y-116866281D01*
X144771361Y-116866030D01*
X144803428Y-116865732D01*
X144833553Y-116865389D01*
X144861212Y-116865004D01*
X144885875Y-116864578D01*
X144907018Y-116864115D01*
X144924112Y-116863615D01*
X144936210Y-116863105D01*
X144989491Y-116860185D01*
X145038458Y-116857329D01*
X145083876Y-116854476D01*
X145126508Y-116851567D01*
X145167119Y-116848543D01*
X145206473Y-116845345D01*
X145245336Y-116841912D01*
X145284471Y-116838185D01*
X145324642Y-116834105D01*
X145366614Y-116829612D01*
X145366740Y-116829599D01*
X145545776Y-116807455D01*
X145724071Y-116780305D01*
X145901502Y-116748182D01*
X146077941Y-116711121D01*
X146253265Y-116669159D01*
X146427348Y-116622330D01*
X146600064Y-116570670D01*
X146771289Y-116514213D01*
X146940897Y-116452995D01*
X147108764Y-116387051D01*
X147274763Y-116316416D01*
X147405610Y-116256800D01*
X147568781Y-116177440D01*
X147729498Y-116093653D01*
X147887681Y-116005502D01*
X148043247Y-115913051D01*
X148196114Y-115816365D01*
X148346203Y-115715508D01*
X148493431Y-115610544D01*
X148637716Y-115501537D01*
X148778977Y-115388552D01*
X148917133Y-115271653D01*
X149052102Y-115150903D01*
X149183803Y-115026368D01*
X149312154Y-114898112D01*
X149437074Y-114766198D01*
X149558481Y-114630691D01*
X149676294Y-114491655D01*
X149731940Y-114423190D01*
X149843143Y-114280435D01*
X149950403Y-114134525D01*
X150053622Y-113985617D01*
X150152702Y-113833869D01*
X150247544Y-113679438D01*
X150338049Y-113522484D01*
X150424119Y-113363165D01*
X150505656Y-113201637D01*
X150546800Y-113115610D01*
X150621106Y-112951276D01*
X150690743Y-112784992D01*
X150755679Y-112616880D01*
X150815884Y-112447061D01*
X150871328Y-112275656D01*
X150921980Y-112102786D01*
X150967808Y-111928572D01*
X151008784Y-111753135D01*
X151044874Y-111576597D01*
X151076050Y-111399077D01*
X151102280Y-111220699D01*
X151123534Y-111041582D01*
X151139781Y-110861847D01*
X151147759Y-110742730D01*
X151149365Y-110714412D01*
X151150754Y-110688735D01*
X151151944Y-110665000D01*
X151152958Y-110642508D01*
X151153815Y-110620560D01*
X151154536Y-110598459D01*
X151155141Y-110575505D01*
X151155651Y-110551001D01*
X151156086Y-110524247D01*
X151156466Y-110494546D01*
X151156813Y-110461199D01*
X151157145Y-110423507D01*
X151157163Y-110421379D01*
X151157471Y-110330630D01*
X151156830Y-110243943D01*
X151155198Y-110160381D01*
X151152534Y-110079008D01*
X151148795Y-109998888D01*
X151143941Y-109919085D01*
X151137928Y-109838662D01*
X151130716Y-109756683D01*
X151124840Y-109696973D01*
X151103851Y-109516898D01*
X151077923Y-109337932D01*
X151047091Y-109160155D01*
X151011392Y-108983648D01*
X150970861Y-108808493D01*
X150925533Y-108634770D01*
X150875445Y-108462560D01*
X150820633Y-108291944D01*
X150761132Y-108123004D01*
X150696978Y-107955820D01*
X150628206Y-107790474D01*
X150554853Y-107627045D01*
X150476954Y-107465616D01*
X150394546Y-107306267D01*
X150307663Y-107149080D01*
X150216342Y-106994135D01*
X150120619Y-106841513D01*
X150020528Y-106691295D01*
X149916107Y-106543563D01*
X149807390Y-106398397D01*
X149694414Y-106255878D01*
X149577214Y-106116088D01*
X149508286Y-106037380D01*
X149453923Y-105977258D01*
X149396134Y-105915185D01*
X149335748Y-105851993D01*
X149273588Y-105788512D01*
X149210482Y-105725571D01*
X149147257Y-105664001D01*
X149084737Y-105604634D01*
X149023749Y-105548299D01*
X149003270Y-105529768D01*
X148866264Y-105409860D01*
X148726352Y-105294052D01*
X148583626Y-105182386D01*
X148438174Y-105074906D01*
X148290086Y-104971658D01*
X148139451Y-104872685D01*
X147986360Y-104778030D01*
X147830900Y-104687738D01*
X147673163Y-104601853D01*
X147513237Y-104520419D01*
X147351213Y-104443479D01*
X147187178Y-104371079D01*
X147021224Y-104303261D01*
X146853439Y-104240070D01*
X146683913Y-104181550D01*
X146512736Y-104127745D01*
X146339997Y-104078699D01*
X146165785Y-104034456D01*
X145990191Y-103995059D01*
X145813303Y-103960553D01*
X145809970Y-103959952D01*
X145630484Y-103930221D01*
X145450403Y-103905518D01*
X145269837Y-103885845D01*
X145088897Y-103871203D01*
X144907693Y-103861594D01*
X144726334Y-103857019D01*
X144544932Y-103857479D01*
X144363595Y-103862976D01*
X144182435Y-103873511D01*
X144001560Y-103889085D01*
X143821083Y-103909700D01*
X143654780Y-103933229D01*
X143476848Y-103963302D01*
X143300196Y-103998265D01*
X143124913Y-104038072D01*
X142951086Y-104082673D01*
X142778802Y-104132021D01*
X142608151Y-104186069D01*
X142439220Y-104244769D01*
X142272096Y-104308072D01*
X142106868Y-104375932D01*
X141943625Y-104448301D01*
X141782453Y-104525130D01*
X141623440Y-104606372D01*
X141466676Y-104691980D01*
X141312247Y-104781905D01*
X141160242Y-104876101D01*
X141010749Y-104974518D01*
X140863855Y-105077110D01*
X140719649Y-105183829D01*
X140578218Y-105294626D01*
X140439651Y-105409455D01*
X140304035Y-105528267D01*
X140171459Y-105651015D01*
X140042011Y-105777652D01*
X139915777Y-105908128D01*
X139816672Y-106015790D01*
X139697091Y-106152373D01*
X139581588Y-106291914D01*
X139470208Y-106434317D01*
X139362994Y-106579492D01*
X139259992Y-106727344D01*
X139161244Y-106877782D01*
X139066796Y-107030712D01*
X138976692Y-107186042D01*
X138890974Y-107343678D01*
X138809689Y-107503528D01*
X138732879Y-107665499D01*
X138660590Y-107829499D01*
X138592865Y-107995434D01*
X138529748Y-108163212D01*
X138471283Y-108332740D01*
X138417515Y-108503924D01*
X138368488Y-108676673D01*
X138324247Y-108850894D01*
X138284834Y-109026493D01*
X138250294Y-109203378D01*
X138223229Y-109364780D01*
X138197935Y-109544931D01*
X138177693Y-109725583D01*
X138162507Y-109906692D01*
X138152376Y-110088216D01*
X138147305Y-110270112D01*
X138147294Y-110452335D01*
X137513274Y-110452335D01*
X137512953Y-110427056D01*
X137512697Y-110342794D01*
X137513248Y-110259019D01*
X137514612Y-110176792D01*
X137516787Y-110097169D01*
X137519777Y-110021209D01*
X137520745Y-110001050D01*
X137532801Y-109810101D01*
X137549801Y-109620163D01*
X137571718Y-109431308D01*
X137598528Y-109243608D01*
X137630203Y-109057136D01*
X137666718Y-108871966D01*
X137708046Y-108688170D01*
X137754161Y-108505821D01*
X137805038Y-108324992D01*
X137860649Y-108145755D01*
X137920969Y-107968184D01*
X137985971Y-107792352D01*
X138055629Y-107618330D01*
X138129918Y-107446193D01*
X138208811Y-107276012D01*
X138292281Y-107107861D01*
X138380303Y-106941813D01*
X138472851Y-106777941D01*
X138569898Y-106616316D01*
X138671418Y-106457013D01*
X138777385Y-106300104D01*
X138887773Y-106145661D01*
X138922718Y-106098522D01*
X139038677Y-105947605D01*
X139158401Y-105799969D01*
X139281801Y-105655691D01*
X139408783Y-105514845D01*
X139539257Y-105377505D01*
X139673130Y-105243746D01*
X139810312Y-105113644D01*
X139950711Y-104987273D01*
X140094236Y-104864708D01*
X140240795Y-104746024D01*
X140390296Y-104631295D01*
X140542649Y-104520597D01*
X140697761Y-104414004D01*
X140855541Y-104311591D01*
X141015898Y-104213434D01*
X141178740Y-104119606D01*
X141343976Y-104030182D01*
X141511514Y-103945238D01*
X141616609Y-103894806D01*
X141788959Y-103816671D01*
X141963184Y-103743242D01*
X142139188Y-103674545D01*
X142316875Y-103610605D01*
X142496149Y-103551445D01*
X142676915Y-103497091D01*
X142859077Y-103447568D01*
X143042538Y-103402900D01*
X143227203Y-103363111D01*
X143412975Y-103328228D01*
X143599759Y-103298273D01*
X143787460Y-103273273D01*
X143975980Y-103253252D01*
X144161510Y-103238481D01*
X144210129Y-103235346D01*
X144255598Y-103232638D01*
X144298758Y-103230330D01*
X144340447Y-103228395D01*
X144381504Y-103226808D01*
X144422767Y-103225542D01*
X144465077Y-103224569D01*
X144509271Y-103223865D01*
X144556189Y-103223403D01*
X144606671Y-103223156D01*
X144650460Y-103223095D01*
X144748223Y-103223562D01*
X144748223Y-103223562D01*
G37*
X144748223Y-103223562D02*
X144841940Y-103225014D01*
X144932556Y-103227503D01*
X145021017Y-103231081D01*
X145108269Y-103235799D01*
X145195260Y-103241709D01*
X145282934Y-103248862D01*
X145372239Y-103257310D01*
X145464120Y-103267104D01*
X145469610Y-103267722D01*
X145657895Y-103291490D01*
X145844943Y-103320165D01*
X146030680Y-103353706D01*
X146215029Y-103392076D01*
X146397915Y-103435233D01*
X146579263Y-103483140D01*
X146758995Y-103535757D01*
X146937038Y-103593044D01*
X147113315Y-103654962D01*
X147287751Y-103721472D01*
X147460269Y-103792535D01*
X147630796Y-103868110D01*
X147799254Y-103948160D01*
X147965568Y-104032645D01*
X148129663Y-104121524D01*
X148291462Y-104214760D01*
X148450892Y-104312313D01*
X148607874Y-104414143D01*
X148762335Y-104520211D01*
X148914199Y-104630478D01*
X149063389Y-104744904D01*
X149209831Y-104863450D01*
X149353448Y-104986078D01*
X149494166Y-105112747D01*
X149631907Y-105243418D01*
X149766598Y-105378052D01*
X149898162Y-105516610D01*
X149989332Y-105617010D01*
X150114710Y-105761434D01*
X150235904Y-105908697D01*
X150352881Y-106058751D01*
X150465611Y-106211545D01*
X150574061Y-106367031D01*
X150678201Y-106525160D01*
X150778000Y-106685882D01*
X150873426Y-106849148D01*
X150964448Y-107014910D01*
X151051035Y-107183118D01*
X151133155Y-107353724D01*
X151210777Y-107526677D01*
X151221346Y-107551220D01*
X151292949Y-107724806D01*
X151359900Y-107900370D01*
X151422167Y-108077777D01*
X151479720Y-108256895D01*
X151532527Y-108437591D01*
X151580557Y-108619733D01*
X151623779Y-108803188D01*
X151662162Y-108987823D01*
X151695675Y-109173505D01*
X151724286Y-109360102D01*
X151747965Y-109547482D01*
X151766681Y-109735510D01*
X151780403Y-109924055D01*
X151781482Y-109942630D01*
X151783295Y-109975117D01*
X151784868Y-110004680D01*
X151786222Y-110032044D01*
X151787379Y-110057938D01*
X151788360Y-110083089D01*
X151789187Y-110108226D01*
X151789881Y-110134076D01*
X151790466Y-110161367D01*
X151790961Y-110190827D01*
X151791390Y-110223183D01*
X151791773Y-110259164D01*
X151792133Y-110299497D01*
X151792133Y-110299500D01*
X151792237Y-110432802D01*
X151790257Y-110562368D01*
X151786133Y-110689121D01*
X151779803Y-110813983D01*
X151771208Y-110937877D01*
X151760286Y-111061728D01*
X151746977Y-111186457D01*
X151731221Y-111312988D01*
X151720528Y-111390430D01*
X151691162Y-111578011D01*
X151656904Y-111764281D01*
X151617790Y-111949163D01*
X151573855Y-112132581D01*
X151525135Y-112314460D01*
X151471665Y-112494725D01*
X151413481Y-112673299D01*
X151350619Y-112850107D01*
X151283113Y-113025073D01*
X151210999Y-113198122D01*
X151134313Y-113369178D01*
X151053091Y-113538166D01*
X150967367Y-113705009D01*
X150877177Y-113869632D01*
X150782558Y-114031960D01*
X150683543Y-114191916D01*
X150580169Y-114349426D01*
X150472472Y-114504413D01*
X150360486Y-114656802D01*
X150244247Y-114806518D01*
X150123792Y-114953484D01*
X149999154Y-115097625D01*
X149960561Y-115140740D01*
X149914288Y-115191336D01*
X149864685Y-115244307D01*
X149812462Y-115298942D01*
X149758327Y-115354533D01*
X149702989Y-115410372D01*
X149647156Y-115465750D01*
X149591537Y-115519957D01*
X149536841Y-115572286D01*
X149483777Y-115622027D01*
X149433053Y-115668472D01*
X149430740Y-115670561D01*
X149287753Y-115796205D01*
X149141846Y-115917748D01*
X148993099Y-116035146D01*
X148841594Y-116148359D01*
X148687411Y-116257343D01*
X148530632Y-116362057D01*
X148371337Y-116462458D01*
X148209608Y-116558505D01*
X148045526Y-116650154D01*
X147879172Y-116737364D01*
X147710626Y-116820092D01*
X147539970Y-116898296D01*
X147367285Y-116971935D01*
X147192653Y-117040966D01*
X147016153Y-117105346D01*
X146837867Y-117165034D01*
X146657877Y-117219987D01*
X146476263Y-117270163D01*
X146293106Y-117315520D01*
X146253200Y-117324715D01*
X146078391Y-117362217D01*
X145903623Y-117395206D01*
X145728455Y-117423738D01*
X145552447Y-117447867D01*
X145375158Y-117467651D01*
X145196147Y-117483146D01*
X145014975Y-117494406D01*
X144868900Y-117500380D01*
X144853403Y-117500777D01*
X144833626Y-117501135D01*
X144810199Y-117501450D01*
X144783752Y-117501723D01*
X144754917Y-117501952D01*
X144724326Y-117502136D01*
X144692608Y-117502273D01*
X144660395Y-117502361D01*
X144628319Y-117502400D01*
X144597010Y-117502389D01*
X144567099Y-117502325D01*
X144539217Y-117502208D01*
X144513996Y-117502037D01*
X144492066Y-117501809D01*
X144474059Y-117501524D01*
X144462500Y-117501241D01*
X144367596Y-117497881D01*
X144276729Y-117493746D01*
X144188904Y-117488768D01*
X144103125Y-117482880D01*
X144018399Y-117476014D01*
X143933732Y-117468105D01*
X143864330Y-117460867D01*
X143675858Y-117437797D01*
X143488392Y-117409787D01*
X143302024Y-117376865D01*
X143116847Y-117339059D01*
X142932952Y-117296400D01*
X142750433Y-117248914D01*
X142569382Y-117196631D01*
X142389890Y-117139580D01*
X142212051Y-117077788D01*
X142035957Y-117011286D01*
X141861699Y-116940100D01*
X141689372Y-116864261D01*
X141519066Y-116783796D01*
X141350875Y-116698735D01*
X141274800Y-116658371D01*
X141108947Y-116566183D01*
X140945715Y-116469657D01*
X140785167Y-116368847D01*
X140627368Y-116263804D01*
X140472383Y-116154582D01*
X140320276Y-116041234D01*
X140171111Y-115923812D01*
X140024954Y-115802369D01*
X139881868Y-115676958D01*
X139741919Y-115547631D01*
X139605171Y-115414442D01*
X139471688Y-115277444D01*
X139341535Y-115136688D01*
X139214777Y-114992228D01*
X139163173Y-114931190D01*
X139043262Y-114783865D01*
X138927615Y-114633812D01*
X138816264Y-114481110D01*
X138709240Y-114325837D01*
X138606573Y-114168072D01*
X138508295Y-114007895D01*
X138414436Y-113845385D01*
X138325028Y-113680620D01*
X138240102Y-113513681D01*
X138159689Y-113344645D01*
X138083819Y-113173592D01*
X138012524Y-113000602D01*
X137945835Y-112825752D01*
X137883783Y-112649123D01*
X137826399Y-112470793D01*
X137773713Y-112290842D01*
X137725758Y-112109348D01*
X137682563Y-111926390D01*
X137644160Y-111742049D01*
X137610581Y-111556402D01*
X137581855Y-111369529D01*
X137558014Y-111181508D01*
X137539089Y-110992420D01*
X137525112Y-110802343D01*
X137522028Y-110747810D01*
X137518555Y-110672182D01*
X137515883Y-110592808D01*
X137514015Y-110510747D01*
X137513274Y-110452335D01*
X138147294Y-110452335D01*
X138152346Y-110634843D01*
X138159620Y-110774480D01*
X138173477Y-110955168D01*
X138192344Y-111135102D01*
X138216196Y-111314189D01*
X138245005Y-111492339D01*
X138278747Y-111669460D01*
X138317394Y-111845460D01*
X138360921Y-112020250D01*
X138409301Y-112193736D01*
X138462509Y-112365827D01*
X138520518Y-112536434D01*
X138583302Y-112705463D01*
X138650835Y-112872823D01*
X138723091Y-113038424D01*
X138800043Y-113202174D01*
X138881666Y-113363982D01*
X138922928Y-113441733D01*
X139011114Y-113599885D01*
X139103676Y-113755497D01*
X139200532Y-113908469D01*
X139301602Y-114058702D01*
X139406806Y-114206097D01*
X139516063Y-114350553D01*
X139629293Y-114491973D01*
X139746416Y-114630256D01*
X139867352Y-114765303D01*
X139992019Y-114897014D01*
X140120338Y-115025291D01*
X140252229Y-115150033D01*
X140387610Y-115271142D01*
X140434060Y-115311165D01*
X140574102Y-115427389D01*
X140716982Y-115539448D01*
X140862611Y-115647300D01*
X141010902Y-115750902D01*
X141161768Y-115850210D01*
X141315120Y-115945181D01*
X141470872Y-116035771D01*
X141628935Y-116121937D01*
X141789222Y-116203637D01*
X141951646Y-116280826D01*
X142116118Y-116353461D01*
X142282552Y-116421500D01*
X142450859Y-116484898D01*
X142620952Y-116543613D01*
X142792744Y-116597601D01*
X142966147Y-116646819D01*
X143141072Y-116691224D01*
X143297910Y-116726649D01*
X143468637Y-116760569D01*
X143640431Y-116789877D01*
X143813548Y-116814605D01*
X143988244Y-116834784D01*
X144164777Y-116850445D01*
X144343403Y-116861621D01*
X144426940Y-116865286D01*
X144441204Y-116865703D01*
X144459850Y-116866047D01*
X144482349Y-116866321D01*
X144508177Y-116866528D01*
X144536804Y-116866670D01*
X144567706Y-116866749D01*
X144600354Y-116866768D01*
X144634223Y-116866728D01*
X144668784Y-116866632D01*
X144703513Y-116866482D01*
X144737880Y-116866281D01*
X144771361Y-116866030D01*
X144803428Y-116865732D01*
X144833553Y-116865389D01*
X144861212Y-116865004D01*
X144885875Y-116864578D01*
X144907018Y-116864115D01*
X144924112Y-116863615D01*
X144936210Y-116863105D01*
X144989491Y-116860185D01*
X145038458Y-116857329D01*
X145083876Y-116854476D01*
X145126508Y-116851567D01*
X145167119Y-116848543D01*
X145206473Y-116845345D01*
X145245336Y-116841912D01*
X145284471Y-116838185D01*
X145324642Y-116834105D01*
X145366614Y-116829612D01*
X145366740Y-116829599D01*
X145545776Y-116807455D01*
X145724071Y-116780305D01*
X145901502Y-116748182D01*
X146077941Y-116711121D01*
X146253265Y-116669159D01*
X146427348Y-116622330D01*
X146600064Y-116570670D01*
X146771289Y-116514213D01*
X146940897Y-116452995D01*
X147108764Y-116387051D01*
X147274763Y-116316416D01*
X147405610Y-116256800D01*
X147568781Y-116177440D01*
X147729498Y-116093653D01*
X147887681Y-116005502D01*
X148043247Y-115913051D01*
X148196114Y-115816365D01*
X148346203Y-115715508D01*
X148493431Y-115610544D01*
X148637716Y-115501537D01*
X148778977Y-115388552D01*
X148917133Y-115271653D01*
X149052102Y-115150903D01*
X149183803Y-115026368D01*
X149312154Y-114898112D01*
X149437074Y-114766198D01*
X149558481Y-114630691D01*
X149676294Y-114491655D01*
X149731940Y-114423190D01*
X149843143Y-114280435D01*
X149950403Y-114134525D01*
X150053622Y-113985617D01*
X150152702Y-113833869D01*
X150247544Y-113679438D01*
X150338049Y-113522484D01*
X150424119Y-113363165D01*
X150505656Y-113201637D01*
X150546800Y-113115610D01*
X150621106Y-112951276D01*
X150690743Y-112784992D01*
X150755679Y-112616880D01*
X150815884Y-112447061D01*
X150871328Y-112275656D01*
X150921980Y-112102786D01*
X150967808Y-111928572D01*
X151008784Y-111753135D01*
X151044874Y-111576597D01*
X151076050Y-111399077D01*
X151102280Y-111220699D01*
X151123534Y-111041582D01*
X151139781Y-110861847D01*
X151147759Y-110742730D01*
X151149365Y-110714412D01*
X151150754Y-110688735D01*
X151151944Y-110665000D01*
X151152958Y-110642508D01*
X151153815Y-110620560D01*
X151154536Y-110598459D01*
X151155141Y-110575505D01*
X151155651Y-110551001D01*
X151156086Y-110524247D01*
X151156466Y-110494546D01*
X151156813Y-110461199D01*
X151157145Y-110423507D01*
X151157163Y-110421379D01*
X151157471Y-110330630D01*
X151156830Y-110243943D01*
X151155198Y-110160381D01*
X151152534Y-110079008D01*
X151148795Y-109998888D01*
X151143941Y-109919085D01*
X151137928Y-109838662D01*
X151130716Y-109756683D01*
X151124840Y-109696973D01*
X151103851Y-109516898D01*
X151077923Y-109337932D01*
X151047091Y-109160155D01*
X151011392Y-108983648D01*
X150970861Y-108808493D01*
X150925533Y-108634770D01*
X150875445Y-108462560D01*
X150820633Y-108291944D01*
X150761132Y-108123004D01*
X150696978Y-107955820D01*
X150628206Y-107790474D01*
X150554853Y-107627045D01*
X150476954Y-107465616D01*
X150394546Y-107306267D01*
X150307663Y-107149080D01*
X150216342Y-106994135D01*
X150120619Y-106841513D01*
X150020528Y-106691295D01*
X149916107Y-106543563D01*
X149807390Y-106398397D01*
X149694414Y-106255878D01*
X149577214Y-106116088D01*
X149508286Y-106037380D01*
X149453923Y-105977258D01*
X149396134Y-105915185D01*
X149335748Y-105851993D01*
X149273588Y-105788512D01*
X149210482Y-105725571D01*
X149147257Y-105664001D01*
X149084737Y-105604634D01*
X149023749Y-105548299D01*
X149003270Y-105529768D01*
X148866264Y-105409860D01*
X148726352Y-105294052D01*
X148583626Y-105182386D01*
X148438174Y-105074906D01*
X148290086Y-104971658D01*
X148139451Y-104872685D01*
X147986360Y-104778030D01*
X147830900Y-104687738D01*
X147673163Y-104601853D01*
X147513237Y-104520419D01*
X147351213Y-104443479D01*
X147187178Y-104371079D01*
X147021224Y-104303261D01*
X146853439Y-104240070D01*
X146683913Y-104181550D01*
X146512736Y-104127745D01*
X146339997Y-104078699D01*
X146165785Y-104034456D01*
X145990191Y-103995059D01*
X145813303Y-103960553D01*
X145809970Y-103959952D01*
X145630484Y-103930221D01*
X145450403Y-103905518D01*
X145269837Y-103885845D01*
X145088897Y-103871203D01*
X144907693Y-103861594D01*
X144726334Y-103857019D01*
X144544932Y-103857479D01*
X144363595Y-103862976D01*
X144182435Y-103873511D01*
X144001560Y-103889085D01*
X143821083Y-103909700D01*
X143654780Y-103933229D01*
X143476848Y-103963302D01*
X143300196Y-103998265D01*
X143124913Y-104038072D01*
X142951086Y-104082673D01*
X142778802Y-104132021D01*
X142608151Y-104186069D01*
X142439220Y-104244769D01*
X142272096Y-104308072D01*
X142106868Y-104375932D01*
X141943625Y-104448301D01*
X141782453Y-104525130D01*
X141623440Y-104606372D01*
X141466676Y-104691980D01*
X141312247Y-104781905D01*
X141160242Y-104876101D01*
X141010749Y-104974518D01*
X140863855Y-105077110D01*
X140719649Y-105183829D01*
X140578218Y-105294626D01*
X140439651Y-105409455D01*
X140304035Y-105528267D01*
X140171459Y-105651015D01*
X140042011Y-105777652D01*
X139915777Y-105908128D01*
X139816672Y-106015790D01*
X139697091Y-106152373D01*
X139581588Y-106291914D01*
X139470208Y-106434317D01*
X139362994Y-106579492D01*
X139259992Y-106727344D01*
X139161244Y-106877782D01*
X139066796Y-107030712D01*
X138976692Y-107186042D01*
X138890974Y-107343678D01*
X138809689Y-107503528D01*
X138732879Y-107665499D01*
X138660590Y-107829499D01*
X138592865Y-107995434D01*
X138529748Y-108163212D01*
X138471283Y-108332740D01*
X138417515Y-108503924D01*
X138368488Y-108676673D01*
X138324247Y-108850894D01*
X138284834Y-109026493D01*
X138250294Y-109203378D01*
X138223229Y-109364780D01*
X138197935Y-109544931D01*
X138177693Y-109725583D01*
X138162507Y-109906692D01*
X138152376Y-110088216D01*
X138147305Y-110270112D01*
X138147294Y-110452335D01*
X137513274Y-110452335D01*
X137512953Y-110427056D01*
X137512697Y-110342794D01*
X137513248Y-110259019D01*
X137514612Y-110176792D01*
X137516787Y-110097169D01*
X137519777Y-110021209D01*
X137520745Y-110001050D01*
X137532801Y-109810101D01*
X137549801Y-109620163D01*
X137571718Y-109431308D01*
X137598528Y-109243608D01*
X137630203Y-109057136D01*
X137666718Y-108871966D01*
X137708046Y-108688170D01*
X137754161Y-108505821D01*
X137805038Y-108324992D01*
X137860649Y-108145755D01*
X137920969Y-107968184D01*
X137985971Y-107792352D01*
X138055629Y-107618330D01*
X138129918Y-107446193D01*
X138208811Y-107276012D01*
X138292281Y-107107861D01*
X138380303Y-106941813D01*
X138472851Y-106777941D01*
X138569898Y-106616316D01*
X138671418Y-106457013D01*
X138777385Y-106300104D01*
X138887773Y-106145661D01*
X138922718Y-106098522D01*
X139038677Y-105947605D01*
X139158401Y-105799969D01*
X139281801Y-105655691D01*
X139408783Y-105514845D01*
X139539257Y-105377505D01*
X139673130Y-105243746D01*
X139810312Y-105113644D01*
X139950711Y-104987273D01*
X140094236Y-104864708D01*
X140240795Y-104746024D01*
X140390296Y-104631295D01*
X140542649Y-104520597D01*
X140697761Y-104414004D01*
X140855541Y-104311591D01*
X141015898Y-104213434D01*
X141178740Y-104119606D01*
X141343976Y-104030182D01*
X141511514Y-103945238D01*
X141616609Y-103894806D01*
X141788959Y-103816671D01*
X141963184Y-103743242D01*
X142139188Y-103674545D01*
X142316875Y-103610605D01*
X142496149Y-103551445D01*
X142676915Y-103497091D01*
X142859077Y-103447568D01*
X143042538Y-103402900D01*
X143227203Y-103363111D01*
X143412975Y-103328228D01*
X143599759Y-103298273D01*
X143787460Y-103273273D01*
X143975980Y-103253252D01*
X144161510Y-103238481D01*
X144210129Y-103235346D01*
X144255598Y-103232638D01*
X144298758Y-103230330D01*
X144340447Y-103228395D01*
X144381504Y-103226808D01*
X144422767Y-103225542D01*
X144465077Y-103224569D01*
X144509271Y-103223865D01*
X144556189Y-103223403D01*
X144606671Y-103223156D01*
X144650460Y-103223095D01*
X144748223Y-103223562D01*
G36*
X146488676Y-106025230D02*
X147220723Y-106447590D01*
X147220826Y-107293410D01*
X147220930Y-108139230D01*
X146490050Y-108561148D01*
X145759170Y-108983067D01*
X145757900Y-111630595D01*
X145756630Y-114278124D01*
X145027650Y-114699159D01*
X144971265Y-114731719D01*
X144915999Y-114763620D01*
X144862015Y-114794769D01*
X144809473Y-114825074D01*
X144758539Y-114854439D01*
X144709374Y-114882772D01*
X144662141Y-114909979D01*
X144617004Y-114935966D01*
X144574124Y-114960641D01*
X144533665Y-114983908D01*
X144495790Y-115005676D01*
X144460661Y-115025849D01*
X144428441Y-115044336D01*
X144399293Y-115061041D01*
X144373379Y-115075872D01*
X144350864Y-115088735D01*
X144331908Y-115099536D01*
X144316676Y-115108182D01*
X144305330Y-115114579D01*
X144298033Y-115118634D01*
X144294947Y-115120253D01*
X144294860Y-115120280D01*
X144292390Y-115119032D01*
X144285685Y-115115335D01*
X144274907Y-115109284D01*
X144260218Y-115100972D01*
X144241783Y-115090492D01*
X144219762Y-115077938D01*
X144194320Y-115063404D01*
X144165619Y-115046981D01*
X144133822Y-115028765D01*
X144099091Y-115008849D01*
X144061590Y-114987326D01*
X144021481Y-114964289D01*
X143978927Y-114939831D01*
X143934090Y-114914048D01*
X143887135Y-114887031D01*
X143838222Y-114858874D01*
X143787516Y-114829671D01*
X143735179Y-114799514D01*
X143681374Y-114768499D01*
X143626264Y-114736717D01*
X143570010Y-114704263D01*
X143561561Y-114699388D01*
X143505185Y-114666844D01*
X143449952Y-114634944D01*
X143396024Y-114603781D01*
X143343563Y-114573449D01*
X143292731Y-114544041D01*
X143243689Y-114515652D01*
X143196599Y-114488376D01*
X143151622Y-114462306D01*
X143108921Y-114437537D01*
X143068656Y-114414162D01*
X143030990Y-114392275D01*
X142996084Y-114371971D01*
X142964099Y-114353343D01*
X142935198Y-114336485D01*
X142909542Y-114321491D01*
X142887292Y-114308454D01*
X142868611Y-114297470D01*
X142853660Y-114288632D01*
X142842600Y-114282033D01*
X142835593Y-114277768D01*
X142832801Y-114275931D01*
X142832756Y-114275870D01*
X142834982Y-114274418D01*
X142841447Y-114270522D01*
X142851988Y-114264277D01*
X142866444Y-114255775D01*
X142884652Y-114245111D01*
X142906450Y-114232380D01*
X142931676Y-114217675D01*
X142960169Y-114201090D01*
X142991765Y-114182719D01*
X143026304Y-114162657D01*
X143063622Y-114140997D01*
X143103558Y-114117833D01*
X143145950Y-114093260D01*
X143190636Y-114067372D01*
X143237454Y-114040262D01*
X143286241Y-114012025D01*
X143336836Y-113982754D01*
X143389077Y-113952545D01*
X143442800Y-113921490D01*
X143497846Y-113889684D01*
X143554051Y-113857221D01*
X143562244Y-113852490D01*
X144291050Y-113431650D01*
X144292548Y-108136690D01*
X145754090Y-107293392D01*
X145756630Y-105602870D01*
X146488676Y-106025230D01*
X146488676Y-106025230D01*
G37*
X146488676Y-106025230D02*
X147220723Y-106447590D01*
X147220826Y-107293410D01*
X147220930Y-108139230D01*
X146490050Y-108561148D01*
X145759170Y-108983067D01*
X145757900Y-111630595D01*
X145756630Y-114278124D01*
X145027650Y-114699159D01*
X144971265Y-114731719D01*
X144915999Y-114763620D01*
X144862015Y-114794769D01*
X144809473Y-114825074D01*
X144758539Y-114854439D01*
X144709374Y-114882772D01*
X144662141Y-114909979D01*
X144617004Y-114935966D01*
X144574124Y-114960641D01*
X144533665Y-114983908D01*
X144495790Y-115005676D01*
X144460661Y-115025849D01*
X144428441Y-115044336D01*
X144399293Y-115061041D01*
X144373379Y-115075872D01*
X144350864Y-115088735D01*
X144331908Y-115099536D01*
X144316676Y-115108182D01*
X144305330Y-115114579D01*
X144298033Y-115118634D01*
X144294947Y-115120253D01*
X144294860Y-115120280D01*
X144292390Y-115119032D01*
X144285685Y-115115335D01*
X144274907Y-115109284D01*
X144260218Y-115100972D01*
X144241783Y-115090492D01*
X144219762Y-115077938D01*
X144194320Y-115063404D01*
X144165619Y-115046981D01*
X144133822Y-115028765D01*
X144099091Y-115008849D01*
X144061590Y-114987326D01*
X144021481Y-114964289D01*
X143978927Y-114939831D01*
X143934090Y-114914048D01*
X143887135Y-114887031D01*
X143838222Y-114858874D01*
X143787516Y-114829671D01*
X143735179Y-114799514D01*
X143681374Y-114768499D01*
X143626264Y-114736717D01*
X143570010Y-114704263D01*
X143561561Y-114699388D01*
X143505185Y-114666844D01*
X143449952Y-114634944D01*
X143396024Y-114603781D01*
X143343563Y-114573449D01*
X143292731Y-114544041D01*
X143243689Y-114515652D01*
X143196599Y-114488376D01*
X143151622Y-114462306D01*
X143108921Y-114437537D01*
X143068656Y-114414162D01*
X143030990Y-114392275D01*
X142996084Y-114371971D01*
X142964099Y-114353343D01*
X142935198Y-114336485D01*
X142909542Y-114321491D01*
X142887292Y-114308454D01*
X142868611Y-114297470D01*
X142853660Y-114288632D01*
X142842600Y-114282033D01*
X142835593Y-114277768D01*
X142832801Y-114275931D01*
X142832756Y-114275870D01*
X142834982Y-114274418D01*
X142841447Y-114270522D01*
X142851988Y-114264277D01*
X142866444Y-114255775D01*
X142884652Y-114245111D01*
X142906450Y-114232380D01*
X142931676Y-114217675D01*
X142960169Y-114201090D01*
X142991765Y-114182719D01*
X143026304Y-114162657D01*
X143063622Y-114140997D01*
X143103558Y-114117833D01*
X143145950Y-114093260D01*
X143190636Y-114067372D01*
X143237454Y-114040262D01*
X143286241Y-114012025D01*
X143336836Y-113982754D01*
X143389077Y-113952545D01*
X143442800Y-113921490D01*
X143497846Y-113889684D01*
X143554051Y-113857221D01*
X143562244Y-113852490D01*
X144291050Y-113431650D01*
X144292548Y-108136690D01*
X145754090Y-107293392D01*
X145756630Y-105602870D01*
X146488676Y-106025230D01*
G36*
X142830477Y-108984938D02*
X142830846Y-108985540D01*
X142831191Y-108986842D01*
X142831513Y-108989003D01*
X142831813Y-108992183D01*
X142832090Y-108996539D01*
X142832347Y-109002232D01*
X142832584Y-109009420D01*
X142832802Y-109018264D01*
X142833001Y-109028920D01*
X142833183Y-109041550D01*
X142833348Y-109056312D01*
X142833497Y-109073365D01*
X142833630Y-109092868D01*
X142833749Y-109114981D01*
X142833855Y-109139862D01*
X142833948Y-109167670D01*
X142834029Y-109198566D01*
X142834099Y-109232707D01*
X142834158Y-109270253D01*
X142834208Y-109311364D01*
X142834249Y-109356197D01*
X142834282Y-109404914D01*
X142834308Y-109457671D01*
X142834328Y-109514629D01*
X142834342Y-109575947D01*
X142834351Y-109641783D01*
X142834357Y-109712298D01*
X142834359Y-109787650D01*
X142834360Y-109829328D01*
X142834354Y-109894563D01*
X142834337Y-109958482D01*
X142834310Y-110020899D01*
X142834272Y-110081628D01*
X142834225Y-110140481D01*
X142834169Y-110197273D01*
X142834103Y-110251818D01*
X142834029Y-110303929D01*
X142833947Y-110353420D01*
X142833858Y-110400104D01*
X142833761Y-110443796D01*
X142833657Y-110484310D01*
X142833547Y-110521458D01*
X142833430Y-110555055D01*
X142833309Y-110584914D01*
X142833182Y-110610849D01*
X142833050Y-110632674D01*
X142832914Y-110650202D01*
X142832775Y-110663248D01*
X142832631Y-110671625D01*
X142832485Y-110675147D01*
X142832455Y-110675252D01*
X142830134Y-110673984D01*
X142823577Y-110670267D01*
X142812945Y-110664196D01*
X142798402Y-110655863D01*
X142780108Y-110645363D01*
X142758226Y-110632787D01*
X142732918Y-110618231D01*
X142704346Y-110601786D01*
X142672672Y-110583548D01*
X142638059Y-110563608D01*
X142600668Y-110542061D01*
X142560661Y-110518999D01*
X142518200Y-110494517D01*
X142473448Y-110468707D01*
X142426567Y-110441664D01*
X142377718Y-110413480D01*
X142327064Y-110384248D01*
X142274767Y-110354063D01*
X142220989Y-110323018D01*
X142165892Y-110291205D01*
X142109638Y-110258719D01*
X142099696Y-110252977D01*
X142043268Y-110220383D01*
X141987980Y-110188437D01*
X141933993Y-110157234D01*
X141881468Y-110126868D01*
X141830566Y-110097431D01*
X141781451Y-110069018D01*
X141734283Y-110041723D01*
X141689223Y-110015639D01*
X141646434Y-109990859D01*
X141606077Y-109967478D01*
X141568314Y-109945588D01*
X141533305Y-109925285D01*
X141501214Y-109906661D01*
X141472201Y-109889810D01*
X141446428Y-109874826D01*
X141424057Y-109861802D01*
X141405248Y-109850832D01*
X141390165Y-109842010D01*
X141378968Y-109835430D01*
X141371819Y-109831185D01*
X141368880Y-109829368D01*
X141368811Y-109829307D01*
X141370976Y-109827952D01*
X141377345Y-109824173D01*
X141387719Y-109818083D01*
X141401903Y-109809797D01*
X141419699Y-109799429D01*
X141440909Y-109787092D01*
X141465337Y-109772901D01*
X141492785Y-109756969D01*
X141523056Y-109739410D01*
X141555954Y-109720338D01*
X141591280Y-109699868D01*
X141628838Y-109678113D01*
X141668430Y-109655187D01*
X141709860Y-109631204D01*
X141752930Y-109606278D01*
X141797444Y-109580523D01*
X141843203Y-109554052D01*
X141890011Y-109526981D01*
X141937670Y-109499422D01*
X141985984Y-109471489D01*
X142034755Y-109443297D01*
X142083786Y-109414960D01*
X142132881Y-109386591D01*
X142181841Y-109358304D01*
X142230469Y-109330213D01*
X142278569Y-109302433D01*
X142325944Y-109275077D01*
X142372395Y-109248259D01*
X142417727Y-109222093D01*
X142461741Y-109196693D01*
X142504241Y-109172172D01*
X142545030Y-109148646D01*
X142583910Y-109126227D01*
X142620684Y-109105030D01*
X142655155Y-109085168D01*
X142687126Y-109066757D01*
X142716400Y-109049908D01*
X142742779Y-109034737D01*
X142766067Y-109021357D01*
X142786065Y-109009883D01*
X142802578Y-109000427D01*
X142815408Y-108993105D01*
X142824358Y-108988030D01*
X142829230Y-108985316D01*
X142830083Y-108984877D01*
X142830477Y-108984938D01*
X142830477Y-108984938D01*
G37*
X142830477Y-108984938D02*
X142830846Y-108985540D01*
X142831191Y-108986842D01*
X142831513Y-108989003D01*
X142831813Y-108992183D01*
X142832090Y-108996539D01*
X142832347Y-109002232D01*
X142832584Y-109009420D01*
X142832802Y-109018264D01*
X142833001Y-109028920D01*
X142833183Y-109041550D01*
X142833348Y-109056312D01*
X142833497Y-109073365D01*
X142833630Y-109092868D01*
X142833749Y-109114981D01*
X142833855Y-109139862D01*
X142833948Y-109167670D01*
X142834029Y-109198566D01*
X142834099Y-109232707D01*
X142834158Y-109270253D01*
X142834208Y-109311364D01*
X142834249Y-109356197D01*
X142834282Y-109404914D01*
X142834308Y-109457671D01*
X142834328Y-109514629D01*
X142834342Y-109575947D01*
X142834351Y-109641783D01*
X142834357Y-109712298D01*
X142834359Y-109787650D01*
X142834360Y-109829328D01*
X142834354Y-109894563D01*
X142834337Y-109958482D01*
X142834310Y-110020899D01*
X142834272Y-110081628D01*
X142834225Y-110140481D01*
X142834169Y-110197273D01*
X142834103Y-110251818D01*
X142834029Y-110303929D01*
X142833947Y-110353420D01*
X142833858Y-110400104D01*
X142833761Y-110443796D01*
X142833657Y-110484310D01*
X142833547Y-110521458D01*
X142833430Y-110555055D01*
X142833309Y-110584914D01*
X142833182Y-110610849D01*
X142833050Y-110632674D01*
X142832914Y-110650202D01*
X142832775Y-110663248D01*
X142832631Y-110671625D01*
X142832485Y-110675147D01*
X142832455Y-110675252D01*
X142830134Y-110673984D01*
X142823577Y-110670267D01*
X142812945Y-110664196D01*
X142798402Y-110655863D01*
X142780108Y-110645363D01*
X142758226Y-110632787D01*
X142732918Y-110618231D01*
X142704346Y-110601786D01*
X142672672Y-110583548D01*
X142638059Y-110563608D01*
X142600668Y-110542061D01*
X142560661Y-110518999D01*
X142518200Y-110494517D01*
X142473448Y-110468707D01*
X142426567Y-110441664D01*
X142377718Y-110413480D01*
X142327064Y-110384248D01*
X142274767Y-110354063D01*
X142220989Y-110323018D01*
X142165892Y-110291205D01*
X142109638Y-110258719D01*
X142099696Y-110252977D01*
X142043268Y-110220383D01*
X141987980Y-110188437D01*
X141933993Y-110157234D01*
X141881468Y-110126868D01*
X141830566Y-110097431D01*
X141781451Y-110069018D01*
X141734283Y-110041723D01*
X141689223Y-110015639D01*
X141646434Y-109990859D01*
X141606077Y-109967478D01*
X141568314Y-109945588D01*
X141533305Y-109925285D01*
X141501214Y-109906661D01*
X141472201Y-109889810D01*
X141446428Y-109874826D01*
X141424057Y-109861802D01*
X141405248Y-109850832D01*
X141390165Y-109842010D01*
X141378968Y-109835430D01*
X141371819Y-109831185D01*
X141368880Y-109829368D01*
X141368811Y-109829307D01*
X141370976Y-109827952D01*
X141377345Y-109824173D01*
X141387719Y-109818083D01*
X141401903Y-109809797D01*
X141419699Y-109799429D01*
X141440909Y-109787092D01*
X141465337Y-109772901D01*
X141492785Y-109756969D01*
X141523056Y-109739410D01*
X141555954Y-109720338D01*
X141591280Y-109699868D01*
X141628838Y-109678113D01*
X141668430Y-109655187D01*
X141709860Y-109631204D01*
X141752930Y-109606278D01*
X141797444Y-109580523D01*
X141843203Y-109554052D01*
X141890011Y-109526981D01*
X141937670Y-109499422D01*
X141985984Y-109471489D01*
X142034755Y-109443297D01*
X142083786Y-109414960D01*
X142132881Y-109386591D01*
X142181841Y-109358304D01*
X142230469Y-109330213D01*
X142278569Y-109302433D01*
X142325944Y-109275077D01*
X142372395Y-109248259D01*
X142417727Y-109222093D01*
X142461741Y-109196693D01*
X142504241Y-109172172D01*
X142545030Y-109148646D01*
X142583910Y-109126227D01*
X142620684Y-109105030D01*
X142655155Y-109085168D01*
X142687126Y-109066757D01*
X142716400Y-109049908D01*
X142742779Y-109034737D01*
X142766067Y-109021357D01*
X142786065Y-109009883D01*
X142802578Y-109000427D01*
X142815408Y-108993105D01*
X142824358Y-108988030D01*
X142829230Y-108985316D01*
X142830083Y-108984877D01*
X142830477Y-108984938D01*
D12*
X111053714Y-36901381D02*
X111053714Y-35901381D01*
X111291809Y-35901381D01*
X111434667Y-35949000D01*
X111529905Y-36044238D01*
X111577524Y-36139476D01*
X111625143Y-36329952D01*
X111625143Y-36472810D01*
X111577524Y-36663286D01*
X111529905Y-36758524D01*
X111434667Y-36853762D01*
X111291809Y-36901381D01*
X111053714Y-36901381D01*
X112006095Y-36853762D02*
X112148952Y-36901381D01*
X112387048Y-36901381D01*
X112482286Y-36853762D01*
X112529905Y-36806143D01*
X112577524Y-36710905D01*
X112577524Y-36615667D01*
X112529905Y-36520429D01*
X112482286Y-36472810D01*
X112387048Y-36425190D01*
X112196571Y-36377571D01*
X112101333Y-36329952D01*
X112053714Y-36282333D01*
X112006095Y-36187095D01*
X112006095Y-36091857D01*
X112053714Y-35996619D01*
X112101333Y-35949000D01*
X112196571Y-35901381D01*
X112434667Y-35901381D01*
X112577524Y-35949000D01*
X113529905Y-36901381D02*
X112958476Y-36901381D01*
X113244190Y-36901381D02*
X113244190Y-35901381D01*
X113148952Y-36044238D01*
X113053714Y-36139476D01*
X112958476Y-36187095D01*
X148569682Y-53924461D02*
X148093491Y-53924461D01*
X148093491Y-52924461D01*
X149474444Y-53829223D02*
X149426825Y-53876842D01*
X149283968Y-53924461D01*
X149188730Y-53924461D01*
X149045872Y-53876842D01*
X148950634Y-53781604D01*
X148903015Y-53686366D01*
X148855396Y-53495890D01*
X148855396Y-53353032D01*
X148903015Y-53162556D01*
X148950634Y-53067318D01*
X149045872Y-52972080D01*
X149188730Y-52924461D01*
X149283968Y-52924461D01*
X149426825Y-52972080D01*
X149474444Y-53019699D01*
X149903015Y-53924461D02*
X149903015Y-52924461D01*
X150141110Y-52924461D01*
X150283968Y-52972080D01*
X150379206Y-53067318D01*
X150426825Y-53162556D01*
X150474444Y-53353032D01*
X150474444Y-53495890D01*
X150426825Y-53686366D01*
X150379206Y-53781604D01*
X150283968Y-53876842D01*
X150141110Y-53924461D01*
X149903015Y-53924461D01*
X150903015Y-53543509D02*
X151664920Y-53543509D01*
X152331586Y-52924461D02*
X152426825Y-52924461D01*
X152522063Y-52972080D01*
X152569682Y-53019699D01*
X152617301Y-53114937D01*
X152664920Y-53305413D01*
X152664920Y-53543509D01*
X152617301Y-53733985D01*
X152569682Y-53829223D01*
X152522063Y-53876842D01*
X152426825Y-53924461D01*
X152331586Y-53924461D01*
X152236348Y-53876842D01*
X152188729Y-53829223D01*
X152141110Y-53733985D01*
X152093491Y-53543509D01*
X152093491Y-53305413D01*
X152141110Y-53114937D01*
X152188729Y-53019699D01*
X152236348Y-52972080D01*
X152331586Y-52924461D01*
X153617301Y-53924461D02*
X153045872Y-53924461D01*
X153331586Y-53924461D02*
X153331586Y-52924461D01*
X153236348Y-53067318D01*
X153141110Y-53162556D01*
X153045872Y-53210175D01*
X154474444Y-52924461D02*
X154283967Y-52924461D01*
X154188729Y-52972080D01*
X154141110Y-53019699D01*
X154045872Y-53162556D01*
X153998253Y-53353032D01*
X153998253Y-53733985D01*
X154045872Y-53829223D01*
X154093491Y-53876842D01*
X154188729Y-53924461D01*
X154379206Y-53924461D01*
X154474444Y-53876842D01*
X154522063Y-53829223D01*
X154569682Y-53733985D01*
X154569682Y-53495890D01*
X154522063Y-53400651D01*
X154474444Y-53353032D01*
X154379206Y-53305413D01*
X154188729Y-53305413D01*
X154093491Y-53353032D01*
X154045872Y-53400651D01*
X153998253Y-53495890D01*
X154998253Y-53924461D02*
X154998253Y-52924461D01*
X155569682Y-53924461D01*
X155569682Y-52924461D01*
X156236348Y-52924461D02*
X156331587Y-52924461D01*
X156426825Y-52972080D01*
X156474444Y-53019699D01*
X156522063Y-53114937D01*
X156569682Y-53305413D01*
X156569682Y-53543509D01*
X156522063Y-53733985D01*
X156474444Y-53829223D01*
X156426825Y-53876842D01*
X156331587Y-53924461D01*
X156236348Y-53924461D01*
X156141110Y-53876842D01*
X156093491Y-53829223D01*
X156045872Y-53733985D01*
X155998253Y-53543509D01*
X155998253Y-53305413D01*
X156045872Y-53114937D01*
X156093491Y-53019699D01*
X156141110Y-52972080D01*
X156236348Y-52924461D01*
X157188729Y-52924461D02*
X157283968Y-52924461D01*
X157379206Y-52972080D01*
X157426825Y-53019699D01*
X157474444Y-53114937D01*
X157522063Y-53305413D01*
X157522063Y-53543509D01*
X157474444Y-53733985D01*
X157426825Y-53829223D01*
X157379206Y-53876842D01*
X157283968Y-53924461D01*
X157188729Y-53924461D01*
X157093491Y-53876842D01*
X157045872Y-53829223D01*
X156998253Y-53733985D01*
X156950634Y-53543509D01*
X156950634Y-53305413D01*
X156998253Y-53114937D01*
X157045872Y-53019699D01*
X157093491Y-52972080D01*
X157188729Y-52924461D01*
X157903015Y-53019699D02*
X157950634Y-52972080D01*
X158045872Y-52924461D01*
X158283968Y-52924461D01*
X158379206Y-52972080D01*
X158426825Y-53019699D01*
X158474444Y-53114937D01*
X158474444Y-53210175D01*
X158426825Y-53353032D01*
X157855396Y-53924461D01*
X158474444Y-53924461D01*
X159379206Y-53924461D02*
X158903015Y-53924461D01*
X158903015Y-52924461D01*
X129921095Y-109665381D02*
X129921095Y-110474905D01*
X129968714Y-110570143D01*
X130016333Y-110617762D01*
X130111571Y-110665381D01*
X130302048Y-110665381D01*
X130397286Y-110617762D01*
X130444905Y-110570143D01*
X130492524Y-110474905D01*
X130492524Y-109665381D01*
X130873476Y-109665381D02*
X131492524Y-109665381D01*
X131159190Y-110046333D01*
X131302048Y-110046333D01*
X131397286Y-110093952D01*
X131444905Y-110141571D01*
X131492524Y-110236810D01*
X131492524Y-110474905D01*
X131444905Y-110570143D01*
X131397286Y-110617762D01*
X131302048Y-110665381D01*
X131016333Y-110665381D01*
X130921095Y-110617762D01*
X130873476Y-110570143D01*
X130881381Y-100869286D02*
X129881381Y-100869286D01*
X130595667Y-100535952D01*
X129881381Y-100202619D01*
X130881381Y-100202619D01*
X130786143Y-99155000D02*
X130833762Y-99202619D01*
X130881381Y-99345476D01*
X130881381Y-99440714D01*
X130833762Y-99583572D01*
X130738524Y-99678810D01*
X130643286Y-99726429D01*
X130452810Y-99774048D01*
X130309952Y-99774048D01*
X130119476Y-99726429D01*
X130024238Y-99678810D01*
X129929000Y-99583572D01*
X129881381Y-99440714D01*
X129881381Y-99345476D01*
X129929000Y-99202619D01*
X129976619Y-99155000D01*
X130881381Y-98726429D02*
X129881381Y-98726429D01*
X129881381Y-98345476D01*
X129929000Y-98250238D01*
X129976619Y-98202619D01*
X130071857Y-98155000D01*
X130214714Y-98155000D01*
X130309952Y-98202619D01*
X130357571Y-98250238D01*
X130405190Y-98345476D01*
X130405190Y-98726429D01*
X129976619Y-97774048D02*
X129929000Y-97726429D01*
X129881381Y-97631191D01*
X129881381Y-97393095D01*
X129929000Y-97297857D01*
X129976619Y-97250238D01*
X130071857Y-97202619D01*
X130167095Y-97202619D01*
X130309952Y-97250238D01*
X130881381Y-97821667D01*
X130881381Y-97202619D01*
X129881381Y-96869286D02*
X129881381Y-96250238D01*
X130262333Y-96583572D01*
X130262333Y-96440714D01*
X130309952Y-96345476D01*
X130357571Y-96297857D01*
X130452810Y-96250238D01*
X130690905Y-96250238D01*
X130786143Y-96297857D01*
X130833762Y-96345476D01*
X130881381Y-96440714D01*
X130881381Y-96726429D01*
X130833762Y-96821667D01*
X130786143Y-96869286D01*
X129881381Y-95631191D02*
X129881381Y-95535952D01*
X129929000Y-95440714D01*
X129976619Y-95393095D01*
X130071857Y-95345476D01*
X130262333Y-95297857D01*
X130500429Y-95297857D01*
X130690905Y-95345476D01*
X130786143Y-95393095D01*
X130833762Y-95440714D01*
X130881381Y-95535952D01*
X130881381Y-95631191D01*
X130833762Y-95726429D01*
X130786143Y-95774048D01*
X130690905Y-95821667D01*
X130500429Y-95869286D01*
X130262333Y-95869286D01*
X130071857Y-95821667D01*
X129976619Y-95774048D01*
X129929000Y-95726429D01*
X129881381Y-95631191D01*
X129881381Y-94678810D02*
X129881381Y-94583571D01*
X129929000Y-94488333D01*
X129976619Y-94440714D01*
X130071857Y-94393095D01*
X130262333Y-94345476D01*
X130500429Y-94345476D01*
X130690905Y-94393095D01*
X130786143Y-94440714D01*
X130833762Y-94488333D01*
X130881381Y-94583571D01*
X130881381Y-94678810D01*
X130833762Y-94774048D01*
X130786143Y-94821667D01*
X130690905Y-94869286D01*
X130500429Y-94916905D01*
X130262333Y-94916905D01*
X130071857Y-94869286D01*
X129976619Y-94821667D01*
X129929000Y-94774048D01*
X129881381Y-94678810D01*
X130309952Y-93774048D02*
X130262333Y-93869286D01*
X130214714Y-93916905D01*
X130119476Y-93964524D01*
X130071857Y-93964524D01*
X129976619Y-93916905D01*
X129929000Y-93869286D01*
X129881381Y-93774048D01*
X129881381Y-93583571D01*
X129929000Y-93488333D01*
X129976619Y-93440714D01*
X130071857Y-93393095D01*
X130119476Y-93393095D01*
X130214714Y-93440714D01*
X130262333Y-93488333D01*
X130309952Y-93583571D01*
X130309952Y-93774048D01*
X130357571Y-93869286D01*
X130405190Y-93916905D01*
X130500429Y-93964524D01*
X130690905Y-93964524D01*
X130786143Y-93916905D01*
X130833762Y-93869286D01*
X130881381Y-93774048D01*
X130881381Y-93583571D01*
X130833762Y-93488333D01*
X130786143Y-93440714D01*
X130690905Y-93393095D01*
X130500429Y-93393095D01*
X130405190Y-93440714D01*
X130357571Y-93488333D01*
X130309952Y-93583571D01*
X130516334Y-112244143D02*
X130468715Y-112291762D01*
X130325858Y-112339381D01*
X130230620Y-112339381D01*
X130087762Y-112291762D01*
X129992524Y-112196524D01*
X129944905Y-112101286D01*
X129897286Y-111910810D01*
X129897286Y-111767952D01*
X129944905Y-111577476D01*
X129992524Y-111482238D01*
X130087762Y-111387000D01*
X130230620Y-111339381D01*
X130325858Y-111339381D01*
X130468715Y-111387000D01*
X130516334Y-111434619D01*
X131468715Y-112339381D02*
X130897286Y-112339381D01*
X131183000Y-112339381D02*
X131183000Y-111339381D01*
X131087762Y-111482238D01*
X130992524Y-111577476D01*
X130897286Y-111625095D01*
X125718143Y-112437381D02*
X125813382Y-112437381D01*
X125908620Y-112485000D01*
X125956239Y-112532619D01*
X126003858Y-112627857D01*
X126051477Y-112818333D01*
X126051477Y-113056429D01*
X126003858Y-113246905D01*
X125956239Y-113342143D01*
X125908620Y-113389762D01*
X125813382Y-113437381D01*
X125718143Y-113437381D01*
X125622905Y-113389762D01*
X125575286Y-113342143D01*
X125527667Y-113246905D01*
X125480048Y-113056429D01*
X125480048Y-112818333D01*
X125527667Y-112627857D01*
X125575286Y-112532619D01*
X125622905Y-112485000D01*
X125718143Y-112437381D01*
X126480048Y-113342143D02*
X126527667Y-113389762D01*
X126480048Y-113437381D01*
X126432429Y-113389762D01*
X126480048Y-113342143D01*
X126480048Y-113437381D01*
X127480048Y-113437381D02*
X126908619Y-113437381D01*
X127194333Y-113437381D02*
X127194333Y-112437381D01*
X127099095Y-112580238D01*
X127003857Y-112675476D01*
X126908619Y-112723095D01*
X128337191Y-112770714D02*
X128337191Y-113437381D01*
X127908619Y-112770714D02*
X127908619Y-113294524D01*
X127956238Y-113389762D01*
X128051476Y-113437381D01*
X128194334Y-113437381D01*
X128289572Y-113389762D01*
X128337191Y-113342143D01*
X129146715Y-112913571D02*
X128813381Y-112913571D01*
X128813381Y-113437381D02*
X128813381Y-112437381D01*
X129289572Y-112437381D01*
X120483334Y-108053143D02*
X120435715Y-108100762D01*
X120292858Y-108148381D01*
X120197620Y-108148381D01*
X120054762Y-108100762D01*
X119959524Y-108005524D01*
X119911905Y-107910286D01*
X119864286Y-107719810D01*
X119864286Y-107576952D01*
X119911905Y-107386476D01*
X119959524Y-107291238D01*
X120054762Y-107196000D01*
X120197620Y-107148381D01*
X120292858Y-107148381D01*
X120435715Y-107196000D01*
X120483334Y-107243619D01*
X120864286Y-107243619D02*
X120911905Y-107196000D01*
X121007143Y-107148381D01*
X121245239Y-107148381D01*
X121340477Y-107196000D01*
X121388096Y-107243619D01*
X121435715Y-107338857D01*
X121435715Y-107434095D01*
X121388096Y-107576952D01*
X120816667Y-108148381D01*
X121435715Y-108148381D01*
X115725143Y-105542381D02*
X115820382Y-105542381D01*
X115915620Y-105590000D01*
X115963239Y-105637619D01*
X116010858Y-105732857D01*
X116058477Y-105923333D01*
X116058477Y-106161429D01*
X116010858Y-106351905D01*
X115963239Y-106447143D01*
X115915620Y-106494762D01*
X115820382Y-106542381D01*
X115725143Y-106542381D01*
X115629905Y-106494762D01*
X115582286Y-106447143D01*
X115534667Y-106351905D01*
X115487048Y-106161429D01*
X115487048Y-105923333D01*
X115534667Y-105732857D01*
X115582286Y-105637619D01*
X115629905Y-105590000D01*
X115725143Y-105542381D01*
X116487048Y-106447143D02*
X116534667Y-106494762D01*
X116487048Y-106542381D01*
X116439429Y-106494762D01*
X116487048Y-106447143D01*
X116487048Y-106542381D01*
X117487048Y-106542381D02*
X116915619Y-106542381D01*
X117201333Y-106542381D02*
X117201333Y-105542381D01*
X117106095Y-105685238D01*
X117010857Y-105780476D01*
X116915619Y-105828095D01*
X118344191Y-105875714D02*
X118344191Y-106542381D01*
X117915619Y-105875714D02*
X117915619Y-106399524D01*
X117963238Y-106494762D01*
X118058476Y-106542381D01*
X118201334Y-106542381D01*
X118296572Y-106494762D01*
X118344191Y-106447143D01*
X119153715Y-106018571D02*
X118820381Y-106018571D01*
X118820381Y-106542381D02*
X118820381Y-105542381D01*
X119296572Y-105542381D01*
X163897334Y-83079143D02*
X163849715Y-83126762D01*
X163706858Y-83174381D01*
X163611620Y-83174381D01*
X163468762Y-83126762D01*
X163373524Y-83031524D01*
X163325905Y-82936286D01*
X163278286Y-82745810D01*
X163278286Y-82602952D01*
X163325905Y-82412476D01*
X163373524Y-82317238D01*
X163468762Y-82222000D01*
X163611620Y-82174381D01*
X163706858Y-82174381D01*
X163849715Y-82222000D01*
X163897334Y-82269619D01*
X164230667Y-82174381D02*
X164849715Y-82174381D01*
X164516381Y-82555333D01*
X164659239Y-82555333D01*
X164754477Y-82602952D01*
X164802096Y-82650571D01*
X164849715Y-82745810D01*
X164849715Y-82983905D01*
X164802096Y-83079143D01*
X164754477Y-83126762D01*
X164659239Y-83174381D01*
X164373524Y-83174381D01*
X164278286Y-83126762D01*
X164230667Y-83079143D01*
X166759143Y-84161381D02*
X166854382Y-84161381D01*
X166949620Y-84209000D01*
X166997239Y-84256619D01*
X167044858Y-84351857D01*
X167092477Y-84542333D01*
X167092477Y-84780429D01*
X167044858Y-84970905D01*
X166997239Y-85066143D01*
X166949620Y-85113762D01*
X166854382Y-85161381D01*
X166759143Y-85161381D01*
X166663905Y-85113762D01*
X166616286Y-85066143D01*
X166568667Y-84970905D01*
X166521048Y-84780429D01*
X166521048Y-84542333D01*
X166568667Y-84351857D01*
X166616286Y-84256619D01*
X166663905Y-84209000D01*
X166759143Y-84161381D01*
X167521048Y-85066143D02*
X167568667Y-85113762D01*
X167521048Y-85161381D01*
X167473429Y-85113762D01*
X167521048Y-85066143D01*
X167521048Y-85161381D01*
X168521048Y-85161381D02*
X167949619Y-85161381D01*
X168235333Y-85161381D02*
X168235333Y-84161381D01*
X168140095Y-84304238D01*
X168044857Y-84399476D01*
X167949619Y-84447095D01*
X169378191Y-84494714D02*
X169378191Y-85161381D01*
X168949619Y-84494714D02*
X168949619Y-85018524D01*
X168997238Y-85113762D01*
X169092476Y-85161381D01*
X169235334Y-85161381D01*
X169330572Y-85113762D01*
X169378191Y-85066143D01*
X170187715Y-84637571D02*
X169854381Y-84637571D01*
X169854381Y-85161381D02*
X169854381Y-84161381D01*
X170330572Y-84161381D01*
X149566334Y-83288143D02*
X149518715Y-83335762D01*
X149375858Y-83383381D01*
X149280620Y-83383381D01*
X149137762Y-83335762D01*
X149042524Y-83240524D01*
X148994905Y-83145286D01*
X148947286Y-82954810D01*
X148947286Y-82811952D01*
X148994905Y-82621476D01*
X149042524Y-82526238D01*
X149137762Y-82431000D01*
X149280620Y-82383381D01*
X149375858Y-82383381D01*
X149518715Y-82431000D01*
X149566334Y-82478619D01*
X150423477Y-82716714D02*
X150423477Y-83383381D01*
X150185381Y-82335762D02*
X149947286Y-83050048D01*
X150566334Y-83050048D01*
X151045381Y-87514857D02*
X151045381Y-87419618D01*
X151093000Y-87324380D01*
X151140619Y-87276761D01*
X151235857Y-87229142D01*
X151426333Y-87181523D01*
X151664429Y-87181523D01*
X151854905Y-87229142D01*
X151950143Y-87276761D01*
X151997762Y-87324380D01*
X152045381Y-87419618D01*
X152045381Y-87514857D01*
X151997762Y-87610095D01*
X151950143Y-87657714D01*
X151854905Y-87705333D01*
X151664429Y-87752952D01*
X151426333Y-87752952D01*
X151235857Y-87705333D01*
X151140619Y-87657714D01*
X151093000Y-87610095D01*
X151045381Y-87514857D01*
X151950143Y-86752952D02*
X151997762Y-86705333D01*
X152045381Y-86752952D01*
X151997762Y-86800571D01*
X151950143Y-86752952D01*
X152045381Y-86752952D01*
X152045381Y-85752952D02*
X152045381Y-86324381D01*
X152045381Y-86038667D02*
X151045381Y-86038667D01*
X151188238Y-86133905D01*
X151283476Y-86229143D01*
X151331095Y-86324381D01*
X151378714Y-84895809D02*
X152045381Y-84895809D01*
X151378714Y-85324381D02*
X151902524Y-85324381D01*
X151997762Y-85276762D01*
X152045381Y-85181524D01*
X152045381Y-85038666D01*
X151997762Y-84943428D01*
X151950143Y-84895809D01*
X151521571Y-84086285D02*
X151521571Y-84419619D01*
X152045381Y-84419619D02*
X151045381Y-84419619D01*
X151045381Y-83943428D01*
X195556143Y-42076666D02*
X195603762Y-42124285D01*
X195651381Y-42267142D01*
X195651381Y-42362380D01*
X195603762Y-42505238D01*
X195508524Y-42600476D01*
X195413286Y-42648095D01*
X195222810Y-42695714D01*
X195079952Y-42695714D01*
X194889476Y-42648095D01*
X194794238Y-42600476D01*
X194699000Y-42505238D01*
X194651381Y-42362380D01*
X194651381Y-42267142D01*
X194699000Y-42124285D01*
X194746619Y-42076666D01*
X194651381Y-41171904D02*
X194651381Y-41648095D01*
X195127571Y-41695714D01*
X195079952Y-41648095D01*
X195032333Y-41552857D01*
X195032333Y-41314761D01*
X195079952Y-41219523D01*
X195127571Y-41171904D01*
X195222810Y-41124285D01*
X195460905Y-41124285D01*
X195556143Y-41171904D01*
X195603762Y-41219523D01*
X195651381Y-41314761D01*
X195651381Y-41552857D01*
X195603762Y-41648095D01*
X195556143Y-41695714D01*
X194651381Y-46981857D02*
X194651381Y-46886618D01*
X194699000Y-46791380D01*
X194746619Y-46743761D01*
X194841857Y-46696142D01*
X195032333Y-46648523D01*
X195270429Y-46648523D01*
X195460905Y-46696142D01*
X195556143Y-46743761D01*
X195603762Y-46791380D01*
X195651381Y-46886618D01*
X195651381Y-46981857D01*
X195603762Y-47077095D01*
X195556143Y-47124714D01*
X195460905Y-47172333D01*
X195270429Y-47219952D01*
X195032333Y-47219952D01*
X194841857Y-47172333D01*
X194746619Y-47124714D01*
X194699000Y-47077095D01*
X194651381Y-46981857D01*
X195556143Y-46219952D02*
X195603762Y-46172333D01*
X195651381Y-46219952D01*
X195603762Y-46267571D01*
X195556143Y-46219952D01*
X195651381Y-46219952D01*
X195651381Y-45219952D02*
X195651381Y-45791381D01*
X195651381Y-45505667D02*
X194651381Y-45505667D01*
X194794238Y-45600905D01*
X194889476Y-45696143D01*
X194937095Y-45791381D01*
X194984714Y-44362809D02*
X195651381Y-44362809D01*
X194984714Y-44791381D02*
X195508524Y-44791381D01*
X195603762Y-44743762D01*
X195651381Y-44648524D01*
X195651381Y-44505666D01*
X195603762Y-44410428D01*
X195556143Y-44362809D01*
X195127571Y-43553285D02*
X195127571Y-43886619D01*
X195651381Y-43886619D02*
X194651381Y-43886619D01*
X194651381Y-43410428D01*
X133818334Y-125706143D02*
X133770715Y-125753762D01*
X133627858Y-125801381D01*
X133532620Y-125801381D01*
X133389762Y-125753762D01*
X133294524Y-125658524D01*
X133246905Y-125563286D01*
X133199286Y-125372810D01*
X133199286Y-125229952D01*
X133246905Y-125039476D01*
X133294524Y-124944238D01*
X133389762Y-124849000D01*
X133532620Y-124801381D01*
X133627858Y-124801381D01*
X133770715Y-124849000D01*
X133818334Y-124896619D01*
X134675477Y-124801381D02*
X134485000Y-124801381D01*
X134389762Y-124849000D01*
X134342143Y-124896619D01*
X134246905Y-125039476D01*
X134199286Y-125229952D01*
X134199286Y-125610905D01*
X134246905Y-125706143D01*
X134294524Y-125753762D01*
X134389762Y-125801381D01*
X134580239Y-125801381D01*
X134675477Y-125753762D01*
X134723096Y-125706143D01*
X134770715Y-125610905D01*
X134770715Y-125372810D01*
X134723096Y-125277571D01*
X134675477Y-125229952D01*
X134580239Y-125182333D01*
X134389762Y-125182333D01*
X134294524Y-125229952D01*
X134246905Y-125277571D01*
X134199286Y-125372810D01*
X128933143Y-123068381D02*
X129028382Y-123068381D01*
X129123620Y-123116000D01*
X129171239Y-123163619D01*
X129218858Y-123258857D01*
X129266477Y-123449333D01*
X129266477Y-123687429D01*
X129218858Y-123877905D01*
X129171239Y-123973143D01*
X129123620Y-124020762D01*
X129028382Y-124068381D01*
X128933143Y-124068381D01*
X128837905Y-124020762D01*
X128790286Y-123973143D01*
X128742667Y-123877905D01*
X128695048Y-123687429D01*
X128695048Y-123449333D01*
X128742667Y-123258857D01*
X128790286Y-123163619D01*
X128837905Y-123116000D01*
X128933143Y-123068381D01*
X129695048Y-123973143D02*
X129742667Y-124020762D01*
X129695048Y-124068381D01*
X129647429Y-124020762D01*
X129695048Y-123973143D01*
X129695048Y-124068381D01*
X130695048Y-124068381D02*
X130123619Y-124068381D01*
X130409333Y-124068381D02*
X130409333Y-123068381D01*
X130314095Y-123211238D01*
X130218857Y-123306476D01*
X130123619Y-123354095D01*
X131552191Y-123401714D02*
X131552191Y-124068381D01*
X131123619Y-123401714D02*
X131123619Y-123925524D01*
X131171238Y-124020762D01*
X131266476Y-124068381D01*
X131409334Y-124068381D01*
X131504572Y-124020762D01*
X131552191Y-123973143D01*
X132361715Y-123544571D02*
X132028381Y-123544571D01*
X132028381Y-124068381D02*
X132028381Y-123068381D01*
X132504572Y-123068381D01*
X180617905Y-78811381D02*
X180617905Y-77811381D01*
X180856000Y-77811381D01*
X180998858Y-77859000D01*
X181094096Y-77954238D01*
X181141715Y-78049476D01*
X181189334Y-78239952D01*
X181189334Y-78382810D01*
X181141715Y-78573286D01*
X181094096Y-78668524D01*
X180998858Y-78763762D01*
X180856000Y-78811381D01*
X180617905Y-78811381D01*
X182141715Y-78811381D02*
X181570286Y-78811381D01*
X181856000Y-78811381D02*
X181856000Y-77811381D01*
X181760762Y-77954238D01*
X181665524Y-78049476D01*
X181570286Y-78097095D01*
X184935905Y-78811381D02*
X184935905Y-77811381D01*
X185174000Y-77811381D01*
X185316858Y-77859000D01*
X185412096Y-77954238D01*
X185459715Y-78049476D01*
X185507334Y-78239952D01*
X185507334Y-78382810D01*
X185459715Y-78573286D01*
X185412096Y-78668524D01*
X185316858Y-78763762D01*
X185174000Y-78811381D01*
X184935905Y-78811381D01*
X185888286Y-77906619D02*
X185935905Y-77859000D01*
X186031143Y-77811381D01*
X186269239Y-77811381D01*
X186364477Y-77859000D01*
X186412096Y-77906619D01*
X186459715Y-78001857D01*
X186459715Y-78097095D01*
X186412096Y-78239952D01*
X185840667Y-78811381D01*
X186459715Y-78811381D01*
X189253905Y-78938381D02*
X189253905Y-77938381D01*
X189492000Y-77938381D01*
X189634858Y-77986000D01*
X189730096Y-78081238D01*
X189777715Y-78176476D01*
X189825334Y-78366952D01*
X189825334Y-78509810D01*
X189777715Y-78700286D01*
X189730096Y-78795524D01*
X189634858Y-78890762D01*
X189492000Y-78938381D01*
X189253905Y-78938381D01*
X190158667Y-77938381D02*
X190777715Y-77938381D01*
X190444381Y-78319333D01*
X190587239Y-78319333D01*
X190682477Y-78366952D01*
X190730096Y-78414571D01*
X190777715Y-78509810D01*
X190777715Y-78747905D01*
X190730096Y-78843143D01*
X190682477Y-78890762D01*
X190587239Y-78938381D01*
X190301524Y-78938381D01*
X190206286Y-78890762D01*
X190158667Y-78843143D01*
X114450905Y-104465381D02*
X114450905Y-103465381D01*
X114689000Y-103465381D01*
X114831858Y-103513000D01*
X114927096Y-103608238D01*
X114974715Y-103703476D01*
X115022334Y-103893952D01*
X115022334Y-104036810D01*
X114974715Y-104227286D01*
X114927096Y-104322524D01*
X114831858Y-104417762D01*
X114689000Y-104465381D01*
X114450905Y-104465381D01*
X115879477Y-103798714D02*
X115879477Y-104465381D01*
X115641381Y-103417762D02*
X115403286Y-104132048D01*
X116022334Y-104132048D01*
D16*
X118030667Y-124039381D02*
X118030667Y-124753667D01*
X117983047Y-124896524D01*
X117887809Y-124991762D01*
X117744952Y-125039381D01*
X117649714Y-125039381D01*
X119030667Y-125039381D02*
X118459238Y-125039381D01*
X118744952Y-125039381D02*
X118744952Y-124039381D01*
X118649714Y-124182238D01*
X118554476Y-124277476D01*
X118459238Y-124325095D01*
D12*
X187253667Y-132398381D02*
X187253667Y-133112667D01*
X187206047Y-133255524D01*
X187110809Y-133350762D01*
X186967952Y-133398381D01*
X186872714Y-133398381D01*
X187729857Y-133398381D02*
X187729857Y-132398381D01*
X188110810Y-132398381D01*
X188206048Y-132446000D01*
X188253667Y-132493619D01*
X188301286Y-132588857D01*
X188301286Y-132731714D01*
X188253667Y-132826952D01*
X188206048Y-132874571D01*
X188110810Y-132922190D01*
X187729857Y-132922190D01*
X189253667Y-133398381D02*
X188682238Y-133398381D01*
X188967952Y-133398381D02*
X188967952Y-132398381D01*
X188872714Y-132541238D01*
X188777476Y-132636476D01*
X188682238Y-132684095D01*
X180141667Y-132398381D02*
X180141667Y-133112667D01*
X180094047Y-133255524D01*
X179998809Y-133350762D01*
X179855952Y-133398381D01*
X179760714Y-133398381D01*
X180617857Y-133398381D02*
X180617857Y-132398381D01*
X180998810Y-132398381D01*
X181094048Y-132446000D01*
X181141667Y-132493619D01*
X181189286Y-132588857D01*
X181189286Y-132731714D01*
X181141667Y-132826952D01*
X181094048Y-132874571D01*
X180998810Y-132922190D01*
X180617857Y-132922190D01*
X181570238Y-132493619D02*
X181617857Y-132446000D01*
X181713095Y-132398381D01*
X181951191Y-132398381D01*
X182046429Y-132446000D01*
X182094048Y-132493619D01*
X182141667Y-132588857D01*
X182141667Y-132684095D01*
X182094048Y-132826952D01*
X181522619Y-133398381D01*
X182141667Y-133398381D01*
X190555667Y-132398381D02*
X190555667Y-133112667D01*
X190508047Y-133255524D01*
X190412809Y-133350762D01*
X190269952Y-133398381D01*
X190174714Y-133398381D01*
X191031857Y-133398381D02*
X191031857Y-132398381D01*
X191412810Y-132398381D01*
X191508048Y-132446000D01*
X191555667Y-132493619D01*
X191603286Y-132588857D01*
X191603286Y-132731714D01*
X191555667Y-132826952D01*
X191508048Y-132874571D01*
X191412810Y-132922190D01*
X191031857Y-132922190D01*
X191936619Y-132398381D02*
X192555667Y-132398381D01*
X192222333Y-132779333D01*
X192365191Y-132779333D01*
X192460429Y-132826952D01*
X192508048Y-132874571D01*
X192555667Y-132969810D01*
X192555667Y-133207905D01*
X192508048Y-133303143D01*
X192460429Y-133350762D01*
X192365191Y-133398381D01*
X192079476Y-133398381D01*
X191984238Y-133350762D01*
X191936619Y-133303143D01*
X183443667Y-132398381D02*
X183443667Y-133112667D01*
X183396047Y-133255524D01*
X183300809Y-133350762D01*
X183157952Y-133398381D01*
X183062714Y-133398381D01*
X183919857Y-133398381D02*
X183919857Y-132398381D01*
X184300810Y-132398381D01*
X184396048Y-132446000D01*
X184443667Y-132493619D01*
X184491286Y-132588857D01*
X184491286Y-132731714D01*
X184443667Y-132826952D01*
X184396048Y-132874571D01*
X184300810Y-132922190D01*
X183919857Y-132922190D01*
X185348429Y-132731714D02*
X185348429Y-133398381D01*
X185110333Y-132350762D02*
X184872238Y-133065048D01*
X185491286Y-133065048D01*
X172902667Y-132398381D02*
X172902667Y-133112667D01*
X172855047Y-133255524D01*
X172759809Y-133350762D01*
X172616952Y-133398381D01*
X172521714Y-133398381D01*
X173378857Y-133398381D02*
X173378857Y-132398381D01*
X173759810Y-132398381D01*
X173855048Y-132446000D01*
X173902667Y-132493619D01*
X173950286Y-132588857D01*
X173950286Y-132731714D01*
X173902667Y-132826952D01*
X173855048Y-132874571D01*
X173759810Y-132922190D01*
X173378857Y-132922190D01*
X174855048Y-132398381D02*
X174378857Y-132398381D01*
X174331238Y-132874571D01*
X174378857Y-132826952D01*
X174474095Y-132779333D01*
X174712191Y-132779333D01*
X174807429Y-132826952D01*
X174855048Y-132874571D01*
X174902667Y-132969810D01*
X174902667Y-133207905D01*
X174855048Y-133303143D01*
X174807429Y-133350762D01*
X174712191Y-133398381D01*
X174474095Y-133398381D01*
X174378857Y-133350762D01*
X174331238Y-133303143D01*
X176204667Y-132398381D02*
X176204667Y-133112667D01*
X176157047Y-133255524D01*
X176061809Y-133350762D01*
X175918952Y-133398381D01*
X175823714Y-133398381D01*
X176680857Y-133398381D02*
X176680857Y-132398381D01*
X177061810Y-132398381D01*
X177157048Y-132446000D01*
X177204667Y-132493619D01*
X177252286Y-132588857D01*
X177252286Y-132731714D01*
X177204667Y-132826952D01*
X177157048Y-132874571D01*
X177061810Y-132922190D01*
X176680857Y-132922190D01*
X178109429Y-132398381D02*
X177918952Y-132398381D01*
X177823714Y-132446000D01*
X177776095Y-132493619D01*
X177680857Y-132636476D01*
X177633238Y-132826952D01*
X177633238Y-133207905D01*
X177680857Y-133303143D01*
X177728476Y-133350762D01*
X177823714Y-133398381D01*
X178014191Y-133398381D01*
X178109429Y-133350762D01*
X178157048Y-133303143D01*
X178204667Y-133207905D01*
X178204667Y-132969810D01*
X178157048Y-132874571D01*
X178109429Y-132826952D01*
X178014191Y-132779333D01*
X177823714Y-132779333D01*
X177728476Y-132826952D01*
X177680857Y-132874571D01*
X177633238Y-132969810D01*
X137231381Y-131929095D02*
X136231381Y-131929095D01*
X136231381Y-131548142D01*
X136279000Y-131452904D01*
X136326619Y-131405285D01*
X136421857Y-131357666D01*
X136564714Y-131357666D01*
X136659952Y-131405285D01*
X136707571Y-131452904D01*
X136755190Y-131548142D01*
X136755190Y-131929095D01*
X137231381Y-130405285D02*
X137231381Y-130976714D01*
X137231381Y-130691000D02*
X136231381Y-130691000D01*
X136374238Y-130786238D01*
X136469476Y-130881476D01*
X136517095Y-130976714D01*
X176426905Y-123134381D02*
X176426905Y-122134381D01*
X176807858Y-122134381D01*
X176903096Y-122182000D01*
X176950715Y-122229619D01*
X176998334Y-122324857D01*
X176998334Y-122467714D01*
X176950715Y-122562952D01*
X176903096Y-122610571D01*
X176807858Y-122658190D01*
X176426905Y-122658190D01*
X177331667Y-122134381D02*
X177950715Y-122134381D01*
X177617381Y-122515333D01*
X177760239Y-122515333D01*
X177855477Y-122562952D01*
X177903096Y-122610571D01*
X177950715Y-122705810D01*
X177950715Y-122943905D01*
X177903096Y-123039143D01*
X177855477Y-123086762D01*
X177760239Y-123134381D01*
X177474524Y-123134381D01*
X177379286Y-123086762D01*
X177331667Y-123039143D01*
X126388905Y-74874381D02*
X126388905Y-73874381D01*
X126769858Y-73874381D01*
X126865096Y-73922000D01*
X126912715Y-73969619D01*
X126960334Y-74064857D01*
X126960334Y-74207714D01*
X126912715Y-74302952D01*
X126865096Y-74350571D01*
X126769858Y-74398190D01*
X126388905Y-74398190D01*
X127817477Y-74207714D02*
X127817477Y-74874381D01*
X127579381Y-73826762D02*
X127341286Y-74541048D01*
X127960334Y-74541048D01*
X176426905Y-74874381D02*
X176426905Y-73874381D01*
X176807858Y-73874381D01*
X176903096Y-73922000D01*
X176950715Y-73969619D01*
X176998334Y-74064857D01*
X176998334Y-74207714D01*
X176950715Y-74302952D01*
X176903096Y-74350571D01*
X176807858Y-74398190D01*
X176426905Y-74398190D01*
X177903096Y-73874381D02*
X177426905Y-73874381D01*
X177379286Y-74350571D01*
X177426905Y-74302952D01*
X177522143Y-74255333D01*
X177760239Y-74255333D01*
X177855477Y-74302952D01*
X177903096Y-74350571D01*
X177950715Y-74445810D01*
X177950715Y-74683905D01*
X177903096Y-74779143D01*
X177855477Y-74826762D01*
X177760239Y-74874381D01*
X177522143Y-74874381D01*
X177426905Y-74826762D01*
X177379286Y-74779143D01*
X113950762Y-84788619D02*
X113855524Y-84741000D01*
X113760286Y-84645762D01*
X113617429Y-84502905D01*
X113522190Y-84455286D01*
X113426952Y-84455286D01*
X113474571Y-84693381D02*
X113379333Y-84645762D01*
X113284095Y-84550524D01*
X113236476Y-84360048D01*
X113236476Y-84026714D01*
X113284095Y-83836238D01*
X113379333Y-83741000D01*
X113474571Y-83693381D01*
X113665048Y-83693381D01*
X113760286Y-83741000D01*
X113855524Y-83836238D01*
X113903143Y-84026714D01*
X113903143Y-84360048D01*
X113855524Y-84550524D01*
X113760286Y-84645762D01*
X113665048Y-84693381D01*
X113474571Y-84693381D01*
X114855524Y-84693381D02*
X114284095Y-84693381D01*
X114569809Y-84693381D02*
X114569809Y-83693381D01*
X114474571Y-83836238D01*
X114379333Y-83931476D01*
X114284095Y-83979095D01*
X125007762Y-80335381D02*
X124674428Y-79859190D01*
X124436333Y-80335381D02*
X124436333Y-79335381D01*
X124817286Y-79335381D01*
X124912524Y-79383000D01*
X124960143Y-79430619D01*
X125007762Y-79525857D01*
X125007762Y-79668714D01*
X124960143Y-79763952D01*
X124912524Y-79811571D01*
X124817286Y-79859190D01*
X124436333Y-79859190D01*
X125293476Y-79335381D02*
X125626809Y-80335381D01*
X125960143Y-79335381D01*
X126817286Y-80335381D02*
X126245857Y-80335381D01*
X126531571Y-80335381D02*
X126531571Y-79335381D01*
X126436333Y-79478238D01*
X126341095Y-79573476D01*
X126245857Y-79621095D01*
X123610762Y-81732381D02*
X123039333Y-81732381D01*
X123325047Y-81732381D02*
X123325047Y-80732381D01*
X123229809Y-80875238D01*
X123134571Y-80970476D01*
X123039333Y-81018095D01*
X124229809Y-80732381D02*
X124325048Y-80732381D01*
X124420286Y-80780000D01*
X124467905Y-80827619D01*
X124515524Y-80922857D01*
X124563143Y-81113333D01*
X124563143Y-81351429D01*
X124515524Y-81541905D01*
X124467905Y-81637143D01*
X124420286Y-81684762D01*
X124325048Y-81732381D01*
X124229809Y-81732381D01*
X124134571Y-81684762D01*
X124086952Y-81637143D01*
X124039333Y-81541905D01*
X123991714Y-81351429D01*
X123991714Y-81113333D01*
X124039333Y-80922857D01*
X124086952Y-80827619D01*
X124134571Y-80780000D01*
X124229809Y-80732381D01*
X124991714Y-81732381D02*
X124991714Y-80732381D01*
X125086952Y-81351429D02*
X125372667Y-81732381D01*
X125372667Y-81065714D02*
X124991714Y-81446667D01*
X181673667Y-83589762D02*
X181816524Y-83637381D01*
X182054620Y-83637381D01*
X182149858Y-83589762D01*
X182197477Y-83542143D01*
X182245096Y-83446905D01*
X182245096Y-83351667D01*
X182197477Y-83256429D01*
X182149858Y-83208810D01*
X182054620Y-83161190D01*
X181864143Y-83113571D01*
X181768905Y-83065952D01*
X181721286Y-83018333D01*
X181673667Y-82923095D01*
X181673667Y-82827857D01*
X181721286Y-82732619D01*
X181768905Y-82685000D01*
X181864143Y-82637381D01*
X182102239Y-82637381D01*
X182245096Y-82685000D01*
X182578429Y-82637381D02*
X182816524Y-83637381D01*
X183007001Y-82923095D01*
X183197477Y-83637381D01*
X183435572Y-82637381D01*
X184340334Y-83637381D02*
X183768905Y-83637381D01*
X184054619Y-83637381D02*
X184054619Y-82637381D01*
X183959381Y-82780238D01*
X183864143Y-82875476D01*
X183768905Y-82923095D01*
X184300762Y-100520333D02*
X184348381Y-100377476D01*
X184348381Y-100139380D01*
X184300762Y-100044142D01*
X184253143Y-99996523D01*
X184157905Y-99948904D01*
X184062667Y-99948904D01*
X183967429Y-99996523D01*
X183919810Y-100044142D01*
X183872190Y-100139380D01*
X183824571Y-100329857D01*
X183776952Y-100425095D01*
X183729333Y-100472714D01*
X183634095Y-100520333D01*
X183538857Y-100520333D01*
X183443619Y-100472714D01*
X183396000Y-100425095D01*
X183348381Y-100329857D01*
X183348381Y-100091761D01*
X183396000Y-99948904D01*
X183348381Y-99615571D02*
X184348381Y-99377476D01*
X183634095Y-99186999D01*
X184348381Y-98996523D01*
X183348381Y-98758428D01*
X183443619Y-98425095D02*
X183396000Y-98377476D01*
X183348381Y-98282238D01*
X183348381Y-98044142D01*
X183396000Y-97948904D01*
X183443619Y-97901285D01*
X183538857Y-97853666D01*
X183634095Y-97853666D01*
X183776952Y-97901285D01*
X184348381Y-98472714D01*
X184348381Y-97853666D01*
X193063762Y-100520333D02*
X193111381Y-100377476D01*
X193111381Y-100139380D01*
X193063762Y-100044142D01*
X193016143Y-99996523D01*
X192920905Y-99948904D01*
X192825667Y-99948904D01*
X192730429Y-99996523D01*
X192682810Y-100044142D01*
X192635190Y-100139380D01*
X192587571Y-100329857D01*
X192539952Y-100425095D01*
X192492333Y-100472714D01*
X192397095Y-100520333D01*
X192301857Y-100520333D01*
X192206619Y-100472714D01*
X192159000Y-100425095D01*
X192111381Y-100329857D01*
X192111381Y-100091761D01*
X192159000Y-99948904D01*
X192111381Y-99615571D02*
X193111381Y-99377476D01*
X192397095Y-99186999D01*
X193111381Y-98996523D01*
X192111381Y-98758428D01*
X192111381Y-98472714D02*
X192111381Y-97853666D01*
X192492333Y-98187000D01*
X192492333Y-98044142D01*
X192539952Y-97948904D01*
X192587571Y-97901285D01*
X192682810Y-97853666D01*
X192920905Y-97853666D01*
X193016143Y-97901285D01*
X193063762Y-97948904D01*
X193111381Y-98044142D01*
X193111381Y-98329857D01*
X193063762Y-98425095D01*
X193016143Y-98472714D01*
X186880667Y-101369762D02*
X187023524Y-101417381D01*
X187261620Y-101417381D01*
X187356858Y-101369762D01*
X187404477Y-101322143D01*
X187452096Y-101226905D01*
X187452096Y-101131667D01*
X187404477Y-101036429D01*
X187356858Y-100988810D01*
X187261620Y-100941190D01*
X187071143Y-100893571D01*
X186975905Y-100845952D01*
X186928286Y-100798333D01*
X186880667Y-100703095D01*
X186880667Y-100607857D01*
X186928286Y-100512619D01*
X186975905Y-100465000D01*
X187071143Y-100417381D01*
X187309239Y-100417381D01*
X187452096Y-100465000D01*
X187785429Y-100417381D02*
X188023524Y-101417381D01*
X188214001Y-100703095D01*
X188404477Y-101417381D01*
X188642572Y-100417381D01*
X189452096Y-100750714D02*
X189452096Y-101417381D01*
X189214000Y-100369762D02*
X188975905Y-101084048D01*
X189594953Y-101084048D01*
X186880667Y-111529762D02*
X187023524Y-111577381D01*
X187261620Y-111577381D01*
X187356858Y-111529762D01*
X187404477Y-111482143D01*
X187452096Y-111386905D01*
X187452096Y-111291667D01*
X187404477Y-111196429D01*
X187356858Y-111148810D01*
X187261620Y-111101190D01*
X187071143Y-111053571D01*
X186975905Y-111005952D01*
X186928286Y-110958333D01*
X186880667Y-110863095D01*
X186880667Y-110767857D01*
X186928286Y-110672619D01*
X186975905Y-110625000D01*
X187071143Y-110577381D01*
X187309239Y-110577381D01*
X187452096Y-110625000D01*
X187785429Y-110577381D02*
X188023524Y-111577381D01*
X188214001Y-110863095D01*
X188404477Y-111577381D01*
X188642572Y-110577381D01*
X189499715Y-110577381D02*
X189023524Y-110577381D01*
X188975905Y-111053571D01*
X189023524Y-111005952D01*
X189118762Y-110958333D01*
X189356858Y-110958333D01*
X189452096Y-111005952D01*
X189499715Y-111053571D01*
X189547334Y-111148810D01*
X189547334Y-111386905D01*
X189499715Y-111482143D01*
X189452096Y-111529762D01*
X189356858Y-111577381D01*
X189118762Y-111577381D01*
X189023524Y-111529762D01*
X188975905Y-111482143D01*
X114808095Y-125944381D02*
X114808095Y-126753905D01*
X114855714Y-126849143D01*
X114903333Y-126896762D01*
X114998571Y-126944381D01*
X115189048Y-126944381D01*
X115284286Y-126896762D01*
X115331905Y-126849143D01*
X115379524Y-126753905D01*
X115379524Y-125944381D01*
X116379524Y-126944381D02*
X115808095Y-126944381D01*
X116093809Y-126944381D02*
X116093809Y-125944381D01*
X115998571Y-126087238D01*
X115903333Y-126182476D01*
X115808095Y-126230095D01*
X158115095Y-84565381D02*
X158115095Y-85374905D01*
X158162714Y-85470143D01*
X158210333Y-85517762D01*
X158305571Y-85565381D01*
X158496048Y-85565381D01*
X158591286Y-85517762D01*
X158638905Y-85470143D01*
X158686524Y-85374905D01*
X158686524Y-84565381D01*
X159115095Y-84660619D02*
X159162714Y-84613000D01*
X159257952Y-84565381D01*
X159496048Y-84565381D01*
X159591286Y-84613000D01*
X159638905Y-84660619D01*
X159686524Y-84755857D01*
X159686524Y-84851095D01*
X159638905Y-84993952D01*
X159067476Y-85565381D01*
X159686524Y-85565381D01*
X159583381Y-101885286D02*
X158583381Y-101885286D01*
X159297667Y-101551952D01*
X158583381Y-101218619D01*
X159583381Y-101218619D01*
X159488143Y-100171000D02*
X159535762Y-100218619D01*
X159583381Y-100361476D01*
X159583381Y-100456714D01*
X159535762Y-100599572D01*
X159440524Y-100694810D01*
X159345286Y-100742429D01*
X159154810Y-100790048D01*
X159011952Y-100790048D01*
X158821476Y-100742429D01*
X158726238Y-100694810D01*
X158631000Y-100599572D01*
X158583381Y-100456714D01*
X158583381Y-100361476D01*
X158631000Y-100218619D01*
X158678619Y-100171000D01*
X159583381Y-99742429D02*
X158583381Y-99742429D01*
X158583381Y-99361476D01*
X158631000Y-99266238D01*
X158678619Y-99218619D01*
X158773857Y-99171000D01*
X158916714Y-99171000D01*
X159011952Y-99218619D01*
X159059571Y-99266238D01*
X159107190Y-99361476D01*
X159107190Y-99742429D01*
X158678619Y-98790048D02*
X158631000Y-98742429D01*
X158583381Y-98647191D01*
X158583381Y-98409095D01*
X158631000Y-98313857D01*
X158678619Y-98266238D01*
X158773857Y-98218619D01*
X158869095Y-98218619D01*
X159011952Y-98266238D01*
X159583381Y-98837667D01*
X159583381Y-98218619D01*
X158583381Y-97885286D02*
X158583381Y-97266238D01*
X158964333Y-97599572D01*
X158964333Y-97456714D01*
X159011952Y-97361476D01*
X159059571Y-97313857D01*
X159154810Y-97266238D01*
X159392905Y-97266238D01*
X159488143Y-97313857D01*
X159535762Y-97361476D01*
X159583381Y-97456714D01*
X159583381Y-97742429D01*
X159535762Y-97837667D01*
X159488143Y-97885286D01*
X158583381Y-96647191D02*
X158583381Y-96551952D01*
X158631000Y-96456714D01*
X158678619Y-96409095D01*
X158773857Y-96361476D01*
X158964333Y-96313857D01*
X159202429Y-96313857D01*
X159392905Y-96361476D01*
X159488143Y-96409095D01*
X159535762Y-96456714D01*
X159583381Y-96551952D01*
X159583381Y-96647191D01*
X159535762Y-96742429D01*
X159488143Y-96790048D01*
X159392905Y-96837667D01*
X159202429Y-96885286D01*
X158964333Y-96885286D01*
X158773857Y-96837667D01*
X158678619Y-96790048D01*
X158631000Y-96742429D01*
X158583381Y-96647191D01*
X158583381Y-95694810D02*
X158583381Y-95599571D01*
X158631000Y-95504333D01*
X158678619Y-95456714D01*
X158773857Y-95409095D01*
X158964333Y-95361476D01*
X159202429Y-95361476D01*
X159392905Y-95409095D01*
X159488143Y-95456714D01*
X159535762Y-95504333D01*
X159583381Y-95599571D01*
X159583381Y-95694810D01*
X159535762Y-95790048D01*
X159488143Y-95837667D01*
X159392905Y-95885286D01*
X159202429Y-95932905D01*
X158964333Y-95932905D01*
X158773857Y-95885286D01*
X158678619Y-95837667D01*
X158631000Y-95790048D01*
X158583381Y-95694810D01*
X159011952Y-94790048D02*
X158964333Y-94885286D01*
X158916714Y-94932905D01*
X158821476Y-94980524D01*
X158773857Y-94980524D01*
X158678619Y-94932905D01*
X158631000Y-94885286D01*
X158583381Y-94790048D01*
X158583381Y-94599571D01*
X158631000Y-94504333D01*
X158678619Y-94456714D01*
X158773857Y-94409095D01*
X158821476Y-94409095D01*
X158916714Y-94456714D01*
X158964333Y-94504333D01*
X159011952Y-94599571D01*
X159011952Y-94790048D01*
X159059571Y-94885286D01*
X159107190Y-94932905D01*
X159202429Y-94980524D01*
X159392905Y-94980524D01*
X159488143Y-94932905D01*
X159535762Y-94885286D01*
X159583381Y-94790048D01*
X159583381Y-94599571D01*
X159535762Y-94504333D01*
X159488143Y-94456714D01*
X159392905Y-94409095D01*
X159202429Y-94409095D01*
X159107190Y-94456714D01*
X159059571Y-94504333D01*
X159011952Y-94599571D01*
X135001095Y-85050381D02*
X135001095Y-85859905D01*
X135048714Y-85955143D01*
X135096333Y-86002762D01*
X135191571Y-86050381D01*
X135382048Y-86050381D01*
X135477286Y-86002762D01*
X135524905Y-85955143D01*
X135572524Y-85859905D01*
X135572524Y-85050381D01*
X136477286Y-85383714D02*
X136477286Y-86050381D01*
X136239190Y-85002762D02*
X136001095Y-85717048D01*
X136620143Y-85717048D01*
X138414571Y-86177381D02*
X138414571Y-85177381D01*
X138414571Y-85653571D02*
X138986000Y-85653571D01*
X138986000Y-86177381D02*
X138986000Y-85177381D01*
X139462190Y-85653571D02*
X139795524Y-85653571D01*
X139938381Y-86177381D02*
X139462190Y-86177381D01*
X139462190Y-85177381D01*
X139938381Y-85177381D01*
X140700286Y-85653571D02*
X140366952Y-85653571D01*
X140366952Y-86177381D02*
X140366952Y-85177381D01*
X140843143Y-85177381D01*
X141652667Y-85510714D02*
X141652667Y-86177381D01*
X141414571Y-85129762D02*
X141176476Y-85844048D01*
X141795524Y-85844048D01*
X142366952Y-85177381D02*
X142462191Y-85177381D01*
X142557429Y-85225000D01*
X142605048Y-85272619D01*
X142652667Y-85367857D01*
X142700286Y-85558333D01*
X142700286Y-85796429D01*
X142652667Y-85986905D01*
X142605048Y-86082143D01*
X142557429Y-86129762D01*
X142462191Y-86177381D01*
X142366952Y-86177381D01*
X142271714Y-86129762D01*
X142224095Y-86082143D01*
X142176476Y-85986905D01*
X142128857Y-85796429D01*
X142128857Y-85558333D01*
X142176476Y-85367857D01*
X142224095Y-85272619D01*
X142271714Y-85225000D01*
X142366952Y-85177381D01*
X143605048Y-85177381D02*
X143128857Y-85177381D01*
X143081238Y-85653571D01*
X143128857Y-85605952D01*
X143224095Y-85558333D01*
X143462191Y-85558333D01*
X143557429Y-85605952D01*
X143605048Y-85653571D01*
X143652667Y-85748810D01*
X143652667Y-85986905D01*
X143605048Y-86082143D01*
X143557429Y-86129762D01*
X143462191Y-86177381D01*
X143224095Y-86177381D01*
X143128857Y-86129762D01*
X143081238Y-86082143D01*
X144271714Y-85177381D02*
X144366953Y-85177381D01*
X144462191Y-85225000D01*
X144509810Y-85272619D01*
X144557429Y-85367857D01*
X144605048Y-85558333D01*
X144605048Y-85796429D01*
X144557429Y-85986905D01*
X144509810Y-86082143D01*
X144462191Y-86129762D01*
X144366953Y-86177381D01*
X144271714Y-86177381D01*
X144176476Y-86129762D01*
X144128857Y-86082143D01*
X144081238Y-85986905D01*
X144033619Y-85796429D01*
X144033619Y-85558333D01*
X144081238Y-85367857D01*
X144128857Y-85272619D01*
X144176476Y-85225000D01*
X144271714Y-85177381D01*
X145366953Y-85653571D02*
X145509810Y-85701190D01*
X145557429Y-85748810D01*
X145605048Y-85844048D01*
X145605048Y-85986905D01*
X145557429Y-86082143D01*
X145509810Y-86129762D01*
X145414572Y-86177381D01*
X145033619Y-86177381D01*
X145033619Y-85177381D01*
X145366953Y-85177381D01*
X145462191Y-85225000D01*
X145509810Y-85272619D01*
X145557429Y-85367857D01*
X145557429Y-85463095D01*
X145509810Y-85558333D01*
X145462191Y-85605952D01*
X145366953Y-85653571D01*
X145033619Y-85653571D01*
X138771334Y-97607381D02*
X138438000Y-97131190D01*
X138199905Y-97607381D02*
X138199905Y-96607381D01*
X138580858Y-96607381D01*
X138676096Y-96655000D01*
X138723715Y-96702619D01*
X138771334Y-96797857D01*
X138771334Y-96940714D01*
X138723715Y-97035952D01*
X138676096Y-97083571D01*
X138580858Y-97131190D01*
X138199905Y-97131190D01*
X139723715Y-97607381D02*
X139152286Y-97607381D01*
X139438000Y-97607381D02*
X139438000Y-96607381D01*
X139342762Y-96750238D01*
X139247524Y-96845476D01*
X139152286Y-96893095D01*
X144184762Y-97607381D02*
X143613333Y-97607381D01*
X143899047Y-97607381D02*
X143899047Y-96607381D01*
X143803809Y-96750238D01*
X143708571Y-96845476D01*
X143613333Y-96893095D01*
X144803809Y-96607381D02*
X144899048Y-96607381D01*
X144994286Y-96655000D01*
X145041905Y-96702619D01*
X145089524Y-96797857D01*
X145137143Y-96988333D01*
X145137143Y-97226429D01*
X145089524Y-97416905D01*
X145041905Y-97512143D01*
X144994286Y-97559762D01*
X144899048Y-97607381D01*
X144803809Y-97607381D01*
X144708571Y-97559762D01*
X144660952Y-97512143D01*
X144613333Y-97416905D01*
X144565714Y-97226429D01*
X144565714Y-96988333D01*
X144613333Y-96797857D01*
X144660952Y-96702619D01*
X144708571Y-96655000D01*
X144803809Y-96607381D01*
X145565714Y-97607381D02*
X145565714Y-96607381D01*
X145660952Y-97226429D02*
X145946667Y-97607381D01*
X145946667Y-96940714D02*
X145565714Y-97321667D01*
X138771334Y-102179381D02*
X138438000Y-101703190D01*
X138199905Y-102179381D02*
X138199905Y-101179381D01*
X138580858Y-101179381D01*
X138676096Y-101227000D01*
X138723715Y-101274619D01*
X138771334Y-101369857D01*
X138771334Y-101512714D01*
X138723715Y-101607952D01*
X138676096Y-101655571D01*
X138580858Y-101703190D01*
X138199905Y-101703190D01*
X139152286Y-101274619D02*
X139199905Y-101227000D01*
X139295143Y-101179381D01*
X139533239Y-101179381D01*
X139628477Y-101227000D01*
X139676096Y-101274619D01*
X139723715Y-101369857D01*
X139723715Y-101465095D01*
X139676096Y-101607952D01*
X139104667Y-102179381D01*
X139723715Y-102179381D01*
X144184762Y-102179381D02*
X143613333Y-102179381D01*
X143899047Y-102179381D02*
X143899047Y-101179381D01*
X143803809Y-101322238D01*
X143708571Y-101417476D01*
X143613333Y-101465095D01*
X144803809Y-101179381D02*
X144899048Y-101179381D01*
X144994286Y-101227000D01*
X145041905Y-101274619D01*
X145089524Y-101369857D01*
X145137143Y-101560333D01*
X145137143Y-101798429D01*
X145089524Y-101988905D01*
X145041905Y-102084143D01*
X144994286Y-102131762D01*
X144899048Y-102179381D01*
X144803809Y-102179381D01*
X144708571Y-102131762D01*
X144660952Y-102084143D01*
X144613333Y-101988905D01*
X144565714Y-101798429D01*
X144565714Y-101560333D01*
X144613333Y-101369857D01*
X144660952Y-101274619D01*
X144708571Y-101227000D01*
X144803809Y-101179381D01*
X145565714Y-102179381D02*
X145565714Y-101179381D01*
X145660952Y-101798429D02*
X145946667Y-102179381D01*
X145946667Y-101512714D02*
X145565714Y-101893667D01*
X138771334Y-95321381D02*
X138438000Y-94845190D01*
X138199905Y-95321381D02*
X138199905Y-94321381D01*
X138580858Y-94321381D01*
X138676096Y-94369000D01*
X138723715Y-94416619D01*
X138771334Y-94511857D01*
X138771334Y-94654714D01*
X138723715Y-94749952D01*
X138676096Y-94797571D01*
X138580858Y-94845190D01*
X138199905Y-94845190D01*
X139104667Y-94321381D02*
X139723715Y-94321381D01*
X139390381Y-94702333D01*
X139533239Y-94702333D01*
X139628477Y-94749952D01*
X139676096Y-94797571D01*
X139723715Y-94892810D01*
X139723715Y-95130905D01*
X139676096Y-95226143D01*
X139628477Y-95273762D01*
X139533239Y-95321381D01*
X139247524Y-95321381D01*
X139152286Y-95273762D01*
X139104667Y-95226143D01*
X144184762Y-95321381D02*
X143613333Y-95321381D01*
X143899047Y-95321381D02*
X143899047Y-94321381D01*
X143803809Y-94464238D01*
X143708571Y-94559476D01*
X143613333Y-94607095D01*
X144803809Y-94321381D02*
X144899048Y-94321381D01*
X144994286Y-94369000D01*
X145041905Y-94416619D01*
X145089524Y-94511857D01*
X145137143Y-94702333D01*
X145137143Y-94940429D01*
X145089524Y-95130905D01*
X145041905Y-95226143D01*
X144994286Y-95273762D01*
X144899048Y-95321381D01*
X144803809Y-95321381D01*
X144708571Y-95273762D01*
X144660952Y-95226143D01*
X144613333Y-95130905D01*
X144565714Y-94940429D01*
X144565714Y-94702333D01*
X144613333Y-94511857D01*
X144660952Y-94416619D01*
X144708571Y-94369000D01*
X144803809Y-94321381D01*
X145565714Y-95321381D02*
X145565714Y-94321381D01*
X145660952Y-94940429D02*
X145946667Y-95321381D01*
X145946667Y-94654714D02*
X145565714Y-95035667D01*
X138771334Y-99893381D02*
X138438000Y-99417190D01*
X138199905Y-99893381D02*
X138199905Y-98893381D01*
X138580858Y-98893381D01*
X138676096Y-98941000D01*
X138723715Y-98988619D01*
X138771334Y-99083857D01*
X138771334Y-99226714D01*
X138723715Y-99321952D01*
X138676096Y-99369571D01*
X138580858Y-99417190D01*
X138199905Y-99417190D01*
X139628477Y-99226714D02*
X139628477Y-99893381D01*
X139390381Y-98845762D02*
X139152286Y-99560048D01*
X139771334Y-99560048D01*
X144184762Y-99893381D02*
X143613333Y-99893381D01*
X143899047Y-99893381D02*
X143899047Y-98893381D01*
X143803809Y-99036238D01*
X143708571Y-99131476D01*
X143613333Y-99179095D01*
X144803809Y-98893381D02*
X144899048Y-98893381D01*
X144994286Y-98941000D01*
X145041905Y-98988619D01*
X145089524Y-99083857D01*
X145137143Y-99274333D01*
X145137143Y-99512429D01*
X145089524Y-99702905D01*
X145041905Y-99798143D01*
X144994286Y-99845762D01*
X144899048Y-99893381D01*
X144803809Y-99893381D01*
X144708571Y-99845762D01*
X144660952Y-99798143D01*
X144613333Y-99702905D01*
X144565714Y-99512429D01*
X144565714Y-99274333D01*
X144613333Y-99083857D01*
X144660952Y-98988619D01*
X144708571Y-98941000D01*
X144803809Y-98893381D01*
X145565714Y-99893381D02*
X145565714Y-98893381D01*
X145660952Y-99512429D02*
X145946667Y-99893381D01*
X145946667Y-99226714D02*
X145565714Y-99607667D01*
X118578334Y-95321381D02*
X118245000Y-94845190D01*
X118006905Y-95321381D02*
X118006905Y-94321381D01*
X118387858Y-94321381D01*
X118483096Y-94369000D01*
X118530715Y-94416619D01*
X118578334Y-94511857D01*
X118578334Y-94654714D01*
X118530715Y-94749952D01*
X118483096Y-94797571D01*
X118387858Y-94845190D01*
X118006905Y-94845190D01*
X118911667Y-94321381D02*
X119578334Y-94321381D01*
X119149762Y-95321381D01*
X119197381Y-100925238D02*
X119197381Y-101496667D01*
X119197381Y-101210953D02*
X118197381Y-101210953D01*
X118340238Y-101306191D01*
X118435476Y-101401429D01*
X118483095Y-101496667D01*
X118197381Y-100306191D02*
X118197381Y-100210952D01*
X118245000Y-100115714D01*
X118292619Y-100068095D01*
X118387857Y-100020476D01*
X118578333Y-99972857D01*
X118816429Y-99972857D01*
X119006905Y-100020476D01*
X119102143Y-100068095D01*
X119149762Y-100115714D01*
X119197381Y-100210952D01*
X119197381Y-100306191D01*
X119149762Y-100401429D01*
X119102143Y-100449048D01*
X119006905Y-100496667D01*
X118816429Y-100544286D01*
X118578333Y-100544286D01*
X118387857Y-100496667D01*
X118292619Y-100449048D01*
X118245000Y-100401429D01*
X118197381Y-100306191D01*
X119197381Y-99544286D02*
X118197381Y-99544286D01*
X118816429Y-99449048D02*
X119197381Y-99163333D01*
X118530714Y-99163333D02*
X118911667Y-99544286D01*
X165854143Y-92527381D02*
X165520809Y-92051190D01*
X165282714Y-92527381D02*
X165282714Y-91527381D01*
X165663667Y-91527381D01*
X165758905Y-91575000D01*
X165806524Y-91622619D01*
X165854143Y-91717857D01*
X165854143Y-91860714D01*
X165806524Y-91955952D01*
X165758905Y-92003571D01*
X165663667Y-92051190D01*
X165282714Y-92051190D01*
X166806524Y-92527381D02*
X166235095Y-92527381D01*
X166520809Y-92527381D02*
X166520809Y-91527381D01*
X166425571Y-91670238D01*
X166330333Y-91765476D01*
X166235095Y-91813095D01*
X167758905Y-92527381D02*
X167187476Y-92527381D01*
X167473190Y-92527381D02*
X167473190Y-91527381D01*
X167377952Y-91670238D01*
X167282714Y-91765476D01*
X167187476Y-91813095D01*
X171886667Y-92527381D02*
X171315238Y-92527381D01*
X171600952Y-92527381D02*
X171600952Y-91527381D01*
X171505714Y-91670238D01*
X171410476Y-91765476D01*
X171315238Y-91813095D01*
X172315238Y-92432143D02*
X172362857Y-92479762D01*
X172315238Y-92527381D01*
X172267619Y-92479762D01*
X172315238Y-92432143D01*
X172315238Y-92527381D01*
X173220000Y-91527381D02*
X173029523Y-91527381D01*
X172934285Y-91575000D01*
X172886666Y-91622619D01*
X172791428Y-91765476D01*
X172743809Y-91955952D01*
X172743809Y-92336905D01*
X172791428Y-92432143D01*
X172839047Y-92479762D01*
X172934285Y-92527381D01*
X173124762Y-92527381D01*
X173220000Y-92479762D01*
X173267619Y-92432143D01*
X173315238Y-92336905D01*
X173315238Y-92098810D01*
X173267619Y-92003571D01*
X173220000Y-91955952D01*
X173124762Y-91908333D01*
X172934285Y-91908333D01*
X172839047Y-91955952D01*
X172791428Y-92003571D01*
X172743809Y-92098810D01*
X173743809Y-92527381D02*
X173743809Y-91527381D01*
X173839047Y-92146429D02*
X174124762Y-92527381D01*
X174124762Y-91860714D02*
X173743809Y-92241667D01*
X165854143Y-94940381D02*
X165520809Y-94464190D01*
X165282714Y-94940381D02*
X165282714Y-93940381D01*
X165663667Y-93940381D01*
X165758905Y-93988000D01*
X165806524Y-94035619D01*
X165854143Y-94130857D01*
X165854143Y-94273714D01*
X165806524Y-94368952D01*
X165758905Y-94416571D01*
X165663667Y-94464190D01*
X165282714Y-94464190D01*
X166806524Y-94940381D02*
X166235095Y-94940381D01*
X166520809Y-94940381D02*
X166520809Y-93940381D01*
X166425571Y-94083238D01*
X166330333Y-94178476D01*
X166235095Y-94226095D01*
X167187476Y-94035619D02*
X167235095Y-93988000D01*
X167330333Y-93940381D01*
X167568429Y-93940381D01*
X167663667Y-93988000D01*
X167711286Y-94035619D01*
X167758905Y-94130857D01*
X167758905Y-94226095D01*
X167711286Y-94368952D01*
X167139857Y-94940381D01*
X167758905Y-94940381D01*
X171886667Y-94940381D02*
X171315238Y-94940381D01*
X171600952Y-94940381D02*
X171600952Y-93940381D01*
X171505714Y-94083238D01*
X171410476Y-94178476D01*
X171315238Y-94226095D01*
X172315238Y-94845143D02*
X172362857Y-94892762D01*
X172315238Y-94940381D01*
X172267619Y-94892762D01*
X172315238Y-94845143D01*
X172315238Y-94940381D01*
X173220000Y-93940381D02*
X173029523Y-93940381D01*
X172934285Y-93988000D01*
X172886666Y-94035619D01*
X172791428Y-94178476D01*
X172743809Y-94368952D01*
X172743809Y-94749905D01*
X172791428Y-94845143D01*
X172839047Y-94892762D01*
X172934285Y-94940381D01*
X173124762Y-94940381D01*
X173220000Y-94892762D01*
X173267619Y-94845143D01*
X173315238Y-94749905D01*
X173315238Y-94511810D01*
X173267619Y-94416571D01*
X173220000Y-94368952D01*
X173124762Y-94321333D01*
X172934285Y-94321333D01*
X172839047Y-94368952D01*
X172791428Y-94416571D01*
X172743809Y-94511810D01*
X173743809Y-94940381D02*
X173743809Y-93940381D01*
X173839047Y-94559429D02*
X174124762Y-94940381D01*
X174124762Y-94273714D02*
X173743809Y-94654667D01*
X165854143Y-97480381D02*
X165520809Y-97004190D01*
X165282714Y-97480381D02*
X165282714Y-96480381D01*
X165663667Y-96480381D01*
X165758905Y-96528000D01*
X165806524Y-96575619D01*
X165854143Y-96670857D01*
X165854143Y-96813714D01*
X165806524Y-96908952D01*
X165758905Y-96956571D01*
X165663667Y-97004190D01*
X165282714Y-97004190D01*
X166806524Y-97480381D02*
X166235095Y-97480381D01*
X166520809Y-97480381D02*
X166520809Y-96480381D01*
X166425571Y-96623238D01*
X166330333Y-96718476D01*
X166235095Y-96766095D01*
X167139857Y-96480381D02*
X167758905Y-96480381D01*
X167425571Y-96861333D01*
X167568429Y-96861333D01*
X167663667Y-96908952D01*
X167711286Y-96956571D01*
X167758905Y-97051810D01*
X167758905Y-97289905D01*
X167711286Y-97385143D01*
X167663667Y-97432762D01*
X167568429Y-97480381D01*
X167282714Y-97480381D01*
X167187476Y-97432762D01*
X167139857Y-97385143D01*
X171886667Y-97353381D02*
X171315238Y-97353381D01*
X171600952Y-97353381D02*
X171600952Y-96353381D01*
X171505714Y-96496238D01*
X171410476Y-96591476D01*
X171315238Y-96639095D01*
X172315238Y-97258143D02*
X172362857Y-97305762D01*
X172315238Y-97353381D01*
X172267619Y-97305762D01*
X172315238Y-97258143D01*
X172315238Y-97353381D01*
X173220000Y-96353381D02*
X173029523Y-96353381D01*
X172934285Y-96401000D01*
X172886666Y-96448619D01*
X172791428Y-96591476D01*
X172743809Y-96781952D01*
X172743809Y-97162905D01*
X172791428Y-97258143D01*
X172839047Y-97305762D01*
X172934285Y-97353381D01*
X173124762Y-97353381D01*
X173220000Y-97305762D01*
X173267619Y-97258143D01*
X173315238Y-97162905D01*
X173315238Y-96924810D01*
X173267619Y-96829571D01*
X173220000Y-96781952D01*
X173124762Y-96734333D01*
X172934285Y-96734333D01*
X172839047Y-96781952D01*
X172791428Y-96829571D01*
X172743809Y-96924810D01*
X173743809Y-97353381D02*
X173743809Y-96353381D01*
X173839047Y-96972429D02*
X174124762Y-97353381D01*
X174124762Y-96686714D02*
X173743809Y-97067667D01*
X165854143Y-102179381D02*
X165520809Y-101703190D01*
X165282714Y-102179381D02*
X165282714Y-101179381D01*
X165663667Y-101179381D01*
X165758905Y-101227000D01*
X165806524Y-101274619D01*
X165854143Y-101369857D01*
X165854143Y-101512714D01*
X165806524Y-101607952D01*
X165758905Y-101655571D01*
X165663667Y-101703190D01*
X165282714Y-101703190D01*
X166806524Y-102179381D02*
X166235095Y-102179381D01*
X166520809Y-102179381D02*
X166520809Y-101179381D01*
X166425571Y-101322238D01*
X166330333Y-101417476D01*
X166235095Y-101465095D01*
X167663667Y-101512714D02*
X167663667Y-102179381D01*
X167425571Y-101131762D02*
X167187476Y-101846048D01*
X167806524Y-101846048D01*
X172029524Y-101512714D02*
X172029524Y-102179381D01*
X171791428Y-101131762D02*
X171553333Y-101846048D01*
X172172381Y-101846048D01*
X172553333Y-102179381D02*
X172553333Y-101179381D01*
X172648571Y-101798429D02*
X172934286Y-102179381D01*
X172934286Y-101512714D02*
X172553333Y-101893667D01*
X173267619Y-101179381D02*
X173934286Y-101179381D01*
X173505714Y-102179381D01*
X165854143Y-99766381D02*
X165520809Y-99290190D01*
X165282714Y-99766381D02*
X165282714Y-98766381D01*
X165663667Y-98766381D01*
X165758905Y-98814000D01*
X165806524Y-98861619D01*
X165854143Y-98956857D01*
X165854143Y-99099714D01*
X165806524Y-99194952D01*
X165758905Y-99242571D01*
X165663667Y-99290190D01*
X165282714Y-99290190D01*
X166806524Y-99766381D02*
X166235095Y-99766381D01*
X166520809Y-99766381D02*
X166520809Y-98766381D01*
X166425571Y-98909238D01*
X166330333Y-99004476D01*
X166235095Y-99052095D01*
X167711286Y-98766381D02*
X167235095Y-98766381D01*
X167187476Y-99242571D01*
X167235095Y-99194952D01*
X167330333Y-99147333D01*
X167568429Y-99147333D01*
X167663667Y-99194952D01*
X167711286Y-99242571D01*
X167758905Y-99337810D01*
X167758905Y-99575905D01*
X167711286Y-99671143D01*
X167663667Y-99718762D01*
X167568429Y-99766381D01*
X167330333Y-99766381D01*
X167235095Y-99718762D01*
X167187476Y-99671143D01*
X172029524Y-99099714D02*
X172029524Y-99766381D01*
X171791428Y-98718762D02*
X171553333Y-99433048D01*
X172172381Y-99433048D01*
X172553333Y-99766381D02*
X172553333Y-98766381D01*
X172648571Y-99385429D02*
X172934286Y-99766381D01*
X172934286Y-99099714D02*
X172553333Y-99480667D01*
X173267619Y-98766381D02*
X173934286Y-98766381D01*
X173505714Y-99766381D01*
X120642143Y-95321381D02*
X120308809Y-94845190D01*
X120070714Y-95321381D02*
X120070714Y-94321381D01*
X120451667Y-94321381D01*
X120546905Y-94369000D01*
X120594524Y-94416619D01*
X120642143Y-94511857D01*
X120642143Y-94654714D01*
X120594524Y-94749952D01*
X120546905Y-94797571D01*
X120451667Y-94845190D01*
X120070714Y-94845190D01*
X121594524Y-95321381D02*
X121023095Y-95321381D01*
X121308809Y-95321381D02*
X121308809Y-94321381D01*
X121213571Y-94464238D01*
X121118333Y-94559476D01*
X121023095Y-94607095D01*
X122451667Y-94321381D02*
X122261190Y-94321381D01*
X122165952Y-94369000D01*
X122118333Y-94416619D01*
X122023095Y-94559476D01*
X121975476Y-94749952D01*
X121975476Y-95130905D01*
X122023095Y-95226143D01*
X122070714Y-95273762D01*
X122165952Y-95321381D01*
X122356429Y-95321381D01*
X122451667Y-95273762D01*
X122499286Y-95226143D01*
X122546905Y-95130905D01*
X122546905Y-94892810D01*
X122499286Y-94797571D01*
X122451667Y-94749952D01*
X122356429Y-94702333D01*
X122165952Y-94702333D01*
X122070714Y-94749952D01*
X122023095Y-94797571D01*
X121975476Y-94892810D01*
X120610381Y-101615714D02*
X120610381Y-100949047D01*
X121610381Y-101377619D01*
X120610381Y-100091904D02*
X120610381Y-100568095D01*
X121086571Y-100615714D01*
X121038952Y-100568095D01*
X120991333Y-100472857D01*
X120991333Y-100234761D01*
X121038952Y-100139523D01*
X121086571Y-100091904D01*
X121181810Y-100044285D01*
X121419905Y-100044285D01*
X121515143Y-100091904D01*
X121562762Y-100139523D01*
X121610381Y-100234761D01*
X121610381Y-100472857D01*
X121562762Y-100568095D01*
X121515143Y-100615714D01*
X120610381Y-99425238D02*
X120610381Y-99329999D01*
X120658000Y-99234761D01*
X120705619Y-99187142D01*
X120800857Y-99139523D01*
X120991333Y-99091904D01*
X121229429Y-99091904D01*
X121419905Y-99139523D01*
X121515143Y-99187142D01*
X121562762Y-99234761D01*
X121610381Y-99329999D01*
X121610381Y-99425238D01*
X121562762Y-99520476D01*
X121515143Y-99568095D01*
X121419905Y-99615714D01*
X121229429Y-99663333D01*
X120991333Y-99663333D01*
X120800857Y-99615714D01*
X120705619Y-99568095D01*
X120658000Y-99520476D01*
X120610381Y-99425238D01*
X153860667Y-130579762D02*
X154003524Y-130627381D01*
X154241620Y-130627381D01*
X154336858Y-130579762D01*
X154384477Y-130532143D01*
X154432096Y-130436905D01*
X154432096Y-130341667D01*
X154384477Y-130246429D01*
X154336858Y-130198810D01*
X154241620Y-130151190D01*
X154051143Y-130103571D01*
X153955905Y-130055952D01*
X153908286Y-130008333D01*
X153860667Y-129913095D01*
X153860667Y-129817857D01*
X153908286Y-129722619D01*
X153955905Y-129675000D01*
X154051143Y-129627381D01*
X154289239Y-129627381D01*
X154432096Y-129675000D01*
X154765429Y-129627381D02*
X155003524Y-130627381D01*
X155194001Y-129913095D01*
X155384477Y-130627381D01*
X155622572Y-129627381D01*
X156432096Y-129627381D02*
X156241619Y-129627381D01*
X156146381Y-129675000D01*
X156098762Y-129722619D01*
X156003524Y-129865476D01*
X155955905Y-130055952D01*
X155955905Y-130436905D01*
X156003524Y-130532143D01*
X156051143Y-130579762D01*
X156146381Y-130627381D01*
X156336858Y-130627381D01*
X156432096Y-130579762D01*
X156479715Y-130532143D01*
X156527334Y-130436905D01*
X156527334Y-130198810D01*
X156479715Y-130103571D01*
X156432096Y-130055952D01*
X156336858Y-130008333D01*
X156146381Y-130008333D01*
X156051143Y-130055952D01*
X156003524Y-130103571D01*
X155955905Y-130198810D01*
X137183905Y-121864381D02*
X137183905Y-120864381D01*
X137564858Y-120864381D01*
X137660096Y-120912000D01*
X137707715Y-120959619D01*
X137755334Y-121054857D01*
X137755334Y-121197714D01*
X137707715Y-121292952D01*
X137660096Y-121340571D01*
X137564858Y-121388190D01*
X137183905Y-121388190D01*
X138136286Y-120959619D02*
X138183905Y-120912000D01*
X138279143Y-120864381D01*
X138517239Y-120864381D01*
X138612477Y-120912000D01*
X138660096Y-120959619D01*
X138707715Y-121054857D01*
X138707715Y-121150095D01*
X138660096Y-121292952D01*
X138088667Y-121864381D01*
X138707715Y-121864381D01*
M02*
